#N canvas 351 233 403 353 12;
#N canvas 192 177 1687 875 Trill 1;
#X obj 191 267 s bela_setTrill;
#X text 72 10 Initialise Trill sensor;
#X obj 28 529 s bela_setTrill;
#X text 13 76 [prescaler <sensor_id> <value>(;
#X text 21 98 value betwen 1 and 6;
#X text 17 55 Change sensitivity here;
#X obj 34 503 print;
#X obj 741 6 r bela_trill;
#X obj 751 202 t f f, f 8;
#X obj 749 333 pack, f 8;
#X obj 851 197 t f f, f 8;
#X obj 851 346 pack, f 8;
#X obj 938 197 t f f, f 8;
#X obj 937 376 pack, f 8;
#X obj 1025 197 t f f, f 8;
#X obj 1025 379 pack, f 8;
#X obj 1109 199 t f f, f 8;
#X obj 1109 382 pack, f 8;
#X obj 749 355 s Pad0;
#X obj 850 370 s Pad1;
#X obj 937 400 s Pad2;
#X obj 1025 402 s Pad3;
#X obj 1108 405 s Pad4;
#X obj 1193 200 t f f, f 8;
#X obj 1201 383 pack, f 8;
#X obj 1201 406 s Pad5;
#X obj 20 138 r bela_trillCreated;
#X obj 20 165 print bela_trillCreated;
#X obj 232 191 s bela_setTrill @hv_param;
#X msg 28 471 prescaler pads \$1;
#X obj 28 416 r prescaler;
#X floatatom 28 445 5 0 0 0 - - - 0;
#X obj 769 225 r padThreshold0;
#X obj 751 251 >;
#X obj 852 269 >;
#X obj 936 293 >;
#X obj 1025 294 >;
#X obj 1109 292 >;
#X obj 1199 291 >;
#X obj 870 247 r padThreshold1;
#X obj 954 269 r padThreshold2;
#X obj 1043 243 r padThreshold3;
#X obj 1127 268 r padThreshold4;
#X floatatom 753 146 5 0 0 0 - - - 0;
#X obj 241 27 r initialiseTrill;
#X obj 833 427 change;
#X obj 926 430 change;
#X obj 1016 430 change;
#X obj 1101 432 change;
#X obj 1192 430 change;
#X obj 751 300 moses 1;
#X obj 852 316 moses 1;
#X obj 936 347 moses 1;
#X obj 1025 342 moses 1;
#X obj 1109 342 moses 1;
#X obj 1201 339 moses 1;
#X obj 739 463 print pad0;
#X obj 831 465 print pad1;
#X obj 923 469 print pad2;
#X obj 1014 466 print pad3;
#X obj 1099 467 print pad4;
#X obj 1191 464 print pad5;
#X obj 751 276 change;
#X obj 852 292 change;
#X obj 936 317 change;
#X obj 1025 317 change;
#X obj 1109 317 change;
#X obj 1202 315 change;
#X obj 751 99 spigot;
#X obj 801 99 tgl 19 1 empty debugCraft DebugCraft 0 -10 0 12 #fcfcfc #000000 #000000 0 1;
#X obj 751 122 print craft;
#X obj 977 803 print root;
#X msg 191 224 new pads 1 CRAFT \, prescaler pads 2 \, threshold pads 0.05 \, scanSettings pads 0 12;
#X obj 176 533 s bela_setTrill;
#X obj 182 507 print;
#X floatatom 176 449 5 0 0 0 - - - 0;
#X obj 176 420 r threshold;
#X msg 176 475 threshold pads \$1;
#X obj 241 53 t b b b, f 28;
#X obj 434 116 s bela_setTrill @hv_param;
#X msg 434 91 new hex 1 HEX;
#X obj 406 408 route hex;
#X obj 406 384 r bela_trill;
#X obj 406 432 unpack f f f;
#X obj 446 457 * 10;
#X obj 446 481 i;
#X obj 424 505 moses 1;
#X obj 446 622 s key;
#X obj 611 412 print Pad0;
#X obj 741 32 route pads, f 11;
#X obj 717 636 r bela_trill;
#X obj 724 663 route bar1 bar2 bar3 bar4;
#X obj 626 797 print 1;
#X obj 722 799 print 2;
#X obj 794 802 print 3;
#X obj 864 797 print 4;
#X msg 238 150 new bar1 1 BAR 32 \, new bar2 1 BAR 33 \, new bar3 1 BAR 34 \, new bar4 1 BAR 35;
#X obj 623 719 change;
#X obj 724 725 change;
#X obj 797 719 change;
#X obj 898 725 change;
#X obj 733 416 change;
#X obj 1302 205 t f f, f 8;
#X obj 1301 378 pack, f 8;
#X obj 1418 207 t f f, f 8;
#X obj 1412 390 pack, f 8;
#X obj 1301 288 >;
#X obj 1410 298 >;
#X obj 1293 428 change;
#X obj 1403 437 change;
#X obj 1301 338 moses 1;
#X obj 1412 346 moses 1;
#X obj 1301 313 change;
#X obj 1413 322 change;
#X obj 722 175 unpack f f f f f f f f, f 102;
#X obj 1212 240 r padThreshold5;
#X obj 1300 401 s Pad6;
#X obj 1313 264 r padThreshold6;
#X obj 1434 250 r padThreshold7;
#X obj 1293 464 print pad6;
#X obj 1403 467 print pad7;
#X obj 1412 413 s Pad7;
#X connect 7 0 89 0;
#X connect 8 0 33 0;
#X connect 8 1 9 1;
#X connect 9 0 18 0;
#X connect 10 0 34 0;
#X connect 10 1 11 1;
#X connect 11 0 19 0;
#X connect 12 0 35 0;
#X connect 12 0 46 0;
#X connect 12 1 13 1;
#X connect 13 0 20 0;
#X connect 14 0 36 0;
#X connect 14 0 47 0;
#X connect 14 1 15 1;
#X connect 15 0 21 0;
#X connect 16 0 37 0;
#X connect 16 1 17 1;
#X connect 17 0 22 0;
#X connect 23 0 38 0;
#X connect 23 0 49 0;
#X connect 23 1 24 1;
#X connect 24 0 25 0;
#X connect 26 0 27 0;
#X connect 29 0 2 0;
#X connect 29 0 6 0;
#X connect 30 0 31 0;
#X connect 31 0 29 0;
#X connect 32 0 33 1;
#X connect 33 0 62 0;
#X connect 34 0 63 0;
#X connect 35 0 64 0;
#X connect 36 0 65 0;
#X connect 37 0 66 0;
#X connect 38 0 67 0;
#X connect 39 0 34 1;
#X connect 40 0 35 1;
#X connect 41 0 36 1;
#X connect 42 0 37 1;
#X connect 43 0 114 0;
#X connect 44 0 78 0;
#X connect 45 0 57 0;
#X connect 46 0 58 0;
#X connect 47 0 59 0;
#X connect 48 0 60 0;
#X connect 49 0 61 0;
#X connect 50 1 9 0;
#X connect 51 1 11 0;
#X connect 52 1 13 0;
#X connect 53 1 15 0;
#X connect 54 1 17 0;
#X connect 55 1 24 0;
#X connect 62 0 50 0;
#X connect 63 0 51 0;
#X connect 64 0 52 0;
#X connect 65 0 53 0;
#X connect 66 0 54 0;
#X connect 67 0 55 0;
#X connect 68 0 70 0;
#X connect 69 0 68 1;
#X connect 72 0 0 0;
#X connect 75 0 77 0;
#X connect 76 0 75 0;
#X connect 77 0 73 0;
#X connect 77 0 74 0;
#X connect 78 0 72 0;
#X connect 78 1 96 0;
#X connect 80 0 79 0;
#X connect 81 0 83 0;
#X connect 82 0 81 0;
#X connect 83 1 84 0;
#X connect 84 0 85 0;
#X connect 85 0 86 0;
#X connect 86 1 87 0;
#X connect 89 0 68 0;
#X connect 89 0 114 0;
#X connect 90 0 91 0;
#X connect 91 0 97 0;
#X connect 91 1 98 0;
#X connect 91 2 99 0;
#X connect 91 3 100 0;
#X connect 96 0 28 0;
#X connect 97 0 92 0;
#X connect 98 0 93 0;
#X connect 99 0 94 0;
#X connect 100 0 95 0;
#X connect 101 0 56 0;
#X connect 102 0 106 0;
#X connect 102 1 103 1;
#X connect 103 0 116 0;
#X connect 104 0 107 0;
#X connect 104 0 109 0;
#X connect 104 1 105 1;
#X connect 105 0 121 0;
#X connect 106 0 112 0;
#X connect 107 0 113 0;
#X connect 108 0 119 0;
#X connect 109 0 120 0;
#X connect 110 1 103 0;
#X connect 111 1 105 0;
#X connect 112 0 110 0;
#X connect 113 0 111 0;
#X connect 114 0 8 0;
#X connect 114 0 101 0;
#X connect 114 1 10 0;
#X connect 114 1 45 0;
#X connect 114 2 12 0;
#X connect 114 3 14 0;
#X connect 114 4 16 0;
#X connect 114 4 48 0;
#X connect 114 5 23 0;
#X connect 114 6 102 0;
#X connect 114 6 108 0;
#X connect 114 7 104 0;
#X connect 115 0 38 1;
#X connect 117 0 106 1;
#X connect 118 0 107 1;
#X restore 33 36 pd Trill;
#X obj 33 59 presets;
#X obj 200 91 bng 40 250 50 0 led_6 empty 6 13 20 0 24 #c7c6ff #000000 #000000;
#X obj 194 200 bng 40 250 50 0 led_1 empty 1 13 20 0 24 #c7c6ff #000000 #000000;
#X obj 167 147 bng 40 250 50 0 led_2 empty 2 13 20 0 24 #c7c6ff #000000 #000000;
#X obj 146 91 bng 40 250 50 0 led_3 empty 3 13 20 0 24 #c7c6ff #000000 #000000;
#X obj 181 33 bng 40 250 50 0 led_5 empty 5 13 20 0 24 #c7c6ff #000000 #000000;
#X obj 225 256 bng 40 250 50 0 led_0 empty 0 13 20 0 24 #c7c6ff #000000 #000000;
#X obj 125 34 bng 40 250 50 0 led_4 empty 4 13 20 0 24 #c7c6ff #000000 #000000;
#N canvas 648 348 1049 704 Neopixel 1;
#X obj 328 32 LedColors;
#X listbox 333 10 13 0 0 0 - - - 0;
#X listbox 328 53 15 0 0 0 - - - 0;
#X floatatom 364 75 3 0 0 0 - - - 0;
#X floatatom 328 75 3 0 0 0 - - - 0;
#X floatatom 400 75 3 0 0 0 - - - 0;
#X obj 22 27 nbx 5 17 -1e+37 1e+37 0 1 empty LedsOffset LedsOffset 0 -10 0 12 #fcfcfc #000000 #000000 0 256;
#X obj 90 27 nbx 5 17 -1e+37 1e+37 0 1 empty LedsBrightness LedsBrightness 0 -10 0 12 #fcfcfc #000000 #000000 2 256;
#X obj 292 96 pack f f f f, f 16;
#X floatatom 292 9 5 0 23 0 - - - 0;
#X obj 23 50 LedAddress;
#X floatatom 514 89 5 0 0 0 - - - 0;
#X msg 515 138 1 0 1;
#X obj 515 184 f;
#X obj 515 161 t b a;
#X obj 515 207 list append;
#X obj 466 11 r background;
#X obj 466 35 bng 19 250 50 0 empty empty empty 0 -10 0 12 #fcfcfc #000000 #000000;
#X msg 291 118 \; background 1 \; Led\$1 \$2 \$3 \$4 \; UpdateLeds 1 \;;
#X msg 515 231 \; Led\$1 \$2 \$3 \$4 \;;
#X obj 514 114 t b f;
#X msg 505 400 \; background 1 \; Led\$1 0 0 1 \; UpdateLeds 1 \;;
#X msg 440 332 0;
#X msg 494 331 1;
#X msg 551 331 2;
#X msg 608 336 3;
#X msg 662 336 4;
#X msg 716 335 5;
#X msg 776 337 6;
#X msg 830 336 7;
#X obj 439 308 r Pad0;
#X obj 494 308 r Pad1;
#X obj 550 308 r Pad2;
#X obj 608 309 r Pad3;
#X obj 663 309 r Pad4;
#X obj 719 309 r Pad5;
#X obj 777 310 r Pad6;
#X obj 833 310 r Pad7;
#X obj 78 304 spigot;
#X obj 117 281 tgl 19 1 empty debugNeoPixel empty 0 -10 0 12 #fcfcfc #000000 #000000 0 1;
#X obj 78 327 print NeoPixel;
#X obj 98 248 netsend -u -b;
#X obj 99 201 loadbang;
#X msg 98 223 connect localhost 7562;
#X obj 76 176 oscformat leds setRaw rgb;
#X msg 181 200 disconnect;
#X msg 678 123 \; AllLeds 0 0 0 \; UpdateLeds 1 \;;
#X obj 682 97 r LedsOff;
#X obj 471 61 cyclone/uzi 7 0;
#X connect 0 0 2 0;
#X connect 0 1 4 0;
#X connect 0 2 3 0;
#X connect 0 3 5 0;
#X connect 1 0 0 0;
#X connect 3 0 8 2;
#X connect 4 0 8 1;
#X connect 5 0 8 3;
#X connect 6 0 10 0;
#X connect 7 0 10 1;
#X connect 8 0 18 0;
#X connect 9 0 8 0;
#X connect 10 0 44 0;
#X connect 10 0 38 0;
#X connect 11 0 20 0;
#X connect 12 0 14 0;
#X connect 13 0 15 0;
#X connect 14 0 13 0;
#X connect 14 1 15 1;
#X connect 15 0 19 0;
#X connect 16 0 17 0;
#X connect 17 0 48 0;
#X connect 20 0 12 0;
#X connect 20 1 13 1;
#X connect 22 0 21 0;
#X connect 23 0 21 0;
#X connect 24 0 21 0;
#X connect 25 0 21 0;
#X connect 26 0 21 0;
#X connect 27 0 21 0;
#X connect 28 0 21 0;
#X connect 29 0 21 0;
#X connect 30 0 22 0;
#X connect 31 0 23 0;
#X connect 32 0 24 0;
#X connect 33 0 25 0;
#X connect 34 0 26 0;
#X connect 35 0 27 0;
#X connect 36 0 28 0;
#X connect 37 0 29 0;
#X connect 38 0 40 0;
#X connect 39 0 38 1;
#X connect 42 0 43 0;
#X connect 43 0 41 0;
#X connect 44 0 41 0;
#X connect 45 0 41 0;
#X connect 47 0 46 0;
#X connect 48 2 11 0;
#X restore 32 82 pd Neopixel;
#X obj 286 54 bng 40 250 50 0 LedsOff empty Leds\ Off 0 -10 0 12 #fcfcfc #000000 #000000;
