#N canvas 2 28 905 490 12;
#N canvas 674 568 1086 323 network 1;
#X obj 40 38 r toNetsend;
#X obj 49 63 loadbang;
#X floatatom 415 43 5 0 6 0 - prescaler - 0;
#X obj 415 90 s toNetsend;
#X msg 415 66 send prescaler \$1;
#X floatatom 545 43 5 0 0 0 - padThreshold0 - 0;
#X obj 545 90 s toNetsend;
#X floatatom 702 43 5 0 0 0 - padThreshold1 - 0;
#X obj 702 90 s toNetsend;
#X msg 545 66 send padThreshold0 \$1;
#X msg 702 66 send padThreshold1 \$1;
#X msg 240 66 send reload;
#X obj 240 90 s toNetsend;
#X obj 327 89 s toNetsend;
#X msg 327 65 send save;
#X floatatom 545 114 5 0 0 0 - padThreshold2 - 0;
#X obj 545 160 s toNetsend;
#X floatatom 702 114 5 0 0 0 - padThreshold3 - 0;
#X obj 702 160 s toNetsend;
#X msg 545 137 send padThreshold2 \$1;
#X msg 702 137 send padThreshold3 \$1;
#X floatatom 546 185 5 0 0 0 - padThreshold4 - 0;
#X obj 546 232 s toNetsend;
#X floatatom 703 185 5 0 0 0 - padThreshold5 - 0;
#X obj 703 232 s toNetsend;
#X msg 545 208 send padThreshold4 \$1;
#X msg 703 208 send padThreshold5 \$1;
#X msg 49 116 connect bela.local 7561;
#X msg 98 196 disconnect;
#X obj 240 42 r reload;
#X obj 327 41 r save;
#X obj 93 77 r connectBela;
#X obj 57 143 r connectLocalhost;
#X msg 56 167 connect localhost 7561;
#X obj 41 232 netsend;
#X msg 240 153 send reload;
#X obj 240 177 s toNetsend;
#X obj 345 176 s toNetsend;
#X msg 345 152 send save;
#X obj 345 128 r save;
#X obj 240 129 r connectBela;
#X obj 62 90 bng 19 250 50 0 empty empty empty 0 -10 0 12 #fcfcfc #000000 #000000;
#X connect 0 0 34 0;
#X connect 1 0 27 0;
#X connect 2 0 4 0;
#X connect 4 0 3 0;
#X connect 5 0 9 0;
#X connect 7 0 10 0;
#X connect 9 0 6 0;
#X connect 10 0 8 0;
#X connect 11 0 12 0;
#X connect 14 0 13 0;
#X connect 15 0 19 0;
#X connect 17 0 20 0;
#X connect 19 0 16 0;
#X connect 20 0 18 0;
#X connect 21 0 25 0;
#X connect 23 0 26 0;
#X connect 25 0 22 0;
#X connect 26 0 24 0;
#X connect 27 0 34 0;
#X connect 28 0 34 0;
#X connect 29 0 11 0;
#X connect 30 0 14 0;
#X connect 31 0 41 0;
#X connect 32 0 33 0;
#X connect 33 0 34 0;
#X connect 35 0 36 0;
#X connect 38 0 37 0;
#X connect 39 0 38 0;
#X connect 40 0 35 0;
#X connect 41 0 27 0;
#X restore 15 14 pd network;
#X obj 140 190 nbx 2 40 0 6 0 1 prescaler empty Prescaler 0 -10 0 20 #bbbbbb #000000 #553512 3 256;
#X obj 291 51 nbx 4 40 0 1 0 1 padThreshold0 empty padThreshold0 0 -10 0 20 #bbbbbb #000000 #553512 0.27 256;
#X obj 291 119 nbx 4 40 0 1 0 1 padThreshold1 empty padThreshold1 0 -10 0 20 #bbbbbb #000000 #553512 0.2 256;
#X obj 291 187 nbx 4 40 0 1 0 1 padThreshold2 empty padThreshold2 0 -10 0 20 #bbbbbb #000000 #553512 1 256;
#X obj 478 51 nbx 4 40 0 1 0 1 padThreshold3 empty padThreshold3 0 -10 0 20 #bbbbbb #000000 #553512 0 256;
#X obj 478 120 nbx 4 40 0 1 0 1 padThreshold4 empty padThreshold4 0 -10 0 20 #bbbbbb #000000 #553512 0 256;
#X obj 478 189 nbx 4 40 0 1 0 1 padThreshold5 empty padThreshold5 0 -10 0 20 #bbbbbb #000000 #553512 0 256;
#X obj 294 272 bng 40 250 50 0 reload empty Reload 0 -10 0 12 #fcfcfc #000000 #000000;
#X obj 341 272 bng 40 250 50 0 save empty Save 0 -10 0 12 #fcfcfc #000000 #000000;
#X obj 481 271 bng 40 250 50 0 connectBela empty Connect\ to\ Bela 0 -10 0 12 #fcfcfc #000000 #000000;
#X obj 481 392 bng 40 250 50 0 disconnect empty Disconnect 0 -10 0 12 #fcfcfc #000000 #000000;
#X obj 482 332 bng 40 250 50 0 connectLocalhost empty Connect\ to\ Localhost 0 -10 0 12 #fcfcfc #000000 #000000;
