#N canvas 63 31 1239 811 12;
#X obj 223 321 Led 0;
#X obj 223 376 pack f f f f f f f f f;
#X listbox 223 443 49 0 0 0 - - - 0;
#X obj 88 522 pack f f;
#X floatatom 49 460 5 0 0 0 - - - 0;
#X obj 99 495 t b f;
#X obj 223 420 cyclone/zl join;
#X obj 293 398 t b a;
#X obj 267 343 t b f;
#X obj 313 344 t b f;
#X obj 267 320 Led 1;
#X obj 313 320 Led 2;
#X obj 431 346 t b f;
#X obj 476 346 t b f;
#X obj 386 323 Led 3;
#X obj 431 323 Led 4;
#X obj 477 321 Led 5;
#X obj 88 574 outlet;
#X obj 49 388 inlet;
#X obj 99 466 inlet;
#X obj 88 413 r UpdateLeds;
#X obj 88 438 bng 19 250 50 0 empty empty empty 0 -10 0 12 #fcfcfc #000000 #000000;
#X obj 520 321 Led 6;
#X obj 88 549 cyclone/zl join;
#X obj 386 376 pack f f f f f f f f f f f f;
#X obj 521 345 t b f;
#X connect 0 0 1 0;
#X connect 0 1 1 1;
#X connect 0 2 1 2;
#X connect 1 0 6 0;
#X connect 2 0 23 1;
#X connect 3 0 23 0;
#X connect 4 0 3 0;
#X connect 5 0 3 0;
#X connect 5 1 3 1;
#X connect 6 0 2 0;
#X connect 7 0 6 0;
#X connect 7 1 6 1;
#X connect 8 0 1 0;
#X connect 8 1 1 3;
#X connect 9 0 1 0;
#X connect 9 1 1 6;
#X connect 10 0 8 0;
#X connect 10 1 1 4;
#X connect 10 2 1 5;
#X connect 11 0 9 0;
#X connect 11 1 1 7;
#X connect 11 2 1 8;
#X connect 12 0 24 0;
#X connect 12 1 24 3;
#X connect 13 0 24 0;
#X connect 13 1 24 6;
#X connect 14 0 24 0;
#X connect 14 1 24 1;
#X connect 14 2 24 2;
#X connect 15 0 12 0;
#X connect 15 1 24 4;
#X connect 15 2 24 5;
#X connect 16 0 13 0;
#X connect 16 1 24 7;
#X connect 16 2 24 8;
#X connect 18 0 4 0;
#X connect 19 0 5 0;
#X connect 20 0 21 0;
#X connect 21 0 3 0;
#X connect 22 0 25 0;
#X connect 22 1 24 10;
#X connect 22 2 24 11;
#X connect 23 0 17 0;
#X connect 24 0 7 0;
#X connect 25 0 24 0;
#X connect 25 1 24 9;
