#N canvas 11 240 1387 811 12;
#X obj 187 242 Led 0;
#X listbox 225 573 74 0 0 0 - - - 0;
#X obj 88 522 pack f f;
#X floatatom 49 460 5 0 0 0 - - - 0;
#X obj 99 495 t b f;
#X obj 244 288 t b f;
#X obj 290 289 t b f;
#X obj 244 265 Led 1;
#X obj 290 265 Led 2;
#X obj 384 282 t b f;
#X obj 429 282 t b f;
#X obj 339 259 Led 3;
#X obj 384 259 Led 4;
#X obj 430 257 Led 5;
#X obj 88 574 outlet;
#X obj 49 388 inlet;
#X obj 99 466 inlet;
#X obj 88 413 r UpdateLeds;
#X obj 88 438 bng 19 250 50 0 empty empty empty 0 -10 0 12 #fcfcfc #000000 #000000;
#X obj 475 258 Led 6;
#X obj 88 549 cyclone/zl join;
#X obj 476 282 t b f;
#X obj 338 284 t b f;
#X obj 575 279 t b f;
#X obj 620 279 t b f;
#X obj 525 193 Led 3;
#X obj 575 256 Led 4;
#X obj 621 254 Led 5;
#X obj 664 254 Led 6;
#X obj 665 278 t b f;
#X obj 524 218 t b f;
#X obj 223 450 pack f f f f f f f f f f f f f f f f f f f f f f f f f f f f f f f f, f 68;
#X obj 815 212 Led 1;
#X obj 738 121 Led 2;
#X obj 787 115 Led 3;
#X obj 832 115 Led 4;
#X obj 878 113 Led 5;
#X obj 923 114 Led 6;
#X obj 973 49 Led 3;
#X obj 1023 112 Led 4;
#X obj 1069 110 Led 5;
#X obj 1112 110 Led 6;
#X obj 972 74 t b f;
#X listbox 838 590 90 0 0 0 - - - 0;
#X obj 796 332 r UpdateLeds;
#X obj 852 481 list;
#X obj 898 552 print list;
#X obj 850 448 list prepend;
#X obj 828 516 list;
#X obj 796 356 t b b;
#X obj 915 219 LedR 1;
#X obj 963 219 LedR 2;
#X obj 1011 220 LedR 3;
#X obj 1060 220 LedR 4;
#X connect 0 0 31 0;
#X connect 0 1 31 1;
#X connect 0 2 31 2;
#X connect 1 0 20 1;
#X connect 2 0 20 0;
#X connect 3 0 2 0;
#X connect 4 0 2 0;
#X connect 4 1 2 1;
#X connect 5 0 31 0;
#X connect 5 1 31 3;
#X connect 6 0 31 0;
#X connect 6 1 31 6;
#X connect 7 0 5 0;
#X connect 7 1 31 4;
#X connect 7 2 31 5;
#X connect 8 0 6 0;
#X connect 8 1 31 7;
#X connect 8 2 31 8;
#X connect 9 0 31 0;
#X connect 9 1 31 12;
#X connect 10 0 31 0;
#X connect 10 1 31 15;
#X connect 11 0 22 0;
#X connect 11 1 31 10;
#X connect 11 2 31 11;
#X connect 12 0 9 0;
#X connect 12 1 31 13;
#X connect 12 2 31 14;
#X connect 13 0 10 0;
#X connect 13 1 31 16;
#X connect 13 2 31 17;
#X connect 15 0 3 0;
#X connect 16 0 4 0;
#X connect 17 0 18 0;
#X connect 18 0 2 0;
#X connect 19 0 21 0;
#X connect 19 1 31 19;
#X connect 19 2 31 20;
#X connect 20 0 14 0;
#X connect 21 0 31 0;
#X connect 21 1 31 18;
#X connect 22 0 31 0;
#X connect 22 1 31 9;
#X connect 23 0 31 0;
#X connect 24 0 31 0;
#X connect 25 0 30 0;
#X connect 26 0 23 0;
#X connect 27 0 24 0;
#X connect 28 0 29 0;
#X connect 30 0 31 0;
#X connect 31 0 1 0;
#X connect 38 0 42 0;
#X connect 44 0 49 0;
#X connect 45 0 47 1;
#X connect 45 0 48 1;
#X connect 47 0 45 0;
#X connect 48 0 46 0;
#X connect 48 0 43 0;
#X connect 49 0 47 1;
#X connect 49 1 48 0;
#X connect 50 0 47 0;
#X connect 51 0 47 0;
#X connect 52 0 47 0;
#X connect 53 0 47 0;
