#N canvas 275 175 1387 811 12;
#X obj 202 389 Led 0;
#X listbox 225 573 74 0 0 0 - - - 0;
#X obj 88 522 pack f f;
#X floatatom 49 460 5 0 0 0 - - - 0;
#X obj 99 495 t b f;
#X obj 244 413 t b f;
#X obj 290 413 t b f;
#X obj 244 389 Led 1;
#X obj 290 389 Led 2;
#X obj 384 413 t b f;
#X obj 429 413 t b f;
#X obj 339 389 Led 3;
#X obj 384 389 Led 4;
#X obj 430 389 Led 5;
#X obj 87 626 outlet;
#X obj 49 388 inlet;
#X obj 99 466 inlet;
#X obj 88 413 r UpdateLeds;
#X obj 88 438 bng 19 250 50 0 empty empty empty 0 -10 0 12 #fcfcfc #000000 #000000;
#X obj 475 389 Led 6;
#X obj 88 549 cyclone/zl join;
#X obj 476 413 t b f;
#X obj 338 413 t b f;
#X listbox 762 653 90 0 0 0 - - - 0;
#X obj 751 490 r UpdateLeds;
#X obj 804 559 list;
#X obj 789 613 print list;
#X obj 802 526 list prepend;
#X obj 775 585 list;
#X obj 751 514 t b b;
#X obj 223 450 pack f f f f f f f f f f f f f f f f f f f f f, f 41;
#X obj 49 30 Led 7;
#X obj 102 30 Led 8;
#X obj 182 30 Led 9;
#X obj 245 30 Led 10;
#X obj 49 56 t b f;
#X obj 102 56 t b f;
#X obj 182 56 t b f;
#X obj 245 56 t b f;
#X listbox 84 190 30 0 0 0 - - - 0;
#X obj 638 -30 r be1;
#X obj 681 -30 r be2;
#X obj 629 127 r be3;
#X obj 672 127 r be4;
#X obj 638 18 bng 19 250 50 0 empty empty empty 0 -10 0 12 #fcfcfc #000000 #000000;
#X obj 681 18 bng 19 250 50 0 empty empty empty 0 -10 0 12 #fcfcfc #000000 #000000;
#X obj 629 151 bng 19 250 50 0 empty empty empty 0 -10 0 12 #fcfcfc #000000 #000000;
#X obj 672 151 bng 19 250 50 0 empty empty empty 0 -10 0 12 #fcfcfc #000000 #000000;
#X msg 681 46 \; Led7 0 0 0 \; Led8 1 1 1 \; Led9 0 0 0 \; Led10 0 0 0 \;;
#X msg 577 184 \; Led7 0 0 0 \; Led8 0 0 0 \; Led9 1 1 1 \; Led10 0 0 0 \;;
#X obj 84 216 s outMetro;
#X obj 85 94 pack f f f f f f f f f f f f;
#X obj 84 158 list prepend;
#X msg 49 116 7 10;
#X obj 115 592 r outMetro;
#X msg 700 184 \; Led7 0 0 0 \; Led8 0 0 0 \; Led9 0 0 0 \; Led10 1 1 1 \;;
#X msg 558 46 \; Led7 1 2 1 \; Led8 0 0 0 \; Led9 0 0 0 \; Led10 0 0 0 \;;
#X connect 0 0 30 0;
#X connect 0 1 30 1;
#X connect 0 2 30 2;
#X connect 1 0 20 1;
#X connect 2 0 20 0;
#X connect 3 0 2 0;
#X connect 4 0 2 0;
#X connect 4 1 2 1;
#X connect 5 0 30 0;
#X connect 5 1 30 3;
#X connect 6 0 30 0;
#X connect 6 1 30 6;
#X connect 7 0 5 0;
#X connect 7 1 30 4;
#X connect 7 2 30 5;
#X connect 8 0 6 0;
#X connect 8 1 30 7;
#X connect 8 2 30 8;
#X connect 9 0 30 0;
#X connect 9 1 30 12;
#X connect 10 0 30 0;
#X connect 10 1 30 15;
#X connect 11 0 22 0;
#X connect 11 1 30 10;
#X connect 11 2 30 11;
#X connect 12 0 9 0;
#X connect 12 1 30 13;
#X connect 12 2 30 14;
#X connect 13 0 10 0;
#X connect 13 1 30 16;
#X connect 13 2 30 17;
#X connect 15 0 3 0;
#X connect 16 0 4 0;
#X connect 17 0 18 0;
#X connect 18 0 2 0;
#X connect 19 0 21 0;
#X connect 19 1 30 19;
#X connect 19 2 30 20;
#X connect 20 0 14 0;
#X connect 21 0 30 0;
#X connect 21 1 30 18;
#X connect 22 0 30 0;
#X connect 22 1 30 9;
#X connect 24 0 29 0;
#X connect 25 0 27 1;
#X connect 25 0 28 1;
#X connect 27 0 25 0;
#X connect 28 0 26 0;
#X connect 28 0 23 0;
#X connect 29 1 28 0;
#X connect 30 0 1 0;
#X connect 31 0 35 0;
#X connect 31 1 51 1;
#X connect 31 2 51 2;
#X connect 32 0 36 0;
#X connect 32 1 51 4;
#X connect 32 2 51 5;
#X connect 33 0 37 0;
#X connect 33 1 51 7;
#X connect 33 2 51 8;
#X connect 34 0 38 0;
#X connect 34 1 51 10;
#X connect 34 2 51 11;
#X connect 35 0 51 0;
#X connect 35 0 53 0;
#X connect 35 1 51 0;
#X connect 36 0 51 0;
#X connect 36 1 51 3;
#X connect 37 0 51 0;
#X connect 37 1 51 6;
#X connect 38 0 51 0;
#X connect 38 1 51 9;
#X connect 39 0 50 0;
#X connect 40 0 44 0;
#X connect 41 0 45 0;
#X connect 42 0 46 0;
#X connect 43 0 47 0;
#X connect 44 0 56 0;
#X connect 45 0 48 0;
#X connect 46 0 49 0;
#X connect 47 0 55 0;
#X connect 51 0 52 0;
#X connect 52 0 39 0;
#X connect 53 0 52 1;
#X connect 54 0 14 0;
