#N canvas 130 112 912 585 12;
#X obj 308 321 text search \$0-leds;
#X obj 307 347 text get \$0-leds;
#X obj 307 378 list trim;
#X obj 307 405 unpack s f f f;
#X listbox 308 296 20 0 0 0 - - - 0;
#X obj 556 274 text define \$0-leds;
#X msg 556 252 read LedColors.txt;
#X obj 308 249 inlet;
#X obj 308 273 symbol \$1;
#X obj 252 446 outlet;
#X obj 309 446 outlet;
#X obj 365 447 outlet;
#X obj 422 447 outlet;
#X obj 482 388 print;
#X obj 555 230 loadbang;
#X connect 0 0 1 0;
#X connect 1 0 2 0;
#X connect 1 0 13 0;
#X connect 2 0 3 0;
#X connect 3 0 9 0;
#X connect 3 1 10 0;
#X connect 3 2 11 0;
#X connect 3 3 12 0;
#X connect 4 0 0 0;
#X connect 6 0 5 0;
#X connect 7 0 8 0;
#X connect 8 0 4 0;
#X connect 14 0 6 0;
