#N canvas 315 77 848 822 12;
#X obj 101 13 inlet;
#X obj 128 350 pack f f f f f f f f f f f;
#X obj 38 13 loadbang;
#X floatatom 38 70 5 0 0 0 - - - 0;
#X obj 129 312 t b f;
#X obj 37 43 f \$1;
#X obj 127 419 outlet;
#X obj 135 384 oscformat leds setRaw rgb;
#X floatatom 320 239 5 0 0 0 - - - 0;
#X floatatom 239 239 5 0 0 0 - - - 0;
#X floatatom 279 239 5 0 0 0 - - - 0;
#X obj 640 170 text define -k \$0-leds;
#A set red 1 0 0 \; blue 0 0 1 \; green 0 1 0 \; magenta 1 0 1 \; yellow 1 1 0 \; cyan 0 1 1 \; white 1 1 1 \;;
#X listbox 197 54 20 0 0 0 - - - 0;
#X obj 199 90 text search \$0-leds;
#X obj 206 126 text get \$0-leds;
#X obj 205 151 list trim;
#X obj 197 176 unpack s f f f;
#X listbox 160 232 8 0 0 0 - - - 0;
#X connect 0 0 4 0;
#X connect 1 0 7 0;
#X connect 2 0 5 0;
#X connect 3 0 1 0;
#X connect 4 0 1 0;
#X connect 4 1 1 1;
#X connect 5 0 3 0;
#X connect 7 0 6 0;
#X connect 8 0 1 4;
#X connect 8 0 1 7;
#X connect 8 0 1 10;
#X connect 9 0 1 2;
#X connect 9 0 1 5;
#X connect 9 0 1 8;
#X connect 10 0 1 3;
#X connect 10 0 1 6;
#X connect 10 0 1 9;
#X connect 12 0 13 0;
#X connect 13 0 14 0;
#X connect 14 0 15 0;
#X connect 15 0 16 0;
#X connect 16 0 17 0;
#X connect 16 1 9 0;
#X connect 16 2 10 0;
#X connect 16 3 8 0;
