#N canvas 604 290 1258 751 12;
#N canvas 235 107 954 724 guts 0;
#X obj 325 48 LedColors;
#X listbox 330 26 13 0 0 0 - - - 0;
#X listbox 325 69 15 0 0 0 - - - 0;
#X floatatom 361 91 3 0 0 0 - - - 0;
#X floatatom 325 91 3 0 0 0 - - - 0;
#X floatatom 397 91 3 0 0 0 - - - 0;
#X obj 289 112 pack f f f f, f 16;
#X floatatom 289 25 5 0 23 0 - - - 0;
#X floatatom 511 105 5 0 0 0 - - - 0;
#X msg 512 154 1 0 1;
#X obj 512 200 f;
#X obj 512 177 t b a;
#X obj 512 223 list append;
#X obj 463 27 r background;
#X obj 463 51 bng 19 250 50 0 empty empty empty 0 -10 0 12 #fcfcfc #000000 #000000;
#X msg 288 134 \; background 1 \; Led\$1 \$2 \$3 \$4 \; UpdateLeds 1 \;;
#X msg 512 247 \; Led\$1 \$2 \$3 \$4 \;;
#X obj 511 130 t b f;
#X obj 465 77 uzi 7 0;
#X obj 436 324 r led_0;
#X obj 491 324 r led_1;
#X obj 547 324 r led_2;
#X msg 502 416 \; background 1 \; Led\$1 0 0 1 \; UpdateLeds 1 \;;
#X msg 437 348 0;
#X msg 491 347 1;
#X msg 548 347 2;
#X msg 605 352 3;
#X msg 659 352 4;
#X msg 713 351 5;
#X msg 773 353 6;
#X msg 827 352 7;
#X obj 605 325 r led_3;
#X obj 660 325 r led_4;
#X obj 716 325 r led_5;
#X obj 774 326 r led_6;
#X obj 830 326 r led_7;
#X obj 20 89 oscformat leds setRaw rgb;
#X obj 20 113 s oscFormatRGB;
#X obj 19 43 nbx 5 17 -1e+37 1e+37 0 1 empty LedsOffset LedsOffset 0 -10 0 12 #fcfcfc #000000 #000000 0 256;
#X obj 87 43 nbx 5 17 -1e+37 1e+37 0 1 empty LedsBrightness LedsBrightness 0 -10 0 12 #fcfcfc #000000 #000000 2 256;
#X obj 20 66 LedAddress;
#X msg 600 58 \; AllLeds 0 0 0 \; UpdateLeds 1 \;;
#X obj 604 32 r LedsOff;
#X obj 42 320 netsend -u -b;
#X msg 41 217 connect bela.local 7562, f 24;
#X obj 41 193 loadbang;
#X obj 42 344 tgl 15 0 empty empty empty 17 7 0 10 #fcfcfc #000000 #000000 0 1;
#X msg 60 267 disconnect;
#X obj 80 291 r oscFormatRGB;
#X obj 72 442 sel 0 1;
#X msg 103 500 symbol connected;
#X msg 75 475 symbol disconnected;
#X obj 77 531 s connection;
#X obj 128 186 r connect;
#X obj 60 241 r disconnect;
#X connect 0 0 2 0;
#X connect 0 1 4 0;
#X connect 0 2 3 0;
#X connect 0 3 5 0;
#X connect 1 0 0 0;
#X connect 3 0 6 2;
#X connect 4 0 6 1;
#X connect 5 0 6 3;
#X connect 6 0 15 0;
#X connect 7 0 6 0;
#X connect 8 0 17 0;
#X connect 9 0 11 0;
#X connect 10 0 12 0;
#X connect 11 0 10 0;
#X connect 11 1 12 1;
#X connect 12 0 16 0;
#X connect 13 0 14 0;
#X connect 14 0 18 0;
#X connect 17 0 9 0;
#X connect 17 1 10 1;
#X connect 18 2 8 0;
#X connect 19 0 23 0;
#X connect 20 0 24 0;
#X connect 21 0 25 0;
#X connect 23 0 22 0;
#X connect 24 0 22 0;
#X connect 25 0 22 0;
#X connect 26 0 22 0;
#X connect 27 0 22 0;
#X connect 28 0 22 0;
#X connect 29 0 22 0;
#X connect 30 0 22 0;
#X connect 31 0 26 0;
#X connect 32 0 27 0;
#X connect 33 0 28 0;
#X connect 34 0 29 0;
#X connect 35 0 30 0;
#X connect 36 0 37 0;
#X connect 38 0 40 0;
#X connect 39 0 40 1;
#X connect 40 0 36 0;
#X connect 42 0 41 0;
#X connect 43 0 46 0;
#X connect 44 0 43 0;
#X connect 45 0 44 0;
#X connect 46 0 49 0;
#X connect 47 0 43 0;
#X connect 48 0 43 0;
#X connect 49 0 51 0;
#X connect 49 1 50 0;
#X connect 50 0 52 0;
#X connect 51 0 52 0;
#X connect 53 0 44 0;
#X connect 54 0 47 0;
#X restore 11 10 pd guts;
#X obj 423 52 bng 60 250 50 0 connect empty CONNECT 0 -24 0 24 #c7c6ff #000000 #000000;
#X obj 425 162 bng 60 250 50 0 disconnect empty DISCONNECT 0 -24 0 24 #e3c6ff #000000 #000000;
#X listbox 424 242 15 0 0 0 - connection - 24;
#X obj 218 81 bng 40 250 50 0 led_6 empty 6 13 20 0 24 #c7c6ff #000000 #000000;
#X obj 212 190 bng 40 250 50 0 led_1 empty 1 13 20 0 24 #c7c6ff #000000 #000000;
#X obj 185 137 bng 40 250 50 0 led_2 empty 2 13 20 0 24 #c7c6ff #000000 #000000;
#X obj 164 81 bng 40 250 50 0 led_3 empty 3 13 20 0 24 #c7c6ff #000000 #000000;
#X obj 199 23 bng 40 250 50 0 led_5 empty 5 13 20 0 24 #c7c6ff #000000 #000000;
#X obj 243 246 bng 40 250 50 0 led_0 empty 0 13 20 0 24 #c7c6ff #000000 #000000;
#X obj 143 24 bng 40 250 50 0 led_4 empty 4 13 20 0 24 #c7c6ff #000000 #000000;
#X obj 324 29 bng 40 250 50 0 LedsOff empty Leds\ Off 0 -10 0 12 #fcfcfc #000000 #000000;
