#N canvas 469 203 958 618 12;
#N canvas 53 45 954 724 guts 0;
#X obj 325 48 LedColors;
#X listbox 330 26 13 0 0 0 - - - 0;
#X listbox 325 69 15 0 0 0 - - - 0;
#X floatatom 361 91 3 0 0 0 - - - 0;
#X floatatom 325 91 3 0 0 0 - - - 0;
#X floatatom 397 91 3 0 0 0 - - - 0;
#X obj 289 112 pack f f f f, f 16;
#X floatatom 289 25 5 0 23 0 - - - 0;
#X floatatom 511 105 5 0 0 0 - - - 0;
#X msg 512 154 1 0 1;
#X obj 512 200 f;
#X obj 512 177 t b a;
#X obj 512 223 list append;
#X obj 463 27 r background;
#X obj 463 51 bng 19 250 50 0 empty empty empty 0 -10 0 12 #fcfcfc #000000 #000000;
#X msg 288 134 \; background 1 \; Led\$1 \$2 \$3 \$4 \; UpdateLeds 1 \;;
#X msg 512 247 \; Led\$1 \$2 \$3 \$4 \;;
#X obj 511 130 t b f;
#X obj 435 322 r led_0;
#X obj 491 324 r led_1;
#X obj 547 324 r led_2;
#X msg 502 416 \; background 1 \; Led\$1 0 0 1 \; UpdateLeds 1 \;;
#X msg 437 348 0;
#X msg 491 347 1;
#X msg 548 347 2;
#X msg 605 352 3;
#X msg 659 352 4;
#X msg 713 351 5;
#X msg 773 353 6;
#X msg 827 352 7;
#X obj 605 325 r led_3;
#X obj 660 325 r led_4;
#X obj 716 325 r led_5;
#X obj 774 326 r led_6;
#X obj 830 326 r led_7;
#X obj 20 89 oscformat leds setRaw rgb;
#X obj 20 113 s oscFormatRGB;
#X obj 19 43 nbx 5 17 -1e+37 1e+37 0 1 empty LedsOffset LedsOffset 0 -10 0 12 #fcfcfc #000000 #000000 0 256;
#X obj 87 43 nbx 5 17 -1e+37 1e+37 0 1 empty LedsBrightness LedsBrightness 0 -10 0 12 #fcfcfc #000000 #000000 5 256;
#X obj 20 66 LedAddress;
#X msg 600 58 \; AllLeds 0 0 0 \; UpdateLeds 1 \;;
#X obj 604 32 r LedsOff;
#X obj 465 77 cyclone/uzi 7 0;
#X connect 0 0 2 0;
#X connect 0 1 4 0;
#X connect 0 2 3 0;
#X connect 0 3 5 0;
#X connect 1 0 0 0;
#X connect 3 0 6 2;
#X connect 4 0 6 1;
#X connect 5 0 6 3;
#X connect 6 0 15 0;
#X connect 7 0 6 0;
#X connect 8 0 17 0;
#X connect 9 0 11 0;
#X connect 10 0 12 0;
#X connect 11 0 10 0;
#X connect 11 1 12 1;
#X connect 12 0 16 0;
#X connect 13 0 14 0;
#X connect 14 0 42 0;
#X connect 17 0 9 0;
#X connect 17 1 10 1;
#X connect 18 0 22 0;
#X connect 19 0 23 0;
#X connect 20 0 24 0;
#X connect 22 0 21 0;
#X connect 23 0 21 0;
#X connect 24 0 21 0;
#X connect 25 0 21 0;
#X connect 26 0 21 0;
#X connect 27 0 21 0;
#X connect 28 0 21 0;
#X connect 29 0 21 0;
#X connect 30 0 25 0;
#X connect 31 0 26 0;
#X connect 32 0 27 0;
#X connect 33 0 28 0;
#X connect 34 0 29 0;
#X connect 35 0 36 0;
#X connect 37 0 39 0;
#X connect 38 0 39 1;
#X connect 39 0 35 0;
#X connect 41 0 40 0;
#X connect 42 2 8 0;
#X restore 11 10 pd guts;
#X obj 425 53 bng 60 250 50 0 connect empty CONNECT 0 -24 0 24 #c7c6ff #000000 #000000;
#X obj 425 162 bng 60 250 50 0 disconnect empty DISCONNECT 0 -24 0 24 #e3c6ff #000000 #000000;
#X listbox 424 242 15 0 0 0 - connection - 24;
#X obj 218 81 bng 40 250 50 0 led_6 empty 6 13 20 0 24 #c7c6ff #000000 #000000;
#X obj 212 190 bng 40 250 50 0 led_1 empty 1 13 20 0 24 #c7c6ff #000000 #000000;
#X obj 185 137 bng 40 250 50 0 led_2 empty 2 13 20 0 24 #c7c6ff #000000 #000000;
#X obj 164 81 bng 40 250 50 0 led_3 empty 3 13 20 0 24 #c7c6ff #000000 #000000;
#X obj 199 23 bng 40 250 50 0 led_5 empty 5 13 20 0 24 #c7c6ff #000000 #000000;
#X obj 243 246 bng 40 250 50 0 led_0 empty 0 13 20 0 24 #c7c6ff #000000 #000000;
#X obj 143 24 bng 40 250 50 0 led_4 empty 4 13 20 0 24 #c7c6ff #000000 #000000;
#X obj 324 29 bng 40 250 50 0 LedsOff empty Leds\ Off 0 -10 0 12 #fcfcfc #000000 #000000;
#N canvas 541 448 1243 604 network 0;
#X floatatom 785 19 5 0 6 0 - prescaler - 0;
#X obj 785 66 s toNetsend;
#X floatatom 915 19 5 0 0 0 - padThreshold0 - 0;
#X obj 915 66 s toNetsend;
#X floatatom 1072 19 5 0 0 0 - padThreshold1 - 0;
#X obj 1072 66 s toNetsend;
#X obj 610 66 s toNetsend;
#X obj 697 65 s toNetsend;
#X floatatom 915 90 5 0 0 0 - padThreshold2 - 0;
#X obj 915 136 s toNetsend;
#X floatatom 1072 90 5 0 0 0 - padThreshold3 - 0;
#X obj 1072 136 s toNetsend;
#X floatatom 916 161 5 0 0 0 - padThreshold4 - 0;
#X obj 916 208 s toNetsend;
#X floatatom 1073 161 5 0 0 0 - padThreshold5 - 0;
#X obj 1073 208 s toNetsend;
#X obj 610 18 r reload;
#X obj 697 17 r save;
#X obj 610 153 s toNetsend;
#X obj 715 152 s toNetsend;
#X obj 715 104 r save;
#X obj 610 105 r connectBela;
#X obj 130 420 netreceive 7562;
#X obj 130 444 print connectedBela;
#X floatatom 867 289 5 0 0 0 - tone - 0;
#X obj 867 336 s toNetsend;
#X floatatom 1024 289 5 0 0 0 - mod - 0;
#X obj 1024 336 s toNetsend;
#X floatatom 867 360 5 0 0 0 - decay - 0;
#X obj 867 406 s toNetsend;
#X floatatom 1024 360 5 0 0 0 - adsr - 0;
#X obj 1024 406 s toNetsend;
#X floatatom 868 431 5 0 0 0 - vib-freq - 0;
#X obj 868 478 s toNetsend;
#X floatatom 1025 431 5 0 0 0 - vib-depth - 0;
#X obj 1025 478 s toNetsend;
#X obj 25 66 loadbang;
#X obj 25 258 tgl 15 0 empty empty empty 17 7 0 10 #fcfcfc #000000 #000000 0 1;
#X msg 44 150 disconnect;
#X obj 24 280 sel 0 1;
#X msg 55 338 symbol connected;
#X msg 27 313 symbol disconnected;
#X obj 29 369 s connection;
#X obj 112 69 r connect;
#X obj 44 124 r disconnect;
#X obj 209 155 r toNetsend;
#X obj 81 496 r save;
#X obj 169 496 r load;
#X msg 81 520 save 1;
#X msg 169 520 save 1;
#X obj 80 543 s toNetsend;
#X listbox 209 207 20 0 0 0 - - - 0;
#X obj 209 181 list prepend list, f 19;
#X obj 210 232 list trim;
#X obj 210 259 s display;
#X msg 25 100 connect bela.local 7562, f 24;
#X obj 27 234 netsend;
#X msg 610 42 reload;
#X msg 697 41 save;
#X msg 785 42 prescaler \$1;
#X msg 867 312 tone \$1;
#X msg 867 383 decay \$1;
#X msg 915 42 padThreshold0 \$1;
#X msg 915 113 padThreshold2 \$1;
#X msg 915 184 padThreshold4 \$1;
#X msg 1073 184 padThreshold5 \$1;
#X msg 1072 113 padThreshold3 \$1;
#X msg 1072 42 padThreshold1 \$1;
#X msg 610 129 reload;
#X msg 715 128 save;
#X obj 380 225 netsend -u -b;
#X obj 379 98 loadbang;
#X obj 380 248 tgl 15 0 empty empty empty 17 7 0 10 #fcfcfc #000000 #000000 0 1;
#X msg 395 144 disconnect;
#X obj 418 196 r oscFormatRGB;
#N canvas 912 158 780 701 router 0;
#X obj 103 82 f;
#X obj 103 106 + 1;
#X obj 140 24 tgl 19 0 empty empty empty 0 -10 0 12 #fcfcfc #000000 #000000 0 1;
#X floatatom 103 154 5 0 0 0 - - - 0;
#X obj 103 58 metro 1000;
#X floatatom 153 122 5 0 0 0 - - - 0;
#X floatatom 172 27 5 0 0 0 - - - 0;
#X obj 245 232 tgl 19 0 empty empty empty 0 -10 0 12 #fcfcfc #000000 #000000 0 1;
#X obj 266 232 tgl 19 0 empty empty empty 0 -10 0 12 #fcfcfc #000000 #000000 0 1;
#X obj 287 232 tgl 19 0 empty empty empty 0 -10 0 12 #fcfcfc #000000 #000000 0 1;
#X obj 308 232 tgl 19 0 empty empty empty 0 -10 0 12 #fcfcfc #000000 #000000 0 1;
#X obj 329 232 tgl 19 0 empty empty empty 0 -10 0 12 #fcfcfc #000000 #000000 0 1;
#X obj 349 232 tgl 19 0 empty empty empty 0 -10 0 12 #fcfcfc #000000 #000000 0 1;
#X floatatom 222 52 5 0 0 0 - - - 0;
#X msg 295 161 0;
#X obj 222 82 t b f b;
#X obj 373 233 tgl 19 0 empty empty empty 0 -10 0 12 #fcfcfc #000000 #000000 0 1;
#X obj 394 233 tgl 19 0 empty empty empty 0 -10 0 12 #fcfcfc #000000 #000000 0 1;
#X obj 415 233 tgl 19 0 empty empty empty 0 -10 0 12 #fcfcfc #000000 #000000 0 1;
#X obj 436 233 tgl 19 0 empty empty empty 0 -10 0 12 #fcfcfc #000000 #000000 0 1;
#X obj 457 233 tgl 19 0 empty empty empty 0 -10 0 12 #fcfcfc #000000 #000000 0 1;
#X obj 477 233 tgl 19 0 empty empty empty 0 -10 0 12 #fcfcfc #000000 #000000 0 1;
#X obj 499 233 tgl 19 0 empty empty empty 0 -10 0 12 #fcfcfc #000000 #000000 0 1;
#X obj 520 233 tgl 19 0 empty empty empty 0 -10 0 12 #fcfcfc #000000 #000000 0 1;
#X obj 541 233 tgl 19 0 empty empty empty 0 -10 0 12 #fcfcfc #000000 #000000 0 1;
#X obj 562 233 tgl 19 0 empty empty empty 0 -10 0 12 #fcfcfc #000000 #000000 0 1;
#X obj 582 233 tgl 19 0 empty empty empty 0 -10 0 12 #fcfcfc #000000 #000000 0 1;
#X obj 604 233 tgl 19 0 empty empty empty 0 -10 0 12 #fcfcfc #000000 #000000 0 1;
#X obj 624 233 tgl 19 0 empty empty empty 0 -10 0 12 #fcfcfc #000000 #000000 0 1;
#X obj 646 233 tgl 19 0 empty empty empty 0 -10 0 12 #fcfcfc #000000 #000000 0 1;
#X obj 667 233 tgl 19 0 empty empty empty 0 -10 0 12 #fcfcfc #000000 #000000 0 1;
#X obj 688 233 tgl 19 0 empty empty empty 0 -10 0 12 #fcfcfc #000000 #000000 0 1;
#X obj 709 233 tgl 19 0 empty empty empty 0 -10 0 12 #fcfcfc #000000 #000000 0 1;
#X obj 729 233 tgl 19 0 empty empty empty 0 -10 0 12 #fcfcfc #000000 #000000 0 1;
#X obj 86 284 nbx 5 17 -1e+37 1e+37 0 0 empty empty Offset 0 -10 0 12 #fcfcfc #000000 #000000 0 256;
#X obj 157 243 nbx 5 17 -1e+37 1e+37 0 1 empty empty Gain 0 -10 0 12 #fcfcfc #000000 #000000 101 256;
#X obj 245 108 sel 0 1 2 3 4 5 6 7 8 9 10 11 12 13 14 15 16 17 18 19 20 21 22 23, f 72;
#X obj 103 130 % 23;
#X floatatom 34 111 5 0 0 0 - - - 0;
#X obj 223 317 pack f f f f f f f f f f f f f f f f f f f f f f f f f f, f 65;
#X obj 157 265 t b f;
#X obj 270 447 oscformat leds setRaw r;
#X obj 269 498 oscformat leds setRaw g;
#X obj 269 545 oscformat leds setRaw b;
#X obj 269 423 spigot;
#X obj 269 474 spigot;
#X obj 269 521 spigot;
#X obj 416 426 tgl 19 0 empty empty empty 0 -10 0 12 #fcfcfc #000000 #000000 0 1;
#X obj 413 477 tgl 19 0 empty empty empty 0 -10 0 12 #fcfcfc #000000 #000000 0 1;
#X obj 416 525 tgl 19 0 empty empty empty 0 -10 0 12 #fcfcfc #000000 #000000 0 1;
#X obj 270 367 t f b;
#X msg 383 426 0;
#X obj 268 572 spigot;
#X obj 414 574 tgl 19 0 empty empty empty 0 -10 0 12 #fcfcfc #000000 #000000 0 1;
#X obj 268 596 oscformat leds setRaw w;
#X obj 270 342 hradio 19 1 0 3 empty empty empty 0 -10 0 12 #fcfcfc #000000 #000000 0;
#X obj 271 394 sel 0 1 2 3;
#X obj 133 632 outlet;
#X connect 0 0 1 0;
#X connect 1 0 37 0;
#X connect 2 0 4 0;
#X connect 3 0 13 0;
#X connect 4 0 0 0;
#X connect 5 0 37 1;
#X connect 6 0 4 1;
#X connect 7 0 39 2;
#X connect 8 0 39 3;
#X connect 9 0 39 4;
#X connect 10 0 39 5;
#X connect 11 0 39 6;
#X connect 12 0 39 7;
#X connect 13 0 15 0;
#X connect 14 0 12 0;
#X connect 14 0 11 0;
#X connect 14 0 10 0;
#X connect 14 0 9 0;
#X connect 14 0 8 0;
#X connect 14 0 7 0;
#X connect 14 0 16 0;
#X connect 14 0 17 0;
#X connect 14 0 18 0;
#X connect 14 0 19 0;
#X connect 14 0 20 0;
#X connect 14 0 21 0;
#X connect 14 0 22 0;
#X connect 14 0 23 0;
#X connect 14 0 24 0;
#X connect 14 0 25 0;
#X connect 14 0 26 0;
#X connect 14 0 27 0;
#X connect 14 0 28 0;
#X connect 14 0 29 0;
#X connect 14 0 30 0;
#X connect 14 0 31 0;
#X connect 14 0 32 0;
#X connect 14 0 33 0;
#X connect 15 0 39 0;
#X connect 15 1 36 0;
#X connect 15 2 14 0;
#X connect 16 0 39 8;
#X connect 17 0 39 9;
#X connect 18 0 39 10;
#X connect 19 0 39 11;
#X connect 20 0 39 12;
#X connect 21 0 39 13;
#X connect 22 0 39 14;
#X connect 23 0 39 15;
#X connect 24 0 39 16;
#X connect 25 0 39 17;
#X connect 26 0 39 18;
#X connect 27 0 39 19;
#X connect 28 0 39 20;
#X connect 29 0 39 21;
#X connect 30 0 39 22;
#X connect 31 0 39 23;
#X connect 32 0 39 24;
#X connect 33 0 39 25;
#X connect 34 0 39 0;
#X connect 35 0 40 0;
#X connect 36 0 7 0;
#X connect 36 1 8 0;
#X connect 36 2 9 0;
#X connect 36 3 10 0;
#X connect 36 4 11 0;
#X connect 36 5 12 0;
#X connect 36 6 16 0;
#X connect 36 7 17 0;
#X connect 36 8 18 0;
#X connect 36 9 19 0;
#X connect 36 10 20 0;
#X connect 36 11 21 0;
#X connect 36 12 22 0;
#X connect 36 13 23 0;
#X connect 36 14 24 0;
#X connect 36 15 25 0;
#X connect 36 16 26 0;
#X connect 36 17 27 0;
#X connect 36 18 28 0;
#X connect 36 19 29 0;
#X connect 36 20 30 0;
#X connect 36 21 31 0;
#X connect 36 22 32 0;
#X connect 36 23 33 0;
#X connect 37 0 0 1;
#X connect 37 0 3 0;
#X connect 38 0 37 0;
#X connect 39 0 44 0;
#X connect 39 0 45 0;
#X connect 39 0 46 0;
#X connect 39 0 52 0;
#X connect 40 0 39 0;
#X connect 40 1 39 1;
#X connect 41 0 57 0;
#X connect 42 0 57 0;
#X connect 43 0 57 0;
#X connect 44 0 41 0;
#X connect 45 0 42 0;
#X connect 46 0 43 0;
#X connect 47 0 44 1;
#X connect 48 0 45 1;
#X connect 49 0 46 1;
#X connect 50 0 56 0;
#X connect 50 1 51 0;
#X connect 51 0 47 0;
#X connect 51 0 48 0;
#X connect 51 0 49 0;
#X connect 51 0 53 0;
#X connect 52 0 54 0;
#X connect 53 0 52 1;
#X connect 54 0 57 0;
#X connect 55 0 50 0;
#X connect 56 0 47 0;
#X connect 56 1 48 0;
#X connect 56 2 49 0;
#X connect 56 3 53 0;
#X restore 413 170 pd router;
#X text 369 59 -u -b for OSC on 7561;
#X text 43 33 tcp for presets on 7562;
#X msg 379 122 connect bela.local 7565;
#X msg 867 454 vib-freq \$1;
#X msg 1025 454 vib-depth \$1;
#X msg 1024 312 mod \$1;
#X msg 1024 383 adsr \$1;
#X connect 0 0 59 0;
#X connect 2 0 62 0;
#X connect 4 0 67 0;
#X connect 8 0 63 0;
#X connect 10 0 66 0;
#X connect 12 0 64 0;
#X connect 14 0 65 0;
#X connect 16 0 57 0;
#X connect 17 0 58 0;
#X connect 20 0 69 0;
#X connect 21 0 68 0;
#X connect 22 0 23 0;
#X connect 24 0 60 0;
#X connect 26 0 81 0;
#X connect 28 0 61 0;
#X connect 30 0 82 0;
#X connect 32 0 79 0;
#X connect 34 0 80 0;
#X connect 36 0 55 0;
#X connect 37 0 39 0;
#X connect 38 0 56 0;
#X connect 39 0 41 0;
#X connect 39 1 40 0;
#X connect 40 0 42 0;
#X connect 41 0 42 0;
#X connect 43 0 55 0;
#X connect 44 0 38 0;
#X connect 45 0 52 0;
#X connect 46 0 48 0;
#X connect 47 0 49 0;
#X connect 48 0 50 0;
#X connect 49 0 50 0;
#X connect 51 0 53 0;
#X connect 52 0 51 0;
#X connect 52 0 56 0;
#X connect 53 0 54 0;
#X connect 55 0 56 0;
#X connect 56 0 37 0;
#X connect 57 0 6 0;
#X connect 58 0 7 0;
#X connect 59 0 1 0;
#X connect 60 0 25 0;
#X connect 61 0 29 0;
#X connect 62 0 3 0;
#X connect 63 0 9 0;
#X connect 64 0 13 0;
#X connect 65 0 15 0;
#X connect 66 0 11 0;
#X connect 67 0 5 0;
#X connect 68 0 18 0;
#X connect 69 0 19 0;
#X connect 70 0 72 0;
#X connect 71 0 78 0;
#X connect 73 0 70 0;
#X connect 74 0 70 0;
#X connect 75 0 70 0;
#X connect 78 0 70 0;
#X connect 79 0 33 0;
#X connect 80 0 35 0;
#X connect 81 0 27 0;
#X connect 82 0 31 0;
#X restore 11 31 pd network;
#X obj 40 405 nbx 4 40 0 1 0 1 padThreshold0 empty padThreshold0 0 -10 0 20 #bbbbbb #000000 #553512 1 256;
#X obj 40 473 nbx 4 40 0 1 0 1 padThreshold1 empty padThreshold1 0 -10 0 20 #bbbbbb #000000 #553512 1 256;
#X obj 40 541 nbx 4 40 0 1 0 1 padThreshold2 empty padThreshold2 0 -10 0 20 #bbbbbb #000000 #553512 1 256;
#X obj 227 405 nbx 4 40 0 1 0 1 padThreshold3 empty padThreshold3 0 -10 0 20 #bbbbbb #000000 #553512 1 256;
#X obj 227 474 nbx 4 40 0 1 0 1 padThreshold4 empty padThreshold4 0 -10 0 20 #bbbbbb #000000 #553512 1 256;
#X obj 227 543 nbx 4 40 0 1 0 1 padThreshold5 empty padThreshold5 0 -10 0 20 #bbbbbb #000000 #553512 0 256;
#X obj 723 100 s tone;
#X obj 840 88 s decay;
#X obj 724 193 s vib-freq;
#X obj 836 190 s vib-depth;
#X obj 723 288 s mod;
#X obj 839 287 s adsr;
#X obj 723 36 else/knob 50 0 1 0 0 tone empty #0e4345 #7c7c7c black 1 0 0 0 1 320 0 0 0;
#X obj 839 33 else/knob 50 0 2000 0 0 empty empty #dfdfdf #7c7c7c black 1 0 0 0 1 320 0 0 0;
#X obj 726 125 else/knob 50 0 127 0 0 empty empty #dfdfdf #7c7c7c black 1 0 0 0 1 320 0 0 0;
#X obj 835 128 else/knob 50 0 127 0 0 empty empty #dfdfdf #7c7c7c black 1 0 0 0 1 320 0 0 0;
#X obj 734 222 else/knob 50 0 10 0 0 empty empty #dfdfdf #7c7c7c black 1 0 0 0 1 320 0 0 0;
#X obj 843 225 else/knob 50 0 127 0 0 empty empty #dfdfdf #7c7c7c black 1 0 0 0 1 320 0 0 0;
#X obj 475 315 bng 60 250 50 0 save empty SAVE 0 -24 0 24 #c7c6ff #000000 #000000;
#X obj 543 315 bng 60 250 50 0 load empty LOAD 0 -24 0 24 #e3c6ff #000000 #000000;
#X listbox 459 390 20 0 0 0 - display - 24;
#X connect 25 0 19 0;
#X connect 26 0 20 0;
#X connect 27 0 21 0;
#X connect 28 0 22 0;
#X connect 29 0 23 0;
#X connect 30 0 24 0;
