#N canvas 158 116 1066 617 12;
#N canvas 349 125 973 724 guts 0;
#X obj 325 48 LedColors;
#X listbox 330 26 13 0 0 0 - - - 0;
#X listbox 325 69 15 0 0 0 - - - 0;
#X floatatom 361 91 3 0 0 0 - - - 0;
#X floatatom 325 91 3 0 0 0 - - - 0;
#X floatatom 397 91 3 0 0 0 - - - 0;
#X obj 289 112 pack f f f f, f 16;
#X floatatom 289 25 5 0 23 0 - - - 0;
#X floatatom 511 105 5 0 0 0 - - - 0;
#X msg 512 154 1 0 1;
#X obj 512 200 f;
#X obj 512 177 t b a;
#X obj 512 223 list append;
#X obj 463 27 r background;
#X obj 463 51 bng 19 250 50 0 empty empty empty 0 -10 0 12 #fcfcfc #000000 #000000;
#X msg 288 134 \; background 1 \; Led\$1 \$2 \$3 \$4 \; UpdateLeds 1 \;;
#X msg 512 247 \; Led\$1 \$2 \$3 \$4 \;;
#X obj 511 130 t b f;
#X obj 32 298 r led_0;
#X obj 89 298 r led_1;
#X obj 145 298 r led_2;
#X msg 35 322 0;
#X msg 89 321 1;
#X msg 146 321 2;
#X msg 203 326 3;
#X msg 257 326 4;
#X msg 311 325 5;
#X msg 371 327 6;
#X msg 425 326 7;
#X obj 203 299 r led_3;
#X obj 258 299 r led_4;
#X obj 314 299 r led_5;
#X obj 372 300 r led_6;
#X obj 428 300 r led_7;
#X obj 20 89 oscformat leds setRaw rgb;
#X obj 20 113 s oscFormatRGB;
#X obj 19 43 nbx 5 17 -1e+37 1e+37 0 1 empty LedsOffset LedsOffset 0 -10 0 12 #fcfcfc #000000 #000000 0 256;
#X obj 87 43 nbx 5 17 -1e+37 1e+37 0 1 empty LedsBrightness LedsBrightness 0 -10 0 12 #fcfcfc #000000 #000000 20 256;
#X obj 20 66 LedAddress;
#X msg 600 58 \; AllLeds 0 0 0 \; UpdateLeds 1 \;;
#X obj 604 32 r LedsOff;
#X obj 465 77 cyclone/uzi 7 0;
#X obj 201 375 f;
#X msg 207 490 \; background 1 \; Led\$1 0 0 0 \; UpdateLeds 1 \;;
#X obj 155 433 delay 500;
#X msg 247 436 \; Led\$1 10 5 10 \; UpdateLeds 1 \;;
#X obj 208 458 f;
#X obj 201 399 t b f f;
#X connect 0 0 2 0;
#X connect 0 1 4 0;
#X connect 0 2 3 0;
#X connect 0 3 5 0;
#X connect 1 0 0 0;
#X connect 3 0 6 2;
#X connect 4 0 6 1;
#X connect 5 0 6 3;
#X connect 6 0 15 0;
#X connect 7 0 6 0;
#X connect 8 0 17 0;
#X connect 9 0 11 0;
#X connect 10 0 12 0;
#X connect 11 0 10 0;
#X connect 11 1 12 1;
#X connect 12 0 16 0;
#X connect 13 0 14 0;
#X connect 14 0 41 0;
#X connect 17 0 9 0;
#X connect 17 1 10 1;
#X connect 18 0 21 0;
#X connect 19 0 22 0;
#X connect 20 0 23 0;
#X connect 21 0 42 0;
#X connect 22 0 42 0;
#X connect 23 0 42 0;
#X connect 24 0 42 0;
#X connect 25 0 42 0;
#X connect 26 0 42 0;
#X connect 27 0 42 0;
#X connect 28 0 42 0;
#X connect 29 0 24 0;
#X connect 30 0 25 0;
#X connect 31 0 26 0;
#X connect 32 0 27 0;
#X connect 33 0 28 0;
#X connect 34 0 35 0;
#X connect 36 0 38 0;
#X connect 37 0 38 1;
#X connect 38 0 34 0;
#X connect 40 0 39 0;
#X connect 41 2 8 0;
#X connect 42 0 47 0;
#X connect 44 0 46 0;
#X connect 46 0 43 0;
#X connect 47 0 44 0;
#X connect 47 1 46 1;
#X connect 47 2 45 0;
#X restore 11 10 pd guts;
#X obj 425 53 bng 60 250 50 0 connect empty CONNECT 0 -24 0 24 #c7c6ff #000000 #000000;
#X obj 425 162 bng 60 250 50 0 disconnect empty DISCONNECT 0 -24 0 24 #e3c6ff #000000 #000000;
#X listbox 424 242 15 0 0 0 Presets PresetsConnection - 24;
#X obj 218 81 bng 40 250 50 0 led_6 empty 6 13 20 0 24 #c7c6ff #000000 #000000;
#X obj 212 190 bng 40 250 50 0 led_1 empty 1 13 20 0 24 #c7c6ff #000000 #000000;
#X obj 185 137 bng 40 250 50 0 led_2 empty 2 13 20 0 24 #c7c6ff #000000 #000000;
#X obj 164 81 bng 40 250 50 0 led_3 empty 3 13 20 0 24 #c7c6ff #000000 #000000;
#X obj 199 23 bng 40 250 50 0 led_5 empty 5 13 20 0 24 #c7c6ff #000000 #000000;
#X obj 243 246 bng 40 250 50 0 led_0 empty 0 13 20 0 24 #c7c6ff #000000 #000000;
#X obj 143 24 bng 40 250 50 0 led_4 empty 4 13 20 0 24 #c7c6ff #000000 #000000;
#X obj 324 29 bng 40 250 50 0 LedsOff empty Leds\ Off 0 -10 0 12 #fcfcfc #000000 #000000;
#N canvas 132 253 1243 588 network 1;
#X floatatom 785 19 5 0 6 0 - prescaler - 0;
#X obj 785 66 s toNetsend;
#X floatatom 915 19 5 0 0 0 - padThreshold0 - 0;
#X obj 915 66 s toNetsend;
#X floatatom 1072 19 5 0 0 0 - padThreshold1 - 0;
#X obj 1072 66 s toNetsend;
#X obj 579 67 s toNetsend;
#X obj 678 64 s toNetsend;
#X floatatom 915 90 5 0 0 0 - padThreshold2 - 0;
#X obj 915 136 s toNetsend;
#X floatatom 1072 90 5 0 0 0 - padThreshold3 - 0;
#X obj 1072 136 s toNetsend;
#X floatatom 914 161 5 0 0 0 - padThreshold4 - 0;
#X obj 915 205 s toNetsend;
#X floatatom 1073 161 5 0 0 0 - padThreshold5 - 0;
#X obj 1073 208 s toNetsend;
#X obj 610 153 s toNetsend;
#X obj 715 152 s toNetsend;
#X obj 715 104 r save;
#X obj 610 105 r connectBela;
#X floatatom 867 289 5 0 0 0 - tone - 0;
#X obj 867 336 s toNetsend;
#X floatatom 1024 289 5 0 0 0 - mod - 0;
#X obj 1024 336 s toNetsend;
#X floatatom 867 360 5 0 0 0 - decay - 0;
#X obj 867 406 s toNetsend;
#X floatatom 1024 360 5 0 0 0 - adsr - 0;
#X obj 1024 406 s toNetsend;
#X floatatom 868 431 5 0 0 0 - vib-freq - 0;
#X obj 868 478 s toNetsend;
#X floatatom 1025 431 5 0 0 0 - vib-depth - 0;
#X obj 1025 478 s toNetsend;
#X obj 25 258 tgl 15 0 empty empty empty 17 7 0 10 #fcfcfc #000000 #000000 0 1;
#X msg 44 150 disconnect;
#X obj 24 280 sel 0 1;
#X msg 55 338 symbol connected;
#X msg 29 312 symbol disconnected;
#X obj 21 54 r connect;
#X obj 44 124 r disconnect;
#X obj 215 35 r toNetsend;
#X obj 81 496 r save;
#X obj 169 496 r load;
#X msg 81 520 save 1;
#X msg 169 520 save 1;
#X obj 80 543 s toNetsend;
#X listbox 216 85 20 0 0 0 - - - 0;
#X obj 216 59 list prepend list, f 19;
#X obj 217 110 list trim;
#X obj 217 137 s display;
#X msg 579 43 reload;
#X msg 678 40 save;
#X msg 785 42 prescaler \$1;
#X msg 867 312 tone \$1;
#X msg 867 383 decay \$1;
#X msg 915 42 padThreshold0 \$1;
#X msg 915 113 padThreshold2 \$1;
#X msg 915 181 padThreshold4 \$1;
#X msg 1073 184 padThreshold5 \$1;
#X msg 1072 113 padThreshold3 \$1;
#X msg 1072 42 padThreshold1 \$1;
#X msg 610 129 reload;
#X msg 715 128 save;
#X obj 380 225 netsend -u -b;
#X obj 380 248 tgl 15 0 empty empty empty 17 7 0 10 #fcfcfc #000000 #000000 0 1;
#X msg 394 148 disconnect;
#X obj 418 196 r oscFormatRGB;
#X msg 867 454 vib-freq \$1;
#X msg 1025 454 vib-depth \$1;
#X msg 1024 312 mod \$1;
#X msg 1024 383 adsr \$1;
#X text 369 59 -u -b for OSC on 7562;
#X obj 377 94 r connect;
#X obj 383 277 sel 0 1;
#X msg 414 335 symbol connected;
#X msg 386 310 symbol disconnected;
#X obj 388 366 s OSCconnection;
#X obj 579 19 r loadPresets;
#X obj 680 17 r savePresets;
#X obj 507 158 r disconnect;
#X msg 379 122 connect bela.local 7562;
#X listbox 484 225 20 0 0 0 - - - 0;
#X obj 29 234 netsend -u;
#X text 43 33 Presets on 7561;
#X obj 29 369 s PresetsConnection;
#X msg 24 84 connect bela.local 7561, f 24;
#X msg 51 189 connect localhost 7561, f 24;
#X obj 101 257 print;
#X obj 751 234 r key;
#X msg 751 258 key \$1;
#X obj 751 282 s toNetsend;
#X floatatom 742 429 5 0 0 0 - reverbAmount - 0;
#X obj 742 476 s toNetsend;
#X msg 741 451 reverbAmount \$1;
#X floatatom 741 353 5 0 0 0 - reverbAmount - 0;
#X obj 741 400 s toNetsend;
#X msg 740 376 volume \$1;
#X connect 0 0 51 0;
#X connect 2 0 54 0;
#X connect 4 0 59 0;
#X connect 8 0 55 0;
#X connect 10 0 58 0;
#X connect 12 0 56 0;
#X connect 14 0 57 0;
#X connect 18 0 61 0;
#X connect 19 0 60 0;
#X connect 20 0 52 0;
#X connect 22 0 68 0;
#X connect 24 0 53 0;
#X connect 26 0 69 0;
#X connect 28 0 66 0;
#X connect 30 0 67 0;
#X connect 32 0 34 0;
#X connect 33 0 81 0;
#X connect 34 0 36 0;
#X connect 34 1 35 0;
#X connect 35 0 83 0;
#X connect 36 0 83 0;
#X connect 37 0 84 0;
#X connect 38 0 33 0;
#X connect 39 0 46 0;
#X connect 40 0 42 0;
#X connect 41 0 43 0;
#X connect 42 0 44 0;
#X connect 43 0 44 0;
#X connect 45 0 47 0;
#X connect 46 0 45 0;
#X connect 46 0 81 0;
#X connect 46 0 62 0;
#X connect 47 0 48 0;
#X connect 49 0 6 0;
#X connect 50 0 7 0;
#X connect 51 0 1 0;
#X connect 52 0 21 0;
#X connect 53 0 25 0;
#X connect 54 0 3 0;
#X connect 55 0 9 0;
#X connect 56 0 13 0;
#X connect 57 0 15 0;
#X connect 58 0 11 0;
#X connect 59 0 5 0;
#X connect 60 0 16 0;
#X connect 61 0 17 0;
#X connect 62 0 63 0;
#X connect 63 0 72 0;
#X connect 64 0 62 0;
#X connect 65 0 62 0;
#X connect 65 0 80 0;
#X connect 66 0 29 0;
#X connect 67 0 31 0;
#X connect 68 0 23 0;
#X connect 69 0 27 0;
#X connect 71 0 79 0;
#X connect 72 0 74 0;
#X connect 72 1 73 0;
#X connect 73 0 75 0;
#X connect 74 0 75 0;
#X connect 76 0 49 0;
#X connect 77 0 50 0;
#X connect 78 0 64 0;
#X connect 79 0 62 0;
#X connect 81 0 32 0;
#X connect 81 1 86 0;
#X connect 84 0 81 0;
#X connect 85 0 81 0;
#X connect 87 0 88 0;
#X connect 88 0 89 0;
#X connect 90 0 92 0;
#X connect 92 0 91 0;
#X connect 93 0 95 0;
#X connect 95 0 94 0;
#X restore 11 31 pd network;
#X obj 40 405 nbx 4 40 0 1 0 1 padThreshold0 empty padThreshold0 0 -10 0 20 #bbbbbb #000000 #553512 1 256;
#X obj 40 473 nbx 4 40 0 1 0 1 padThreshold1 empty padThreshold1 0 -10 0 20 #bbbbbb #000000 #553512 1 256;
#X obj 40 541 nbx 4 40 0 1 0 1 padThreshold2 empty padThreshold2 0 -10 0 20 #bbbbbb #000000 #553512 1 256;
#X obj 227 405 nbx 4 40 0 1 0 1 padThreshold3 empty padThreshold3 0 -10 0 20 #bbbbbb #000000 #553512 0.85 256;
#X obj 227 474 nbx 4 40 0 1 0 1 padThreshold4 empty padThreshold4 0 -10 0 20 #bbbbbb #000000 #553512 0.28 256;
#X obj 227 543 nbx 4 40 0 1 0 1 padThreshold5 empty padThreshold5 0 -10 0 20 #bbbbbb #000000 #553512 0 256;
#X obj 665 180 s tone;
#X obj 824 180 s decay;
#X obj 883 180 s vib-freq;
#X obj 960 179 s vib-depth;
#X obj 715 180 s mod;
#X obj 769 180 s adsr;
#X obj 440 483 bng 60 250 50 0 savePresets empty SAVE 0 -24 0 24 #c7c6ff #000000 #000000;
#X obj 508 483 bng 60 250 50 0 loadPresets empty LOAD 0 -24 0 24 #e3c6ff #000000 #000000;
#X listbox 424 558 20 0 0 0 - display - 24;
#X listbox 422 279 15 0 0 0 OSC OSCconnection - 24;
#X obj 665 12 vsl 19 162 0 1 0 1 empty empty empty 0 -9 0 12 #fcfcfc #000000 #000000 1700 1;
#X obj 960 11 vsl 19 162 0 127 0 1 empty empty empty 0 -9 0 12 #fcfcfc #000000 #000000 300 1;
#X obj 767 8 vsl 19 162 0 127 0 1 empty empty empty 0 -9 0 12 #fcfcfc #000000 #000000 15000 1;
#X obj 716 8 vsl 19 162 0 4 0 1 empty empty empty 0 -9 0 12 #fcfcfc #000000 #000000 6400 1;
#X obj 824 8 vsl 19 162 0 2000 0 1 empty empty empty 0 -9 0 12 #fcfcfc #000000 #000000 10300 1;
#X obj 883 8 vsl 19 162 0 127 0 1 empty empty empty 0 -9 0 12 #fcfcfc #000000 #000000 600 1;
#X obj 619 488 s key;
#X floatatom 619 377 5 0 0 0 - - - 0;
#X obj 631 405 mton;
#X listbox 631 429 20 0 0 0 - - - 0;
#X obj 772 205 vsl 19 162 0 1 0 1 empty empty empty 0 -9 0 12 #fcfcfc #000000 #000000 4800 1;
#X obj 772 373 s reverbAmount;
#X obj 897 213 vsl 19 162 0 1 0 1 empty empty empty 0 -9 0 12 #fcfcfc #000000 #000000 16100 1;
#X obj 897 381 s volume;
#X connect 29 0 19 0;
#X connect 30 0 22 0;
#X connect 31 0 24 0;
#X connect 32 0 23 0;
#X connect 33 0 20 0;
#X connect 34 0 21 0;
#X connect 36 0 35 0;
#X connect 36 0 37 0;
#X connect 37 0 38 0;
#X connect 39 0 40 0;
#X connect 41 0 42 0;
