#N canvas 302 32 1590 1012 12;
#N canvas 979 155 450 278 (subpatch) 0;
#X array current_chord 4 float 3;
#A 0 63.8571 71.5714 67.2857 66.2857;
#X coords 0 80 4 60 200 140 1 0 0;
#X restore 277 64 graph;
#N canvas 631 610 450 278 (subpatch) 0;
#X array next_chord 4 float 3;
#A 0 70 72.857 66.8572 61.2858;
#X coords 0 80 4 60 200 140 1 0 0;
#X restore 480 65 graph;
#X obj 226 286 + 1;
#X obj 170 261 bng 19 250 50 0 empty empty empty 0 -10 0 12 #fcfcfc #000000 #000000;
#X obj 170 286 f;
#X floatatom 44 260 5 0 0 0 - - - 0;
#X msg 274 222 0 0;
#X msg 317 219 1 3;
#X msg 395 220 2 7;
#X msg 437 221 3 12;
#X obj 279 264 unpack f f;
#X msg 353 213 1 4;
#X obj 170 308 - 1;
#X obj 198 286 % 5;
#X floatatom 170 332 5 0 0 0 - - - 0;
#X obj 329 383 swap;
#X obj 353 326 +;
#X floatatom 372 293 5 0 0 0 - - - 0;
#X floatatom 353 350 5 0 0 0 - - - 0;
#X obj 300 359 bng 19 250 50 0 empty empty empty 0 -10 0 12 #fcfcfc #000000 #000000;
#X msg 222 331 0;
#X obj 45 376 tabwrite prime_chord;
#N canvas 0 22 450 278 (subpatch) 0;
#X array prime_chord 4 float 3;
#A 0 0 7.02857 6.55714 6.08571;
#X coords 0 12 4 0 200 140 1 0 0;
#X restore 66 64 graph;
#X obj 285 423 tabwrite current_chord;
#X msg 421 387 set next_chord;
#N canvas 0 22 450 278 (subpatch) 0;
#X array nearest_array 4 float 3;
#A 0 72 66 61 69;
#X coords 0 80 4 60 200 140 1 0 0;
#X restore 691 65 graph;
#X floatatom 1462 288 5 0 3 0 - - - 0;
#X obj 1566 426 tabwrite current_chord;
#X msg 1717 401 0;
#X obj 1485 339 tabread next_chord;
#X msg 427 357 set current_chord;
#X obj 660 356 tabread current_chord;
#X floatatom 819 403 5 0 0 0 - - - 0;
#X floatatom 660 412 5 0 0 0 - - - 0;
#X floatatom 1278 21 5 0 0 0 - - - 0;
#X floatatom 1320 21 5 0 0 0 - - - 0;
#X obj 1296 127 moses 3;
#X obj 1318 69 -;
#X obj 1320 44 t b f;
#X floatatom 1296 151 5 0 0 0 - - - 0;
#X floatatom 1296 151 5 0 0 0 - - - 0;
#X floatatom 1345 154 5 0 0 0 - - - 0;
#X obj 1318 93 abs;
#X obj 853 451 s sample;
#X obj 706 458 s comparison;
#X obj 951 310 r nearest;
#X msg 1018 393 0;
#X obj 922 4 notein;
#X obj 1125 56 bng 19 250 50 0 empty empty empty 0 -10 0 12 #fcfcfc #000000 #000000;
#X floatatom 922 73 5 0 0 0 - - - 0;
#X obj 1147 167 - 1;
#X floatatom 1147 191 5 0 0 0 - - - 0;
#X obj 996 217 tabwrite current_chord;
#X obj 1204 143 + 1;
#X obj 1148 143 f;
#X obj 1176 143 % 5;
#X obj 922 27 stripnote;
#X obj 922 51 change;
#X msg 959 189 set next_chord;
#X floatatom 812 290 5 0 3 0 - - - 0;
#X obj 819 355 tabread next_chord;
#X obj 951 456 tabwrite nearest_array;
#X floatatom 660 334 5 0 3 0 - - - 0;
#X floatatom 1102 399 5 0 0 0 - - - 0;
#X text 353 691 // Returns the version of `sample` less than an octave above `comparison`;
#X msg 922 162 set current_chord;
#X obj 922 96 route 44 45;
#X obj 901 122 t b b;
#X obj 957 122 t b b;
#X msg 1069 126 1;
#X obj 970 51 mton;
#X listbox 970 75 3 0 0 0 - - - 0;
#X floatatom 996 75 3 0 0 0 - - - 0;
#X obj 751 381 mton;
#X listbox 751 405 3 0 0 0 - - - 0;
#X floatatom 777 405 3 0 0 0 - - - 0;
#X obj 881 379 mton;
#X listbox 881 403 3 0 0 0 - - - 0;
#X floatatom 907 403 3 0 0 0 - - - 0;
#X obj 960 332 mton;
#X listbox 960 356 3 0 0 0 - - - 0;
#X floatatom 986 356 3 0 0 0 - - - 0;
#X obj 453 306 mton;
#X listbox 453 330 3 0 0 0 - - - 0;
#X floatatom 479 330 3 0 0 0 - - - 0;
#X text 1419 179 start;
#X obj 1488 181 bng 19 250 50 0 empty empty empty 17 7 0 10 #dfdfdf #000000 #000000;
#X text 1510 181 reset;
#X obj 1439 143 text define chords;
#X obj 1462 446 pack f f;
#X obj 1513 395 i;
#X obj 1439 71 bng 19 250 50 0 empty empty empty 0 -10 0 12 #fcfcfc #000000 #000000;
#X obj 1606 172 text delete chords;
#X obj 1439 96 t b b b b, f 21;
#X obj 1583 120 bng 19 250 50 0 empty empty empty 0 -10 0 12 #fcfcfc #000000 #000000;
#X msg 1609 138 -1;
#X obj 1485 368 t a a;
#X obj 1462 313 t a a a;
#X obj 1507 682 text sequence chords;
#X obj 1505 719 route 0 1 2 3;
#X floatatom 1509 757 5 0 0 0 - - - 0;
#X floatatom 1550 756 5 0 0 0 - - - 0;
#X floatatom 1591 756 5 0 0 0 - - - 0;
#X floatatom 1631 755 5 0 0 0 - - - 0;
#X obj 1498 628 bng 19 250 50 0 empty empty empty 0 -10 0 12 #fcfcfc #000000 #000000;
#X msg 1550 656 line 0;
#X obj 1507 656 t a a;
#X obj 1511 781 mton;
#X listbox 1510 805 3 0 0 0 - - - 0;
#X floatatom 1536 805 3 0 0 0 - - - 0;
#X obj 1565 780 mton;
#X listbox 1565 804 3 0 0 0 - - - 0;
#X floatatom 1591 804 3 0 0 0 - - - 0;
#X obj 1621 781 mton;
#X listbox 1621 805 3 0 0 0 - - - 0;
#X floatatom 1647 805 3 0 0 0 - - - 0;
#X obj 1676 780 mton;
#X listbox 1676 804 3 0 0 0 - - - 0;
#X floatatom 1702 804 3 0 0 0 - - - 0;
#X obj 1566 396 spigot;
#X obj 1605 370 tgl 19 0 empty empty empty 0 -10 0 12 #fcfcfc #000000 #000000 0 1;
#N canvas 138 117 673 416 nearestNotes 0;
#X text 28 10 nearest_above;
#X obj 29 31 r sample;
#X obj 101 31 r comparison;
#X floatatom 101 55 5 0 0 0 - - - 0;
#X floatatom 29 55 5 0 0 0 - - - 0;
#X obj 88 118 -;
#X obj 101 78 t b f;
#X obj 88 260 -;
#X obj 17 181 r sample;
#X obj 87 231 t b f;
#X floatatom 88 286 5 0 0 0 - - - 0;
#X text 115 181 octaves_above;
#X obj 355 35 r sample;
#X floatatom 355 59 5 0 0 0 - - - 0;
#X text 253 17 nearest_below;
#X floatatom 248 58 5 0 0 0 - - - 0;
#X obj 355 81 t f b;
#X obj 281 210 ==;
#X obj 242 239 spigot;
#X obj 302 239 spigot;
#X obj 252 81 -;
#X obj 286 57 b;
#X floatatom 277 276 5 0 0 0 - - - 0;
#X obj 87 181 i;
#X floatatom 87 205 5 0 0 0 - - - 0;
#X obj 317 210 == 0;
#X text 424 12 nearest_note;
#X obj 88 363 s above;
#X obj 277 304 s below;
#X obj 522 34 r above;
#X floatatom 522 58 5 0 0 0 - - - 0;
#X floatatom 578 58 5 0 0 0 - - - 0;
#X obj 578 34 r below;
#X obj 431 34 r comparison;
#X floatatom 431 58 5 0 0 0 - - - 0;
#X obj 470 116 -;
#X obj 479 84 t b f;
#X obj 470 142 abs;
#X floatatom 470 166 5 0 0 0 - - - 0;
#X obj 549 111 -;
#X obj 548 83 t b f;
#X obj 549 135 abs;
#X floatatom 549 162 5 0 0 0 - - - 0;
#X obj 88 148 /;
#X obj 284 177 t b f;
#X obj 521 223 <;
#X obj 548 223 == 0;
#X obj 522 189 t b f;
#X obj 468 270 spigot;
#X obj 527 269 spigot;
#X floatatom 503 314 5 0 0 0 - - - 0;
#X obj 468 247 r above;
#X obj 527 247 r below;
#X obj 503 337 s nearest;
#X obj 242 35 r above;
#X obj 116 118 f 12;
#X obj 282 81 f 12;
#X obj 88 309 i;
#X obj 141 309 mton;
#X listbox 141 333 3 0 0 0 - - - 0;
#X floatatom 167 333 3 0 0 0 - - - 0;
#X obj 332 281 mton;
#X listbox 332 305 3 0 0 0 - - - 0;
#X floatatom 358 305 3 0 0 0 - - - 0;
#X obj 573 313 mton;
#X listbox 573 337 3 0 0 0 - - - 0;
#X floatatom 599 337 3 0 0 0 - - - 0;
#X connect 1 0 4 0;
#X connect 2 0 3 0;
#X connect 3 0 6 0;
#X connect 4 0 5 0;
#X connect 5 0 43 0;
#X connect 6 0 5 0;
#X connect 6 0 55 0;
#X connect 6 1 5 1;
#X connect 7 0 10 0;
#X connect 8 0 7 0;
#X connect 9 0 7 0;
#X connect 9 1 7 1;
#X connect 10 0 57 0;
#X connect 10 0 58 0;
#X connect 12 0 13 0;
#X connect 13 0 16 0;
#X connect 15 0 20 0;
#X connect 15 0 21 0;
#X connect 15 0 44 0;
#X connect 16 0 17 0;
#X connect 17 0 25 0;
#X connect 17 0 18 1;
#X connect 18 0 22 0;
#X connect 19 0 22 0;
#X connect 20 0 19 0;
#X connect 21 0 56 0;
#X connect 22 0 28 0;
#X connect 22 0 61 0;
#X connect 23 0 24 0;
#X connect 24 0 9 0;
#X connect 25 0 19 1;
#X connect 29 0 30 0;
#X connect 30 0 36 0;
#X connect 31 0 40 0;
#X connect 32 0 31 0;
#X connect 33 0 34 0;
#X connect 34 0 35 0;
#X connect 34 0 39 0;
#X connect 35 0 37 0;
#X connect 36 0 35 0;
#X connect 36 1 35 1;
#X connect 37 0 38 0;
#X connect 38 0 45 0;
#X connect 39 0 41 0;
#X connect 40 0 39 0;
#X connect 40 1 39 1;
#X connect 41 0 42 0;
#X connect 42 0 47 0;
#X connect 43 0 23 0;
#X connect 44 0 17 0;
#X connect 44 1 17 1;
#X connect 45 0 46 0;
#X connect 45 0 48 1;
#X connect 46 0 49 1;
#X connect 47 0 45 0;
#X connect 47 1 45 1;
#X connect 48 0 50 0;
#X connect 49 0 50 0;
#X connect 50 0 53 0;
#X connect 50 0 64 0;
#X connect 51 0 48 0;
#X connect 52 0 49 0;
#X connect 54 0 15 0;
#X connect 54 0 18 0;
#X connect 55 0 43 1;
#X connect 56 0 20 1;
#X connect 57 0 27 0;
#X connect 58 0 59 0;
#X connect 58 1 60 0;
#X connect 61 0 62 0;
#X connect 61 1 63 0;
#X connect 64 0 65 0;
#X connect 64 1 66 0;
#X restore 548 643 pd nearestNotes;
#X obj 1515 420 t a a;
#X obj 1306 412 until;
#X obj 1311 441 f;
#X obj 1339 441 + 1;
#X msg 1306 389 3;
#X msg 1340 389 0;
#X obj 1306 343 bng 19 250 50 0 empty empty empty 0 -10 0 12 #fcfcfc #000000 #000000;
#X obj 1306 366 t b b;
#X obj 1462 242 until;
#X obj 1462 266 f;
#X obj 1494 266 + 1;
#X msg 1462 219 3;
#X msg 1496 219 0;
#X obj 1219 764 until;
#X obj 1219 788 f;
#X obj 1251 788 + 1;
#X msg 1219 741 3;
#X msg 1251 741 0;
#X obj 1219 695 bng 19 250 50 0 empty empty empty 0 -10 0 12 #fcfcfc #000000 #000000;
#X obj 1219 718 t b b;
#X obj 985 639 s C;
#X obj 962 762 list store;
#X obj 962 786 print;
#X obj 981 731 bng 19 250 50 0 empty empty empty 0 -10 0 12 #fcfcfc #000000 #000000;
#X obj 1045 750 bng 19 250 50 0 empty empty empty 0 -10 0 12 #fcfcfc #000000 #000000;
#X obj 1219 810 tabread nearest_array;
#X obj 660 380 i;
#X obj 819 379 i;
#X obj 1232 295 bng 19 250 50 0 empty empty empty 0 -10 0 12 #fcfcfc #000000 #000000;
#X obj 1232 319 t b b b b b;
#X obj 1306 589 until;
#X obj 1306 613 f;
#X obj 1349 590 + 1;
#X msg 1306 566 3;
#X msg 1351 543 0;
#X obj 1306 520 bng 19 250 50 0 empty empty empty 0 -10 0 12 #fcfcfc #000000 #000000;
#X obj 1306 543 t b b;
#X obj 658 286 r cC-index;
#X obj 812 268 r nC-index;
#X obj 1306 497 t b f;
#X obj 549 510 mton;
#X obj 550 557 print C:;
#X obj 819 450 mton;
#X obj 867 485 print S:;
#X obj 819 426 t f f;
#X obj 683 589 list store;
#X obj 658 308 t a a;
#X obj 660 435 t f f f;
#X obj 689 552 bng 19 250 50 0 empty empty empty 0 -10 0 12 #fcfcfc #000000 #000000;
#X floatatom 683 485 5 0 0 0 - - - 0;
#X msg 641 535 append \$1;
#X obj 750 554 bng 19 250 50 0 empty empty empty 0 -10 0 12 #fcfcfc #000000 #000000;
#X obj 1338 519 s cC-index;
#X obj 1304 639 s nC-index;
#X obj 683 624 print current;
#X obj 1066 610 text set chords;
#X obj 812 312 t a a a;
#X obj 1148 455 tabread nearest_array;
#X obj 1102 422 t f f f;
#X obj 1149 509 list store;
#X obj 1123 484 bng 19 250 50 0 empty empty empty 0 -10 0 12 #fcfcfc #000000 #000000;
#X msg 1148 484 append \$1;
#X obj 1223 483 bng 19 250 50 0 empty empty empty 0 -10 0 12 #fcfcfc #000000 #000000;
#X obj 812 512 t b b f;
#X obj 1023 507 print nearest;
#X obj 590 316 print cC;
#X floatatom 1318 472 5 0 3 0 - - - 0;
#X connect 2 0 4 1;
#X connect 3 0 4 0;
#X connect 4 0 13 0;
#X connect 4 0 12 0;
#X connect 5 0 3 0;
#X connect 5 0 21 0;
#X connect 6 0 10 0;
#X connect 7 0 10 0;
#X connect 8 0 10 0;
#X connect 9 0 10 0;
#X connect 10 0 5 0;
#X connect 10 0 15 0;
#X connect 10 1 16 0;
#X connect 11 0 10 0;
#X connect 12 0 14 0;
#X connect 13 0 2 0;
#X connect 14 0 21 1;
#X connect 15 0 23 0;
#X connect 15 1 23 1;
#X connect 16 0 18 0;
#X connect 17 0 16 1;
#X connect 17 0 19 0;
#X connect 18 0 15 1;
#X connect 18 0 82 0;
#X connect 19 0 20 0;
#X connect 20 0 4 0;
#X connect 24 0 23 0;
#X connect 26 0 97 0;
#X connect 28 0 27 1;
#X connect 29 0 96 0;
#X connect 30 0 23 0;
#X connect 31 0 148 0;
#X connect 32 0 76 0;
#X connect 32 0 166 0;
#X connect 33 0 73 0;
#X connect 33 0 169 0;
#X connect 34 0 37 0;
#X connect 35 0 38 0;
#X connect 36 0 39 0;
#X connect 36 0 40 0;
#X connect 36 1 41 0;
#X connect 37 0 42 0;
#X connect 38 0 37 0;
#X connect 38 1 37 1;
#X connect 42 0 36 0;
#X connect 45 0 61 0;
#X connect 45 0 79 0;
#X connect 46 0 61 0;
#X connect 47 0 56 0;
#X connect 47 2 56 1;
#X connect 48 0 54 0;
#X connect 49 0 66 0;
#X connect 49 0 70 0;
#X connect 50 0 51 0;
#X connect 51 0 52 1;
#X connect 53 0 54 1;
#X connect 54 0 55 0;
#X connect 54 0 50 0;
#X connect 55 0 53 0;
#X connect 56 0 57 0;
#X connect 57 0 49 0;
#X connect 58 0 52 0;
#X connect 59 0 178 0;
#X connect 60 0 149 0;
#X connect 62 0 31 0;
#X connect 63 0 180 0;
#X connect 65 0 52 0;
#X connect 66 0 67 0;
#X connect 66 1 68 0;
#X connect 66 2 52 0;
#X connect 66 2 48 0;
#X connect 67 0 65 0;
#X connect 67 1 69 0;
#X connect 68 0 58 0;
#X connect 68 1 69 0;
#X connect 69 0 54 0;
#X connect 70 0 71 0;
#X connect 70 1 72 0;
#X connect 73 0 74 0;
#X connect 73 1 75 0;
#X connect 76 0 77 0;
#X connect 76 1 78 0;
#X connect 79 0 80 0;
#X connect 79 1 81 0;
#X connect 82 0 83 0;
#X connect 82 1 84 0;
#X connect 86 0 133 0;
#X connect 90 0 122 0;
#X connect 91 0 93 0;
#X connect 93 0 88 0;
#X connect 93 1 86 0;
#X connect 93 2 134 0;
#X connect 93 3 94 0;
#X connect 94 0 95 0;
#X connect 95 0 92 0;
#X connect 96 0 90 0;
#X connect 96 1 119 0;
#X connect 97 0 89 0;
#X connect 97 1 29 0;
#X connect 97 2 27 1;
#X connect 98 0 99 0;
#X connect 99 0 100 0;
#X connect 99 1 101 0;
#X connect 99 2 102 0;
#X connect 99 3 103 0;
#X connect 100 0 107 0;
#X connect 101 0 110 0;
#X connect 102 0 113 0;
#X connect 103 0 116 0;
#X connect 104 0 106 0;
#X connect 105 0 98 0;
#X connect 106 0 98 0;
#X connect 106 1 105 0;
#X connect 107 0 108 0;
#X connect 107 1 109 0;
#X connect 110 0 111 0;
#X connect 110 1 112 0;
#X connect 113 0 114 0;
#X connect 113 1 115 0;
#X connect 116 0 117 0;
#X connect 116 1 118 0;
#X connect 119 0 27 0;
#X connect 120 0 119 1;
#X connect 122 0 89 1;
#X connect 123 0 124 0;
#X connect 124 0 125 0;
#X connect 124 0 188 0;
#X connect 125 0 124 1;
#X connect 126 0 123 0;
#X connect 127 0 124 0;
#X connect 128 0 129 0;
#X connect 129 0 126 0;
#X connect 129 1 127 0;
#X connect 130 0 131 0;
#X connect 131 0 132 0;
#X connect 131 0 26 0;
#X connect 132 0 131 1;
#X connect 133 0 130 0;
#X connect 134 0 131 0;
#X connect 135 0 136 0;
#X connect 136 0 137 0;
#X connect 136 0 147 0;
#X connect 137 0 136 1;
#X connect 138 0 135 0;
#X connect 139 0 136 0;
#X connect 140 0 141 0;
#X connect 141 0 138 0;
#X connect 141 1 139 0;
#X connect 143 0 144 0;
#X connect 145 0 143 0;
#X connect 146 0 143 1;
#X connect 148 0 33 0;
#X connect 149 0 32 0;
#X connect 150 0 151 0;
#X connect 151 4 128 0;
#X connect 152 0 153 0;
#X connect 153 0 154 0;
#X connect 153 0 175 0;
#X connect 154 0 153 1;
#X connect 155 0 152 0;
#X connect 156 0 153 0;
#X connect 157 0 158 0;
#X connect 158 0 155 0;
#X connect 158 1 156 0;
#X connect 159 0 168 0;
#X connect 159 0 187 0;
#X connect 160 0 59 0;
#X connect 161 0 157 0;
#X connect 161 1 174 0;
#X connect 162 0 163 0;
#X connect 166 0 164 0;
#X connect 166 0 165 0;
#X connect 166 1 43 0;
#X connect 167 0 176 0;
#X connect 168 1 62 0;
#X connect 169 0 163 0;
#X connect 169 1 171 0;
#X connect 169 2 44 0;
#X connect 170 0 167 0;
#X connect 172 0 167 0;
#X connect 173 0 167 1;
#X connect 178 0 185 0;
#X connect 178 1 63 0;
#X connect 178 2 60 0;
#X connect 179 0 183 0;
#X connect 179 0 186 0;
#X connect 179 0 177 0;
#X connect 180 0 61 1;
#X connect 180 2 179 0;
#X connect 182 0 181 0;
#X connect 183 0 181 0;
#X connect 184 0 181 1;
#X connect 188 0 161 0;
