#N canvas 260 65 1874 639 12;
#N canvas 979 155 450 278 (subpatch) 0;
#X array current_chord 4 float 3;
#A 0 68.5714 68 64.4285 64.4286;
#X coords 0 80 4 60 200 140 1 0 0;
#X restore 222 63 graph;
#N canvas 631 610 450 278 (subpatch) 0;
#X array next_chord 4 float 3;
#A 0 70.5715 74.8573 75.4287 78.1429;
#X coords 0 80 4 60 200 140 1 0 0;
#X restore 426 64 graph;
#X msg 17 309 0 0;
#X msg 16 286 1 3;
#X msg 15 264 2 7;
#X msg 14 241 3 12;
#X msg 47 287 1 4;
#N canvas 0 22 450 278 (subpatch) 0;
#X array prime_chord 4 float 3;
#A 0 0 1 2 3;
#X coords 0 12 4 0 200 140 1 0 0;
#X restore 4 64 graph;
#N canvas 0 22 450 278 (subpatch) 0;
#X array nearest_array 4 float 3;
#A 0 70 74 75 66;
#X coords 0 80 4 60 200 140 1 0 0;
#X restore 630 64 graph;
#X floatatom 1517 231 5 0 3 0 - - - 0;
#X obj 1621 369 tabwrite current_chord;
#X msg 1772 344 0;
#X obj 1540 282 tabread next_chord;
#X obj 1106 13 notein;
#X obj 1309 65 bng 19 250 50 0 empty empty empty 0 -10 0 12 #fcfcfc #000000 #000000;
#X floatatom 1106 82 5 0 0 0 - - - 0;
#X obj 1331 176 - 1;
#X floatatom 1331 200 5 0 0 0 - - - 0;
#X obj 1180 226 tabwrite current_chord;
#X obj 1388 152 + 1;
#X obj 1332 152 f;
#X obj 1360 152 % 5;
#X obj 1106 36 stripnote;
#X obj 1106 60 change;
#X msg 1143 198 set next_chord;
#X msg 1106 171 set current_chord;
#X obj 1106 105 route 44 45;
#X obj 1085 131 t b b;
#X obj 1141 131 t b b;
#X msg 1253 135 1;
#X obj 1154 60 mton;
#X listbox 1154 84 3 0 0 0 - - - 0;
#X floatatom 1180 84 3 0 0 0 - - - 0;
#X text 1447 129 start;
#X obj 1516 131 bng 19 250 50 0 empty empty empty 17 7 0 10 #dfdfdf #000000 #000000;
#X text 1538 131 reset;
#X obj 1467 93 text define chords;
#X obj 1517 389 pack f f;
#X obj 1568 338 i;
#X obj 1467 21 bng 19 250 50 0 empty empty empty 0 -10 0 12 #fcfcfc #000000 #000000;
#X obj 1634 122 text delete chords;
#X obj 1467 46 t b b b b, f 21;
#X obj 1611 70 bng 19 250 50 0 empty empty empty 0 -10 0 12 #fcfcfc #000000 #000000;
#X msg 1637 88 -1;
#X obj 1540 311 t a a;
#X obj 1517 256 t a a a;
#X obj 1505 690 text sequence chords;
#X obj 1505 714 route 0 1 2 3;
#X floatatom 1505 739 5 0 0 0 - - - 0;
#X floatatom 1546 738 5 0 0 0 - - - 0;
#X floatatom 1587 738 5 0 0 0 - - - 0;
#X floatatom 1627 737 5 0 0 0 - - - 0;
#X obj 1505 637 bng 19 250 50 0 empty empty empty 0 -10 0 12 #fcfcfc #000000 #000000;
#X msg 1548 664 line 0;
#X obj 1505 664 t a a;
#X obj 1505 763 mton;
#X listbox 1504 787 3 0 0 0 - - - 0;
#X floatatom 1530 787 3 0 0 0 - - - 0;
#X obj 1559 762 mton;
#X listbox 1559 786 3 0 0 0 - - - 0;
#X floatatom 1585 786 3 0 0 0 - - - 0;
#X obj 1615 763 mton;
#X listbox 1615 787 3 0 0 0 - - - 0;
#X floatatom 1641 787 3 0 0 0 - - - 0;
#X obj 1670 762 mton;
#X listbox 1670 786 3 0 0 0 - - - 0;
#X floatatom 1696 786 3 0 0 0 - - - 0;
#X obj 1621 339 spigot;
#X obj 1660 313 tgl 19 0 empty empty empty 0 -10 0 12 #fcfcfc #000000 #000000 0 1;
#N canvas 734 239 954 779 nearestNotes 0;
#X text 13 6 nearest_above;
#X floatatom 422 236 5 0 0 0 - - - 0;
#X text 323 192 nearest_below;
#X floatatom 365 240 5 0 0 0 - - - 0;
#X obj 422 258 t f b;
#X obj 398 357 ==;
#X obj 359 416 spigot;
#X obj 422 416 spigot;
#X floatatom 397 453 5 0 0 0 - - - 0;
#X obj 432 358 == 0;
#X text 652 81 nearest_note;
#X obj 397 481 s below;
#X obj 695 127 r above;
#X floatatom 695 151 5 0 0 0 - - - 0;
#X floatatom 751 151 5 0 0 0 - - - 0;
#X obj 751 127 r below;
#X floatatom 604 151 5 0 0 0 - - - 0;
#X obj 643 209 -;
#X obj 652 177 t b f;
#X obj 643 235 abs;
#X floatatom 643 259 5 0 0 0 - - - 0;
#X obj 722 204 -;
#X obj 721 176 t b f;
#X obj 722 228 abs;
#X floatatom 722 255 5 0 0 0 - - - 0;
#X obj 397 319 t b f;
#X obj 694 316 <;
#X obj 721 316 == 0;
#X obj 695 282 t b f;
#X obj 641 363 spigot;
#X obj 700 362 spigot;
#X floatatom 676 407 5 0 0 0 - - - 0;
#X obj 641 340 r above;
#X obj 700 340 r below;
#X obj 676 430 s nearest;
#X obj 359 217 r above;
#X obj 452 458 mton;
#X listbox 452 482 3 0 0 0 - - - 0;
#X floatatom 478 482 3 0 0 0 - - - 0;
#X obj 746 406 mton;
#X listbox 746 430 3 0 0 0 - - - 0;
#X floatatom 772 430 3 0 0 0 - - - 0;
#X obj 306 54 r sample;
#X obj 89 73 r comparison;
#X obj 89 96 t f f;
#X obj 306 79 t t f f;
#X obj 421 392 - 12;
#X obj 174 183 mton;
#X floatatom 134 182 5 0 0 0 - - - 0;
#X floatatom 199 206 5 0 0 0 - - - 0;
#X obj 58 182 mton;
#X floatatom 18 182 5 0 0 0 - - - 0;
#X floatatom 87 206 5 0 0 0 - - - 0;
#X listbox 174 206 3 0 0 0 - - - 0;
#X listbox 60 206 3 0 0 0 - - - 0;
#X obj 134 260 -;
#X obj 134 227 t b f;
#X floatatom 134 315 5 0 0 0 - - - 0;
#X obj 134 287 / 12;
#X text 62 315 sample is;
#X text 174 315 octaves from comparison;
#X obj 18 224 t f f;
#X floatatom 48 514 5 0 0 0 - - - 0;
#X obj 18 613 mton;
#X floatatom 43 636 5 0 0 0 - - - 0;
#X listbox 18 636 3 0 0 0 - - - 0;
#X obj 134 343 i;
#X floatatom 134 367 5 0 0 0 - - - 0;
#X obj 134 390 * 12;
#X obj 19 489 -, f 8;
#X obj 40 462 t b f;
#X obj 54 614 s above;
#X text 435 336 above == sample;
#X connect 1 0 4 0;
#X connect 3 0 25 0;
#X connect 3 0 46 0;
#X connect 4 0 5 0;
#X connect 5 0 9 0;
#X connect 5 0 6 1;
#X connect 6 0 8 0;
#X connect 7 0 8 0;
#X connect 8 0 11 0;
#X connect 8 0 36 0;
#X connect 9 0 7 1;
#X connect 12 0 13 0;
#X connect 13 0 18 0;
#X connect 14 0 22 0;
#X connect 15 0 14 0;
#X connect 16 0 17 0;
#X connect 16 0 21 0;
#X connect 17 0 19 0;
#X connect 18 0 17 0;
#X connect 18 1 17 1;
#X connect 19 0 20 0;
#X connect 20 0 26 0;
#X connect 21 0 23 0;
#X connect 22 0 21 0;
#X connect 22 1 21 1;
#X connect 23 0 24 0;
#X connect 24 0 28 0;
#X connect 25 0 5 0;
#X connect 25 1 5 1;
#X connect 26 0 27 0;
#X connect 26 0 29 1;
#X connect 27 0 30 1;
#X connect 28 0 26 0;
#X connect 28 1 26 1;
#X connect 29 0 31 0;
#X connect 30 0 31 0;
#X connect 31 0 34 0;
#X connect 31 0 39 0;
#X connect 32 0 29 0;
#X connect 33 0 30 0;
#X connect 35 0 3 0;
#X connect 35 0 6 0;
#X connect 36 0 37 0;
#X connect 36 1 38 0;
#X connect 39 0 40 0;
#X connect 39 1 41 0;
#X connect 42 0 45 0;
#X connect 43 0 44 0;
#X connect 44 1 48 0;
#X connect 45 1 1 0;
#X connect 45 2 51 0;
#X connect 46 0 7 0;
#X connect 47 0 53 0;
#X connect 47 1 49 0;
#X connect 48 0 56 0;
#X connect 48 0 47 0;
#X connect 50 0 54 0;
#X connect 50 1 52 0;
#X connect 51 0 50 0;
#X connect 51 0 61 0;
#X connect 55 0 58 0;
#X connect 56 0 55 0;
#X connect 56 1 55 1;
#X connect 57 0 66 0;
#X connect 58 0 57 0;
#X connect 61 0 69 0;
#X connect 61 1 55 0;
#X connect 62 0 63 0;
#X connect 62 0 71 0;
#X connect 63 0 65 0;
#X connect 63 1 64 0;
#X connect 66 0 67 0;
#X connect 67 0 68 0;
#X connect 68 0 70 0;
#X connect 69 0 62 0;
#X connect 69 0 63 0;
#X connect 70 0 69 0;
#X connect 70 1 69 1;
#X restore 13 383 pd nearestNotes;
#X obj 1570 363 t a a;
#X obj 1306 412 until;
#X obj 1306 443 f;
#X obj 1334 443 + 1;
#X msg 1306 389 3;
#X msg 1340 389 0;
#X obj 1306 343 bng 19 250 50 0 empty empty empty 0 -10 0 12 #fcfcfc #000000 #000000;
#X obj 1306 366 t b b;
#X obj 1517 185 until;
#X obj 1517 209 f;
#X obj 1549 209 + 1;
#X msg 1517 162 3;
#X msg 1551 162 0;
#X obj 1219 764 until;
#X obj 1219 788 f;
#X obj 1251 788 + 1;
#X msg 1219 741 3;
#X msg 1251 741 0;
#X obj 1219 695 bng 19 250 50 0 empty empty empty 0 -10 0 12 #fcfcfc #000000 #000000;
#X obj 1219 718 t b b;
#X obj 1219 810 tabread nearest_array;
#X obj 1232 295 bng 19 250 50 0 empty empty empty 0 -10 0 12 #fcfcfc #000000 #000000;
#X obj 1232 319 t b b b b b;
#X obj 1306 589 until;
#X obj 1306 613 f;
#X obj 1349 590 + 1;
#X msg 1306 566 3;
#X msg 1351 543 0;
#X obj 1306 520 bng 19 250 50 0 empty empty empty 0 -10 0 12 #fcfcfc #000000 #000000;
#X obj 1306 543 t b b;
#X obj 1306 497 t b f;
#X obj 1338 519 s cC-index;
#X obj 1304 639 s nC-index;
#X floatatom 1306 472 5 0 3 0 - - - 0;
#N canvas 908 653 604 300 write_chords 1;
#X obj 197 65 + 1;
#X obj 141 40 bng 19 250 50 0 empty empty empty 0 -10 0 12 #fcfcfc #000000 #000000;
#X obj 141 65 f;
#X floatatom 15 39 5 0 0 0 - - - 0;
#X obj 250 43 unpack f f;
#X obj 141 87 - 1;
#X obj 169 65 % 5;
#X floatatom 141 111 5 0 0 0 - - - 0;
#X obj 300 162 swap;
#X obj 324 105 +;
#X floatatom 343 72 5 0 0 0 - - - 0;
#X floatatom 324 129 5 0 0 0 - - - 0;
#X obj 271 138 bng 19 250 50 0 empty empty empty 0 -10 0 12 #fcfcfc #000000 #000000;
#X msg 193 110 0;
#X obj 16 155 tabwrite prime_chord;
#X obj 253 256 tabwrite current_chord;
#X msg 392 166 set next_chord;
#X msg 398 136 set current_chord;
#X obj 424 85 mton;
#X listbox 424 109 3 0 0 0 - - - 0;
#X floatatom 450 109 3 0 0 0 - - - 0;
#X obj 243 16 inlet;
#X obj 343 23 inlet;
#X obj 467 223 inlet;
#X connect 0 0 2 1;
#X connect 1 0 2 0;
#X connect 2 0 6 0;
#X connect 2 0 5 0;
#X connect 3 0 1 0;
#X connect 3 0 14 0;
#X connect 4 0 3 0;
#X connect 4 0 8 0;
#X connect 4 1 9 0;
#X connect 5 0 7 0;
#X connect 6 0 0 0;
#X connect 7 0 14 1;
#X connect 8 0 15 0;
#X connect 8 1 15 1;
#X connect 9 0 11 0;
#X connect 10 0 9 1;
#X connect 10 0 12 0;
#X connect 11 0 8 1;
#X connect 11 0 18 0;
#X connect 12 0 13 0;
#X connect 13 0 2 0;
#X connect 16 0 15 0;
#X connect 17 0 15 0;
#X connect 18 0 19 0;
#X connect 18 1 20 0;
#X connect 21 0 4 0;
#X connect 22 0 10 0;
#X connect 23 0 15 0;
#X restore 14 359 pd write_chords;
#X floatatom 65 336 5 0 0 0 - - - 0;
#X msg 128 325 set next_chord;
#X msg 116 304 set current_chord;
#X text 62 260 degrees;
#X text 61 317 root;
#X floatatom 276 250 5 0 0 0 - - - 0;
#X obj 276 277 s comparison;
#X floatatom 423 208 5 0 3 0 - - - 0;
#X obj 418 251 s cC-index;
#N canvas 458 611 741 421 scanChords 1;
#X obj 24 105 tabread current_chord;
#X floatatom 183 153 5 0 0 0 - - - 0;
#X floatatom 24 161 5 0 0 0 - - - 0;
#X obj 217 200 s sample;
#X obj 70 207 s comparison;
#X obj 315 26 r nearest;
#X msg 382 142 0;
#X floatatom 176 39 5 0 3 0 - - - 0;
#X obj 183 104 tabread next_chord;
#X obj 315 205 tabwrite nearest_array;
#X floatatom 24 83 5 0 3 0 - - - 0;
#X floatatom 466 148 5 0 0 0 - - - 0;
#X obj 115 130 mton;
#X listbox 115 154 3 0 0 0 - - - 0;
#X floatatom 141 154 3 0 0 0 - - - 0;
#X obj 245 128 mton;
#X listbox 245 152 3 0 0 0 - - - 0;
#X floatatom 271 152 3 0 0 0 - - - 0;
#X obj 324 48 mton;
#X listbox 324 72 3 0 0 0 - - - 0;
#X floatatom 350 72 3 0 0 0 - - - 0;
#X obj 24 129 i;
#X obj 183 128 i;
#X obj 22 23 r cC-index;
#X obj 176 17 r nC-index;
#X obj 183 199 mton;
#X obj 183 175 t f f;
#X obj 24 184 t f f f;
#X floatatom 48 232 5 0 0 0 - - - 0;
#X obj 512 204 tabread nearest_array;
#X obj 466 171 t f f f;
#X obj 176 261 t b b f;
#X obj 177 61 t f f;
#X obj 22 51 t f f;
#X connect 0 0 21 0;
#X connect 1 0 26 0;
#X connect 1 0 15 0;
#X connect 2 0 27 0;
#X connect 2 0 12 0;
#X connect 5 0 9 0;
#X connect 5 0 18 0;
#X connect 6 0 9 0;
#X connect 7 0 32 0;
#X connect 8 0 22 0;
#X connect 10 0 0 0;
#X connect 11 0 30 0;
#X connect 12 0 13 0;
#X connect 12 1 14 0;
#X connect 15 0 16 0;
#X connect 15 1 17 0;
#X connect 18 0 19 0;
#X connect 18 1 20 0;
#X connect 21 0 2 0;
#X connect 22 0 1 0;
#X connect 23 0 33 0;
#X connect 24 0 7 0;
#X connect 26 0 25 0;
#X connect 26 1 3 0;
#X connect 27 1 28 0;
#X connect 27 2 4 0;
#X connect 30 0 9 1;
#X connect 30 2 29 0;
#X connect 32 0 8 0;
#X connect 32 1 11 0;
#X connect 33 1 10 0;
#X restore 12 406 pd scanChords;
#X obj 318 230 mton;
#X listbox 318 254 3 0 0 0 - - - 0;
#X floatatom 344 254 3 0 0 0 - - - 0;
#X floatatom 254 349 5 0 0 0 - - - 0;
#X floatatom 471 228 5 0 3 0 - - - 0;
#X obj 294 329 mton;
#X listbox 294 353 3 0 0 0 - - - 0;
#X floatatom 320 353 3 0 0 0 - - - 0;
#X obj 254 374 s sample;
#X obj 495 250 s nC-index;
#X obj 727 211 r nearest;
#X floatatom 727 234 5 0 0 0 - - - 0;
#X obj 675 209 mton;
#X listbox 675 233 3 0 0 0 - - - 0;
#X floatatom 701 233 3 0 0 0 - - - 0;
#X obj 272 208 r comparison;
#X obj 254 309 r sample;
#X msg 471 207 0;
#X obj 422 231 t b f;
#X connect 2 0 104 0;
#X connect 3 0 104 0;
#X connect 4 0 104 0;
#X connect 5 0 104 0;
#X connect 6 0 104 0;
#X connect 9 0 45 0;
#X connect 11 0 10 1;
#X connect 12 0 44 0;
#X connect 13 0 22 0;
#X connect 13 2 22 1;
#X connect 14 0 20 0;
#X connect 15 0 26 0;
#X connect 15 0 30 0;
#X connect 16 0 17 0;
#X connect 17 0 18 1;
#X connect 19 0 20 1;
#X connect 20 0 21 0;
#X connect 20 0 16 0;
#X connect 21 0 19 0;
#X connect 22 0 23 0;
#X connect 23 0 15 0;
#X connect 24 0 18 0;
#X connect 25 0 18 0;
#X connect 26 0 27 0;
#X connect 26 1 28 0;
#X connect 26 2 18 0;
#X connect 26 2 14 0;
#X connect 27 0 25 0;
#X connect 27 1 29 0;
#X connect 28 0 24 0;
#X connect 28 1 29 0;
#X connect 29 0 20 0;
#X connect 30 0 31 0;
#X connect 30 1 32 0;
#X connect 34 0 81 0;
#X connect 38 0 70 0;
#X connect 39 0 41 0;
#X connect 41 0 36 0;
#X connect 41 1 34 0;
#X connect 41 2 82 0;
#X connect 41 3 42 0;
#X connect 42 0 43 0;
#X connect 43 0 40 0;
#X connect 44 0 38 0;
#X connect 44 1 67 0;
#X connect 45 0 37 0;
#X connect 45 1 12 0;
#X connect 45 2 10 1;
#X connect 46 0 47 0;
#X connect 47 0 48 0;
#X connect 47 1 49 0;
#X connect 47 2 50 0;
#X connect 47 3 51 0;
#X connect 48 0 55 0;
#X connect 49 0 58 0;
#X connect 50 0 61 0;
#X connect 51 0 64 0;
#X connect 52 0 54 0;
#X connect 53 0 46 0;
#X connect 54 0 46 0;
#X connect 54 1 53 0;
#X connect 55 0 56 0;
#X connect 55 1 57 0;
#X connect 58 0 59 0;
#X connect 58 1 60 0;
#X connect 61 0 62 0;
#X connect 61 1 63 0;
#X connect 64 0 65 0;
#X connect 64 1 66 0;
#X connect 67 0 10 0;
#X connect 68 0 67 1;
#X connect 70 0 37 1;
#X connect 71 0 72 0;
#X connect 72 0 73 0;
#X connect 72 0 103 0;
#X connect 73 0 72 1;
#X connect 74 0 71 0;
#X connect 75 0 72 0;
#X connect 76 0 77 0;
#X connect 77 0 74 0;
#X connect 77 1 75 0;
#X connect 78 0 79 0;
#X connect 79 0 80 0;
#X connect 79 0 9 0;
#X connect 80 0 79 1;
#X connect 81 0 78 0;
#X connect 82 0 79 0;
#X connect 83 0 84 0;
#X connect 84 0 85 0;
#X connect 84 0 90 0;
#X connect 85 0 84 1;
#X connect 86 0 83 0;
#X connect 87 0 84 0;
#X connect 88 0 89 0;
#X connect 89 0 86 0;
#X connect 89 1 87 0;
#X connect 91 0 92 0;
#X connect 92 4 76 0;
#X connect 93 0 94 0;
#X connect 94 0 95 0;
#X connect 94 0 102 0;
#X connect 95 0 94 1;
#X connect 96 0 93 0;
#X connect 97 0 94 0;
#X connect 98 0 99 0;
#X connect 99 0 96 0;
#X connect 99 1 97 0;
#X connect 100 0 98 0;
#X connect 100 1 101 0;
#X connect 103 0 100 0;
#X connect 105 0 104 1;
#X connect 106 0 104 2;
#X connect 107 0 104 2;
#X connect 110 0 111 0;
#X connect 110 0 115 0;
#X connect 112 0 133 0;
#X connect 115 0 116 0;
#X connect 115 1 117 0;
#X connect 118 0 120 0;
#X connect 118 0 123 0;
#X connect 119 0 124 0;
#X connect 120 0 121 0;
#X connect 120 1 122 0;
#X connect 125 0 126 0;
#X connect 126 0 127 0;
#X connect 127 0 128 0;
#X connect 127 1 129 0;
#X connect 130 0 115 0;
#X connect 131 0 120 0;
#X connect 132 0 119 0;
#X connect 133 0 132 0;
#X connect 133 1 113 0;
