#N canvas 474 85 1482 1012 12;
#N canvas 979 155 450 278 (subpatch) 0;
#X array current_chord 4 float 3;
#A 0 67 71 74 79;
#X coords 0 80 4 60 200 140 1 0 0;
#X restore 207 63 graph;
#N canvas 631 610 450 278 (subpatch) 0;
#X array next_chord 4 float 3;
#A 0 60 64 67 72;
#X coords 0 80 4 60 200 139 1 0 0;
#X restore 615 62 graph;
#X msg 17 309 0 0;
#X msg 16 286 1 3;
#X msg 15 264 2 7;
#X msg 14 241 3 12;
#X msg 47 287 1 4;
#N canvas 0 22 450 278 (subpatch) 0;
#X array prime_chord 4 float 3;
#A 0 0 1 2 3;
#X coords 0 12 4 0 200 140 1 0 0;
#X restore 4 64 graph;
#N canvas 0 22 450 278 (subpatch) 0;
#X array nearest_array 4 float 3;
#A 0 62 66 69 74;
#X coords 0 80 4 60 200 140 1 0 0;
#X restore 1100 67 graph;
#X floatatom 1904 189 5 0 3 0 - - - 0;
#X obj 2008 327 tabwrite current_chord;
#X msg 2159 302 0;
#X obj 1927 240 tabread next_chord;
#X text 1834 87 start;
#X obj 1903 89 bng 19 250 50 0 empty empty empty 17 7 0 10 #dfdfdf #000000 #000000;
#X text 1925 89 reset;
#X obj 1854 51 text define chords;
#X obj 1904 347 pack f f;
#X obj 1955 296 i;
#X obj 1854 -21 bng 19 250 50 0 empty empty empty 0 -10 0 12 #fcfcfc #000000 #000000;
#X obj 2021 80 text delete chords;
#X obj 1854 4 t b b b b, f 21;
#X obj 1998 28 bng 19 250 50 0 empty empty empty 0 -10 0 12 #fcfcfc #000000 #000000;
#X msg 2024 46 -1;
#X obj 1927 269 t a a;
#X obj 1904 214 t a a a;
#X obj 1942 680 text sequence chords;
#X obj 1942 704 route 0 1 2 3;
#X floatatom 1942 729 5 0 0 0 - - - 0;
#X floatatom 1983 728 5 0 0 0 - - - 0;
#X floatatom 2024 728 5 0 0 0 - - - 0;
#X floatatom 2064 727 5 0 0 0 - - - 0;
#X obj 1942 627 bng 19 250 50 0 empty empty empty 0 -10 0 12 #fcfcfc #000000 #000000;
#X msg 1985 654 line 0;
#X obj 1942 654 t a a;
#X obj 1942 753 mton;
#X listbox 1941 777 3 0 0 0 - - - 0;
#X floatatom 1967 777 3 0 0 0 - - - 0;
#X obj 1996 752 mton;
#X listbox 1996 776 3 0 0 0 - - - 0;
#X floatatom 2022 776 3 0 0 0 - - - 0;
#X obj 2052 753 mton;
#X listbox 2052 777 3 0 0 0 - - - 0;
#X floatatom 2078 777 3 0 0 0 - - - 0;
#X obj 2107 752 mton;
#X listbox 2107 776 3 0 0 0 - - - 0;
#X floatatom 2133 778 3 0 0 0 - - - 0;
#X obj 2008 297 spigot;
#X obj 2047 271 tgl 19 0 empty empty empty 0 -10 0 12 #fcfcfc #000000 #000000 0 1;
#N canvas 610 156 954 779 nearestNotes 0;
#X text 13 6 nearest_above;
#X floatatom 422 236 5 0 0 0 - - - 0;
#X text 323 192 nearest_below;
#X floatatom 365 240 5 0 0 0 - - - 0;
#X obj 422 258 t f b;
#X obj 398 357 ==;
#X obj 359 416 spigot;
#X obj 422 416 spigot;
#X floatatom 397 453 5 0 0 0 - - - 0;
#X obj 432 358 == 0;
#X text 652 81 nearest_note;
#X obj 397 481 s below;
#X obj 595 93 r above;
#X floatatom 695 151 5 0 0 0 - - - 0;
#X floatatom 782 158 5 0 0 0 - - - 0;
#X obj 749 88 r below;
#X floatatom 638 150 5 0 0 0 - - - 0;
#X obj 643 209 -;
#X obj 652 177 t b f;
#X obj 643 235 abs;
#X floatatom 643 259 5 0 0 0 - - - 0;
#X obj 722 204 -;
#X obj 721 176 t b f;
#X obj 722 228 abs;
#X floatatom 722 255 5 0 0 0 - - - 0;
#X obj 397 319 t b f;
#X obj 721 316 == 0;
#X obj 695 282 t b f;
#X obj 595 346 spigot;
#X obj 786 358 spigot;
#X floatatom 676 407 5 0 0 0 - - - 0;
#X obj 676 430 s nearest;
#X obj 359 217 r above;
#X obj 452 458 mton;
#X listbox 452 482 3 0 0 0 - - - 0;
#X floatatom 478 482 3 0 0 0 - - - 0;
#X obj 746 406 mton;
#X listbox 746 430 3 0 0 0 - - - 0;
#X floatatom 772 430 3 0 0 0 - - - 0;
#X obj 306 54 r sample;
#X obj 89 73 r comparison;
#X obj 421 392 - 12;
#X obj 174 183 mton;
#X floatatom 134 182 5 0 0 0 - - - 0;
#X floatatom 199 206 5 0 0 0 - - - 0;
#X obj 58 182 mton;
#X floatatom 18 182 5 0 0 0 - - - 0;
#X floatatom 87 206 5 0 0 0 - - - 0;
#X listbox 174 206 3 0 0 0 - - - 0;
#X listbox 60 206 3 0 0 0 - - - 0;
#X obj 134 260 -;
#X obj 134 227 t b f;
#X floatatom 134 315 5 0 0 0 - - - 0;
#X obj 134 287 / 12;
#X text 62 315 sample is;
#X text 174 315 octaves from comparison;
#X obj 18 224 t f f;
#X floatatom 48 514 5 0 0 0 - - - 0;
#X obj 18 613 mton;
#X floatatom 43 636 5 0 0 0 - - - 0;
#X listbox 18 636 3 0 0 0 - - - 0;
#X obj 134 343 i;
#X floatatom 134 367 5 0 0 0 - - - 0;
#X obj 134 390 * 12;
#X obj 19 489 -, f 8;
#X obj 40 462 t b f;
#X obj 54 614 s above;
#X text 435 336 above == sample;
#X obj 89 96 t b f;
#X obj 595 117 t f f;
#X obj 787 122 t f f;
#X obj 694 317 >;
#X obj 306 79 t b f f;
#X connect 1 0 4 0;
#X connect 3 0 25 0;
#X connect 3 0 41 0;
#X connect 4 0 5 0;
#X connect 5 0 9 0;
#X connect 5 0 6 1;
#X connect 6 0 8 0;
#X connect 7 0 8 0;
#X connect 8 0 11 0;
#X connect 8 0 33 0;
#X connect 9 0 7 1;
#X connect 12 0 69 0;
#X connect 13 0 18 0;
#X connect 14 0 22 0;
#X connect 15 0 70 0;
#X connect 16 0 17 0;
#X connect 16 0 21 0;
#X connect 17 0 19 0;
#X connect 18 0 17 0;
#X connect 18 1 17 1;
#X connect 19 0 20 0;
#X connect 20 0 71 0;
#X connect 21 0 23 0;
#X connect 22 0 21 0;
#X connect 22 1 21 1;
#X connect 23 0 24 0;
#X connect 24 0 27 0;
#X connect 25 0 5 0;
#X connect 25 1 5 1;
#X connect 26 0 29 1;
#X connect 27 0 71 0;
#X connect 27 1 71 1;
#X connect 28 0 30 0;
#X connect 29 0 30 0;
#X connect 30 0 31 0;
#X connect 30 0 36 0;
#X connect 32 0 3 0;
#X connect 32 0 6 0;
#X connect 33 0 34 0;
#X connect 33 1 35 0;
#X connect 36 0 37 0;
#X connect 36 1 38 0;
#X connect 39 0 72 0;
#X connect 40 0 68 0;
#X connect 41 0 7 0;
#X connect 42 0 48 0;
#X connect 42 1 44 0;
#X connect 43 0 51 0;
#X connect 43 0 42 0;
#X connect 45 0 49 0;
#X connect 45 1 47 0;
#X connect 46 0 45 0;
#X connect 46 0 56 0;
#X connect 50 0 53 0;
#X connect 51 0 50 0;
#X connect 51 1 50 1;
#X connect 52 0 61 0;
#X connect 53 0 52 0;
#X connect 56 0 64 0;
#X connect 56 1 50 0;
#X connect 57 0 58 0;
#X connect 57 0 66 0;
#X connect 58 0 60 0;
#X connect 58 1 59 0;
#X connect 61 0 62 0;
#X connect 62 0 63 0;
#X connect 63 0 65 0;
#X connect 64 0 57 0;
#X connect 64 0 58 0;
#X connect 65 0 64 0;
#X connect 65 1 64 1;
#X connect 68 0 46 0;
#X connect 68 1 43 0;
#X connect 69 0 28 0;
#X connect 69 1 13 0;
#X connect 70 0 29 0;
#X connect 70 1 14 0;
#X connect 71 0 26 0;
#X connect 71 0 28 1;
#X connect 72 1 1 0;
#X connect 72 2 46 0;
#X restore 13 383 pd nearestNotes;
#X obj 1957 321 t a a;
#X obj 1904 143 until;
#X obj 1904 167 f;
#X obj 1936 167 + 1;
#X msg 1904 120 3;
#X msg 1938 120 0;
#N canvas 479 595 660 358 write_chords 0;
#X obj 197 65 + 1;
#X obj 141 40 bng 19 250 50 0 empty empty empty 0 -10 0 12 #fcfcfc #000000 #000000;
#X obj 141 65 f;
#X floatatom 15 39 5 0 0 0 - - - 0;
#X obj 250 43 unpack f f;
#X obj 141 87 - 1;
#X obj 169 65 % 5;
#X floatatom 141 111 5 0 0 0 - - - 0;
#X obj 300 162 swap;
#X obj 324 105 +;
#X floatatom 343 72 5 0 0 0 - - - 0;
#X floatatom 324 129 5 0 0 0 - - - 0;
#X obj 271 138 bng 19 250 50 0 empty empty empty 0 -10 0 12 #fcfcfc #000000 #000000;
#X msg 193 110 0;
#X obj 16 155 tabwrite prime_chord;
#X obj 253 256 tabwrite current_chord;
#X msg 392 166 set next_chord;
#X msg 398 136 set current_chord;
#X obj 424 85 mton;
#X listbox 424 109 3 0 0 0 - - - 0;
#X floatatom 450 109 3 0 0 0 - - - 0;
#X obj 243 16 inlet;
#X obj 343 23 inlet;
#X obj 467 223 inlet;
#X connect 0 0 2 1;
#X connect 1 0 2 0;
#X connect 2 0 6 0;
#X connect 2 0 5 0;
#X connect 3 0 1 0;
#X connect 3 0 14 0;
#X connect 4 0 3 0;
#X connect 4 0 8 0;
#X connect 4 1 9 0;
#X connect 5 0 7 0;
#X connect 6 0 0 0;
#X connect 7 0 14 1;
#X connect 8 0 15 0;
#X connect 8 1 15 1;
#X connect 9 0 11 0;
#X connect 10 0 9 1;
#X connect 10 0 12 0;
#X connect 11 0 8 1;
#X connect 11 0 18 0;
#X connect 12 0 13 0;
#X connect 13 0 2 0;
#X connect 16 0 15 0;
#X connect 17 0 15 0;
#X connect 18 0 19 0;
#X connect 18 1 20 0;
#X connect 21 0 4 0;
#X connect 22 0 10 0;
#X connect 23 0 15 0;
#X restore 14 359 pd write_chords;
#X floatatom 65 336 5 0 0 0 - - - 0;
#X msg 126 326 set next_chord;
#X msg 116 304 set current_chord;
#X text 62 260 degrees;
#X text 61 317 root;
#X floatatom 276 253 5 0 0 0 - - - 0;
#X obj 276 275 s comparison;
#X floatatom 514 210 5 0 3 0 - - - 0;
#X obj 509 254 s cC-index;
#N canvas 713 420 741 421 scanChords 0;
#X obj 24 105 tabread current_chord;
#X floatatom 183 153 5 0 0 0 - - - 0;
#X floatatom 24 161 5 0 0 0 - - - 0;
#X obj 217 200 s sample;
#X obj 70 207 s comparison;
#X obj 315 26 r nearest;
#X msg 382 142 0;
#X floatatom 176 39 5 0 3 0 - - - 0;
#X obj 183 104 tabread next_chord;
#X obj 315 205 tabwrite nearest_array;
#X floatatom 24 83 5 0 3 0 - - - 0;
#X floatatom 466 148 5 0 0 0 - - - 0;
#X obj 115 130 mton;
#X listbox 115 154 3 0 0 0 - - - 0;
#X floatatom 141 154 3 0 0 0 - - - 0;
#X obj 245 128 mton;
#X listbox 245 152 3 0 0 0 - - - 0;
#X floatatom 271 152 3 0 0 0 - - - 0;
#X obj 324 48 mton;
#X listbox 324 72 3 0 0 0 - - - 0;
#X floatatom 350 72 3 0 0 0 - - - 0;
#X obj 24 129 i;
#X obj 183 128 i;
#X obj 22 23 r cC-index;
#X obj 176 17 r nC-index;
#X obj 183 199 mton;
#X obj 183 175 t f f;
#X obj 24 184 t f f f;
#X floatatom 48 232 5 0 0 0 - - - 0;
#X obj 512 204 tabread nearest_array;
#X obj 466 171 t f f f;
#X obj 177 61 t f f;
#X obj 22 51 t f f;
#X connect 0 0 21 0;
#X connect 1 0 26 0;
#X connect 1 0 15 0;
#X connect 2 0 27 0;
#X connect 2 0 12 0;
#X connect 5 0 9 0;
#X connect 5 0 18 0;
#X connect 6 0 9 0;
#X connect 7 0 31 0;
#X connect 8 0 22 0;
#X connect 10 0 0 0;
#X connect 11 0 30 0;
#X connect 12 0 13 0;
#X connect 12 1 14 0;
#X connect 15 0 16 0;
#X connect 15 1 17 0;
#X connect 18 0 19 0;
#X connect 18 1 20 0;
#X connect 21 0 2 0;
#X connect 22 0 1 0;
#X connect 23 0 32 0;
#X connect 24 0 7 0;
#X connect 26 0 25 0;
#X connect 26 1 3 0;
#X connect 27 1 28 0;
#X connect 27 2 4 0;
#X connect 30 0 9 1;
#X connect 30 2 29 0;
#X connect 31 0 8 0;
#X connect 31 1 11 0;
#X connect 32 1 10 0;
#X restore 12 406 pd scanChords;
#X obj 318 230 mton;
#X listbox 318 254 3 0 0 0 - - - 0;
#X floatatom 344 254 3 0 0 0 - - - 0;
#X floatatom 369 237 5 0 0 0 - - - 0;
#X floatatom 558 209 5 0 3 0 - - - 0;
#X obj 409 233 mton;
#X listbox 411 255 3 0 0 0 - - - 0;
#X floatatom 437 255 3 0 0 0 - - - 0;
#X obj 369 275 s sample;
#X obj 586 253 s nC-index;
#X obj 727 211 r nearest;
#X floatatom 727 234 5 0 0 0 - - - 0;
#X obj 676 209 mton;
#X listbox 676 234 3 0 0 0 - - - 0;
#X floatatom 701 233 3 0 0 0 - - - 0;
#X obj 272 208 r comparison;
#X obj 370 208 r sample;
#X msg 557 233 0;
#X obj 513 233 t b f;
#N canvas 167 146 399 277 chordsFromMidi 0;
#X obj 18 10 notein;
#X obj 103 102 bng 19 250 50 0 empty empty empty 0 -10 0 12 #fcfcfc #000000 #000000;
#X floatatom 18 79 5 0 0 0 - - - 0;
#X obj 243 152 - 1;
#X floatatom 243 176 5 0 0 0 - - - 0;
#X obj 92 211 tabwrite current_chord;
#X obj 300 128 + 1;
#X obj 244 128 f;
#X obj 272 128 % 5;
#X obj 18 33 stripnote;
#X obj 18 57 change;
#X msg 55 183 set next_chord;
#X msg 18 156 set current_chord;
#X obj 18 102 route 44 45;
#X obj 18 128 t b b;
#X obj 63 127 t b b;
#X msg 106 125 1;
#X obj 66 57 mton;
#X listbox 66 81 3 0 0 0 - - - 0;
#X floatatom 92 81 3 0 0 0 - - - 0;
#X connect 0 0 9 0;
#X connect 0 2 9 1;
#X connect 1 0 7 0;
#X connect 2 0 13 0;
#X connect 2 0 17 0;
#X connect 3 0 4 0;
#X connect 4 0 5 1;
#X connect 6 0 7 1;
#X connect 7 0 8 0;
#X connect 7 0 3 0;
#X connect 8 0 6 0;
#X connect 9 0 10 0;
#X connect 10 0 2 0;
#X connect 11 0 5 0;
#X connect 12 0 5 0;
#X connect 13 0 14 0;
#X connect 13 1 15 0;
#X connect 13 2 5 0;
#X connect 13 2 1 0;
#X connect 14 0 12 0;
#X connect 14 1 16 0;
#X connect 15 0 11 0;
#X connect 15 1 16 0;
#X connect 16 0 7 0;
#X connect 17 0 18 0;
#X connect 17 1 19 0;
#X restore 11 428 pd chordsFromMidi;
#N canvas 109 88 450 278 (subpatch) 0;
#X array picks 6 float 3;
#A 0 62 62 62 66 69 74;
#X coords 0 80 6 60 200 140 1 0 0;
#X restore 875 72 graph;
#X obj 467 321 bng 19 250 50 0 empty empty empty 0 -10 0 12 #fcfcfc #000000 #000000;
#X obj 701 464 s cC-index;
#X obj 1354 466 print cC-index;
#X obj 1357 493 print nc-index;
#X obj 488 410 cyclone/uzi 4 0;
#X obj 490 499 cyclone/uzi 4 0;
#X obj 578 604 i, f 4;
#X obj 590 443 t b f f f;
#X obj 592 525 t f f f;
#X obj 751 301 print nearest_array;
#X obj 905 569 print current_chord;
#X obj 486 704 spigot;
#X obj 610 680 t f f;
#X obj 681 515 i;
#X obj 610 655 expr if(abs($i2 - $i1) <= 2 \, 1 \, 0);
#X obj 638 547 s nC-index;
#X obj 681 491 expr current_chord[$i1];
#X obj 615 572 expr nearest_array[$i1];
#X obj 578 627 t f f;
#X obj 734 543 mton;
#X obj 486 728 t f b;
#X obj 252 387 bng 19 250 50 0 empty empty empty 0 -10 0 12 #fcfcfc #000000 #000000;
#X obj 608 410 text define seen;
#X obj 313 587 text search seen;
#X obj 313 612 == -1;
#X obj 260 564 t a a;
#X msg 608 364 clear;
#X obj 301 767 text insert seen;
#X obj 911 606 array size picks;
#X obj 201 691 mton;
#X obj 201 714 list trim;
#X obj 617 387 text define picks;
#X obj 486 838 text insert picks;
#X obj 260 638 spigot 1;
#X floatatom 347 502 5 0 0 0 - - - 0;
#X obj 252 490 cyclone/uzi;
#X msg 257 465 offset 0;
#X obj 325 465 text size picks;
#X obj 326 533 text get picks;
#X obj 201 738 pack s f;
#X obj 988 657 array;
#X obj 252 431 t b b b b;
#X obj 281 852 cyclone/uzi;
#X msg 282 825 offset 0;
#X obj 201 761 list trim;
#X obj 125 851 print new chord;
#X obj 355 821 text size seen;
#X floatatom 201 667 5 0 0 0 - - - 0;
#N canvas 1095 242 450 278 (subpatch) 0;
#X array new_chord 4 float 3;
#A 0 62 66 69 74;
#X coords 0 80 4 60 200 140 1 0 0;
#X restore 407 63 graph;
#X obj 707 350 array;
#X obj 468 345 t b b b b;
#X obj 508 635 - 1;
#X obj 486 781 expr picks[$i2] = $i1;
#X obj 508 757 f;
#X obj 543 758 + 1;
#X obj 486 809 t f b;
#X msg 529 809 1e+09;
#X msg 321 724 1e+09;
#X obj 232 880 tabwrite new_chord;
#X obj 261 665 t a a a b;
#X obj 281 796 t f b b b;
#N canvas 1080 222 825 492 play 1;
#X obj 128 326 output~;
#X listbox 128 266 13 0 0 0 - - - 0;
#X obj 128 173 pack;
#X obj 128 139 makenote 100 250;
#X obj 128 239 pack f f f;
#X obj 253 142 makenote 100 250;
#X obj 383 141 makenote 100 250;
#X obj 253 166 pack;
#X obj 384 163 pack;
#X obj 131 296 clone -s 1 polyplaits 4;
#X obj 128 213 poly 4 1;
#X obj 503 141 makenote 100 250;
#X obj 504 163 pack;
#X obj 120 3 inlet;
#X obj 221 56 tabread next_chord;
#X obj 120 27 cyclone/uzi 4 0;
#X obj 75 13 bng 19 250 50 0 empty empty empty 0 -10 0 12 #fcfcfc #000000 #000000;
#X connect 1 0 9 0;
#X connect 2 0 10 0;
#X connect 3 0 2 0;
#X connect 3 1 2 1;
#X connect 4 0 1 0;
#X connect 5 0 7 0;
#X connect 5 1 7 1;
#X connect 6 0 8 0;
#X connect 6 1 8 1;
#X connect 7 0 10 0;
#X connect 8 0 10 0;
#X connect 9 0 0 0;
#X connect 10 0 4 0;
#X connect 10 1 4 1;
#X connect 10 2 4 2;
#X connect 11 0 12 0;
#X connect 11 1 12 1;
#X connect 12 0 10 0;
#X connect 13 0 15 0;
#X connect 14 0 3 0;
#X connect 15 2 14 0;
#X connect 16 0 15 0;
#X restore 861 819 pd play;
#X connect 2 0 56 0;
#X connect 3 0 56 0;
#X connect 4 0 56 0;
#X connect 5 0 56 0;
#X connect 6 0 56 0;
#X connect 9 0 25 0;
#X connect 11 0 10 1;
#X connect 12 0 24 0;
#X connect 14 0 54 0;
#X connect 18 0 50 0;
#X connect 19 0 21 0;
#X connect 21 0 16 0;
#X connect 21 1 14 0;
#X connect 21 2 55 0;
#X connect 21 3 22 0;
#X connect 22 0 23 0;
#X connect 23 0 20 0;
#X connect 24 0 18 0;
#X connect 24 1 47 0;
#X connect 25 0 17 0;
#X connect 25 1 12 0;
#X connect 25 2 10 1;
#X connect 26 0 27 0;
#X connect 27 0 28 0;
#X connect 27 1 29 0;
#X connect 27 2 30 0;
#X connect 27 3 31 0;
#X connect 28 0 35 0;
#X connect 29 0 38 0;
#X connect 30 0 41 0;
#X connect 31 0 44 0;
#X connect 32 0 34 0;
#X connect 33 0 26 0;
#X connect 34 0 26 0;
#X connect 34 1 33 0;
#X connect 35 0 36 0;
#X connect 35 1 37 0;
#X connect 38 0 39 0;
#X connect 38 1 40 0;
#X connect 41 0 42 0;
#X connect 41 1 43 0;
#X connect 44 0 45 0;
#X connect 44 1 46 0;
#X connect 47 0 10 0;
#X connect 48 0 47 1;
#X connect 50 0 17 1;
#X connect 51 0 52 0;
#X connect 52 0 53 0;
#X connect 52 0 9 0;
#X connect 53 0 52 1;
#X connect 54 0 51 0;
#X connect 55 0 52 0;
#X connect 57 0 56 1;
#X connect 58 0 56 2;
#X connect 59 0 56 2;
#X connect 62 0 63 0;
#X connect 62 0 67 0;
#X connect 64 0 85 0;
#X connect 67 0 68 0;
#X connect 67 1 69 0;
#X connect 70 0 72 0;
#X connect 70 0 75 0;
#X connect 71 0 76 0;
#X connect 72 0 73 0;
#X connect 72 1 74 0;
#X connect 77 0 78 0;
#X connect 77 0 97 0;
#X connect 78 0 79 0;
#X connect 79 0 80 0;
#X connect 79 1 81 0;
#X connect 82 0 67 0;
#X connect 83 0 72 0;
#X connect 84 0 71 0;
#X connect 85 0 84 0;
#X connect 85 1 65 0;
#X connect 88 0 138 0;
#X connect 92 2 95 0;
#X connect 93 2 96 0;
#X connect 94 0 106 0;
#X connect 95 0 93 0;
#X connect 95 2 104 0;
#X connect 95 3 89 0;
#X connect 96 1 105 0;
#X connect 96 2 103 0;
#X connect 99 0 108 0;
#X connect 100 0 99 1;
#X connect 101 0 107 0;
#X connect 101 0 102 1;
#X connect 102 0 100 0;
#X connect 104 0 101 0;
#X connect 105 0 94 0;
#X connect 106 0 99 0;
#X connect 106 1 102 0;
#X connect 108 0 140 0;
#X connect 108 1 141 0;
#X connect 109 0 129 0;
#X connect 111 0 112 0;
#X connect 112 0 121 1;
#X connect 113 0 121 0;
#X connect 113 1 111 0;
#X connect 114 0 119 0;
#X connect 114 0 110 0;
#X connect 117 0 118 0;
#X connect 117 1 127 1;
#X connect 118 0 127 0;
#X connect 121 0 147 0;
#X connect 122 0 126 0;
#X connect 123 2 126 0;
#X connect 124 0 123 0;
#X connect 125 0 123 1;
#X connect 126 0 113 0;
#X connect 127 0 132 0;
#X connect 129 0 123 0;
#X connect 129 2 124 0;
#X connect 129 3 125 0;
#X connect 130 2 146 1;
#X connect 131 0 130 0;
#X connect 132 0 133 0;
#X connect 134 0 130 1;
#X connect 135 0 117 0;
#X connect 138 0 109 0;
#X connect 138 1 92 0;
#X connect 138 2 139 0;
#X connect 138 3 114 0;
#X connect 139 0 141 0;
#X connect 140 0 143 0;
#X connect 141 0 142 0;
#X connect 141 0 140 1;
#X connect 142 0 141 1;
#X connect 143 0 120 0;
#X connect 143 1 144 0;
#X connect 144 0 120 1;
#X connect 145 0 115 1;
#X connect 147 0 117 0;
#X connect 147 1 148 0;
#X connect 147 2 115 0;
#X connect 147 3 145 0;
#X connect 148 0 146 0;
#X connect 148 1 130 0;
#X connect 148 2 131 0;
#X connect 148 3 134 0;
