#N struct c-template-samples float a float b float c float d;
#N struct c-template float a array root chord-samples float b array third chord-samples float c array fifth chord-samples float d array eigth chord-samples;
#N struct chord-samples float a float b float c float d;
#N canvas 705 122 840 790 12;
#X floatatom 99 287 5 0 0 0 - - - 0;
#X floatatom 142 286 5 0 0 0 - - - 0;
#X floatatom 182 286 5 0 0 0 - - - 0;
#X floatatom 222 285 5 0 0 0 - - - 0;
#X msg 75 142 next;
#X obj 122 191 pointer;
#X msg 133 445 69 67 79 73 \, 60 65 72 78;
#X obj 312 467 pointer;
#X msg 327 442 next;
#X msg 139 120 traverse pd-chords;
#X msg 301 405 traverse pd-chords \, bang;
#X msg 133 610 69 67 79 73 \, 60 65 72 78;
#X obj 397 646 pointer;
#X msg 367 586 next;
#X msg 397 614 traverse pd-chords \, bang;
#N canvas 86 541 915 300 c-template 1;
#X obj 53 32 struct c-template float a array root chord-samples float b array third chord-samples float c array fifth chord-samples float d array eigth chord-samples;
#X coords 0 0 1 1 85 60 0;
#X restore 172 43 pd c-template;
#X obj 133 496 append c-template a b c d;
#N canvas 160 752 557 300 c-template-samples 0;
#X obj 51 83 struct c-template-samples float a float b float c float d;
#X restore 172 65 pd c-template-samples;
#X msg 475 47 \; pd-chords write chords.txt;
#X obj 134 687 append c-template-samples a b c d;
#X obj 547 115 vradio 19 1 0 8 empty empty empty 0 -10 0 12 #fcfcfc #000000 #000000 0;
#X floatatom 547 272 5 0 0 0 - - - 0;
#X obj 546 319 pointer;
#X floatatom 547 370 5 0 0 0 - - - 0;
#X floatatom 590 369 5 0 0 0 - - - 0;
#X floatatom 630 369 5 0 0 0 - - - 0;
#X floatatom 670 368 5 0 0 0 - - - 0;
#X obj 95 244 get c-template a b c d;
#N canvas 60 53 450 300 chords 0;
#X scalar c-template-samples 69 67 79 73 \;;
#X scalar c-template-samples 89 97 89 83 \;;
#X scalar c-template-samples 89 97 89 83 \;;
#X scalar c-template-samples 43 43 54 54 \;;
#X scalar c-template-samples 43 43 54 54 \;;
#X scalar c-template-samples 60 65 72 78 \;;
#X scalar c-template-samples 69 67 79 73 \;;
#X scalar c-template-samples 60 65 72 78 \;;
#X scalar c-template 69 67 79 73 \; 0 0 0 0 \; \; 0 0 0 0 \; \; 0 0 0 0 \; \; 0 0 0 0 \; \;;
#X scalar c-template 60 65 72 78 \; 0 0 0 0 \; \; 0 0 0 0 \; \; 0 0 0 0 \; \; 0 0 0 0 \; \;;
#X restore 172 21 pd chords;
#X obj 552 296 element c-chords;
#X obj 546 343 get c-template a b c d;
#X msg 144 642 89 97 89 83 \, 43 43 54 54;
#X connect 4 0 5 0;
#X connect 5 0 27 0;
#X connect 6 0 16 0;
#X connect 7 0 16 4;
#X connect 8 0 7 0;
#X connect 9 0 5 0;
#X connect 10 0 7 0;
#X connect 11 0 19 0;
#X connect 12 0 19 4;
#X connect 13 0 12 0;
#X connect 14 0 12 0;
#X connect 20 0 21 0;
#X connect 21 0 29 0;
#X connect 22 0 30 0;
#X connect 27 0 0 0;
#X connect 27 1 1 0;
#X connect 27 2 2 0;
#X connect 27 3 3 0;
#X connect 29 0 22 0;
#X connect 30 0 23 0;
#X connect 30 0 26 0;
#X connect 30 0 25 0;
#X connect 30 0 24 0;
#X connect 31 0 19 0;
