#N canvas 96 274 1427 670 12;
#N canvas 979 155 450 278 (subpatch) 0;
#X array current_chord 4 float 3;
#A 0 64 67 72 74;
#X coords 0 80 4 60 200 140 1 0 0;
#X restore 205 23 graph;
#N canvas 631 610 450 278 (subpatch) 0;
#X array next_chord 4 float 3;
#A 0 60 64 67 72;
#X coords 0 80 4 60 200 139 1 0 0;
#X restore 408 24 graph;
#N canvas 0 22 450 278 (subpatch) 0;
#X array prime_chord 4 float 3;
#A 0 3 2 1 0;
#X coords 0 12 4 0 200 140 1 0 0;
#X restore 2 23 graph;
#N canvas 0 22 450 278 (subpatch) 0;
#X array nearest_array 4 float 3;
#A 0 72 64 67 72;
#X coords 0 80 4 60 200 140 1 0 0;
#X restore 211 322 graph;
#N canvas 1174 356 949 733 nearestNotes 0;
#X restore 857 51 pd nearestNotes;
#N canvas 1179 123 741 421 scanChords 1;
#X obj 24 105 tabread current_chord;
#X floatatom 183 150 5 0 0 0 - - - 0;
#X floatatom 24 151 5 0 0 0 - - - 0;
#X obj 183 196 s sample;
#X obj 24 194 s comparison;
#X obj 316 3 r nearest;
#X floatatom 183 59 5 0 3 0 - - - 0;
#X obj 183 105 tabread next_chord;
#X obj 315 197 tabwrite nearest_array;
#X floatatom 24 83 5 0 3 0 - - - 0;
#X floatatom 466 172 5 0 0 0 - - - 0;
#X obj 30 172 mton;
#X listbox 64 173 5 0 0 0 - - - 0;
#X obj 189 173 mton;
#X listbox 224 174 5 0 0 0 - - - 0;
#X obj 324 48 mton;
#X listbox 358 49 4 0 0 0 - - - 0;
#X obj 24 129 i;
#X obj 183 128 i;
#X obj 24 60 r cC-index;
#X obj 183 37 r nC-index;
#X obj 183 81 t f f;
#X connect 0 0 17 0;
#X connect 1 0 13 0;
#X connect 1 0 3 0;
#X connect 2 0 11 0;
#X connect 2 0 4 0;
#X connect 5 0 15 0;
#X connect 6 0 21 0;
#X connect 7 0 18 0;
#X connect 9 0 0 0;
#X connect 10 0 8 1;
#X connect 11 0 12 0;
#X connect 13 0 14 0;
#X connect 15 0 16 0;
#X connect 17 0 2 0;
#X connect 18 0 1 0;
#X connect 19 0 9 0;
#X connect 20 0 6 0;
#X connect 21 0 7 0;
#X connect 21 1 10 0;
#X restore 857 74 pd scanChords;
#N canvas 825 486 399 277 chordsFromMidi 0;
#X obj 18 10 notein;
#X obj 103 102 bng 19 250 50 0 empty empty empty 0 -10 0 12 #fcfcfc #000000 #000000;
#X floatatom 18 79 5 0 0 0 - - - 0;
#X obj 243 152 - 1;
#X floatatom 243 176 5 0 0 0 - - - 0;
#X obj 94 231 tabwrite current_chord;
#X obj 300 128 + 1;
#X obj 244 128 f;
#X obj 272 128 % 5;
#X obj 18 33 stripnote;
#X obj 18 57 change;
#X msg 55 203 set next_chord;
#X msg 19 167 set current_chord;
#X obj 18 102 route 44 45;
#X obj 18 128 t b b;
#X obj 63 127 t b b;
#X msg 106 125 1;
#X obj 66 57 mton;
#X listbox 66 81 3 0 0 0 - - - 0;
#X floatatom 92 81 3 0 0 0 - - - 0;
#X connect 0 0 9 0;
#X connect 0 2 9 1;
#X connect 1 0 7 0;
#X connect 2 0 13 0;
#X connect 2 0 17 0;
#X connect 3 0 4 0;
#X connect 6 0 7 1;
#X connect 7 0 8 0;
#X connect 7 0 3 0;
#X connect 8 0 6 0;
#X connect 9 0 10 0;
#X connect 10 0 2 0;
#X connect 13 0 14 0;
#X connect 13 1 15 0;
#X connect 13 2 1 0;
#X connect 14 1 16 0;
#X connect 15 1 16 0;
#X connect 16 0 7 0;
#X connect 17 0 18 0;
#X restore 829 254 pd chordsFromMidi;
#N canvas 109 88 450 278 (subpatch) 0;
#X array picks 6 float 3;
#A 0 64 67 72 72 72 72;
#X coords 0 80 6 60 200 140 1 0 0;
#X restore 4 320 graph;
#N canvas 1095 242 450 278 (subpatch) 0;
#X array new_chord 4 float 3;
#A 0 64 67 72 74;
#X coords 0 80 4 60 200 140 1 0 0;
#X restore 611 22 graph;
#N canvas 46 148 874 492 play 1;
#X obj 128 326 output~;
#X listbox 128 266 13 0 0 0 - - - 0;
#X obj 128 173 pack;
#X obj 128 139 makenote 100 250;
#X obj 128 239 pack f f f;
#X obj 27 33 inlet;
#X obj 27 57 cyclone/uzi 4 0;
#X obj 69 33 bng 19 250 50 0 empty empty empty 0 -10 0 12 #fcfcfc #000000 #000000;
#X obj 128 86 tabread new_chord;
#X obj 10 138 makenote 100 250;
#X obj 128 213 poly 5 1;
#X obj 131 296 clone -s 1 polyplaits 5;
#X obj 10 86 r root;
#X obj 10 110 - 12;
#X obj 186 19 bng 19 250 50 0 empty S-1 S-1 0 -10 0 12 #fcfcfc #000000 #000000;
#X obj 209 19 bng 19 250 50 0 empty S-2 S-2 0 -10 0 12 #fcfcfc #000000 #000000;
#X obj 157 21 bng 19 250 50 0 empty S-0 S-0 0 -10 0 12 #fcfcfc #000000 #000000;
#X msg 156 44 0;
#X msg 188 45 1;
#X msg 243 46 2;
#X msg 286 47 3;
#X obj 243 18 bng 19 250 50 0 empty S-3 S-3 0 -10 0 12 #fcfcfc #000000 #000000;
#X obj 285 18 bng 19 250 50 0 empty S-4 S-4 0 -10 0 12 #fcfcfc #000000 #000000;
#X obj 320 14 bng 19 250 50 0 empty S-5 S-5 0 -10 0 12 #fcfcfc #000000 #000000;
#X obj 351 13 bng 19 250 50 0 empty S-6 S-6 0 -10 0 12 #fcfcfc #000000 #000000;
#X connect 1 0 11 0;
#X connect 2 0 10 0;
#X connect 3 0 2 0;
#X connect 3 1 2 1;
#X connect 4 0 1 0;
#X connect 5 0 6 0;
#X connect 6 2 8 0;
#X connect 7 0 6 0;
#X connect 8 0 3 0;
#X connect 9 0 2 0;
#X connect 10 0 4 0;
#X connect 10 1 4 1;
#X connect 10 2 4 2;
#X connect 11 0 0 0;
#X connect 12 0 13 0;
#X connect 13 0 9 0;
#X connect 14 0 18 0;
#X connect 15 0 18 0;
#X connect 16 0 17 0;
#X connect 17 0 8 0;
#X connect 18 0 8 0;
#X connect 19 0 8 0;
#X connect 20 0 8 0;
#X connect 21 0 19 0;
#X connect 22 0 20 0;
#X connect 23 0 20 0;
#X connect 24 0 20 0;
#X restore 831 200 pd play;
#N canvas 214 85 1503 913 makeNewChord 1;
#X obj 601 14 bng 19 250 50 0 empty empty empty 0 -10 0 12 #fcfcfc #000000 #000000;
#X obj 1220 197 s cC-index;
#X obj 639 125 cyclone/uzi 4 0;
#X obj 855 187 cyclone/uzi 4 0;
#X obj 587 510 spigot, f 27;
#X obj 1096 401 i;
#X obj 773 453 expr if(abs($i2 - $i1) <= 2 \, 1 \, 0);
#X obj 1297 231 s nC-index;
#X obj 951 337 expr current_chord[$i1];
#X obj 860 376 expr nearest_array[$i1];
#X obj 1108 471 mton;
#X obj 587 541 t f b;
#X obj 777 104 text define seen;
#X obj 456 366 text search seen;
#X obj 456 391 == -1;
#X obj 403 347 t a a;
#X msg 777 56 clear;
#X obj 443 494 text insert seen;
#X obj 347 588 mton;
#X obj 347 611 list trim;
#X obj 786 79 text define picks;
#X obj 587 631 text insert picks;
#X obj 403 421 spigot 1;
#X obj 404 292 cyclone/uzi;
#X msg 429 221 offset 0;
#X obj 478 256 text size picks;
#X obj 403 321 text get picks;
#X obj 347 635 pack s f;
#X obj 443 591 cyclone/uzi;
#X msg 463 568 offset 0;
#X obj 347 658 list trim;
#X obj 299 711 print new chord;
#X obj 483 543 text size seen;
#X floatatom 347 564 5 0 0 0 - - - 0;
#X obj 658 481 - 1;
#X obj 587 574 expr picks[$i2] = $i1;
#X obj 659 541 f;
#X obj 694 542 + 1;
#X obj 587 602 t f b;
#X msg 645 603 1e+09;
#X msg 497 469 1e+09;
#X obj 422 658 tabwrite new_chord;
#X obj 403 446 t a a a b;
#X obj 423 519 t f b b b;
#X obj 1191 665 r nearest;
#X floatatom 1191 688 5 0 0 0 - - - 0;
#X obj 1260 665 mton;
#X listbox 1260 691 5 0 0 0 - - - 0;
#X obj 1193 736 print nearest_array;
#X obj 497 14 r makeNewChord;
#X obj 375 123 s readChord;
#X obj 345 151 s playChord;
#X obj 299 688 spigot;
#X obj 347 688 tgl 19 0 empty empty empty 0 -10 0 12 #fcfcfc #000000 #000000 0 1;
#X obj 1193 712 spigot;
#X obj 1241 712 tgl 19 0 empty empty empty 0 -10 0 12 #fcfcfc #000000 #000000 0 1;
#X obj 422 624 pack f f;
#X listbox 1142 472 5 0 0 0 - - - 0;
#X obj 345 94 t b b b b b, f 18;
#X obj 601 36 t b b b b b;
#X text 8 129 call readChord to display new chords in main patch;
#X text 129 151 call playChord in main patch;
#X obj 336 63 t a, f 4;
#X text 128 171 update current_chord array;
#N canvas 210 527 462 373 updateCurrent 0;
#X obj 80 122 tabread new_chord;
#X obj 80 170 tabwrite current_chord;
#X obj 78 9 inlet;
#X obj 79 31 bng 19 250 50 0 empty empty empty 0 -10 0 12 #fcfcfc #000000 #000000;
#X floatatom 132 75 5 0 0 0 - - - 0;
#X obj 80 146 pack f f, f 17;
#X obj 80 53 cyclone/uzi 4 0;
#X obj 132 98 t f f, f 9;
#X connect 0 0 5 0;
#X connect 2 0 3 0;
#X connect 3 0 6 0;
#X connect 4 0 7 0;
#X connect 5 0 1 0;
#X connect 6 2 4 0;
#X connect 7 0 0 0;
#X connect 7 1 5 1;
#X restore 337 176 pd updateCurrent;
#X text 1115 449 Compare current and next chords \, keeping the closest ones;
#X obj 1049 197 expr current_chord[$i1];
#X obj 1151 231 expr next_chord[$i1];
#N canvas 425 231 916 717 nearestNotes 0;
#X text 11 64 nearest_above;
#X floatatom 422 236 5 0 0 0 - - - 0;
#X floatatom 365 240 5 0 0 0 - - - 0;
#X obj 422 258 t f b;
#X obj 398 357 ==;
#X obj 359 416 spigot;
#X obj 422 416 spigot;
#X floatatom 397 453 5 0 0 0 - - - 0;
#X obj 432 358 == 0;
#X text 652 81 nearest_note;
#X obj 397 481 s below;
#X obj 595 93 r above;
#X floatatom 695 151 5 0 0 0 - - - 0;
#X floatatom 782 158 5 0 0 0 - - - 0;
#X obj 749 88 r below;
#X floatatom 638 150 5 0 0 0 - - - 0;
#X obj 643 209 -;
#X obj 652 177 t b f;
#X obj 643 235 abs;
#X floatatom 643 259 5 0 0 0 - - - 0;
#X obj 722 204 -;
#X obj 721 176 t b f;
#X obj 722 228 abs;
#X floatatom 722 255 5 0 0 0 - - - 0;
#X obj 397 319 t b f;
#X obj 721 316 == 0;
#X obj 695 282 t b f;
#X obj 595 346 spigot;
#X obj 786 358 spigot;
#X floatatom 676 407 5 0 0 0 - - - 0;
#X obj 676 430 s nearest;
#X obj 359 217 r above;
#X obj 452 458 mton;
#X listbox 452 482 3 0 0 0 - - - 0;
#X floatatom 478 482 3 0 0 0 - - - 0;
#X obj 746 406 mton;
#X listbox 746 430 3 0 0 0 - - - 0;
#X floatatom 772 430 3 0 0 0 - - - 0;
#X obj 421 392 - 12;
#X obj 174 183 mton;
#X floatatom 134 182 5 0 0 0 - - - 0;
#X floatatom 199 206 5 0 0 0 - - - 0;
#X obj 58 182 mton;
#X floatatom 18 182 5 0 0 0 - - - 0;
#X floatatom 87 206 5 0 0 0 - - - 0;
#X listbox 174 206 3 0 0 0 - - - 0;
#X listbox 60 206 3 0 0 0 - - - 0;
#X obj 134 260 -;
#X obj 134 227 t b f;
#X floatatom 134 315 5 0 0 0 - - - 0;
#X obj 134 287 / 12;
#X text 62 315 sample is;
#X text 174 315 octaves from comparison;
#X obj 18 224 t f f;
#X floatatom 48 514 5 0 0 0 - - - 0;
#X obj 19 544 mton;
#X floatatom 44 567 5 0 0 0 - - - 0;
#X listbox 19 567 3 0 0 0 - - - 0;
#X obj 134 343 i;
#X floatatom 134 367 5 0 0 0 - - - 0;
#X obj 134 390 * 12;
#X obj 19 489 -, f 8;
#X obj 40 462 t b f;
#X obj 55 545 s above;
#X text 435 336 above == sample;
#X obj 595 117 t f f;
#X obj 787 122 t f f;
#X obj 694 317 >;
#X text 13 24 comparison: note from current_chord;
#X text 378 22 sample: note from next_chord;
#X obj 18 84 inlet;
#X obj 18 108 i;
#X obj 18 133 t b a;
#X obj 389 85 inlet;
#X obj 389 109 i;
#X obj 389 134 t a a;
#X obj 653 453 outlet;
#X connect 1 0 3 0;
#X connect 2 0 24 0;
#X connect 2 0 38 0;
#X connect 3 0 4 0;
#X connect 4 0 8 0;
#X connect 4 0 5 1;
#X connect 5 0 7 0;
#X connect 6 0 7 0;
#X connect 7 0 10 0;
#X connect 7 0 32 0;
#X connect 8 0 6 1;
#X connect 11 0 65 0;
#X connect 12 0 17 0;
#X connect 13 0 21 0;
#X connect 14 0 66 0;
#X connect 15 0 16 0;
#X connect 15 0 20 0;
#X connect 16 0 18 0;
#X connect 17 0 16 0;
#X connect 17 1 16 1;
#X connect 18 0 19 0;
#X connect 19 0 67 0;
#X connect 20 0 22 0;
#X connect 21 0 20 0;
#X connect 21 1 20 1;
#X connect 22 0 23 0;
#X connect 23 0 26 0;
#X connect 24 0 4 0;
#X connect 24 1 4 1;
#X connect 25 0 28 1;
#X connect 26 0 67 0;
#X connect 26 1 67 1;
#X connect 27 0 29 0;
#X connect 28 0 29 0;
#X connect 29 0 30 0;
#X connect 29 0 35 0;
#X connect 29 0 76 0;
#X connect 31 0 2 0;
#X connect 31 0 5 0;
#X connect 32 0 33 0;
#X connect 35 0 36 0;
#X connect 38 0 6 0;
#X connect 39 0 45 0;
#X connect 40 0 48 0;
#X connect 40 0 39 0;
#X connect 42 0 46 0;
#X connect 43 0 53 0;
#X connect 43 0 42 0;
#X connect 47 0 50 0;
#X connect 48 0 47 0;
#X connect 48 1 47 1;
#X connect 49 0 58 0;
#X connect 50 0 49 0;
#X connect 53 0 61 0;
#X connect 53 1 47 0;
#X connect 54 0 63 0;
#X connect 54 0 55 0;
#X connect 55 0 57 0;
#X connect 58 0 59 0;
#X connect 59 0 60 0;
#X connect 60 0 62 0;
#X connect 61 0 54 0;
#X connect 61 0 55 0;
#X connect 62 0 61 0;
#X connect 62 1 61 1;
#X connect 65 0 27 0;
#X connect 65 1 12 0;
#X connect 66 0 28 0;
#X connect 66 1 13 0;
#X connect 67 0 25 0;
#X connect 67 0 27 1;
#X connect 70 0 71 0;
#X connect 71 0 72 0;
#X connect 72 0 43 0;
#X connect 72 1 40 0;
#X connect 73 0 74 0;
#X connect 74 0 75 0;
#X connect 75 0 43 0;
#X connect 75 1 1 0;
#X restore 1049 257 pd nearestNotes;
#X obj 957 283 expr nearest_array[$i1] = $i2;
#X floatatom 771 128 5 0 0 0 - - - 0;
#X obj 957 307 print nearest;
#X obj 758 318 cyclone/uzi 4 0;
#X obj 957 212 t f f;
#X obj 758 157 t b b f f, f 42;
#X obj 587 410 t a a, f 27;
#X text 685 481 reset picks counter before the loops begin;
#X connect 0 0 59 0;
#X connect 2 2 74 0;
#X connect 3 2 73 0;
#X connect 4 0 11 0;
#X connect 5 0 6 1;
#X connect 5 0 10 0;
#X connect 6 0 4 1;
#X connect 8 0 5 0;
#X connect 9 0 75 0;
#X connect 10 0 57 0;
#X connect 11 0 35 0;
#X connect 11 1 36 0;
#X connect 13 0 14 0;
#X connect 14 0 22 1;
#X connect 15 0 22 0;
#X connect 15 1 13 0;
#X connect 16 0 20 0;
#X connect 16 0 12 0;
#X connect 18 0 19 0;
#X connect 19 0 27 0;
#X connect 22 0 42 0;
#X connect 23 2 26 0;
#X connect 24 0 23 0;
#X connect 25 0 23 1;
#X connect 26 0 15 0;
#X connect 27 0 30 0;
#X connect 28 2 56 1;
#X connect 29 0 28 0;
#X connect 30 0 52 0;
#X connect 32 0 28 1;
#X connect 33 0 18 0;
#X connect 34 0 36 0;
#X connect 35 0 38 0;
#X connect 36 0 37 0;
#X connect 36 0 35 1;
#X connect 37 0 36 1;
#X connect 38 0 21 0;
#X connect 38 1 39 0;
#X connect 39 0 21 1;
#X connect 40 0 17 1;
#X connect 42 0 18 0;
#X connect 42 1 43 0;
#X connect 42 2 17 0;
#X connect 42 3 40 0;
#X connect 43 0 56 0;
#X connect 43 1 28 0;
#X connect 43 2 29 0;
#X connect 43 3 32 0;
#X connect 44 0 45 0;
#X connect 45 0 46 0;
#X connect 45 0 54 0;
#X connect 46 0 47 0;
#X connect 49 0 0 0;
#X connect 52 0 31 0;
#X connect 53 0 52 1;
#X connect 54 0 48 0;
#X connect 55 0 54 1;
#X connect 56 0 41 0;
#X connect 58 0 51 0;
#X connect 58 1 50 0;
#X connect 58 2 23 0;
#X connect 58 3 24 0;
#X connect 58 4 25 0;
#X connect 59 0 62 0;
#X connect 59 1 58 0;
#X connect 59 2 2 0;
#X connect 59 3 16 0;
#X connect 59 3 34 0;
#X connect 62 0 64 0;
#X connect 66 0 68 0;
#X connect 67 0 68 1;
#X connect 68 0 69 1;
#X connect 69 0 71 0;
#X connect 70 0 74 0;
#X connect 72 2 9 0;
#X connect 73 0 69 0;
#X connect 73 1 67 0;
#X connect 74 0 72 0;
#X connect 74 1 3 0;
#X connect 74 2 8 0;
#X connect 74 3 66 0;
#X connect 75 0 4 0;
#X connect 75 1 6 0;
#X restore 830 117 pd makeNewChord;
#X obj 831 177 bng 19 250 50 0 empty empty empty 0 -10 0 12 #fcfcfc #000000 #000000;
#N canvas 202 95 791 546 MidiRouting 0;
#X obj 26 83 s S-0;
#X obj 66 83 s S-1;
#X obj 106 83 s S-2;
#X obj 146 83 s S-3;
#X obj 26 34 stripnote;
#X msg 452 305 maj;
#X msg 493 307 dim;
#X msg 525 307 aug;
#X msg 626 309 mm7;
#X msg 557 307 MM7;
#X msg 589 308 Mm7;
#X obj 454 364 s chord;
#X obj 186 83 s S-4;
#X obj 373 132 s root;
#X obj 310 83 moses 59;
#X floatatom 382 109 5 0 0 0 - - - 0;
#X obj 26 10 notein 0;
#X msg 468 249 decay \$1;
#X msg 532 225 timbre \$1;
#X obj 532 271 s params;
#X msg 533 248 morph \$1;
#X obj 401 -19 / 127;
#X obj 534 1 / 127;
#X obj 596 -1 / 127;
#X obj 401 -41 ctlin 41;
#X obj 534 -23 ctlin 42;
#X obj 597 -23 ctlin 43;
#X obj 433 5 polytouchin;
#X obj 401 52 + 0.5;
#X obj 433 28 / 127;
#X obj 507 29 vsl 19 162 0 1 0 0 empty empty empty 0 -9 0 12 #fcfcfc #000000 #000000 0 1;
#X obj 534 28 vsl 19 162 0 1 0 0 empty empty empty 0 -9 0 12 #fcfcfc #000000 #000000 0 1;
#X obj 562 28 vsl 19 162 0 1 0 0 empty empty empty 0 -9 0 12 #fcfcfc #000000 #000000 0 1;
#X floatatom 532 200 5 0 0 0 - - - 0;
#X floatatom 570 200 5 0 0 0 - - - 0;
#X floatatom 486 200 5 0 0 0 - - - 0;
#X obj 26 57 sel 50 51 54 52 53 55 56, f 41;
#X obj 227 83 s S-5;
#X obj 267 83 s S-6;
#X obj 363 152 mton;
#X listbox 398 153 5 0 0 0 - - - 0;
#X connect 4 0 36 0;
#X connect 5 0 11 0;
#X connect 6 0 11 0;
#X connect 7 0 11 0;
#X connect 8 0 11 0;
#X connect 9 0 11 0;
#X connect 10 0 11 0;
#X connect 14 1 15 0;
#X connect 14 1 13 0;
#X connect 14 1 39 0;
#X connect 16 0 4 0;
#X connect 16 1 4 1;
#X connect 17 0 19 0;
#X connect 18 0 19 0;
#X connect 20 0 19 0;
#X connect 21 0 28 0;
#X connect 22 0 31 0;
#X connect 23 0 32 0;
#X connect 24 0 21 0;
#X connect 25 0 22 0;
#X connect 26 0 23 0;
#X connect 27 0 29 0;
#X connect 28 0 30 0;
#X connect 29 0 28 1;
#X connect 30 0 35 0;
#X connect 31 0 33 0;
#X connect 32 0 34 0;
#X connect 33 0 18 0;
#X connect 34 0 20 0;
#X connect 35 0 17 0;
#X connect 36 0 0 0;
#X connect 36 1 1 0;
#X connect 36 2 2 0;
#X connect 36 3 3 0;
#X connect 36 4 12 0;
#X connect 36 5 37 0;
#X connect 36 6 38 0;
#X connect 36 7 14 0;
#X connect 39 0 40 0;
#X restore 829 232 pd MidiRouting;
#X obj 427 231 nbx 5 17 -1e+37 1e+37 0 1 empty root Root 0 -10 0 12 #fcfcfc #000000 #000000 60 256;
#X obj 205 165 readChord current_chord;
#X listbox 205 187 5 0 0 0 - - - 0;
#X listbox 257 187 5 0 0 0 - - - 0;
#X listbox 309 187 5 0 0 0 - - - 0;
#X listbox 362 187 5 0 0 0 - - - 0;
#X listbox 408 188 5 0 0 0 - - - 0;
#X listbox 460 188 5 0 0 0 - - - 0;
#X listbox 512 188 5 0 0 0 - - - 0;
#X listbox 565 188 5 0 0 0 - - - 0;
#X obj 408 166 readChord next_chord, f 23;
#X listbox 612 188 5 0 0 0 - - - 0;
#X listbox 664 188 5 0 0 0 - - - 0;
#X listbox 717 188 5 0 0 0 - - - 0;
#X listbox 769 188 5 0 0 0 - - - 0;
#X obj 612 166 readChord new_chord, f 23;
#X obj 831 154 r playChord;
#X text 971 46 get nearest notes between comparison (current) and sample (next);
#X text 972 79 scan and compare current and next chords and write them to nearest_array;
#X text 951 118 iterate through the chords and build new chord \, then copy it to curent chord and play it;
#X text 964 244 midi routing and utilities;
#N canvas 664 25 529 710 build_chords 0;
#X obj 179 350 swap, f 25;
#X obj 288 304 mton;
#X listbox 323 304 5 0 0 0 - - - 0;
#X obj 161 57 nbx 5 17 -1e+37 1e+37 0 1 empty root Root 0 -10 0 12 #fcfcfc #000000 #000000 60 256;
#X obj 179 143 bng 19 250 50 0 empty S-0 S-0 0 -10 0 12 #fcfcfc #000000 #000000;
#X obj 217 131 bng 19 250 50 0 empty S-1 S-1 0 -10 0 12 #fcfcfc #000000 #000000;
#X obj 257 134 bng 19 250 50 0 empty S-2 S-2 0 -10 0 12 #fcfcfc #000000 #000000;
#X obj 288 136 bng 19 250 50 0 empty S-3 S-3 0 -10 0 12 #fcfcfc #000000 #000000;
#X obj 330 136 bng 19 250 50 0 empty S-4 S-4 0 -10 0 12 #fcfcfc #000000 #000000;
#X msg 179 165 0;
#X msg 218 156 3;
#X msg 257 156 4;
#X msg 288 158 7;
#X obj 179 210 +, f 5;
#X floatatom 248 305 5 0 0 0 - - - 0;
#X obj 179 306 unpack, f 9;
#X msg 179 244 0 \$1;
#X msg 219 244 1 \$1;
#X msg 288 244 2 \$1;
#X msg 328 244 3 \$1;
#X obj 179 188 t b f;
#X obj 219 210 +, f 5;
#X obj 219 183 t b f;
#X obj 288 202 +, f 5;
#X obj 288 180 t b f;
#X obj 330 202 +, f 5;
#X obj 330 180 t b f;
#X obj 271 448 bng 19 250 50 0 empty empty empty 0 -10 0 12 #fcfcfc #000000 #000000;
#X obj 224 476 s makeNewChord;
#X obj 161 579 s readChord;
#X obj 161 80 t b f f f f b, f 16;
#X obj 179 553 tabwrite next_chord, f 25;
#X obj 377 135 bng 19 250 50 0 empty S-5 S-5 0 -10 0 12 #fcfcfc #000000 #000000;
#X obj 414 134 bng 19 250 50 0 empty S-6 S-6 0 -10 0 12 #fcfcfc #000000 #000000;
#X msg 377 157 12;
#X msg 330 158 10;
#X msg 414 156 11;
#X connect 0 0 31 0;
#X connect 0 1 31 1;
#X connect 1 0 2 0;
#X connect 3 0 30 0;
#X connect 4 0 9 0;
#X connect 5 0 10 0;
#X connect 6 0 11 0;
#X connect 7 0 12 0;
#X connect 8 0 35 0;
#X connect 9 0 20 0;
#X connect 10 0 22 0;
#X connect 11 0 22 0;
#X connect 12 0 24 0;
#X connect 13 0 16 0;
#X connect 14 0 1 0;
#X connect 15 0 0 0;
#X connect 15 1 14 0;
#X connect 15 1 0 1;
#X connect 16 0 15 0;
#X connect 17 0 15 0;
#X connect 18 0 15 0;
#X connect 19 0 15 0;
#X connect 20 0 13 0;
#X connect 20 1 13 1;
#X connect 21 0 17 0;
#X connect 22 0 21 0;
#X connect 22 1 21 1;
#X connect 23 0 18 0;
#X connect 24 0 23 0;
#X connect 24 1 23 1;
#X connect 25 0 19 0;
#X connect 26 0 25 0;
#X connect 26 1 25 1;
#X connect 27 0 28 0;
#X connect 30 0 29 0;
#X connect 30 1 13 0;
#X connect 30 2 21 0;
#X connect 30 3 23 0;
#X connect 30 4 25 0;
#X connect 30 5 27 0;
#X connect 32 0 34 0;
#X connect 33 0 36 0;
#X connect 34 0 26 0;
#X connect 35 0 26 0;
#X connect 36 0 26 0;
#X restore 830 21 pd build_chords;
#X text 947 20 get root and chord degrees \, build the next chord to play;
#N canvas 1146 573 774 473 reset 1;
#X obj 84 221 tabwrite current_chord;
#X obj 84 114 text sequence defaultChord;
#X obj 189 66 text define -k defaultChord;
#A set 60 \; 64 \; 67 \; 72 \;;
#X obj 137 140 bng 19 250 50 0 empty empty empty 0 -10 0 12 #fcfcfc #000000 #000000;
#X obj 200 165 + 1;
#X obj 233 164 % 4;
#X msg 116 65 line 0;
#X obj 84 10 inlet;
#X obj 84 38 t b b;
#X obj 127 11 loadbang;
#X obj 137 168 f 1;
#X obj 84 193 pack f f;
#X connect 1 0 3 0;
#X connect 1 0 11 0;
#X connect 3 0 10 0;
#X connect 4 0 5 0;
#X connect 5 0 10 1;
#X connect 6 0 1 0;
#X connect 7 0 8 0;
#X connect 8 0 1 0;
#X connect 8 1 6 0;
#X connect 9 0 8 0;
#X connect 10 0 4 0;
#X connect 10 0 11 1;
#X connect 11 0 0 0;
#X restore 889 200 pd reset;
#X obj 888 175 bng 19 250 50 0 empty empty empty 0 -10 0 12 #fcfcfc #000000 #000000;
#X connect 11 0 9 0;
#X connect 14 0 15 0;
#X connect 14 1 16 0;
#X connect 14 2 17 0;
#X connect 14 3 18 0;
#X connect 23 0 19 0;
#X connect 23 1 20 0;
#X connect 23 2 21 0;
#X connect 23 3 22 0;
#X connect 28 0 24 0;
#X connect 28 1 25 0;
#X connect 28 2 26 0;
#X connect 28 3 27 0;
#X connect 29 0 11 0;
#X connect 37 0 36 0;
