#N canvas 89 26 1800 1001 12;
#X obj 369 114 text define chords;
#X f 19;
#X obj 359 139 text search chords;
#X msg 369 87 write chords.txt;
#X msg 493 88 read chords.txt;
#X obj 360 204 text get chords;
#X floatatom 359 179 5 0 0 0 - - - 0;
#X listbox 334 288 4 0 0 0 - - - 0;
#X floatatom 369 287 5 0 0 0 - - - 0;
#X floatatom 410 286 5 0 0 0 - - - 0;
#X floatatom 452 286 5 0 0 0 - - - 0;
#X obj 361 332 r root;
#X floatatom 361 363 5 0 0 0 - - - 0;
#X obj 343 412 +;
#X obj 378 411 +;
#X obj 408 411 +;
#X floatatom 343 435 3 0 0 0 - - - 0;
#X floatatom 378 434 3 0 0 0 - - - 0;
#X floatatom 408 434 3 0 0 0 - - - 0;
#X obj 130 916 output~;
#X listbox 130 858 13 0 0 0 - - - 0;
#X obj 130 763 pack;
#X obj 130 729 makenote 100 250;
#X obj 130 831 pack f f f;
#X obj 255 732 makenote 100 250;
#X obj 385 731 makenote 100 250;
#X obj 255 756 pack;
#X obj 386 753 pack;
#X obj 505 731 makenote 100 250;
#X obj 506 753 pack;
#X obj 439 412 +;
#X floatatom 439 435 3 0 0 0 - - - 0;
#X obj 360 247 unpack s f f f f;
#X floatatom 495 287 5 0 0 0 - - - 0;
#X floatatom 205 303 5 0 0 0 - - - 0;
#X obj 298 35 r chord;
#X obj 298 59 symbol \$1;
#X obj 208 107 r notes;
#X obj 198 266 + 50;
#X obj 208 131 t b f;
#X obj 493 65 loadbang;
#X obj 434 492 pack f f f f;
#N canvas 0 22 450 278 (subpatch) 0;
#X array current_chord 4 float 3;
#A 0 60 63 67 72;
#X coords 0 100 4 40 200 140 1 0 0;
#X restore 1163 54 graph;
#N canvas 0 22 450 278 (subpatch) 0;
#X array next_chord 4 float 3;
#A 0 82.4283 66.1428 89.2857 89.7143;
#X coords 0 100 4 40 200 140 1 0 0;
#X restore 1367 54 graph;
#N canvas 1328 208 580 281 midi_routings 0;
#X obj 15 104 s S-0;
#X obj 55 104 s S-1;
#X obj 96 104 s S-2;
#X obj 136 105 s S-3;
#X obj 23 21 notein;
#X obj 23 45 stripnote;
#X obj 16 80 sel 0 1 2 3 4 5 6 7 8 9 10, f 63;
#X msg 181 108 min;
#X msg 226 108 maj;
#X msg 267 110 dim;
#X msg 318 108 aug;
#X msg 422 108 mm7;
#X msg 357 108 MM7;
#X msg 390 108 Mm7;
#X obj 207 158 s chord;
#X obj 455 108 s notes;
#X obj 232 112;
#X connect 4 0 5 0;
#X connect 4 2 5 1;
#X connect 5 0 6 0;
#X connect 6 0 0 0;
#X connect 6 1 1 0;
#X connect 6 2 2 0;
#X connect 6 3 3 0;
#X connect 6 4 7 0;
#X connect 6 5 8 0;
#X connect 6 6 9 0;
#X connect 6 7 10 0;
#X connect 6 8 12 0;
#X connect 6 9 13 0;
#X connect 6 10 11 0;
#X connect 6 11 15 0;
#X connect 7 0 14 0;
#X connect 8 0 14 0;
#X connect 9 0 14 0;
#X connect 10 0 14 0;
#X connect 11 0 14 0;
#X connect 12 0 14 0;
#X connect 13 0 14 0;
#X restore 612 20 pd midi_routings;
#N canvas 286 190 463 328 timbre 0;
#X msg 132 215 decay \$1;
#X msg 207 214 timbre \$1;
#X obj 199 249 s params;
#X msg 288 216 morph \$1;
#X obj 131 41 ctlin 32;
#X obj 130 73 / 127;
#X obj 206 78 / 127;
#X obj 287 79 / 127;
#X obj 207 46 ctlin 33;
#X obj 288 47 ctlin 34;
#X text 141 179 Decay;
#X text 217 178 Timbre;
#X text 294 178 Morph;
#X obj 287 116 vsl 19 60 0 1 0 0 empty empty empty 0 -9 0 12 #fcfcfc #000000 #000000 0 1;
#X obj 209 116 vsl 19 60 0 1 0 0 empty empty empty 0 -9 0 12 #fcfcfc #000000 #000000 0 1;
#X obj 130 116 vsl 19 60 0 1 0 0 empty empty empty 0 -9 0 12 #fcfcfc #000000 #000000 0 1;
#X connect 0 0 2 0;
#X connect 1 0 2 0;
#X connect 3 0 2 0;
#X connect 4 0 5 0;
#X connect 5 0 15 0;
#X connect 6 0 14 0;
#X connect 7 0 13 0;
#X connect 8 0 6 0;
#X connect 9 0 7 0;
#X connect 13 0 3 0;
#X connect 14 0 1 0;
#X connect 15 0 0 0;
#X coords 0 -1 1 1 250 100 2 100 100;
#X restore 819 11 pd timbre;
#X obj 492 530 tabwrite current_chord;
#X obj 428 560 tabread current_chord;
#X msg 603 432 \; current_chord $ \;;
#X obj 734 20 osc;
#X obj 995 274 r D-1;
#X obj 1272 264 r D-m3;
#X obj 1412 266 r D-M3;
#X obj 1580 269 r D-5;
#X obj 1639 757 r D-m7;
#X obj 1013 297 nbx 5 17 -1e+37 1e+37 0 0 empty root empty 0 -10 0 12 #fcfcfc #000000 #000000 0 256;
#X obj 995 323 +;
#X obj 986 353 s m-1;
#X obj 130 690 r m-1;
#X obj 255 700 r m-2;
#X obj 386 705 r m-3;
#X obj 505 706 r m-4;
#X obj 1290 288 nbx 5 17 -1e+37 1e+37 0 0 empty root empty 0 -10 0 4 #fcfcfc #000000 #000000 0 256;
#X obj 1272 311 +;
#X obj 1272 335 s m-1;
#X obj 1430 285 nbx 5 17 -1e+37 1e+37 0 0 empty root empty 0 -10 0 4 #fcfcfc #000000 #000000 0 256;
#X obj 1412 308 +;
#X obj 1420 335 s m-1;
#X obj 1602 293 nbx 5 17 -1e+37 1e+37 0 0 empty root empty 0 -10 0 12 #fcfcfc #000000 #000000 0 256;
#X obj 1580 313 +;
#X obj 1580 337 s m-1;
#X obj 1657 779 nbx 5 17 -1e+37 1e+37 0 0 empty root empty 0 -10 0 12 #fcfcfc #000000 #000000 0 256;
#X obj 1639 798 +;
#X obj 1639 824 s m-1;
#X obj 1657 867 nbx 5 17 -1e+37 1e+37 0 0 empty root empty 0 -10 0 12 #fcfcfc #000000 #000000 0 256;
#X obj 1639 889 +;
#X obj 1639 913 s m-1;
#X obj 1558 782 nbx 5 17 -1e+37 1e+37 0 0 empty root empty 0 -10 0 12 #fcfcfc #000000 #000000 0 256;
#X obj 1540 804 +;
#X obj 1540 828 s m-1;
#X obj 1639 848 r D-M7;
#X obj 1179 850 nbx 5 17 -1e+37 1e+37 0 0 empty root empty 0 -10 0 12 #fcfcfc #000000 #000000 0 256;
#X obj 1161 872 +;
#X obj 1161 896 s m-1;
#X obj 1161 828 r D-b5;
#X obj 1557 873 nbx 5 17 -1e+37 1e+37 0 0 empty root empty 0 -10 0 12 #fcfcfc #000000 #000000 0 256;
#X obj 1539 895 +;
#X obj 1539 919 s m-1;
#X obj 1539 851 r D-M6;
#X obj 1540 760 r D-m6;
#X obj 1067 865 nbx 5 17 -1e+37 1e+37 0 0 empty root empty 0 -10 0 4 #fcfcfc #000000 #000000 0 256;
#X obj 1049 885 +;
#X obj 1049 908 s m-1;
#X obj 1050 822 r D-2;
#X obj 1305 858 nbx 5 17 -1e+37 1e+37 0 0 empty root empty 0 -10 0 12 #fcfcfc #000000 #000000 0 256;
#X obj 1285 883 +;
#X obj 1285 906 s m-1;
#X obj 1285 834 r D-4;
#X obj 1272 288 bng 19 250 50 0 empty empty empty 0 -10 0 12 #fcfcfc #000000 #000000;
#X obj 1285 858 bng 19 250 50 0 empty empty empty 0 -10 0 12 #fcfcfc #000000 #000000;
#X obj 1580 291 bng 19 250 50 0 empty empty empty 0 -10 0 12 #fcfcfc #000000 #000000;
#X obj 1156 850 bng 19 250 50 0 empty empty empty 0 -10 0 12 #fcfcfc #000000 #000000;
#X obj 1540 784 bng 19 250 50 0 empty empty empty 0 -10 0 12 #fcfcfc #000000 #000000;
#X obj 1539 875 bng 19 250 50 0 empty empty empty 0 -10 0 12 #fcfcfc #000000 #000000;
#X obj 1639 781 bng 19 250 50 0 empty empty empty 0 -10 0 12 #fcfcfc #000000 #000000;
#X obj 1639 872 bng 19 250 50 0 empty empty empty 0 -10 0 12 #fcfcfc #000000 #000000;
#X obj 982 842 nbx 5 17 -1e+37 1e+37 0 0 empty root empty 0 -10 0 4 #fcfcfc #000000 #000000 0 256;
#X obj 970 869 +;
#X obj 964 911 s m-1;
#X obj 964 819 r D-b2;
#X obj 130 798 poly 8 1;
#X obj 131 887 clone -s 1 polyplaits 8;
#X obj 1006 909 nbx 2 17 -1e+37 1e+37 0 1 empty empty empty 0 -10 0 12 #fcfcfc #000000 #000000 1 256;
#X obj 1033 342 bng 19 250 50 0 empty empty empty 0 -10 0 12 #fcfcfc #000000 #000000;
#X obj 1010 871 bng 19 250 50 0 empty empty empty 0 -10 0 12 #fcfcfc #000000 #000000;
#X obj 1236 412 tabwrite current_chord;
#X obj 1069 843 bng 19 250 50 0 empty empty empty 0 -10 0 12 #fcfcfc #000000 #000000;
#X obj 1077 887 nbx 2 17 -1e+37 1e+37 0 1 empty empty empty 0 -10 0 12 #fcfcfc #000000 #000000 1 256;
#X obj 1305 366 nbx 2 17 -1e+37 1e+37 0 1 empty empty empty 0 -10 0 12 #fcfcfc #000000 #000000 1 256;
#X obj 1402 287 bng 19 250 50 0 empty empty empty 0 -10 0 12 #fcfcfc #000000 #000000;
#X obj 1436 364 nbx 2 17 -1e+37 1e+37 0 1 empty empty empty 0 -10 0 12 #fcfcfc #000000 #000000 1 256;
#X obj 1585 367 nbx 2 17 -1e+37 1e+37 0 1 empty empty empty 0 -10 0 12 #fcfcfc #000000 #000000 2 256;
#X obj 1139 279 r D-8;
#X obj 1157 305 nbx 5 17 -1e+37 1e+37 0 0 empty root empty 0 -10 0 12 #fcfcfc #000000 #000000 0 256;
#X obj 1139 326 +;
#X obj 1139 350 s m-1;
#X obj 1139 303 bng 19 250 50 0 empty empty empty 0 -10 0 12 #fcfcfc #000000 #000000;
#X obj 1438 839 nbx 5 17 -1e+37 1e+37 0 0 empty root empty 0 -10 0 12 #fcfcfc #000000 #000000 0 256;
#X obj 1420 865 +;
#X obj 1420 888 s m-1;
#X obj 1416 838 bng 19 250 50 0 empty empty empty 0 -10 0 12 #fcfcfc #000000 #000000;
#X obj 1420 816 r D-9;
#X obj 988 387 tabwrite current_chord 0;
#X obj 1573 413 tabwrite current_chord;
#X obj 1179 379 nbx 2 17 -1e+37 1e+37 0 1 empty empty empty 0 -10 0 12 #fcfcfc #000000 #000000 3 256;
#X obj 1047 415 tabwrite current_chord;
#X obj 1403 412 tabwrite current_chord;
#X connect 0 0 1 0;
#X connect 1 0 5 0;
#X connect 2 0 0 0;
#X connect 3 0 0 0;
#X connect 4 0 31 0;
#X connect 5 0 4 0;
#X connect 7 0 12 0;
#X connect 8 0 13 0;
#X connect 9 0 14 0;
#X connect 10 0 11 0;
#X connect 11 0 12 1;
#X connect 11 0 13 1;
#X connect 11 0 14 1;
#X connect 11 0 29 1;
#X connect 12 0 15 0;
#X connect 13 0 16 0;
#X connect 14 0 17 0;
#X connect 15 0 40 0;
#X connect 16 0 40 1;
#X connect 17 0 40 2;
#X connect 19 0 110 0;
#X connect 20 0 109 0;
#X connect 21 0 20 0;
#X connect 21 1 20 1;
#X connect 22 0 19 0;
#X connect 23 0 25 0;
#X connect 23 1 25 1;
#X connect 24 0 26 0;
#X connect 24 1 26 1;
#X connect 25 0 109 0;
#X connect 26 0 109 0;
#X connect 27 0 28 0;
#X connect 27 1 28 1;
#X connect 28 0 109 0;
#X connect 29 0 30 0;
#X connect 30 0 40 3;
#X connect 31 0 6 0;
#X connect 31 1 7 0;
#X connect 31 2 8 0;
#X connect 31 3 9 0;
#X connect 31 4 32 0;
#X connect 32 0 29 0;
#X connect 33 0 11 0;
#X connect 34 0 35 0;
#X connect 35 0 1 0;
#X connect 36 0 38 0;
#X connect 37 0 33 0;
#X connect 38 0 12 0;
#X connect 38 0 5 0;
#X connect 38 1 37 0;
#X connect 39 0 3 0;
#X connect 40 0 45 0;
#X connect 49 0 55 0;
#X connect 50 0 62 0;
#X connect 50 0 97 0;
#X connect 51 0 65 0;
#X connect 51 0 118 0;
#X connect 52 0 68 0;
#X connect 52 0 99 0;
#X connect 53 0 71 0;
#X connect 53 0 103 0;
#X connect 54 0 55 1;
#X connect 55 0 56 0;
#X connect 55 0 112 0;
#X connect 55 0 131 0;
#X connect 57 0 21 0;
#X connect 58 0 23 0;
#X connect 59 0 24 0;
#X connect 60 0 27 0;
#X connect 61 0 62 1;
#X connect 62 0 63 0;
#X connect 62 0 114 0;
#X connect 64 0 65 1;
#X connect 65 0 66 0;
#X connect 65 0 135 0;
#X connect 67 0 68 1;
#X connect 68 0 69 0;
#X connect 68 0 132 0;
#X connect 70 0 71 1;
#X connect 71 0 72 0;
#X connect 73 0 74 1;
#X connect 74 0 75 0;
#X connect 76 0 77 1;
#X connect 77 0 78 0;
#X connect 79 0 74 0;
#X connect 79 0 104 0;
#X connect 80 0 81 1;
#X connect 81 0 82 0;
#X connect 83 0 81 0;
#X connect 83 0 100 0;
#X connect 84 0 85 1;
#X connect 85 0 86 0;
#X connect 87 0 85 0;
#X connect 87 0 102 0;
#X connect 88 0 77 0;
#X connect 88 0 101 0;
#X connect 89 0 90 1;
#X connect 90 0 91 0;
#X connect 92 0 115 0;
#X connect 92 0 90 0;
#X connect 93 0 94 1;
#X connect 94 0 95 0;
#X connect 96 0 94 0;
#X connect 96 0 98 0;
#X connect 97 0 117 0;
#X connect 99 0 120 0;
#X connect 105 0 106 1;
#X connect 106 0 107 0;
#X connect 106 0 113 0;
#X connect 108 0 106 0;
#X connect 108 0 113 0;
#X connect 109 0 22 0;
#X connect 109 1 22 1;
#X connect 109 2 22 2;
#X connect 110 0 18 0;
#X connect 113 0 111 0;
#X connect 115 0 116 0;
#X connect 117 0 114 1;
#X connect 118 0 119 0;
#X connect 119 0 135 1;
#X connect 120 0 132 1;
#X connect 121 0 123 0;
#X connect 121 0 125 0;
#X connect 122 0 123 1;
#X connect 123 0 124 0;
#X connect 123 0 134 0;
#X connect 125 0 133 0;
#X connect 126 0 127 1;
#X connect 127 0 128 0;
#X connect 130 0 127 0;
#X connect 130 0 129 0;
#X connect 133 0 134 1;
