#N canvas 160 25 1554 1001 12;
#X obj 264 161 text define chords;
#X f 19;
#X obj 254 186 text search chords;
#X msg 264 134 write chords.txt;
#X msg 388 135 read chords.txt;
#X obj 255 251 text get chords;
#X floatatom 254 226 5 0 0 0 - - - 0;
#X listbox 229 335 4 0 0 0 - - - 0;
#X floatatom 264 334 5 0 0 0 - - - 0;
#X floatatom 305 333 5 0 0 0 - - - 0;
#X floatatom 347 333 5 0 0 0 - - - 0;
#X obj 187 253 r root;
#X floatatom 256 410 5 0 0 0 - - - 0;
#X obj 238 459 +;
#X obj 273 458 +;
#X obj 303 458 +;
#X floatatom 238 482 3 0 0 0 - - - 0;
#X floatatom 273 481 3 0 0 0 - - - 0;
#X floatatom 303 481 3 0 0 0 - - - 0;
#X obj 130 916 output~;
#X listbox 130 858 13 0 0 0 - - - 0;
#X obj 130 763 pack;
#X obj 130 729 makenote 100 250;
#X obj 130 831 pack f f f;
#X obj 255 732 makenote 100 250;
#X obj 385 731 makenote 100 250;
#X obj 255 756 pack;
#X obj 386 753 pack;
#X obj 130 887 clone -s 1 polyplaits 4;
#X obj 130 798 poly 4 1;
#X obj 505 731 makenote 100 250;
#X obj 506 753 pack;
#X obj 334 459 +;
#X floatatom 334 482 3 0 0 0 - - - 0;
#X obj 255 294 unpack s f f f f;
#X floatatom 390 334 5 0 0 0 - - - 0;
#X obj 143 602 f, f 2;
#X obj 179 602 f, f 2;
#X obj 210 602 f, f 2;
#X obj 245 602 f, f 2;
#X floatatom 100 350 5 0 0 0 - - - 0;
#X obj 65 470 bng 19 250 50 0 empty S-0 empty 0 -10 0 12 #fcfcfc #000000 #000000;
#X obj 77 446 bng 19 250 50 0 empty S-1 empty 0 -10 0 12 #fcfcfc #000000 #000000;
#X obj 93 420 bng 19 250 50 0 empty S-2 empty 0 -10 0 12 #fcfcfc #000000 #000000;
#X obj 105 396 bng 19 250 50 0 empty S-3 empty 0 -10 0 12 #fcfcfc #000000 #000000;
#X obj 193 82 r chord;
#X obj 193 106 symbol \$1;
#X obj 103 154 r notes;
#X obj 93 313 + 50;
#X obj 103 178 t b f;
#X obj 388 112 loadbang;
#X obj 329 539 pack f f f f;
#N canvas 0 22 450 278 (subpatch) 0;
#X array current_chord 4 float 3;
#A 0 52.0001 81.9995 56.2856 0;
#X coords 0 100 4 40 200 140 1 0 0;
#X restore 749 418 graph;
#N canvas 0 22 450 278 (subpatch) 0;
#X array next_chord 4 float 3;
#A 0 82.4283 66.1428 89.2857 89.7143;
#X coords 0 100 4 40 200 140 1 0 0;
#X restore 953 418 graph;
#N canvas 1328 208 580 281 midi_routings 1;
#X obj 15 104 s S-0;
#X obj 55 104 s S-1;
#X obj 96 104 s S-2;
#X obj 136 105 s S-3;
#X obj 23 21 notein;
#X obj 23 45 stripnote;
#X obj 16 80 sel 0 1 2 3 4 5 6 7 8 9 10, f 63;
#X msg 181 108 min;
#X msg 226 108 maj;
#X msg 267 110 dim;
#X msg 318 108 aug;
#X msg 422 108 mm7;
#X msg 357 108 MM7;
#X msg 390 108 Mm7;
#X obj 207 158 s chord;
#X obj 455 108 s notes;
#X obj 232 112;
#X connect 4 0 5 0;
#X connect 4 2 5 1;
#X connect 5 0 6 0;
#X connect 6 0 0 0;
#X connect 6 1 1 0;
#X connect 6 2 2 0;
#X connect 6 3 3 0;
#X connect 6 4 7 0;
#X connect 6 5 8 0;
#X connect 6 6 9 0;
#X connect 6 7 10 0;
#X connect 6 8 12 0;
#X connect 6 9 13 0;
#X connect 6 10 11 0;
#X connect 6 11 15 0;
#X connect 7 0 14 0;
#X connect 8 0 14 0;
#X connect 9 0 14 0;
#X connect 10 0 14 0;
#X connect 11 0 14 0;
#X connect 12 0 14 0;
#X connect 13 0 14 0;
#X restore 612 20 pd midi_routings;
#N canvas 286 190 463 328 timbre 0;
#X obj 130 101 else/knob 50 0 1 0 0.5 empty empty #dfdfdf #7c7c7c black 1 0 0 0 1 320 0 0 0;
#X msg 132 215 decay \$1;
#X obj 205 101 else/knob 50 0 1 0 0.5 empty empty #dfdfdf #7c7c7c black 1 0 0 0 1 320 0 0 0;
#X msg 207 214 timbre \$1;
#X obj 286 101 else/knob 50 0 1 0 0.5 empty empty #dfdfdf #7c7c7c black 1 0 0 0 1 320 0 0 0;
#X obj 199 249 s params;
#X msg 288 216 morph \$1;
#X obj 131 41 ctlin 32;
#X obj 130 73 / 127;
#X obj 206 78 / 127;
#X obj 287 79 / 127;
#X obj 207 46 ctlin 33;
#X obj 288 47 ctlin 34;
#X text 134 157 Decay;
#X text 207 156 Timbre;
#X text 288 154 Morph;
#X connect 0 0 1 0;
#X connect 1 0 5 0;
#X connect 2 0 3 0;
#X connect 3 0 5 0;
#X connect 4 0 6 0;
#X connect 6 0 5 0;
#X connect 7 0 8 0;
#X connect 8 0 0 0;
#X connect 9 0 2 0;
#X connect 10 0 4 0;
#X connect 11 0 9 0;
#X connect 12 0 10 0;
#X coords 0 -1 1 1 250 80 2 100 100;
#X restore 730 66 pd timbre;
#X obj 387 577 tabwrite current_chord;
#X obj 323 607 tabread current_chord;
#X msg 498 479 \; current_chord $ \;;
#X connect 0 0 1 0;
#X connect 1 0 5 0;
#X connect 2 0 0 0;
#X connect 3 0 0 0;
#X connect 4 0 33 0;
#X connect 5 0 4 0;
#X connect 7 0 12 0;
#X connect 8 0 13 0;
#X connect 9 0 14 0;
#X connect 10 0 11 0;
#X connect 11 0 12 1;
#X connect 11 0 13 1;
#X connect 11 0 14 1;
#X connect 11 0 31 1;
#X connect 12 0 15 0;
#X connect 13 0 16 0;
#X connect 14 0 17 0;
#X connect 15 0 35 1;
#X connect 15 0 50 0;
#X connect 16 0 36 1;
#X connect 16 0 50 1;
#X connect 17 0 37 1;
#X connect 17 0 50 2;
#X connect 19 0 27 0;
#X connect 20 0 28 0;
#X connect 21 0 20 0;
#X connect 21 1 20 1;
#X connect 22 0 19 0;
#X connect 23 0 25 0;
#X connect 23 1 25 1;
#X connect 24 0 26 0;
#X connect 24 1 26 1;
#X connect 25 0 28 0;
#X connect 26 0 28 0;
#X connect 27 0 18 0;
#X connect 28 0 22 0;
#X connect 28 1 22 1;
#X connect 28 2 22 2;
#X connect 29 0 30 0;
#X connect 29 1 30 1;
#X connect 30 0 28 0;
#X connect 31 0 32 0;
#X connect 32 0 38 1;
#X connect 32 0 50 3;
#X connect 33 0 6 0;
#X connect 33 1 7 0;
#X connect 33 2 8 0;
#X connect 33 3 9 0;
#X connect 33 4 34 0;
#X connect 34 0 31 0;
#X connect 39 0 11 0;
#X connect 40 0 35 0;
#X connect 41 0 36 0;
#X connect 42 0 37 0;
#X connect 43 0 38 0;
#X connect 44 0 45 0;
#X connect 45 0 1 0;
#X connect 46 0 48 0;
#X connect 47 0 39 0;
#X connect 48 0 12 0;
#X connect 48 0 5 0;
#X connect 48 1 47 0;
#X connect 49 0 3 0;
#X connect 50 0 55 0;
