#N canvas 1153 239 767 790 12;
#N canvas 491 606 594 300 chord-struct 1;
#X obj 138 12 struct chord-struct float root float third float fifth float seventh;
#X coords 0 0 1 1 85 60 0;
#X restore 172 43 pd chord-struct;
#X obj 95 244 get chord-struct a b c d;
#X floatatom 99 287 5 0 0 0 - - - 0;
#X floatatom 142 286 5 0 0 0 - - - 0;
#X floatatom 182 286 5 0 0 0 - - - 0;
#X floatatom 222 285 5 0 0 0 - - - 0;
#X msg 75 142 next;
#X obj 122 191 pointer;
#X msg 289 216 65 68 65 80;
#X obj 320 254 set chord-struct a b c d;
#X msg 126 440 69 67 79 73 \, 60 65 72 78;
#X obj 126 495 append chord-struct a b c d;
#X obj 312 467 pointer;
#N canvas 657 74 450 300 chord 0;
#X restore 172 21 pd chord;
#X msg 312 435 traverse pd-chord \, bang;
#X msg 282 407 next;
#X msg 139 120 traverse pd-chord;
#X msg 342 365 \; pd-chord clear;
#X connect 1 0 2 0;
#X connect 1 1 3 0;
#X connect 1 2 4 0;
#X connect 1 3 5 0;
#X connect 6 0 7 0;
#X connect 7 0 1 0;
#X connect 10 0 11 0;
#X connect 12 0 11 4;
#X connect 14 0 12 0;
#X connect 15 0 12 0;
#X connect 16 0 7 0;
