#N canvas 54 27 1327 734 12;
#N canvas 979 155 450 278 (subpatch) 0;
#X array current_chord 4 float 3;
#A 0 60 64 67 72;
#X coords 0 80 4 60 200 140 1 0 0;
#X restore 205 23 graph;
#N canvas 631 610 450 278 (subpatch) 0;
#X array next_chord 4 float 3;
#A 0 65 69 72 77;
#X coords 0 80 4 60 200 139 1 0 0;
#X restore 408 24 graph;
#N canvas 0 22 450 278 (subpatch) 0;
#X array prime_chord 4 float 3;
#A 0 3 2 1 0;
#X coords 0 12 4 0 200 140 1 0 0;
#X restore 2 23 graph;
#N canvas 0 22 450 278 (subpatch) 0;
#X array nearest_array 4 float 3;
#A 0 84 64 67 72;
#X coords 0 80 4 60 200 140 1 0 0;
#X restore 892 191 graph;
#X obj 415 478 text sequence chords;
#X obj 415 502 route 0 1 2 3;
#X floatatom 415 527 5 0 0 0 - - - 0;
#X floatatom 456 526 5 0 0 0 - - - 0;
#X floatatom 497 526 5 0 0 0 - - - 0;
#X floatatom 537 525 5 0 0 0 - - - 0;
#X obj 415 425 bng 19 250 50 0 empty empty empty 0 -10 0 12 #fcfcfc #000000 #000000;
#X msg 458 452 line 0;
#X obj 415 452 t a a;
#X obj 415 551 mton;
#X listbox 415 574 6 0 0 0 - - - 0;
#X obj 469 550 mton;
#X listbox 469 573 4 0 0 0 - - - 0;
#X obj 525 551 mton;
#X listbox 525 575 5 0 0 0 - - - 0;
#X obj 580 550 mton;
#X listbox 580 574 5 0 0 0 - - - 0;
#N canvas 610 156 954 779 nearestNotes 0;
#X text 13 6 nearest_above;
#X floatatom 422 236 5 0 0 0 - - - 0;
#X text 323 192 nearest_below;
#X floatatom 365 240 5 0 0 0 - - - 0;
#X obj 422 258 t f b;
#X obj 398 357 ==;
#X obj 359 416 spigot;
#X obj 422 416 spigot;
#X floatatom 397 453 5 0 0 0 - - - 0;
#X obj 432 358 == 0;
#X text 652 81 nearest_note;
#X obj 397 481 s below;
#X obj 595 93 r above;
#X floatatom 695 151 5 0 0 0 - - - 0;
#X floatatom 782 158 5 0 0 0 - - - 0;
#X obj 749 88 r below;
#X floatatom 638 150 5 0 0 0 - - - 0;
#X obj 643 209 -;
#X obj 652 177 t b f;
#X obj 643 235 abs;
#X floatatom 643 259 5 0 0 0 - - - 0;
#X obj 722 204 -;
#X obj 721 176 t b f;
#X obj 722 228 abs;
#X floatatom 722 255 5 0 0 0 - - - 0;
#X obj 397 319 t b f;
#X obj 721 316 == 0;
#X obj 695 282 t b f;
#X obj 595 346 spigot;
#X obj 786 358 spigot;
#X floatatom 676 407 5 0 0 0 - - - 0;
#X obj 676 430 s nearest;
#X obj 359 217 r above;
#X obj 452 458 mton;
#X listbox 452 482 3 0 0 0 - - - 0;
#X floatatom 478 482 3 0 0 0 - - - 0;
#X obj 746 406 mton;
#X listbox 746 430 3 0 0 0 - - - 0;
#X floatatom 772 430 3 0 0 0 - - - 0;
#X obj 306 54 r sample;
#X obj 89 73 r comparison;
#X obj 421 392 - 12;
#X obj 174 183 mton;
#X floatatom 134 182 5 0 0 0 - - - 0;
#X floatatom 199 206 5 0 0 0 - - - 0;
#X obj 58 182 mton;
#X floatatom 18 182 5 0 0 0 - - - 0;
#X floatatom 87 206 5 0 0 0 - - - 0;
#X listbox 174 206 3 0 0 0 - - - 0;
#X listbox 60 206 3 0 0 0 - - - 0;
#X obj 134 260 -;
#X obj 134 227 t b f;
#X floatatom 134 315 5 0 0 0 - - - 0;
#X obj 134 287 / 12;
#X text 62 315 sample is;
#X text 174 315 octaves from comparison;
#X obj 18 224 t f f;
#X floatatom 48 514 5 0 0 0 - - - 0;
#X obj 18 613 mton;
#X floatatom 43 636 5 0 0 0 - - - 0;
#X listbox 18 636 3 0 0 0 - - - 0;
#X obj 134 343 i;
#X floatatom 134 367 5 0 0 0 - - - 0;
#X obj 134 390 * 12;
#X obj 19 489 -, f 8;
#X obj 40 462 t b f;
#X obj 54 614 s above;
#X text 435 336 above == sample;
#X obj 89 96 t b f;
#X obj 595 117 t f f;
#X obj 787 122 t f f;
#X obj 694 317 >;
#X obj 306 79 t b f f;
#X connect 1 0 4 0;
#X connect 3 0 25 0;
#X connect 3 0 41 0;
#X connect 4 0 5 0;
#X connect 5 0 9 0;
#X connect 5 0 6 1;
#X connect 6 0 8 0;
#X connect 7 0 8 0;
#X connect 8 0 11 0;
#X connect 8 0 33 0;
#X connect 9 0 7 1;
#X connect 12 0 69 0;
#X connect 13 0 18 0;
#X connect 14 0 22 0;
#X connect 15 0 70 0;
#X connect 16 0 17 0;
#X connect 16 0 21 0;
#X connect 17 0 19 0;
#X connect 18 0 17 0;
#X connect 18 1 17 1;
#X connect 19 0 20 0;
#X connect 20 0 71 0;
#X connect 21 0 23 0;
#X connect 22 0 21 0;
#X connect 22 1 21 1;
#X connect 23 0 24 0;
#X connect 24 0 27 0;
#X connect 25 0 5 0;
#X connect 25 1 5 1;
#X connect 26 0 29 1;
#X connect 27 0 71 0;
#X connect 27 1 71 1;
#X connect 28 0 30 0;
#X connect 29 0 30 0;
#X connect 30 0 31 0;
#X connect 30 0 36 0;
#X connect 32 0 3 0;
#X connect 32 0 6 0;
#X connect 33 0 34 0;
#X connect 36 0 37 0;
#X connect 39 0 72 0;
#X connect 40 0 68 0;
#X connect 41 0 7 0;
#X connect 42 0 48 0;
#X connect 43 0 51 0;
#X connect 43 0 42 0;
#X connect 45 0 49 0;
#X connect 46 0 56 0;
#X connect 46 0 45 0;
#X connect 50 0 53 0;
#X connect 51 0 50 0;
#X connect 51 1 50 1;
#X connect 52 0 61 0;
#X connect 53 0 52 0;
#X connect 56 0 64 0;
#X connect 56 1 50 0;
#X connect 57 0 66 0;
#X connect 57 0 58 0;
#X connect 58 0 60 0;
#X connect 61 0 62 0;
#X connect 62 0 63 0;
#X connect 63 0 65 0;
#X connect 64 0 57 0;
#X connect 64 0 58 0;
#X connect 65 0 64 0;
#X connect 65 1 64 1;
#X connect 68 0 46 0;
#X connect 68 1 43 0;
#X connect 69 0 28 0;
#X connect 69 1 13 0;
#X connect 70 0 29 0;
#X connect 70 1 14 0;
#X connect 71 0 26 0;
#X connect 71 0 28 1;
#X connect 72 1 1 0;
#X connect 72 2 46 0;
#X restore 11 524 pd nearestNotes;
#N canvas 888 138 889 710 write_chords 1;
#X obj 224 375 swap, f 25;
#X obj 639 153 tabwrite prime_chord;
#X obj 224 591 tabwrite current_chord, f 25;
#X msg 287 529 set next_chord;
#X msg 232 478 set current_chord;
#X obj 332 319 mton;
#X listbox 332 343 3 0 0 0 - - - 0;
#X floatatom 358 343 3 0 0 0 - - - 0;
#X obj 158 10 nbx 5 17 -1e+37 1e+37 0 1 empty root Root 0 -10 0 12 #fcfcfc #000000 #000000 65 256;
#X obj 176 100 bng 19 250 50 0 empty S-0 S-0 0 -10 0 12 #fcfcfc #000000 #000000;
#X obj 236 92 bng 19 250 50 0 empty S-1 S-1 0 -10 0 12 #fcfcfc #000000 #000000;
#X obj 276 95 bng 19 250 50 0 empty S-2 S-2 0 -10 0 12 #fcfcfc #000000 #000000;
#X obj 328 100 bng 19 250 50 0 empty S-3 S-3 0 -10 0 12 #fcfcfc #000000 #000000;
#X obj 370 100 bng 19 250 50 0 empty S-4 S-4 0 -10 0 12 #fcfcfc #000000 #000000;
#X msg 176 122 0;
#X msg 237 117 3;
#X msg 276 117 4;
#X msg 328 122 7;
#X msg 370 122 12;
#X obj 176 167 +, f 5;
#X obj 639 83 pack f f f f, f 20;
#X listbox 639 107 20 0 0 0 - - - 0;
#X obj 639 130 unpack f f f f, f 20;
#X floatatom 293 343 5 0 0 0 - - - 0;
#X obj 224 344 unpack, f 9;
#X msg 224 282 0 \$1;
#X msg 264 282 1 \$1;
#X msg 304 282 2 \$1;
#X msg 344 282 3 \$1;
#X obj 176 145 t b f;
#X obj 238 171 +, f 5;
#X obj 238 144 t b f;
#X obj 328 166 +, f 5;
#X obj 328 144 t b f;
#X obj 370 166 +, f 5;
#X obj 370 144 t b f;
#X obj 287 423 + 1;
#X obj 314 423 f;
#X obj 341 423 % 2;
#X obj 331 401 bng 19 250 50 0 empty empty empty 0 -10 0 12 #fcfcfc #000000 #000000;
#X obj 232 423 sel 1 2;
#X obj 255 562 s makeNewChord;
#X obj 255 504 t b b;
#X obj 158 37 t b f f f f f b, f 22;
#X obj 81 98 s readChord;
#X msg 498 258 1 3;
#X msg 529 258 2 4;
#X obj 498 236 bng 19 250 50 0 empty S-1 S-1 0 -10 0 12 #fcfcfc #000000 #000000;
#X obj 529 236 bng 19 250 50 0 empty S-2 S-2 0 -10 0 12 #fcfcfc #000000 #000000;
#X obj 498 283 route 1 2;
#X floatatom 498 307 5 0 0 0 - - - 0;
#X floatatom 547 310 5 0 0 0 - - - 0;
#X obj 498 333 bng 19 250 50 0 empty empty empty 0 -10 0 12 #fcfcfc #000000 #000000;
#X obj 548 334 bng 19 250 50 0 empty empty empty 0 -10 0 12 #fcfcfc #000000 #000000;
#X connect 0 0 2 0;
#X connect 0 1 2 1;
#X connect 3 0 2 0;
#X connect 4 0 2 0;
#X connect 5 0 6 0;
#X connect 8 0 43 0;
#X connect 9 0 14 0;
#X connect 10 0 15 0;
#X connect 11 0 16 0;
#X connect 12 0 17 0;
#X connect 13 0 18 0;
#X connect 14 0 29 0;
#X connect 15 0 31 0;
#X connect 16 0 31 0;
#X connect 17 0 33 0;
#X connect 18 0 35 0;
#X connect 19 0 25 0;
#X connect 20 0 21 0;
#X connect 21 0 22 0;
#X connect 23 0 5 0;
#X connect 24 0 0 0;
#X connect 24 1 0 1;
#X connect 24 1 23 0;
#X connect 25 0 24 0;
#X connect 26 0 24 0;
#X connect 27 0 24 0;
#X connect 28 0 24 0;
#X connect 29 0 19 0;
#X connect 29 1 19 1;
#X connect 30 0 26 0;
#X connect 31 0 30 0;
#X connect 31 1 30 1;
#X connect 32 0 27 0;
#X connect 33 0 32 0;
#X connect 33 1 32 1;
#X connect 34 0 28 0;
#X connect 35 0 34 0;
#X connect 35 1 34 1;
#X connect 36 0 37 1;
#X connect 36 0 40 0;
#X connect 37 0 38 0;
#X connect 38 0 36 0;
#X connect 39 0 37 0;
#X connect 40 0 4 0;
#X connect 40 1 42 0;
#X connect 42 0 41 0;
#X connect 42 1 3 0;
#X connect 43 0 44 0;
#X connect 43 1 19 0;
#X connect 43 2 30 0;
#X connect 43 4 32 0;
#X connect 43 5 34 0;
#X connect 43 6 39 0;
#X connect 45 0 49 0;
#X connect 46 0 49 0;
#X connect 47 0 45 0;
#X connect 48 0 46 0;
#X connect 49 0 50 0;
#X connect 49 1 51 0;
#X connect 50 0 52 0;
#X connect 51 0 53 0;
#X restore 12 500 pd write_chords;
#X floatatom 960 618 5 0 0 0 - - - 0;
#X obj 960 640 s comparison;
#X floatatom 956 505 5 0 3 0 - - - 0;
#X obj 956 549 s cC-index;
#N canvas 114 308 741 421 scanChords 1;
#X obj 24 105 tabread current_chord;
#X floatatom 183 153 5 0 0 0 - - - 0;
#X floatatom 24 161 5 0 0 0 - - - 0;
#X obj 217 200 s sample;
#X obj 70 207 s comparison;
#X obj 315 26 r nearest;
#X msg 382 142 0;
#X floatatom 176 39 5 0 3 0 - - - 0;
#X obj 183 104 tabread next_chord;
#X obj 315 205 tabwrite nearest_array;
#X floatatom 24 83 5 0 3 0 - - - 0;
#X floatatom 466 148 5 0 0 0 - - - 0;
#X obj 115 130 mton;
#X listbox 115 154 3 0 0 0 - - - 0;
#X floatatom 141 154 3 0 0 0 - - - 0;
#X obj 245 128 mton;
#X listbox 245 152 3 0 0 0 - - - 0;
#X floatatom 271 152 3 0 0 0 - - - 0;
#X obj 324 48 mton;
#X listbox 324 72 3 0 0 0 - - - 0;
#X floatatom 350 72 3 0 0 0 - - - 0;
#X obj 24 129 i;
#X obj 183 128 i;
#X obj 22 23 r cC-index;
#X obj 176 17 r nC-index;
#X obj 183 199 mton;
#X obj 183 175 t f f;
#X obj 24 184 t f f f;
#X floatatom 48 232 5 0 0 0 - - - 0;
#X obj 512 204 tabread nearest_array;
#X obj 466 171 t f f f;
#X obj 177 61 t f f;
#X obj 22 51 t f f;
#X connect 0 0 21 0;
#X connect 1 0 26 0;
#X connect 1 0 15 0;
#X connect 2 0 27 0;
#X connect 2 0 12 0;
#X connect 5 0 9 0;
#X connect 5 0 18 0;
#X connect 6 0 9 0;
#X connect 7 0 31 0;
#X connect 8 0 22 0;
#X connect 10 0 0 0;
#X connect 11 0 30 0;
#X connect 12 0 13 0;
#X connect 15 0 16 0;
#X connect 18 0 19 0;
#X connect 21 0 2 0;
#X connect 22 0 1 0;
#X connect 23 0 32 0;
#X connect 24 0 7 0;
#X connect 26 0 25 0;
#X connect 26 1 3 0;
#X connect 27 1 28 0;
#X connect 27 2 4 0;
#X connect 30 0 9 1;
#X connect 30 2 29 0;
#X connect 31 0 8 0;
#X connect 31 1 11 0;
#X connect 32 1 10 0;
#X restore 11 546 pd scanChords;
#X obj 1002 595 mton;
#X listbox 1002 619 3 0 0 0 - - - 0;
#X floatatom 1028 619 3 0 0 0 - - - 0;
#X floatatom 1053 602 5 0 0 0 - - - 0;
#X floatatom 1005 506 5 0 3 0 - - - 0;
#X obj 1093 598 mton;
#X listbox 1095 620 3 0 0 0 - - - 0;
#X floatatom 1121 620 3 0 0 0 - - - 0;
#X obj 1053 640 s sample;
#X obj 1033 548 s nC-index;
#X obj 956 573 r comparison;
#X obj 1054 573 r sample;
#X msg 1004 528 0;
#X obj 956 527 t b f;
#N canvas 825 486 399 277 chordsFromMidi 1;
#X obj 18 10 notein;
#X obj 103 102 bng 19 250 50 0 empty empty empty 0 -10 0 12 #fcfcfc #000000 #000000;
#X floatatom 18 79 5 0 0 0 - - - 0;
#X obj 243 152 - 1;
#X floatatom 243 176 5 0 0 0 - - - 0;
#X obj 94 231 tabwrite current_chord;
#X obj 300 128 + 1;
#X obj 244 128 f;
#X obj 272 128 % 5;
#X obj 18 33 stripnote;
#X obj 18 57 change;
#X msg 55 203 set next_chord;
#X msg 19 167 set current_chord;
#X obj 18 102 route 44 45;
#X obj 18 128 t b b;
#X obj 63 127 t b b;
#X msg 106 125 1;
#X obj 66 57 mton;
#X listbox 66 81 3 0 0 0 - - - 0;
#X floatatom 92 81 3 0 0 0 - - - 0;
#X connect 0 0 9 0;
#X connect 0 2 9 1;
#X connect 1 0 7 0;
#X connect 2 0 13 0;
#X connect 2 0 17 0;
#X connect 3 0 4 0;
#X connect 6 0 7 1;
#X connect 7 0 8 0;
#X connect 7 0 3 0;
#X connect 8 0 6 0;
#X connect 9 0 10 0;
#X connect 10 0 2 0;
#X connect 13 0 14 0;
#X connect 13 1 15 0;
#X connect 13 2 1 0;
#X connect 14 1 16 0;
#X connect 15 1 16 0;
#X connect 16 0 7 0;
#X connect 17 0 18 0;
#X restore 11 590 pd chordsFromMidi;
#N canvas 109 88 450 278 (subpatch) 0;
#X array picks 6 float 3;
#A 0 60 60 64 67 72 72;
#X coords 0 80 6 60 200 140 1 0 0;
#X restore 893 45 graph;
#N canvas 1095 242 450 278 (subpatch) 0;
#X array new_chord 4 float 3;
#A 0 60 64 67 72;
#X coords 0 80 4 60 200 140 1 0 0;
#X restore 612 23 graph;
#N canvas 614 432 825 492 play 1;
#X obj 128 326 output~;
#X listbox 128 266 13 0 0 0 - - - 0;
#X obj 128 173 pack;
#X obj 128 139 makenote 100 250;
#X obj 128 239 pack f f f;
#X obj 253 142 makenote 100 250;
#X obj 383 141 makenote 100 250;
#X obj 253 166 pack;
#X obj 384 163 pack;
#X obj 131 296 clone -s 1 polyplaits 4;
#X obj 128 213 poly 4 1;
#X obj 504 103 makenote 100 250;
#X obj 504 141 pack;
#X obj 120 3 inlet;
#X obj 120 27 cyclone/uzi 4 0;
#X obj 75 13 bng 19 250 50 0 empty empty empty 0 -10 0 12 #fcfcfc #000000 #000000;
#X obj 342 254 osc~ 220;
#X obj 221 56 tabread current_chord;
#X connect 1 0 9 0;
#X connect 2 0 10 0;
#X connect 3 0 2 0;
#X connect 3 1 2 1;
#X connect 4 0 1 0;
#X connect 5 0 7 0;
#X connect 5 1 7 1;
#X connect 6 0 8 0;
#X connect 6 1 8 1;
#X connect 7 0 10 0;
#X connect 8 0 10 0;
#X connect 9 0 0 0;
#X connect 10 0 4 0;
#X connect 10 1 4 1;
#X connect 10 2 4 2;
#X connect 11 0 12 0;
#X connect 11 1 12 1;
#X connect 12 0 11 2;
#X connect 12 0 10 0;
#X connect 13 0 14 0;
#X connect 14 2 17 0;
#X connect 15 0 14 0;
#X connect 17 0 3 0;
#X restore 15 682 pd play;
#N canvas 754 218 764 710 makeNewChord 1;
#X obj 312 8 bng 19 250 50 0 empty empty empty 0 -10 0 12 #fcfcfc #000000 #000000;
#X obj 546 151 s cC-index;
#X obj 333 97 cyclone/uzi 4 0;
#X obj 335 186 cyclone/uzi 4 0;
#X obj 423 291 i, f 4;
#X obj 435 130 t b f f f;
#X obj 437 212 t f f f;
#X obj 331 391 spigot;
#X obj 455 367 t f f;
#X obj 526 202 i;
#X obj 455 342 expr if(abs($i2 - $i1) <= 2 \, 1 \, 0);
#X obj 483 234 s nC-index;
#X obj 526 178 expr current_chord[$i1];
#X obj 460 259 expr nearest_array[$i1];
#X obj 423 314 t f f;
#X obj 579 230 mton;
#X obj 331 415 t f b;
#X obj 49 71 bng 19 250 50 0 empty empty empty 0 -10 0 12 #fcfcfc #000000 #000000;
#X obj 453 97 text define seen;
#X obj 176 364 text search seen;
#X obj 176 389 == -1;
#X obj 124 345 t a a;
#X msg 453 51 clear;
#X obj 152 547 text insert seen;
#X obj 52 471 mton;
#X obj 52 494 list trim;
#X obj 462 74 text define picks;
#X obj 331 525 text insert picks;
#X obj 123 419 spigot 1;
#X floatatom 143 291 5 0 0 0 - - - 0;
#X obj 49 280 cyclone/uzi;
#X msg 141 217 offset 0;
#X obj 176 245 text size picks;
#X obj 123 317 text get picks;
#X obj 52 518 pack s f;
#X obj 132 632 cyclone/uzi;
#X msg 133 605 offset 0;
#X obj 52 541 list trim;
#X obj 19 575 print new chord;
#X obj 206 601 text size seen;
#X floatatom 52 447 5 0 0 0 - - - 0;
#X obj 313 32 t b b b b;
#X obj 353 322 - 1;
#X obj 331 468 expr picks[$i2] = $i1;
#X obj 353 444 f;
#X obj 388 445 + 1;
#X obj 331 496 t f b;
#X msg 374 496 1e+09;
#X msg 172 504 1e+09;
#X obj 83 660 tabwrite new_chord;
#X obj 112 445 t a a a b;
#X obj 132 576 t f b b b;
#X obj 567 413 r nearest;
#X floatatom 567 436 5 0 0 0 - - - 0;
#X obj 516 411 mton;
#X listbox 516 433 3 0 0 0 - - - 0;
#X floatatom 541 435 3 0 0 0 - - - 0;
#X obj 607 435 print nearest_array;
#X obj 207 8 r makeNewChord;
#X obj 110 150 s readChord;
#X obj 49 100 t b b b b b, f 18;
#X obj 79 126 s playChord;
#X connect 0 0 41 0;
#X connect 2 2 5 0;
#X connect 3 2 6 0;
#X connect 4 0 14 0;
#X connect 5 0 3 0;
#X connect 5 2 12 0;
#X connect 5 3 1 0;
#X connect 6 1 13 0;
#X connect 6 2 11 0;
#X connect 7 0 16 0;
#X connect 8 0 7 1;
#X connect 9 0 10 1;
#X connect 9 0 15 0;
#X connect 10 0 8 0;
#X connect 12 0 9 0;
#X connect 13 0 4 0;
#X connect 14 0 7 0;
#X connect 14 1 10 0;
#X connect 16 0 43 0;
#X connect 16 1 44 0;
#X connect 17 0 60 0;
#X connect 19 0 20 0;
#X connect 20 0 28 1;
#X connect 21 0 28 0;
#X connect 21 1 19 0;
#X connect 22 0 26 0;
#X connect 22 0 18 0;
#X connect 24 0 25 0;
#X connect 25 0 34 0;
#X connect 28 0 50 0;
#X connect 29 0 33 0;
#X connect 30 2 33 0;
#X connect 31 0 30 0;
#X connect 32 0 30 1;
#X connect 33 0 21 0;
#X connect 34 0 37 0;
#X connect 35 2 49 1;
#X connect 36 0 35 0;
#X connect 37 0 38 0;
#X connect 39 0 35 1;
#X connect 40 0 24 0;
#X connect 41 0 17 0;
#X connect 41 1 2 0;
#X connect 41 2 42 0;
#X connect 41 3 22 0;
#X connect 42 0 44 0;
#X connect 43 0 46 0;
#X connect 44 0 45 0;
#X connect 44 0 43 1;
#X connect 45 0 44 1;
#X connect 46 0 27 0;
#X connect 46 1 47 0;
#X connect 47 0 27 1;
#X connect 48 0 23 1;
#X connect 50 0 24 0;
#X connect 50 1 51 0;
#X connect 50 2 23 0;
#X connect 50 3 48 0;
#X connect 51 0 49 0;
#X connect 51 1 35 0;
#X connect 51 2 36 0;
#X connect 51 3 39 0;
#X connect 52 0 53 0;
#X connect 52 0 57 0;
#X connect 53 0 54 0;
#X connect 54 0 55 0;
#X connect 58 0 0 0;
#X connect 60 0 30 0;
#X connect 60 1 61 0;
#X connect 60 2 59 0;
#X connect 60 3 31 0;
#X connect 60 4 32 0;
#X restore 11 612 pd makeNewChord;
#X obj 14 659 bng 19 250 50 0 empty empty empty 0 -10 0 12 #fcfcfc #000000 #000000;
#N canvas 517 416 791 546 MidiRouting 1;
#X obj 26 83 s S-0;
#X obj 66 83 s S-1;
#X obj 106 83 s S-2;
#X obj 146 83 s S-3;
#X obj 26 34 stripnote;
#X msg 452 305 maj;
#X msg 493 307 dim;
#X msg 525 307 aug;
#X msg 626 309 mm7;
#X msg 557 307 MM7;
#X msg 589 308 Mm7;
#X obj 454 364 s chord;
#X obj 26 57 sel 50 51 54 52 53, f 28;
#X obj 186 83 s S-4;
#X obj 79 177 s root;
#X obj 26 155 moses 59;
#X obj 26 132 stripnote;
#X floatatom 88 154 5 0 0 0 - - - 0;
#X obj 26 10 notein 0;
#X obj 26 108 notein 0;
#X msg 468 249 decay \$1;
#X msg 532 225 timbre \$1;
#X obj 532 271 s params;
#X msg 533 248 morph \$1;
#X obj 401 -19 / 127;
#X obj 534 1 / 127;
#X obj 596 -1 / 127;
#X obj 401 -41 ctlin 41;
#X obj 534 -23 ctlin 42;
#X obj 597 -23 ctlin 43;
#X obj 433 5 polytouchin;
#X obj 401 52 + 0.5;
#X obj 433 28 / 127;
#X obj 507 29 vsl 19 162 0 1 0 0 empty empty empty 0 -9 0 12 #fcfcfc #000000 #000000 0 1;
#X obj 534 28 vsl 19 162 0 1 0 0 empty empty empty 0 -9 0 12 #fcfcfc #000000 #000000 0 1;
#X obj 562 28 vsl 19 162 0 1 0 0 empty empty empty 0 -9 0 12 #fcfcfc #000000 #000000 0 1;
#X floatatom 532 200 5 0 0 0 - - - 0;
#X floatatom 570 200 5 0 0 0 - - - 0;
#X floatatom 486 200 5 0 0 0 - - - 0;
#X connect 4 0 12 0;
#X connect 5 0 11 0;
#X connect 6 0 11 0;
#X connect 7 0 11 0;
#X connect 8 0 11 0;
#X connect 9 0 11 0;
#X connect 10 0 11 0;
#X connect 12 0 0 0;
#X connect 12 1 1 0;
#X connect 12 2 2 0;
#X connect 12 3 3 0;
#X connect 12 4 13 0;
#X connect 15 1 17 0;
#X connect 15 1 14 0;
#X connect 16 0 15 0;
#X connect 18 0 4 0;
#X connect 18 1 4 1;
#X connect 19 0 16 0;
#X connect 19 1 16 1;
#X connect 20 0 22 0;
#X connect 21 0 22 0;
#X connect 23 0 22 0;
#X connect 24 0 31 0;
#X connect 25 0 34 0;
#X connect 26 0 35 0;
#X connect 27 0 24 0;
#X connect 28 0 25 0;
#X connect 29 0 26 0;
#X connect 30 0 32 0;
#X connect 31 0 33 0;
#X connect 32 0 31 1;
#X connect 33 0 38 0;
#X connect 34 0 36 0;
#X connect 35 0 37 0;
#X connect 36 0 21 0;
#X connect 37 0 23 0;
#X connect 38 0 20 0;
#X restore 11 568 pd MidiRouting;
#X obj 63 480 nbx 5 17 -1e+37 1e+37 0 1 empty root Root 0 -10 0 12 #fcfcfc #000000 #000000 65 256;
#X obj 205 165 readChord current_chord;
#X listbox 205 187 5 0 0 0 - - - 0;
#X listbox 257 187 5 0 0 0 - - - 0;
#X listbox 309 187 5 0 0 0 - - - 0;
#X listbox 362 187 5 0 0 0 - - - 0;
#X listbox 408 188 5 0 0 0 - - - 0;
#X listbox 460 188 5 0 0 0 - - - 0;
#X listbox 512 188 5 0 0 0 - - - 0;
#X listbox 565 188 5 0 0 0 - - - 0;
#X obj 408 166 readChord next_chord, f 23;
#X listbox 612 188 5 0 0 0 - - - 0;
#X listbox 664 188 5 0 0 0 - - - 0;
#X listbox 716 188 5 0 0 0 - - - 0;
#X listbox 769 188 5 0 0 0 - - - 0;
#X obj 612 166 readChord new_chord, f 23;
#X obj 14 636 r playChord;
#X connect 4 0 5 0;
#X connect 5 0 6 0;
#X connect 5 1 7 0;
#X connect 5 2 8 0;
#X connect 5 3 9 0;
#X connect 6 0 13 0;
#X connect 7 0 15 0;
#X connect 8 0 17 0;
#X connect 9 0 19 0;
#X connect 10 0 12 0;
#X connect 11 0 4 0;
#X connect 12 0 4 0;
#X connect 12 1 11 0;
#X connect 13 0 14 0;
#X connect 15 0 16 0;
#X connect 17 0 18 0;
#X connect 19 0 20 0;
#X connect 23 0 24 0;
#X connect 23 0 28 0;
#X connect 25 0 41 0;
#X connect 28 0 29 0;
#X connect 31 0 36 0;
#X connect 31 0 33 0;
#X connect 32 0 37 0;
#X connect 33 0 34 0;
#X connect 38 0 28 0;
#X connect 39 0 33 0;
#X connect 40 0 32 0;
#X connect 41 0 40 0;
#X connect 41 1 26 0;
#X connect 47 0 45 0;
#X connect 50 0 51 0;
#X connect 50 1 52 0;
#X connect 50 2 53 0;
#X connect 50 3 54 0;
#X connect 59 0 55 0;
#X connect 59 1 56 0;
#X connect 59 2 57 0;
#X connect 59 3 58 0;
#X connect 64 0 60 0;
#X connect 64 1 61 0;
#X connect 64 2 62 0;
#X connect 64 3 63 0;
#X connect 65 0 47 0;
