#N canvas 947 101 1261 649 12;
#N canvas 1069 577 638 493 readSysex 0;
#X obj 47 9 sysexin;
#X floatatom 47 31 5 0 0 0 - - - 0;
#X obj 47 52 makefilename %X;
#X listbox 47 76 20 0 0 0 - - - 0;
#X obj 49 260 list store;
#X msg 49 133 append \$1;
#X obj 127 204 bng 19 250 50 0 empty empty Print 0 -10 0 12 #fcfcfc #000000 #000000;
#X text 102 9 read sysex messages and pack them into a list;
#X text 90 31 PD converts sysex to binary;
#X text 158 51 convert them back to HEX;
#X obj 127 165 t b b, f 7;
#X obj 174 206 bng 19 250 50 0 empty empty Clear 0 -10 0 12 #fcfcfc #000000 #000000;
#X obj 49 288 list trim;
#X obj 127 133 sel F7;
#X text 185 129 listen for sysex end byte F7;
#X text 189 166 pack the list \, print it \, then clear it;
#X obj 122 287 outlet;
#X obj 48 371 print sysexIn;
#X obj 47 99 t s s;
#X obj 49 348 spigot;
#X obj 89 325 tgl 19 0 empty empty Print 0 -10 0 12 #fcfcfc #000000 #000000 0 1;
#X connect 0 0 1 0;
#X connect 1 0 2 0;
#X connect 2 0 3 0;
#X connect 3 0 18 0;
#X connect 4 0 12 0;
#X connect 4 0 16 0;
#X connect 5 0 4 0;
#X connect 6 0 4 1;
#X connect 10 0 6 0;
#X connect 10 1 11 0;
#X connect 11 0 4 0;
#X connect 12 0 19 0;
#X connect 13 0 10 0;
#X connect 18 0 13 0;
#X connect 18 1 5 0;
#X connect 19 0 17 0;
#X connect 20 0 19 1;
#X restore 165 36 pd readSysex;
#X listbox 165 61 36 0 0 0 - - - 0;
#X listbox 165 113 14 0 0 0 - - - 0;
#X listbox 411 111 5 0 0 0 - - - 0;
#X listbox 270 112 19 0 0 0 - - - 0;
#X text 421 59 complete message as list of symbols (hex);
#N canvas 527 518 450 293 parseSysex 0;
#X obj 24 86 list split 5;
#X obj 111 141 list length;
#X obj 129 203 list split;
#X obj 196 171 - 1;
#X obj 64 116 t l l;
#X text 117 84 get the header;
#X text 238 181 get the end;
#X obj 24 237 outlet;
#X obj 135 248 outlet;
#X obj 211 248 outlet;
#X obj 24 56 inlet;
#X connect 0 0 7 0;
#X connect 0 1 4 0;
#X connect 1 0 3 0;
#X connect 2 0 8 0;
#X connect 2 1 9 0;
#X connect 3 0 2 1;
#X connect 4 0 2 0;
#X connect 4 1 1 0;
#X connect 10 0 0 0;
#X restore 165 83 pd parseSysex;
#X obj 143 36 bng 19 250 50 0 empty empty empty 0 -10 0 12 #fcfcfc #000000 #000000;
#X listbox 33 292 36 0 0 0 - - - 0;
#X obj 772 45 dth;
#X floatatom 772 24 5 0 0 0 - - - 0;
#X listbox 772 68 4 0 0 0 - - - 0;
#X obj 772 88 htd;
#X floatatom 772 110 5 0 0 0 - - - 0;
#X text 718 5 hex-dec conversions;
#X obj 165 135 s header;
#X obj 411 132 s end;
#X obj 270 134 s message;
#X msg 262 33 list F0 0 21 74 7F 0 12 F7;
#N canvas 493 103 506 552 ExquisSysex 0;
#X obj 11 9 inlet;
#X obj 53 9 inlet, f 6;
#X floatatom 11 62 5 0 0 0 - - - 0;
#X floatatom 53 62 5 0 0 0 - - - 0;
#X obj 11 88 dth;
#X obj 53 87 dth;
#X obj 11 136 list append;
#X obj 53 112 t b s;
#X msg 11 159 \; message list \$1 \$2;
#X obj 188 432 list append, f 12;
#X obj 17 357 r header;
#X obj 157 336 r message;
#X obj 269 409 r end;
#X listbox 188 384 20 0 0 0 - - - 0;
#X listbox 17 381 20 0 0 0 - - - 0;
#X obj 157 360 t b l;
#X obj 17 450 list append;
#X obj 17 476 outlet;
#X obj 11 34 t f s;
#X obj 53 33 t f s;
#X text 102 17 handle dec or hex as float or symbol;
#X text 157 167 compose message bytes;
#X text 315 410 compose full message;
#X obj 37 37;
#X connect 0 0 18 0;
#X connect 1 0 19 0;
#X connect 2 0 4 0;
#X connect 3 0 5 0;
#X connect 4 0 6 0;
#X connect 5 0 7 0;
#X connect 6 0 8 0;
#X connect 7 0 2 0;
#X connect 7 1 6 1;
#X connect 9 0 16 1;
#X connect 10 0 14 0;
#X connect 11 0 15 0;
#X connect 12 0 9 1;
#X connect 13 0 9 0;
#X connect 14 0 16 0;
#X connect 15 0 14 0;
#X connect 15 1 13 0;
#X connect 16 0 17 0;
#X connect 18 0 2 0;
#X connect 18 1 6 0;
#X connect 19 0 3 0;
#X connect 19 1 7 0;
#X restore 35 265 pd ExquisSysex;
#X floatatom 128 243 5 0 0 0 - - - 0;
#X text 459 36 enter developer mode;
#X text 699 275 compose message bytes;
#X msg 460 266 \; message list 42 21 11 40 2 0 1;
#X msg 460 229 \; message list 42 21 11 40 2 0 0;
#X obj 33 414 midiout;
#N canvas 207 479 908 606 ExquisSysexOut 0;
#X obj 39 72 until;
#X obj 52 155 list store;
#X obj 73 39 t b b l;
#X obj 39 101 f;
#X obj 77 102 + 1;
#X msg 96 72 0, f 2;
#X msg 39 128 get \$1 1;
#X obj 52 179 htd;
#X floatatom 52 203 5 0 0 0 - - - 0;
#X obj 73 13 inlet;
#X obj 80 228 tgl 19 0 empty empty empty 0 -10 0 12 #fcfcfc #000000 #000000 0 1;
#X obj 52 255 spigot;
#X obj 178 394 list store;
#X msg 178 292 append \$1;
#X obj 256 363 bng 19 250 50 0 empty empty Print 0 -10 0 12 #fcfcfc #000000 #000000;
#X obj 256 324 t b b, f 7;
#X obj 303 365 bng 19 250 50 0 empty empty Clear 0 -10 0 12 #fcfcfc #000000 #000000;
#X obj 179 430 list trim;
#X obj 262 424 outlet;
#X obj 256 292 sel 247;
#X obj 189 229 t f f;
#X obj 179 479 spigot;
#X obj 222 456 tgl 19 0 empty empty empty 0 -10 0 12 #fcfcfc #000000 #000000 0 1;
#X obj 52 279 print sysexStream;
#X obj 178 505 print sysex;
#X connect 0 0 3 0;
#X connect 1 0 7 0;
#X connect 1 1 0 1;
#X connect 2 0 0 0;
#X connect 2 1 5 0;
#X connect 2 2 1 1;
#X connect 3 0 4 0;
#X connect 3 0 6 0;
#X connect 4 0 3 1;
#X connect 5 0 3 1;
#X connect 6 0 1 0;
#X connect 7 0 8 0;
#X connect 8 0 11 0;
#X connect 8 0 20 0;
#X connect 9 0 2 0;
#X connect 10 0 11 1;
#X connect 11 0 23 0;
#X connect 12 0 17 0;
#X connect 12 0 18 0;
#X connect 13 0 12 0;
#X connect 14 0 12 1;
#X connect 15 0 14 0;
#X connect 15 1 16 0;
#X connect 16 0 12 0;
#X connect 17 0 21 0;
#X connect 19 0 15 0;
#X connect 20 0 19 0;
#X connect 20 1 13 0;
#X connect 21 0 24 0;
#X connect 22 0 21 1;
#X restore 33 316 pd ExquisSysexOut;
#X listbox 33 340 42 0 0 0 - - - 0;
#X obj 17 78 spigot;
#X obj 16 55 tgl 19 0 empty empty empty 0 -10 0 12 #fcfcfc #000000 #000000 0 1;
#X obj 17 100 print incomingSysex;
#X text 15 36 toggle to print;
#X text 32 220 id;
#X text 126 220 index;
#X floatatom 36 242 5 0 0 0 - - - 0;
#X obj 33 386 spigot;
#X obj 73 362 tgl 19 0 empty empty empty 0 -10 0 12 #fcfcfc #000000 #000000 0 1;
#X text 94 366 toggle to open;
#X connect 0 0 1 0;
#X connect 1 0 6 0;
#X connect 1 0 28 0;
#X connect 2 0 15 0;
#X connect 3 0 16 0;
#X connect 4 0 17 0;
#X connect 6 0 2 0;
#X connect 6 1 4 0;
#X connect 6 2 3 0;
#X connect 7 0 1 0;
#X connect 8 0 26 0;
#X connect 9 0 11 0;
#X connect 10 0 9 0;
#X connect 11 0 12 0;
#X connect 12 0 13 0;
#X connect 18 0 1 0;
#X connect 19 0 8 0;
#X connect 20 0 19 1;
#X connect 26 0 27 0;
#X connect 27 0 35 0;
#X connect 28 0 30 0;
#X connect 29 0 28 1;
#X connect 34 0 19 0;
#X connect 35 0 25 0;
#X connect 36 0 35 1;
