#N canvas 370 349 450 300 12;
#X obj 153 102 inlet;
#X listbox 153 131 20 0 0 0 - - - 0;
#X obj 153 226 outlet;
#X text 154 38 convert hex to decimal;
#X text 154 57 inlet is symbol \, outlet is float;
#X obj 153 179 f;
#X floatatom 153 204 5 0 0 0 - - - 0;
#X msg 153 155 symbol 0x\$1;
#X connect 0 0 1 0;
#X connect 1 0 7 0;
#X connect 5 0 6 0;
#X connect 6 0 2 0;
#X connect 7 0 5 0;
