#N canvas 787 279 488 342 12;
#X obj 37 214 list store;
#X msg 37 112 append \$1;
#X obj 115 183 bng 19 250 50 0 empty empty Print 0 -10 0 12 #fcfcfc #000000 #000000;
#X obj 115 144 t b b, f 7;
#X obj 162 185 bng 19 250 50 0 empty empty Clear 0 -10 0 12 #fcfcfc #000000 #000000;
#X obj 37 237 outlet;
#X obj 37 56 inlet;
#X text 38 9 input series of floats;
#X obj 115 56 inlet;
#X text 154 53 finish list and print it;
#X connect 0 0 5 0;
#X connect 1 0 0 0;
#X connect 2 0 0 1;
#X connect 3 0 2 0;
#X connect 3 1 4 0;
#X connect 4 0 0 0;
#X connect 6 0 1 0;
#X connect 8 0 3 0;
