#N canvas 962 119 478 428 12;
#X listbox 17 274 3 0 0 0 - - - 0;
#X floatatom 17 230 5 0 0 0 - - - 0;
#X obj 17 208 % 12;
#X obj 144 206 / 12;
#X floatatom 144 252 5 0 0 0 - - - 0;
#X obj 144 230 - 2;
#X obj 144 275 i;
#X obj 17 163 inlet;
#X obj 22 338 outlet;
#X obj 20 78 loadbang;
#X obj 19 142 text define -k \$0-notes;
#A set C \; C# \; D \; D# \; E \; F \; F# \; G \; G# \; A \; A# \; B;
#X obj 17 251 text get \$0-notes;
#X msg 20 103 set C \\\; C# \\\; D \\\; D# \\\; E \\\; F \\\; F# \\\; G \\\; G# \\\; A \\\; A# \\\; B;
#X obj 17 187 t f f;
#X obj 67 303 pack s i;
#X connect 0 0 14 0;
#X connect 1 0 11 0;
#X connect 2 0 1 0;
#X connect 3 0 5 0;
#X connect 4 0 6 0;
#X connect 5 0 4 0;
#X connect 6 0 14 1;
#X connect 7 0 13 0;
#X connect 9 0 12 0;
#X connect 11 0 0 0;
#X connect 12 0 10 0;
#X connect 13 0 2 0;
#X connect 13 1 3 0;
#X connect 14 0 8 0;
