#N canvas 1185 84 610 674 12;
#X obj 15 38 loadbang;
#X obj 212 161 oscparse;
#X obj 212 190 route list;
#X obj 212 215 unpack s f;
#X obj 279 238 pipe 1;
#X obj 226 279 send;
#X obj 349 245 print oscreceive;
#X obj 246 132 s toPresets;
#X msg 26 85 disconnect;
#X obj 15 228 netsend -u -b;
#X obj 42 112 r forTouchOSC;
#X obj 42 155 list split 1;
#X msg 51 181 set \$1;
#X obj 42 203 oscformat;
#X msg 42 134 \$2 \$1;
#X obj 15 254 print connection;
#X obj 386 139 r debug;
#X obj 347 184 spigot;
#X obj 386 163 tgl 15 1 empty empty empty 17 7 0 10 #fcfcfc #000000 #000000 1 1;
#X msg 15 62 connect 192.168.1.63 7561;
#X obj 212 90 netreceive -u -b -f 7565;
#X connect 0 0 19 0;
#X connect 1 0 2 0;
#X connect 1 0 17 0;
#X connect 2 0 3 0;
#X connect 3 0 5 1;
#X connect 3 1 4 0;
#X connect 4 0 5 0;
#X connect 8 0 9 0;
#X connect 9 0 15 0;
#X connect 10 0 14 0;
#X connect 11 0 13 0;
#X connect 11 1 12 0;
#X connect 12 0 13 0;
#X connect 13 0 9 0;
#X connect 14 0 11 0;
#X connect 16 0 18 0;
#X connect 17 0 6 0;
#X connect 18 0 17 1;
#X connect 19 0 9 0;
#X connect 20 0 1 0;
#X connect 20 0 7 0;
