#N canvas 258 367 841 508 12;
#X obj 59 14 inlet;
#X obj 59 38 unpack f f;
#X obj 79 184 outlet~;
#X obj 217 50 r params;
#X floatatom 57 63 5 0 0 0 - - - 0;
#X floatatom 101 65 5 0 0 0 - - - 0;
#X obj 83 137 else/plaits~ -midi -tr_active;
#X obj 696 59 vsl 15 128 0 1 0 1 empty empty vol 0 -9 0 10 #fcfcfc #000000 #000000 0 1;
#X obj 501 354 brds~;
#X obj 501 59 vsl 15 128 36 88 0 0 empty empty pitch 0 -9 0 10 #fcfcfc #000000 #000000 0 1;
#X msg 501 261 pitch \$1;
#X obj 432 59 vsl 15 128 0 1 0 0 empty empty shape 0 -9 0 10 #fcfcfc #000000 #000000 0 1;
#X msg 432 196 shape \$1;
#X obj 572 59 vsl 15 128 0 1 0 0 empty empty timbre 0 -9 0 10 #fcfcfc #000000 #000000 0 1;
#X msg 572 196 timbre \$1;
#X obj 501 217 * 128;
#X obj 501 195 - 63;
#X obj 501 239 + 8252;
#X obj 640 59 vsl 15 128 0 1 0 0 empty empty colour 0 -9 0 10 #fcfcfc #000000 #000000 0 1;
#X msg 640 196 colour \$1;
#X symbolatom 681 256 10 0 0 0 - - - 0;
#X obj 358 154 bng 35 250 50 0 empty empty trigger 0 -8 0 10 #fcfcfc #000000 #000000;
#X msg 358 196 trigger 1;
#X obj 501 378 outlet;
#X obj 86 101 / 127;
#X connect 0 0 1 0;
#X connect 1 0 4 0;
#X connect 1 1 5 0;
#X connect 4 0 24 0;
#X connect 6 0 2 0;
#X connect 8 0 23 0;
#X connect 8 1 20 0;
#X connect 9 0 16 0;
#X connect 10 0 8 0;
#X connect 11 0 12 0;
#X connect 12 0 8 0;
#X connect 13 0 14 0;
#X connect 14 0 8 0;
#X connect 15 0 17 0;
#X connect 16 0 15 0;
#X connect 17 0 10 0;
#X connect 18 0 19 0;
#X connect 19 0 8 0;
#X connect 21 0 22 0;
#X connect 22 0 8 0;
#X connect 24 0 16 0;
