#N canvas 355 82 751 856 12;
#X obj 85 124 mtof;
#X obj 176 182 line~;
#X msg 176 151 \$1 100;
#X obj 85 269 *~;
#X obj 85 151 phasor~;
#X obj 85 175 -~ 0.5;
#X obj 85 217 cos~;
#X obj 158 238 *~;
#X obj 85 241 +~ 1;
#X obj 158 286 cos~;
#X obj 85 302 *~;
#X obj 176 124 / 127;
#X obj 158 262 *~ 2;
#X obj 176 211 +~ 0.5;
#X obj 84 62 inlet;
#X obj 84 86 unpack f f;
#X obj 85 326 outlet~;
#X connect 0 0 4 0;
#X connect 1 0 10 1;
#X connect 1 0 13 0;
#X connect 2 0 1 0;
#X connect 3 0 10 0;
#X connect 4 0 5 0;
#X connect 5 0 7 0;
#X connect 5 0 6 0;
#X connect 6 0 8 0;
#X connect 7 0 12 0;
#X connect 8 0 3 0;
#X connect 9 0 3 1;
#X connect 10 0 16 0;
#X connect 11 0 2 0;
#X connect 12 0 9 0;
#X connect 13 0 7 1;
#X connect 14 0 15 0;
#X connect 15 0 0 0;
#X connect 15 1 11 0;
