#N canvas 1037 184 652 654 12;
#X obj 92 90 until;
#X obj 92 114 f;
#X obj 120 114 + 1;
#X msg 92 67 3;
#X msg 140 68 0;
#X obj 92 21 bng 19 250 50 0 empty empty empty 0 -10 0 12 #fcfcfc #000000 #000000;
#X obj 92 44 t b b;
#X obj 92 249 until;
#X obj 92 273 f;
#X obj 135 250 + 1;
#X msg 92 226 3;
#X msg 137 203 0;
#X obj 92 180 bng 19 250 50 0 empty empty empty 0 -10 0 12 #fcfcfc #000000 #000000;
#X obj 92 203 t b b;
#X obj 169 180 s cC-index;
#X obj 170 305 s nC-index;
#X floatatom 92 136 5 0 3 0 - - - 0;
#X floatatom 15 330 5 0 0 0 - - - 0;
#X floatatom 95 343 5 0 0 0 - - - 0;
#X obj 15 353 t f f;
#X obj 92 157 t b f f;
#X obj 95 300 t f f;
#X obj 96 363 t b f;
#X obj 158 349 print NcIndex;
#X obj 52 396 expr abs(current_chord[$i1] - nearest_array[$i2]);
#X obj 51 420 i;
#X obj 51 444 print expr;
#X connect 0 0 1 0;
#X connect 1 0 2 0;
#X connect 1 0 16 0;
#X connect 2 0 1 1;
#X connect 3 0 0 0;
#X connect 4 0 1 0;
#X connect 5 0 6 0;
#X connect 6 0 3 0;
#X connect 6 1 4 0;
#X connect 7 0 8 0;
#X connect 8 0 9 0;
#X connect 8 0 21 0;
#X connect 9 0 8 1;
#X connect 10 0 7 0;
#X connect 11 0 8 0;
#X connect 12 0 13 0;
#X connect 13 0 10 0;
#X connect 13 1 11 0;
#X connect 16 0 20 0;
#X connect 17 0 19 0;
#X connect 18 0 22 0;
#X connect 19 1 24 0;
#X connect 20 0 12 0;
#X connect 20 1 14 0;
#X connect 20 2 17 0;
#X connect 21 0 18 0;
#X connect 21 1 15 0;
#X connect 21 1 23 0;
#X connect 22 0 24 0;
#X connect 22 1 24 1;
#X connect 24 0 25 0;
#X connect 25 0 26 0;
