#N canvas 935 254 870 711 12;
#X obj 5 58 r root;
#X floatatom 124 237 3 0 0 0 - - - 0;
#X floatatom 247 231 3 0 0 0 - - - 0;
#X floatatom 371 237 3 0 0 0 - - - 0;
#X listbox 186 567 13 0 0 0 - - - 0;
#X obj 123 446 pack;
#X obj 123 412 makenote 100 250;
#X obj 183 538 pack f f f;
#X obj 368 409 makenote 100 250;
#X obj 241 436 pack;
#X obj 373 433 pack;
#X obj 493 409 makenote 100 250;
#X obj 494 431 pack;
#X floatatom 494 231 3 0 0 0 - - - 0;
#X obj 123 264 f, f 2;
#X obj 236 254 f, f 2;
#X obj 371 260 f, f 2;
#X obj 494 253 f, f 2;
#X obj 74 169 bng 19 250 50 0 empty S-0 S-0 0 -10 0 12 #fcfcfc #000000 #000000;
#X obj 198 172 bng 19 250 50 0 empty S-1 S-1 0 -10 0 12 #fcfcfc #000000 #000000;
#X obj 324 170 bng 19 250 50 0 empty S-2 S-2 0 -10 0 12 #fcfcfc #000000 #000000;
#X obj 432 172 bng 19 250 50 0 empty S-3 S-3 0 -10 0 12 #fcfcfc #000000 #000000;
#X floatatom 619 228 3 0 0 0 - - - 0;
#X obj 619 251 f, f 2;
#X obj 124 133 t f f f f f, f 71;
#X obj 618 410 makenote 100 250;
#X obj 619 432 pack;
#X obj 241 412 makenote 100 250;
#X obj 124 215 + 0;
#X obj 247 208 + 3;
#X obj 371 213 + 4;
#X obj 494 208 + 7;
#X obj 619 206 + 12;
#X obj 569 171 bng 19 250 50 0 empty S-4 S-4 0 -10 0 12 #fcfcfc #000000 #000000;
#N canvas 723 48 717 467 MidiRouting 1;
#X obj 14 94 s S-0;
#X obj 58 93 s S-1;
#X obj 99 93 s S-2;
#X obj 139 94 s S-3;
#X obj 26 34 stripnote;
#X msg 452 305 maj;
#X msg 493 307 dim;
#X msg 525 307 aug;
#X msg 626 309 mm7;
#X msg 557 307 MM7;
#X msg 589 308 Mm7;
#X obj 454 364 s chord;
#X obj 17 61 sel 50 51 54 52 53, f 28;
#X obj 182 92 s S-4;
#X obj 65 254 s root;
#X obj 12 178 moses 59;
#X obj 12 145 stripnote;
#X obj 26 10 notein 0;
#X obj 12 121 notein 0;
#X msg 233 121 decay \$1;
#X msg 308 120 timbre \$1;
#X obj 300 193 s params;
#X msg 382 120 morph \$1;
#X obj 233 27 / 127;
#X obj 308 96 / 127;
#X obj 382 99 / 127;
#X obj 233 5 ctlin 41;
#X obj 308 72 ctlin 42;
#X obj 382 76 ctlin 43;
#X obj 265 51 polytouchin;
#X obj 233 99 + 0.5;
#X obj 265 74 / 127;
#X obj 65 229 nbx 5 17 -1e+37 1e+37 0 1 empty empty empty 0 -10 0 12 #fcfcfc #000000 #000000 60 256;
#X obj 86 203 loadbang;
#X connect 4 0 12 0;
#X connect 5 0 11 0;
#X connect 6 0 11 0;
#X connect 7 0 11 0;
#X connect 8 0 11 0;
#X connect 9 0 11 0;
#X connect 10 0 11 0;
#X connect 12 0 0 0;
#X connect 12 1 1 0;
#X connect 12 2 2 0;
#X connect 12 3 3 0;
#X connect 12 4 13 0;
#X connect 15 1 32 0;
#X connect 16 0 15 0;
#X connect 17 0 4 0;
#X connect 17 1 4 1;
#X connect 18 0 16 0;
#X connect 18 1 16 1;
#X connect 19 0 21 0;
#X connect 20 0 21 0;
#X connect 22 0 21 0;
#X connect 23 0 30 0;
#X connect 24 0 20 0;
#X connect 25 0 22 0;
#X connect 26 0 23 0;
#X connect 27 0 24 0;
#X connect 28 0 25 0;
#X connect 29 0 31 0;
#X connect 30 0 19 0;
#X connect 31 0 30 1;
#X connect 32 0 14 0;
#X connect 33 0 32 0;
#X restore 5 33 pd MidiRouting;
#X obj 3 411 makenote 100 250;
#X obj 3 438 pack;
#X obj 5 110 - 12;
#X obj 146 263 mton;
#X listbox 147 284 3 0 0 0 - - - 0;
#X obj 258 255 mton;
#X listbox 258 276 3 0 0 0 - - - 0;
#X obj 392 261 mton;
#X listbox 392 282 3 0 0 0 - - - 0;
#X obj 514 254 mton;
#X listbox 514 275 3 0 0 0 - - - 0;
#X obj 641 252 mton;
#X listbox 641 273 3 0 0 0 - - - 0;
#X obj 183 481 poly 4 1;
#X obj 177 668 dac~;
#X obj 187 631 *~ 0.2;
#X obj 5 82 t f f;
#N canvas 144 385 1575 610 Trill 1;
#X obj 241 12 loadbang;
#X obj 273 124 s bela_setTrill;
#X text 72 10 Initialise Trill sensor;
#X obj 241 207 s bela_setTrill;
#X text 13 76 [prescaler <sensor_id> <value>(;
#X text 21 98 value betwen 1 and 6;
#X text 17 55 Change sensitivity here;
#X obj 83 130 r trill-sensitivity;
#X obj 250 181 print;
#X msg 241 79 2;
#X obj 696 3 r bela_trill;
#X obj 696 118 t f f, f 8;
#X obj 696 142 > 0.5;
#X obj 696 166 change;
#X obj 696 190 pack, f 8;
#X obj 782 116 t f f, f 8;
#X obj 782 140 > 0.5;
#X obj 782 164 change;
#X obj 782 188 pack, f 8;
#X obj 869 116 t f f, f 8;
#X obj 869 140 > 0.5;
#X obj 869 164 change;
#X obj 869 188 pack, f 8;
#X obj 956 116 t f f, f 8;
#X obj 956 140 > 0.5;
#X obj 956 164 change;
#X obj 956 188 pack, f 8;
#X obj 1040 118 t f f, f 8;
#X obj 1040 142 > 0.5;
#X obj 1040 166 change;
#X obj 1040 190 pack, f 8;
#X obj 697 275 print pads;
#X obj 696 213 s Pad0;
#X obj 781 212 s Pad1;
#X obj 868 211 s Pad2;
#X obj 956 211 s Pad3;
#X obj 1040 214 s Pad4;
#X obj 696 94 unpack f f f f f f, f 62;
#X obj 1124 119 t f f, f 8;
#X obj 1124 143 > 0.5;
#X obj 1124 167 change;
#X obj 1124 191 pack, f 8;
#X obj 1124 214 s Pad5;
#X obj 20 165 r bela_trillCreated;
#X obj 20 192 print bela_trillCreated;
#X obj 434 121 s bela_setTrill @hv_param;
#X obj 241 53 t b b b, f 28;
#X msg 273 99 new pads 1 CRAFT;
#X msg 434 96 new ring 1 RING;
#X obj 696 29 route pads ring, f 25;
#X msg 241 149 prescaler pads \$1;
#X obj 782 52 s ring;
#X obj 698 315 r ring;
#X obj 698 339 print RingReadings;
#X connect 0 0 46 0;
#X connect 7 0 50 0;
#X connect 9 0 50 0;
#X connect 10 0 49 0;
#X connect 11 0 12 0;
#X connect 11 1 14 1;
#X connect 12 0 13 0;
#X connect 13 0 14 0;
#X connect 14 0 31 0;
#X connect 14 0 32 0;
#X connect 15 0 16 0;
#X connect 15 1 18 1;
#X connect 16 0 17 0;
#X connect 17 0 18 0;
#X connect 18 0 31 0;
#X connect 18 0 33 0;
#X connect 19 0 20 0;
#X connect 19 1 22 1;
#X connect 20 0 21 0;
#X connect 21 0 22 0;
#X connect 22 0 31 0;
#X connect 22 0 34 0;
#X connect 23 0 24 0;
#X connect 23 1 26 1;
#X connect 24 0 25 0;
#X connect 25 0 26 0;
#X connect 26 0 31 0;
#X connect 26 0 35 0;
#X connect 27 0 28 0;
#X connect 27 1 30 1;
#X connect 28 0 29 0;
#X connect 29 0 30 0;
#X connect 30 0 36 0;
#X connect 30 0 31 0;
#X connect 37 0 11 0;
#X connect 37 1 15 0;
#X connect 37 2 19 0;
#X connect 37 3 23 0;
#X connect 37 4 27 0;
#X connect 37 5 38 0;
#X connect 38 0 39 0;
#X connect 38 1 41 1;
#X connect 39 0 40 0;
#X connect 40 0 41 0;
#X connect 41 0 42 0;
#X connect 41 0 31 0;
#X connect 43 0 44 0;
#X connect 46 0 9 0;
#X connect 46 1 47 0;
#X connect 46 2 48 0;
#X connect 47 0 1 0;
#X connect 48 0 45 0;
#X connect 49 0 37 0;
#X connect 49 1 51 0;
#X connect 50 0 3 0;
#X connect 50 0 8 0;
#X connect 52 0 53 0;
#X restore 111 32 pd Trill;
#X obj 185 595 clone -s 1 vanillaSynth 4;
#X obj 97 169 bng 19 250 50 0 empty Pad0 Pad0 0 -10 0 12 #fcfcfc #000000 #000000;
#X obj 220 172 bng 19 250 50 0 empty Pad1 Pad1 0 -10 0 12 #fcfcfc #000000 #000000;
#X obj 346 170 bng 19 250 50 0 empty Pad2 Pad2 0 -10 0 12 #fcfcfc #000000 #000000;
#X obj 453 172 bng 19 250 50 0 empty Pad3 Pad3 0 -10 0 12 #fcfcfc #000000 #000000;
#X obj 591 171 bng 19 250 50 0 empty Pad4 Pad4 0 -10 0 12 #fcfcfc #000000 #000000;
#X connect 0 0 51 0;
#X connect 1 0 14 1;
#X connect 1 0 38 0;
#X connect 2 0 15 1;
#X connect 2 0 40 0;
#X connect 3 0 16 1;
#X connect 3 0 42 0;
#X connect 4 0 53 0;
#X connect 5 0 48 0;
#X connect 6 0 5 0;
#X connect 6 1 5 1;
#X connect 7 0 4 0;
#X connect 8 0 10 0;
#X connect 8 1 10 1;
#X connect 9 0 48 0;
#X connect 10 0 48 0;
#X connect 11 0 12 0;
#X connect 11 1 12 1;
#X connect 12 0 48 0;
#X connect 13 0 17 1;
#X connect 13 0 44 0;
#X connect 14 0 6 0;
#X connect 15 0 27 0;
#X connect 16 0 8 0;
#X connect 17 0 11 0;
#X connect 18 0 14 0;
#X connect 18 0 28 0;
#X connect 19 0 29 0;
#X connect 19 0 15 0;
#X connect 20 0 30 0;
#X connect 20 0 16 0;
#X connect 21 0 31 0;
#X connect 21 0 17 0;
#X connect 22 0 23 1;
#X connect 22 0 46 0;
#X connect 23 0 25 0;
#X connect 24 0 28 0;
#X connect 24 1 29 0;
#X connect 24 2 30 0;
#X connect 24 3 31 0;
#X connect 24 4 32 0;
#X connect 25 0 26 0;
#X connect 25 1 26 1;
#X connect 26 0 48 0;
#X connect 27 0 9 0;
#X connect 27 1 9 1;
#X connect 28 0 1 0;
#X connect 29 0 2 0;
#X connect 30 0 3 0;
#X connect 31 0 13 0;
#X connect 32 0 22 0;
#X connect 33 0 32 0;
#X connect 33 0 23 0;
#X connect 35 0 36 0;
#X connect 35 1 36 1;
#X connect 36 0 48 0;
#X connect 37 0 35 0;
#X connect 38 0 39 0;
#X connect 40 0 41 0;
#X connect 42 0 43 0;
#X connect 44 0 45 0;
#X connect 46 0 47 0;
#X connect 48 0 7 0;
#X connect 48 1 7 1;
#X connect 48 2 7 2;
#X connect 50 0 49 0;
#X connect 50 0 49 1;
#X connect 51 0 37 0;
#X connect 51 1 24 0;
#X connect 53 0 50 0;
#X connect 54 0 28 0;
#X connect 54 0 14 0;
#X connect 55 0 29 0;
#X connect 55 0 15 0;
#X connect 56 0 30 0;
#X connect 56 0 16 0;
#X connect 57 0 31 0;
#X connect 57 0 17 0;
#X connect 58 0 32 0;
#X connect 58 0 23 0;
