#N canvas 567 265 1017 653 12;
#X obj 318 184 r root;
#N canvas 723 48 717 467 MidiRouting 0;
#X obj 14 94 s S-0;
#X obj 58 93 s S-1;
#X obj 99 93 s S-2;
#X obj 139 94 s S-3;
#X obj 26 34 stripnote;
#X msg 452 305 maj;
#X msg 493 307 dim;
#X msg 525 307 aug;
#X msg 626 309 mm7;
#X msg 557 307 MM7;
#X msg 589 308 Mm7;
#X obj 454 364 s chord;
#X obj 17 61 sel 50 51 54 52 53, f 28;
#X obj 182 92 s S-4;
#X obj 65 254 s root;
#X obj 12 178 moses 59;
#X obj 12 145 stripnote;
#X obj 26 10 notein 0;
#X obj 12 121 notein 0;
#X msg 233 121 decay \$1;
#X msg 308 120 timbre \$1;
#X obj 300 193 s params;
#X msg 382 120 morph \$1;
#X obj 233 27 / 127;
#X obj 308 96 / 127;
#X obj 382 99 / 127;
#X obj 233 5 ctlin 41;
#X obj 308 72 ctlin 42;
#X obj 382 76 ctlin 43;
#X obj 265 51 polytouchin;
#X obj 233 99 + 0.5;
#X obj 265 74 / 127;
#X obj 65 229 nbx 5 17 -1e+37 1e+37 0 1 empty empty empty 0 -10 0 12 #fcfcfc #000000 #000000 62 256;
#X obj 86 203 loadbang;
#X connect 4 0 12 0;
#X connect 5 0 11 0;
#X connect 6 0 11 0;
#X connect 7 0 11 0;
#X connect 8 0 11 0;
#X connect 9 0 11 0;
#X connect 10 0 11 0;
#X connect 12 0 0 0;
#X connect 12 1 1 0;
#X connect 12 2 2 0;
#X connect 12 3 3 0;
#X connect 12 4 13 0;
#X connect 15 1 32 0;
#X connect 16 0 15 0;
#X connect 17 0 4 0;
#X connect 17 1 4 1;
#X connect 18 0 16 0;
#X connect 18 1 16 1;
#X connect 19 0 21 0;
#X connect 20 0 21 0;
#X connect 22 0 21 0;
#X connect 23 0 30 0;
#X connect 24 0 20 0;
#X connect 25 0 22 0;
#X connect 26 0 23 0;
#X connect 27 0 24 0;
#X connect 28 0 25 0;
#X connect 29 0 31 0;
#X connect 30 0 19 0;
#X connect 31 0 30 1;
#X connect 32 0 14 0;
#X connect 33 0 32 0;
#X restore 5 33 pd MidiRouting;
#X obj 319 404 dac~;
#N canvas 70 25 1380 854 Trill 0;
#X obj 241 135 s bela_setTrill;
#X text 72 10 Initialise Trill sensor;
#X obj 231 283 s bela_setTrill;
#X text 13 76 [prescaler <sensor_id> <value>(;
#X text 21 98 value betwen 1 and 6;
#X text 17 55 Change sensitivity here;
#X obj 237 257 print;
#X obj 741 6 r bela_trill;
#X obj 751 202 t f f, f 8;
#X obj 751 337 pack, f 8;
#X obj 851 197 t f f, f 8;
#X obj 851 346 pack, f 8;
#X obj 938 197 t f f, f 8;
#X obj 937 376 pack, f 8;
#X obj 1025 197 t f f, f 8;
#X obj 1025 379 pack, f 8;
#X obj 1109 199 t f f, f 8;
#X obj 1109 382 pack, f 8;
#X obj 751 364 s Pad0;
#X obj 850 370 s Pad1;
#X obj 937 400 s Pad2;
#X obj 1025 402 s Pad3;
#X obj 1108 405 s Pad4;
#X obj 741 174 unpack f f f f f f, f 65;
#X obj 1193 200 t f f, f 8;
#X obj 1201 383 pack, f 8;
#X obj 1201 406 s Pad5;
#X obj 19 256 r bela_trillCreated;
#X obj 19 283 print bela_trillCreated;
#X obj 435 225 s bela_setTrill @hv_param;
#X msg 435 200 new ring 1 RING;
#X obj 741 32 route pads ring, f 25;
#X msg 231 225 prescaler pads \$1;
#X obj 827 55 s ring;
#X obj 743 496 r ring;
#X obj 231 170 r prescaler;
#X floatatom 231 199 5 0 0 0 - - - 0;
#X obj 769 225 r padThreshold0;
#X obj 751 251 >;
#X obj 852 269 >;
#X obj 936 293 >;
#X obj 1025 294 >;
#X obj 1109 292 >;
#X obj 1199 291 >;
#X obj 870 247 r padThreshold1;
#X obj 954 269 r padThreshold2;
#X obj 1043 243 r padThreshold3;
#X obj 1127 268 r padThreshold4;
#X floatatom 753 146 5 0 0 0 - - - 0;
#X obj 23 403 r padThreshold5;
#X obj 23 427 bang;
#X obj 241 27 r initialiseTrill;
#X msg 241 92 new pads 1 CRAFT \, prescaler pads 2 \, threshold pads 0.1 \, scanSettings pads 0 12;
#X obj 833 427 change;
#X obj 926 430 change;
#X obj 1016 430 change;
#X obj 1101 432 change;
#X obj 1192 430 change;
#X obj 241 53 t b b, f 28;
#X obj 751 300 moses 1;
#X obj 852 316 moses 1;
#X obj 936 347 moses 1;
#X obj 1025 342 moses 1;
#X obj 1109 342 moses 1;
#X obj 1201 339 moses 1;
#X obj 863 787 s root;
#X obj 739 463 print pad0;
#X obj 831 465 print pad1;
#X obj 923 469 print pad2;
#X obj 1014 466 print pad3;
#X obj 1099 467 print pad4;
#X obj 1189 468 print pad5;
#X obj 751 276 change;
#X obj 852 292 change;
#X obj 936 317 change;
#X obj 1025 317 change;
#X obj 1109 317 change;
#X obj 1217 243 r padThreshold4;
#X obj 1202 315 change;
#X obj 908 552 change;
#X obj 744 602 spigot;
#X obj 784 569 tgl 19 1 empty debugRing DebugRing 0 -10 0 12 #fcfcfc #000000 #000000 0 1;
#X obj 1318 594 s mod;
#X obj 1048 589 s vib-depth;
#X obj 1048 565 * 16;
#X obj 751 99 spigot;
#X obj 801 99 tgl 19 1 empty debugCraft DebugCraft 0 -10 0 12 #fcfcfc #000000 #000000 0 1;
#X obj 751 122 print craft;
#X obj 743 651 print ring;
#X obj 907 598 i;
#X floatatom 909 720 5 0 0 0 - - - 0;
#X floatatom 907 620 5 0 0 0 - - - 0;
#X obj 961 715 text define -k fifths;
#A set 0 0 \; 1 7 \; 2 2 \; 3 9 \; 4 4 \; 5 11 \; 6 6 \; 7 1 \; 8 8 \; 9 3 \; 10 10 \; 11 5 \; 12 0 \;;
#X obj 906 666 unpack f f;
#X floatatom 961 691 5 0 0 0 - - - 0;
#X obj 977 803 print root;
#X obj 956 750 mton;
#X obj 872 554 vsl 19 162 0 1 0 0 empty empty empty 0 -9 0 12 #fcfcfc #000000 #000000 0 1;
#X obj 909 696 + 48;
#X obj 1318 570 * 4;
#X obj 1020 677 text define -k diatonic_fifths;
#A set 0 \; 1 \; 2 \; 3 0 \; 4 0 \; 5 0 \; 6 7 \; 7 7 \; 8 7 \; 9 2 \; 10 2 \; 11 2 \; 12 9 \; 13 9 \; 14 9 \; 15 4 \; 16 4 \; 17 4 \; 18 11 \; 19 11 \; 20 11 \; 21 5 \; 22 5 \; 23 5 \;;
#X obj 907 643 text get diatonic_fifths;
#X obj 952 617 s ringPosition;
#X obj 907 574 * 23;
#X obj 986 778 spigot;
#X obj 1027 754 tgl 19 1 empty debugRoot empty 0 -10 0 12 #fcfcfc #000000 #000000 0 1;
#X obj 770 524 unpack f f f f f f f, f 80;
#X connect 7 0 31 0;
#X connect 8 0 38 0;
#X connect 8 1 9 1;
#X connect 9 0 18 0;
#X connect 10 0 39 0;
#X connect 10 1 11 1;
#X connect 11 0 19 0;
#X connect 12 0 40 0;
#X connect 12 0 54 0;
#X connect 12 1 13 1;
#X connect 13 0 20 0;
#X connect 14 0 41 0;
#X connect 14 0 55 0;
#X connect 14 1 15 1;
#X connect 15 0 21 0;
#X connect 16 0 42 0;
#X connect 16 1 17 1;
#X connect 17 0 22 0;
#X connect 23 0 8 0;
#X connect 23 1 10 0;
#X connect 23 1 53 0;
#X connect 23 2 12 0;
#X connect 23 3 14 0;
#X connect 23 4 16 0;
#X connect 23 4 56 0;
#X connect 23 5 24 0;
#X connect 24 0 43 0;
#X connect 24 0 57 0;
#X connect 24 1 25 1;
#X connect 25 0 26 0;
#X connect 27 0 28 0;
#X connect 30 0 29 0;
#X connect 31 0 23 0;
#X connect 31 0 85 0;
#X connect 31 1 33 0;
#X connect 32 0 2 0;
#X connect 32 0 6 0;
#X connect 34 0 80 0;
#X connect 34 0 106 0;
#X connect 35 0 36 0;
#X connect 36 0 32 0;
#X connect 37 0 38 1;
#X connect 38 0 72 0;
#X connect 39 0 73 0;
#X connect 40 0 74 0;
#X connect 41 0 75 0;
#X connect 42 0 76 0;
#X connect 43 0 78 0;
#X connect 44 0 39 1;
#X connect 45 0 40 1;
#X connect 46 0 41 1;
#X connect 47 0 42 1;
#X connect 48 0 23 0;
#X connect 49 0 50 0;
#X connect 51 0 58 0;
#X connect 52 0 0 0;
#X connect 58 0 52 0;
#X connect 58 1 30 0;
#X connect 59 1 9 0;
#X connect 60 1 11 0;
#X connect 61 1 13 0;
#X connect 62 1 15 0;
#X connect 63 1 17 0;
#X connect 64 1 25 0;
#X connect 72 0 59 0;
#X connect 73 0 60 0;
#X connect 74 0 61 0;
#X connect 75 0 62 0;
#X connect 76 0 63 0;
#X connect 77 0 43 1;
#X connect 78 0 64 0;
#X connect 79 0 103 0;
#X connect 80 0 88 0;
#X connect 81 0 80 1;
#X connect 84 0 83 0;
#X connect 85 0 87 0;
#X connect 86 0 85 1;
#X connect 89 0 91 0;
#X connect 90 0 65 0;
#X connect 90 0 96 0;
#X connect 91 0 101 0;
#X connect 91 0 102 0;
#X connect 93 1 94 0;
#X connect 94 0 98 0;
#X connect 96 0 104 0;
#X connect 97 0 103 0;
#X connect 98 0 90 0;
#X connect 99 0 82 0;
#X connect 101 0 93 0;
#X connect 103 0 89 0;
#X connect 104 0 95 0;
#X connect 105 0 104 1;
#X connect 106 1 79 0;
#X connect 106 6 99 0;
#X restore 111 33 pd Trill;
#N canvas 949 380 333 362 Network 0;
#X obj 140 86 s presets;
#X obj 140 61 list;
#X obj 24 38 route reload save;
#X obj 24 61 bng 19 250 50 0 empty empty empty 0 -10 0 12 #fcfcfc #000000 #000000;
#X obj 85 61 bng 19 250 50 0 empty empty empty 0 -10 0 12 #fcfcfc #000000 #000000;
#X obj 24 86 s reload;
#X obj 85 86 s save;
#X obj 24 13 netreceive 7561 -f;
#X obj 171 27 print Connection;
#X connect 1 0 0 0;
#X connect 2 0 3 0;
#X connect 2 1 4 0;
#X connect 2 2 1 0;
#X connect 3 0 5 0;
#X connect 4 0 6 0;
#X connect 7 0 2 0;
#X connect 7 1 8 0;
#X restore 85 9 pd Network;
#X obj 318 311 *~ 0.5;
#X obj 318 284 clone -s 1 rhodney 6;
#X obj 336 208 r key;
#X obj 318 232 +;
#N canvas 92 117 912 696 makenotes 0;
#X obj 150 57 inlet;
#X obj 328 497 outlet;
#X floatatom 284 170 3 0 0 0 - - - 0;
#X floatatom 392 175 3 0 0 0 - - - 0;
#X floatatom 516 181 3 0 0 0 - - - 0;
#X obj 268 390 pack;
#X obj 268 356 makenote 100 250;
#X obj 328 465 pack f f f;
#X obj 513 353 makenote 100 250;
#X obj 386 380 pack;
#X obj 518 377 pack;
#X obj 638 353 makenote 100 250;
#X obj 639 375 pack;
#X floatatom 639 175 3 0 0 0 - - - 0;
#X obj 283 197 f, f 2;
#X obj 381 198 f, f 2;
#X obj 516 204 f, f 2;
#X obj 639 197 f, f 2;
#X obj 202 139 bng 19 250 50 0 empty S-0 S-0 0 -10 0 12 #fcfcfc #000000 #000000;
#X obj 343 116 bng 19 250 50 0 empty S-1 S-1 0 -10 0 12 #fcfcfc #000000 #000000;
#X obj 469 114 bng 19 250 50 0 empty S-2 S-2 0 -10 0 12 #fcfcfc #000000 #000000;
#X obj 577 116 bng 19 250 50 0 empty S-3 S-3 0 -10 0 12 #fcfcfc #000000 #000000;
#X floatatom 764 172 3 0 0 0 - - - 0;
#X obj 764 195 f, f 2;
#X obj 269 77 t f f f f f, f 71;
#X obj 763 354 makenote 100 250;
#X obj 764 376 pack;
#X obj 386 356 makenote 100 250;
#X obj 284 148 + 0;
#X obj 639 152 + 7;
#X obj 764 150 + 12;
#X obj 714 115 bng 19 250 50 0 empty S-4 S-4 0 -10 0 12 #fcfcfc #000000 #000000;
#X obj 150 355 makenote 100 250;
#X obj 150 382 pack;
#X obj 150 109 - 12;
#X obj 150 81 t f f;
#X obj 240 115 bng 19 250 50 0 empty Pad0 Pad0 0 -10 0 12 #fcfcfc #000000 #000000;
#X obj 365 116 bng 19 250 50 0 empty Pad1 Pad1 0 -10 0 12 #fcfcfc #000000 #000000;
#X obj 491 114 bng 19 250 50 0 empty Pad2 Pad2 0 -10 0 12 #fcfcfc #000000 #000000;
#X obj 598 116 bng 19 250 50 0 empty Pad3 Pad3 0 -10 0 12 #fcfcfc #000000 #000000;
#X obj 736 115 bng 19 250 50 0 empty Pad4 Pad4 0 -10 0 12 #fcfcfc #000000 #000000;
#X obj 150 186 change;
#X obj 327 431 poly 6 1;
#X obj 392 152 + 4;
#X obj 516 157 + 3;
#X connect 0 0 35 0;
#X connect 2 0 14 1;
#X connect 3 0 15 1;
#X connect 4 0 16 1;
#X connect 5 0 42 0;
#X connect 6 0 5 0;
#X connect 6 1 5 1;
#X connect 7 0 1 0;
#X connect 8 0 10 0;
#X connect 8 1 10 1;
#X connect 9 0 42 0;
#X connect 10 0 42 0;
#X connect 11 0 12 0;
#X connect 11 1 12 1;
#X connect 12 0 42 0;
#X connect 13 0 17 1;
#X connect 14 0 6 0;
#X connect 15 0 27 0;
#X connect 16 0 8 0;
#X connect 17 0 11 0;
#X connect 18 0 14 0;
#X connect 18 0 28 0;
#X connect 19 0 15 0;
#X connect 19 0 43 0;
#X connect 20 0 16 0;
#X connect 20 0 44 0;
#X connect 21 0 29 0;
#X connect 21 0 17 0;
#X connect 22 0 23 1;
#X connect 23 0 25 0;
#X connect 24 0 28 0;
#X connect 24 1 43 0;
#X connect 24 2 44 0;
#X connect 24 3 29 0;
#X connect 24 4 30 0;
#X connect 25 0 26 0;
#X connect 25 1 26 1;
#X connect 26 0 42 0;
#X connect 27 0 9 0;
#X connect 27 1 9 1;
#X connect 28 0 2 0;
#X connect 29 0 13 0;
#X connect 30 0 22 0;
#X connect 31 0 30 0;
#X connect 31 0 23 0;
#X connect 32 0 33 0;
#X connect 32 1 33 1;
#X connect 33 0 42 0;
#X connect 34 0 41 0;
#X connect 35 0 34 0;
#X connect 35 1 24 0;
#X connect 36 0 28 0;
#X connect 36 0 14 0;
#X connect 37 0 15 0;
#X connect 37 0 43 0;
#X connect 38 0 16 0;
#X connect 38 0 44 0;
#X connect 39 0 29 0;
#X connect 39 0 17 0;
#X connect 40 0 30 0;
#X connect 40 0 23 0;
#X connect 41 0 32 0;
#X connect 42 0 7 0;
#X connect 42 1 7 1;
#X connect 42 2 7 2;
#X connect 43 0 3 0;
#X connect 44 0 4 0;
#X restore 318 259 pd makenotes;
#N canvas 15 292 1102 522 Presets 0;
#X obj 901 171 text define state;
#X floatatom 176 7 5 0 0 0 - - - 0;
#X obj 176 75 pack s f;
#X obj 194 321 text search state;
#X floatatom 286 6 5 0 0 0 - - - 0;
#X msg 286 27 timbre \$1;
#X obj 176 99 s presets;
#X obj 156 175 r presets;
#X obj 194 277 unpack s f;
#X listbox 194 299 9 0 0 0 - - - 0;
#X floatatom 261 299 5 0 0 0 - - - 0;
#X floatatom 194 418 5 0 0 0 - - - 0;
#X obj 194 441 + 1;
#X msg 804 77 clear;
#X msg 902 78 write ./state.txt;
#X msg 743 142 read ./state.txt;
#X text 650 417 Define text file called "states" to store presets. TO DO: change this file dynamically to store different presets., f 28;
#X text 273 68 Route parameters to store as [s f] list to [send], f 17;
#X text 13 368 Receive parameter and write it to the top of the text file, f 14;
#X text 320 267 Search for existing parameter entry and return its line number in the text file, f 18;
#X obj 194 345 moses 0;
#X obj 194 369 bng 19 250 50 0 empty empty empty 0 -10 0 12 #fcfcfc #000000 #000000;
#X obj 194 393 text size state;
#X text 321 362 If text file is empty \, add parameter to line 1 \; else add a new line and store the parameter, f 27;
#X text 557 113 load presets;
#X text 985 55 save presets;
#X obj 720 222 bng 19 250 50 0 empty empty empty 0 -10 0 12 #fcfcfc #000000 #000000;
#X obj 720 258 text sequence state;
#X msg 752 222 line 0;
#X msg 720 293 \; \$1 \$2;
#X text 805 209 output all stored values as [s f] starting from line 0, f 21;
#X obj 720 -6 loadbang;
#X obj 703 337 print Presets loaded;
#X msg 176 29 prescaler \$1;
#X obj 158 470 text set state 2;
#X obj 230 239 print presetReceived;
#X obj 230 216 list trim;
#X obj 744 69 r reload;
#X obj 720 173 t b b;
#X obj 720 68 bng 19 250 50 0 empty empty empty 0 -10 0 12 #fcfcfc #000000 #000000;
#X obj 903 56 r save;
#X obj 720 17 t b b;
#X obj 752 42 s initialiseTrill;
#X obj 720 98 t b b b;
#X connect 1 0 33 0;
#X connect 2 0 6 0;
#X connect 3 0 20 0;
#X connect 4 0 5 0;
#X connect 5 0 2 0;
#X connect 7 0 36 0;
#X connect 7 0 8 0;
#X connect 7 0 34 0;
#X connect 8 0 9 0;
#X connect 8 1 10 0;
#X connect 9 0 3 0;
#X connect 11 0 12 0;
#X connect 12 0 34 1;
#X connect 13 0 0 0;
#X connect 14 0 0 0;
#X connect 15 0 0 0;
#X connect 20 0 21 0;
#X connect 20 1 34 1;
#X connect 21 0 22 0;
#X connect 22 0 11 0;
#X connect 26 0 27 0;
#X connect 27 0 29 0;
#X connect 27 0 32 0;
#X connect 28 0 27 0;
#X connect 31 0 41 0;
#X connect 33 0 2 0;
#X connect 36 0 35 0;
#X connect 37 0 43 0;
#X connect 38 0 26 0;
#X connect 38 1 28 0;
#X connect 39 0 43 0;
#X connect 40 0 14 0;
#X connect 41 0 39 0;
#X connect 41 1 42 0;
#X connect 43 0 38 0;
#X connect 43 1 15 0;
#X connect 43 2 0 0;
#X restore 6 8 pd Presets;
#N canvas 246 495 1048 484 GUI 0;
#X obj 41 75 r root;
#X obj 41 121 list prepend root;
#X obj 41 177 s belaGui;
#X listbox 53 151 20 0 0 0 - - - 0;
#X obj 41 98 mton;
#X obj 323 131 s bela_setGui;
#X msg 323 68 new control key;
#X obj 323 20 loadbang;
#X obj 312 177 r bela_guiControl;
#X text 47 21 Sends;
#X text 571 207 Returns;
#X obj 320 305 s key;
#X obj 360 277 s tone;
#X obj 410 299 s decay;
#X obj 465 316 s vib-freq;
#X obj 503 286 s vib-depth;
#X obj 312 253 route key tone decay vib-freq vib-depth mod adsr;
#X obj 560 337 s adsr;
#X obj 594 299 s mod, f 6;
#X obj 238 404 print gui key;
#X obj 360 400 print gui tone;
#X obj 479 400 print gui decay;
#X msg 345 89 new control tone;
#X msg 369 109 new control decay;
#X msg 562 76 new array buffer;
#X obj 323 44 t b b b b;
#X obj 239 356 change;
#X obj 361 372 change;
#X obj 469 362 change;
#X connect 0 0 4 0;
#X connect 1 0 2 0;
#X connect 1 0 3 0;
#X connect 4 0 1 0;
#X connect 6 0 5 0;
#X connect 7 0 25 0;
#X connect 8 0 16 0;
#X connect 16 0 11 0;
#X connect 16 0 26 0;
#X connect 16 1 12 0;
#X connect 16 1 27 0;
#X connect 16 2 13 0;
#X connect 16 2 28 0;
#X connect 16 3 14 0;
#X connect 16 4 15 0;
#X connect 16 5 17 0;
#X connect 16 6 18 0;
#X connect 22 0 5 0;
#X connect 23 0 5 0;
#X connect 24 0 5 0;
#X connect 25 1 22 0;
#X connect 25 2 23 0;
#X connect 25 3 24 0;
#X restore 161 9 pd GUI;
#N canvas 114 127 1534 835 Neopixel 1;
#X obj 42 314 loadbang;
#X msg 49 467 connect localhost 7562;
#X obj 233 177 r ringPosition;
#X text 590 497 send single-color:;
#X text 569 527 [offset gain led0 led1 ...(;
#X obj 266 433 tgl 19 0 empty empty empty 0 -10 0 12 #fcfcfc #000000 #000000 0 1;
#X obj 287 433 tgl 19 0 empty empty empty 0 -10 0 12 #fcfcfc #000000 #000000 0 1;
#X obj 308 433 tgl 19 0 empty empty empty 0 -10 0 12 #fcfcfc #000000 #000000 0 1;
#X obj 329 433 tgl 19 0 empty empty empty 0 -10 0 12 #fcfcfc #000000 #000000 0 1;
#X obj 350 433 tgl 19 0 empty empty empty 0 -10 0 12 #fcfcfc #000000 #000000 0 1;
#X obj 370 433 tgl 19 0 empty empty empty 0 -10 0 12 #fcfcfc #000000 #000000 0 1;
#X floatatom 233 202 5 0 0 0 - - - 0;
#X msg 751 253 0;
#X obj 233 226 t b f b;
#X obj 394 434 tgl 19 0 empty empty empty 0 -10 0 12 #fcfcfc #000000 #000000 0 1;
#X obj 415 434 tgl 19 0 empty empty empty 0 -10 0 12 #fcfcfc #000000 #000000 0 1;
#X obj 436 434 tgl 19 0 empty empty empty 0 -10 0 12 #fcfcfc #000000 #000000 0 1;
#X obj 457 434 tgl 19 0 empty empty empty 0 -10 0 12 #fcfcfc #000000 #000000 0 1;
#X obj 478 434 tgl 19 0 empty empty empty 0 -10 0 12 #fcfcfc #000000 #000000 0 1;
#X obj 498 434 tgl 19 0 empty empty empty 0 -10 0 12 #fcfcfc #000000 #000000 0 1;
#X obj 520 434 tgl 19 0 empty empty empty 0 -10 0 12 #fcfcfc #000000 #000000 0 1;
#X obj 541 434 tgl 19 0 empty empty empty 0 -10 0 12 #fcfcfc #000000 #000000 0 1;
#X obj 562 434 tgl 19 0 empty empty empty 0 -10 0 12 #fcfcfc #000000 #000000 0 1;
#X obj 583 434 tgl 19 0 empty empty empty 0 -10 0 12 #fcfcfc #000000 #000000 0 1;
#X obj 603 434 tgl 19 0 empty empty empty 0 -10 0 12 #fcfcfc #000000 #000000 0 1;
#X obj 625 434 tgl 19 0 empty empty empty 0 -10 0 12 #fcfcfc #000000 #000000 0 1;
#X obj 645 434 tgl 19 0 empty empty empty 0 -10 0 12 #fcfcfc #000000 #000000 0 1;
#X obj 667 434 tgl 19 0 empty empty empty 0 -10 0 12 #fcfcfc #000000 #000000 0 1;
#X obj 688 434 tgl 19 0 empty empty empty 0 -10 0 12 #fcfcfc #000000 #000000 0 1;
#X obj 709 434 tgl 19 0 empty empty empty 0 -10 0 12 #fcfcfc #000000 #000000 0 1;
#X obj 730 434 tgl 19 0 empty empty empty 0 -10 0 12 #fcfcfc #000000 #000000 0 1;
#X obj 750 434 tgl 19 0 empty empty empty 0 -10 0 12 #fcfcfc #000000 #000000 0 1;
#X obj 255 259 sel 0 1 2 3 4 5 6 7 8 9 10 11 12 13 14 15 16 17 18 19 20 21 22 23, f 69;
#X obj 234 467 pack f f f f f f f f f f f f f f f f f f f f f f f f f f;
#X obj 94 403 nbx 5 17 -1e+37 1e+37 0 0 empty empty empty 0 -10 0 12 #fcfcfc #000000 #000000 0 256;
#X obj 162 403 nbx 5 17 -1e+37 1e+37 0 1 empty empty empty 0 -10 0 12 #fcfcfc #000000 #000000 20 256;
#X obj 234 527 oscformat leds setRaw b;
#X obj 426 720 netsend -u -b;
#X obj 81 625 spigot;
#X obj 120 602 tgl 19 1 empty DebugNeoPixel empty 0 -10 0 12 #fcfcfc #000000 #000000 0 1;
#X obj 81 648 print NeoPixel;
#X obj 427 599 oscformat leds setRaw rgb;
#X obj 1071 565 netsend -u -b;
#X obj 903 472 loadbang;
#X obj 1131 436 Led 15;
#X obj 1048 399 Led 0;
#X obj 1079 436 Led 3;
#X obj 1086 459 Led 6;
#X obj 1131 458 Led 18;
#X obj 1093 481 Led 9;
#X obj 1130 413 Led 12;
#X obj 1135 480 Led 21;
#X obj 976 362 text define -k Leds;
#A set 0 0 \; 1 0 \; 2 0 \; 3 3 \; 4 3 \; 5 3 \; 6 6 \; 7 6 \; 8 6 \; 9 9 \; 10 9 \; 11 9 \; 12 12 \; 13 12 \; 14 12 \; 15 15 \; 16 15 \; 17 15 \; 18 18 \; 19 18 \; 20 18 \; 21 21 \; 22 21 \; 23 21 \;;
#X obj 1273 206 text get Leds;
#X floatatom 976 194 5 0 0 0 - - - 0;
#X msg 902 494 connect localhost 7562;
#X obj 771 -1 r ringPosition;
#X obj 891 67 sel 0 1 2 3 4 5 6 7 8 9 10 11 12 13 14 15 16 17 18 19 20 21 22 23, f 69;
#X obj 901 104 f 0, f 4;
#X obj 959 112 f 3;
#X obj 1027 106 f 6;
#X obj 1092 109 f 9;
#X obj 1144 108 f 12;
#X obj 1203 112 f 15;
#X obj 1252 107 f 18;
#X obj 1303 107 f 21;
#X floatatom 771 23 5 0 0 0 - - - 0;
#X msg 896 292 \; Led\$1 1 cyan \;;
#X obj 979 219 change;
#X msg 1019 251 \; AllLeds 1 magenta \; Led0 1 white \; Led\$1 1 blue \;;
#X connect 0 0 34 0;
#X connect 0 0 35 0;
#X connect 1 0 37 0;
#X connect 2 0 11 0;
#X connect 5 0 33 2;
#X connect 6 0 33 3;
#X connect 7 0 33 4;
#X connect 8 0 33 5;
#X connect 9 0 33 6;
#X connect 10 0 33 7;
#X connect 11 0 13 0;
#X connect 12 0 10 0;
#X connect 12 0 9 0;
#X connect 12 0 8 0;
#X connect 12 0 7 0;
#X connect 12 0 6 0;
#X connect 12 0 5 0;
#X connect 12 0 14 0;
#X connect 12 0 16 0;
#X connect 12 0 17 0;
#X connect 12 0 18 0;
#X connect 12 0 19 0;
#X connect 12 0 21 0;
#X connect 12 0 22 0;
#X connect 12 0 23 0;
#X connect 12 0 24 0;
#X connect 12 0 25 0;
#X connect 12 0 26 0;
#X connect 12 0 27 0;
#X connect 12 0 28 0;
#X connect 12 0 29 0;
#X connect 12 0 30 0;
#X connect 12 0 31 0;
#X connect 12 0 15 0;
#X connect 12 0 20 0;
#X connect 13 0 33 0;
#X connect 13 0 35 0;
#X connect 13 0 34 0;
#X connect 13 1 32 0;
#X connect 13 2 12 0;
#X connect 14 0 33 8;
#X connect 15 0 33 9;
#X connect 16 0 33 10;
#X connect 17 0 33 11;
#X connect 18 0 33 12;
#X connect 19 0 33 13;
#X connect 20 0 33 14;
#X connect 21 0 33 15;
#X connect 22 0 33 16;
#X connect 23 0 33 17;
#X connect 24 0 33 18;
#X connect 25 0 33 19;
#X connect 26 0 33 20;
#X connect 27 0 33 21;
#X connect 28 0 33 22;
#X connect 29 0 33 23;
#X connect 30 0 33 24;
#X connect 31 0 33 25;
#X connect 32 3 8 0;
#X connect 32 3 9 0;
#X connect 32 3 10 0;
#X connect 32 4 9 0;
#X connect 32 4 10 0;
#X connect 32 4 8 0;
#X connect 32 5 10 0;
#X connect 32 5 9 0;
#X connect 32 5 8 0;
#X connect 32 6 14 0;
#X connect 32 6 15 0;
#X connect 32 6 16 0;
#X connect 32 7 15 0;
#X connect 32 7 16 0;
#X connect 32 7 14 0;
#X connect 32 8 16 0;
#X connect 32 8 15 0;
#X connect 32 8 14 0;
#X connect 32 9 18 0;
#X connect 32 9 19 0;
#X connect 32 9 17 0;
#X connect 32 10 18 0;
#X connect 32 10 19 0;
#X connect 32 10 17 0;
#X connect 32 11 19 0;
#X connect 32 11 18 0;
#X connect 32 11 17 0;
#X connect 32 12 21 0;
#X connect 32 12 22 0;
#X connect 32 12 20 0;
#X connect 32 13 21 0;
#X connect 32 13 22 0;
#X connect 32 13 20 0;
#X connect 32 14 21 0;
#X connect 32 14 22 0;
#X connect 32 14 20 0;
#X connect 32 15 24 0;
#X connect 32 15 25 0;
#X connect 32 15 23 0;
#X connect 32 16 25 0;
#X connect 32 16 24 0;
#X connect 32 16 23 0;
#X connect 32 17 25 0;
#X connect 32 17 24 0;
#X connect 32 17 23 0;
#X connect 32 18 26 0;
#X connect 32 18 27 0;
#X connect 32 18 28 0;
#X connect 32 19 26 0;
#X connect 32 19 27 0;
#X connect 32 19 28 0;
#X connect 32 20 26 0;
#X connect 32 20 27 0;
#X connect 32 20 28 0;
#X connect 32 21 29 0;
#X connect 32 21 30 0;
#X connect 32 21 31 0;
#X connect 32 22 29 0;
#X connect 32 22 30 0;
#X connect 32 22 31 0;
#X connect 32 23 29 0;
#X connect 32 23 30 0;
#X connect 32 23 31 0;
#X connect 33 0 36 0;
#X connect 33 0 38 0;
#X connect 34 0 33 0;
#X connect 35 0 33 1;
#X connect 36 0 37 0;
#X connect 38 0 40 0;
#X connect 39 0 38 1;
#X connect 41 0 37 0;
#X connect 43 0 55 0;
#X connect 44 0 42 0;
#X connect 45 0 42 0;
#X connect 46 0 42 0;
#X connect 47 0 42 0;
#X connect 48 0 42 0;
#X connect 49 0 42 0;
#X connect 50 0 42 0;
#X connect 51 0 42 0;
#X connect 54 0 68 0;
#X connect 55 0 42 0;
#X connect 56 0 66 0;
#X connect 57 0 58 0;
#X connect 57 1 58 0;
#X connect 57 2 58 0;
#X connect 57 3 59 0;
#X connect 57 4 59 0;
#X connect 57 5 59 0;
#X connect 57 6 60 0;
#X connect 57 7 60 0;
#X connect 57 8 60 0;
#X connect 57 9 61 0;
#X connect 57 10 61 0;
#X connect 57 11 61 0;
#X connect 57 12 62 0;
#X connect 57 13 62 0;
#X connect 57 14 62 0;
#X connect 57 15 63 0;
#X connect 57 16 63 0;
#X connect 57 17 63 0;
#X connect 57 18 64 0;
#X connect 57 19 64 0;
#X connect 57 20 64 0;
#X connect 57 21 65 0;
#X connect 57 22 65 0;
#X connect 57 23 65 0;
#X connect 59 0 54 0;
#X connect 60 0 54 0;
#X connect 61 0 54 0;
#X connect 62 0 54 0;
#X connect 63 0 54 0;
#X connect 64 0 54 0;
#X connect 65 0 54 0;
#X connect 66 0 57 0;
#X connect 68 0 69 0;
#X restore 175 33 pd Neopixel;
#X obj 356 344 rev3~ 100 90 3000 20;
#X connect 0 0 8 0;
#X connect 5 0 2 0;
#X connect 5 0 13 0;
#X connect 6 0 5 0;
#X connect 7 0 8 1;
#X connect 8 0 9 0;
#X connect 9 0 6 0;
#X connect 13 0 2 1;
