#N canvas 122 65 1155 795 12;
#X obj 435 638 netsend -u -b;
#X msg 212 573 connect bela.local 7562;
#X obj 224 527 loadbang;
#X obj 436 670 tgl 15 0 empty empty empty 17 7 0 10 #fcfcfc #000000 #000000 0 1;
#X text 895 497 send single-color:;
#X text 874 527 [offset gain led0 led1 ...(;
#X obj 570 627 oscformat leds setRaw g;
#X obj 594 446 tgl 19 0 empty empty empty 0 -10 0 12 #fcfcfc #000000 #000000 0 1;
#X obj 615 446 tgl 19 0 empty empty empty 0 -10 0 12 #fcfcfc #000000 #000000 0 1;
#X obj 636 446 tgl 19 0 empty empty empty 0 -10 0 12 #fcfcfc #000000 #000000 0 1;
#X obj 657 446 tgl 19 0 empty empty empty 0 -10 0 12 #fcfcfc #000000 #000000 0 1;
#X obj 678 446 tgl 19 0 empty empty empty 0 -10 0 12 #fcfcfc #000000 #000000 0 1;
#X obj 698 446 tgl 19 0 empty empty empty 0 -10 0 12 #fcfcfc #000000 #000000 0 1;
#X floatatom 569 264 5 0 0 0 - - - 0;
#X msg 644 375 0;
#X obj 568 294 t b f b;
#X obj 416 460 nbx 5 17 -1e+37 1e+37 0 0 empty empty Offset 0 -10 0 12 #fcfcfc #000000 #000000 0 256;
#X obj 586 559 print;
#X obj 485 460 nbx 5 17 -1e+37 1e+37 0 1 empty empty Gain 0 -10 0 12 #fcfcfc #000000 #000000 159 256;
#X obj 722 447 tgl 19 0 empty empty empty 0 -10 0 12 #fcfcfc #000000 #000000 0 1;
#X obj 743 447 tgl 19 0 empty empty empty 0 -10 0 12 #fcfcfc #000000 #000000 0 1;
#X obj 764 447 tgl 19 0 empty empty empty 0 -10 0 12 #fcfcfc #000000 #000000 0 1;
#X obj 785 447 tgl 19 0 empty empty empty 0 -10 0 12 #fcfcfc #000000 #000000 0 1;
#X obj 806 447 tgl 19 0 empty empty empty 0 -10 0 12 #fcfcfc #000000 #000000 0 1;
#X obj 826 447 tgl 19 0 empty empty empty 0 -10 0 12 #fcfcfc #000000 #000000 0 1;
#X obj 848 447 tgl 19 0 empty empty empty 0 -10 0 12 #fcfcfc #000000 #000000 0 1;
#X obj 869 447 tgl 19 0 empty empty empty 0 -10 0 12 #fcfcfc #000000 #000000 0 1;
#X obj 890 447 tgl 19 0 empty empty empty 0 -10 0 12 #fcfcfc #000000 #000000 0 1;
#X obj 911 447 tgl 19 0 empty empty empty 0 -10 0 12 #fcfcfc #000000 #000000 0 1;
#X obj 931 447 tgl 19 0 empty empty empty 0 -10 0 12 #fcfcfc #000000 #000000 0 1;
#X obj 562 521 pack f f f f f f f f f f f f f f f f f f f;
#X obj 594 320 sel 0 1 2 3 4 5 6 7 8 9 10 11 12 13 14 15;
#X connect 0 0 3 0;
#X connect 1 0 0 0;
#X connect 2 0 1 0;
#X connect 6 0 0 0;
#X connect 6 0 17 0;
#X connect 7 0 30 2;
#X connect 8 0 30 3;
#X connect 9 0 30 4;
#X connect 10 0 30 5;
#X connect 11 0 30 6;
#X connect 12 0 30 7;
#X connect 13 0 15 0;
#X connect 14 0 12 0;
#X connect 14 0 11 0;
#X connect 14 0 10 0;
#X connect 14 0 9 0;
#X connect 14 0 8 0;
#X connect 14 0 7 0;
#X connect 14 0 19 0;
#X connect 14 0 20 0;
#X connect 14 0 21 0;
#X connect 14 0 22 0;
#X connect 14 0 23 0;
#X connect 14 0 24 0;
#X connect 14 0 25 0;
#X connect 14 0 26 0;
#X connect 14 0 27 0;
#X connect 14 0 28 0;
#X connect 14 0 29 0;
#X connect 15 0 30 0;
#X connect 15 1 31 0;
#X connect 15 2 14 0;
#X connect 16 0 30 0;
#X connect 18 0 30 1;
#X connect 19 0 30 8;
#X connect 20 0 30 9;
#X connect 21 0 30 10;
#X connect 22 0 30 11;
#X connect 23 0 30 12;
#X connect 24 0 30 13;
#X connect 25 0 30 14;
#X connect 26 0 30 15;
#X connect 27 0 30 16;
#X connect 28 0 30 17;
#X connect 29 0 30 18;
#X connect 30 0 6 0;
#X connect 30 0 17 0;
#X connect 31 0 7 0;
#X connect 31 1 8 0;
#X connect 31 2 9 0;
#X connect 31 3 10 0;
#X connect 31 4 11 0;
#X connect 31 5 12 0;
#X connect 31 6 19 0;
#X connect 31 7 20 0;
#X connect 31 8 21 0;
#X connect 31 9 22 0;
#X connect 31 10 23 0;
#X connect 31 11 24 0;
#X connect 31 12 25 0;
#X connect 31 13 26 0;
#X connect 31 14 27 0;
#X connect 31 15 28 0;
#X connect 31 16 29 0;
