#N canvas 151 61 1058 534 12;
#X obj 33 141 netsend -u -b;
#X msg 32 38 connect bela.local 7562;
#X obj 32 14 loadbang;
#X obj 33 165 tgl 15 0 empty empty empty 17 7 0 10 #fcfcfc #000000 #000000 0 1;
#X msg 48 60 disconnect;
#X obj 71 112 r oscFormatRGB;
#X obj 568 39 LedColors;
#X listbox 573 17 13 0 0 0 - - - 0;
#X listbox 568 60 15 0 0 0 - - - 0;
#X floatatom 604 82 3 0 0 0 - - - 0;
#X floatatom 568 82 3 0 0 0 - - - 0;
#X floatatom 640 82 3 0 0 0 - - - 0;
#X obj 411 355 oscformat leds setRaw rgb;
#X obj 633 342 text define -k Regions;
#A set 0 0 1 2 \; 1 0 1 2 \; 2 0 1 2 \; 3 3 4 5 \; 4 3 4 5 \; 5 3 4 5 \; 6 6 7 8 \; 7 6 7 8 \; 8 6 7 8 \; 9 9 10 11 \; 10 9 10 11 \; 11 9 10 11 \; 12 12 13 14 \; 13 12 13 14 \; 14 12 13 14 \; 15 15 16 17 \; 16 15 16 17 \; 17 15 16 17 \; 18 18 19 20 \; 19 18 19 20 \; 20 18 19 20 \; 21 21 22 23 \; 22 21 22 23 \; 23 21 22 23 \;;
#X obj 411 379 s oscFormatRGB;
#X floatatom 618 295 5 0 0 0 - - - 0;
#X obj 619 320 text get Regions;
#X obj 410 309 nbx 5 17 -1e+37 1e+37 0 1 empty LedsOffset LedsOffset 0 -10 0 12 #fcfcfc #000000 #000000 0 256;
#X obj 478 309 nbx 5 17 -1e+37 1e+37 0 1 empty LedsBrightness LedsBrightness 0 -10 0 12 #fcfcfc #000000 #000000 4 256;
#X obj 532 103 pack f f f f, f 16;
#X floatatom 532 16 5 0 23 0 - - - 0;
#X obj 411 332 LedAddress;
#X msg 531 125 \; AllLeds 1 0 1 \; Led\$1 \$2 \$3 \$4 \; UpdateLeds 1 \;;
#X msg 619 365 \; AllLeds 1 0 1 \; Led\$2 0 1 1 \; Led\$3 0 1 1 \; Led\$4 0 1 1 \; UpdateLeds 1 \;;
#X msg 678 123 \; AllLeds 0 0 0 \; UpdateLeds 1 \;;
#X msg 387 119 \; Led0 0 10 10 \; Led1 0 1 1 \; Led2 0 1 1 \; UpdateLeds 1 \;;
#N canvas 912 158 780 701 router 0;
#X obj 103 82 f;
#X obj 103 106 + 1;
#X obj 140 24 tgl 19 0 empty empty empty 0 -10 0 12 #fcfcfc #000000 #000000 0 1;
#X floatatom 103 154 5 0 0 0 - - - 0;
#X obj 103 58 metro 1000;
#X floatatom 153 122 5 0 0 0 - - - 0;
#X floatatom 172 27 5 0 0 0 - - - 0;
#X obj 245 232 tgl 19 0 empty empty empty 0 -10 0 12 #fcfcfc #000000 #000000 0 1;
#X obj 266 232 tgl 19 0 empty empty empty 0 -10 0 12 #fcfcfc #000000 #000000 0 1;
#X obj 287 232 tgl 19 0 empty empty empty 0 -10 0 12 #fcfcfc #000000 #000000 0 1;
#X obj 308 232 tgl 19 0 empty empty empty 0 -10 0 12 #fcfcfc #000000 #000000 0 1;
#X obj 329 232 tgl 19 0 empty empty empty 0 -10 0 12 #fcfcfc #000000 #000000 0 1;
#X obj 349 232 tgl 19 0 empty empty empty 0 -10 0 12 #fcfcfc #000000 #000000 0 1;
#X floatatom 222 52 5 0 0 0 - - - 0;
#X msg 295 161 0;
#X obj 222 82 t b f b;
#X obj 373 233 tgl 19 0 empty empty empty 0 -10 0 12 #fcfcfc #000000 #000000 0 1;
#X obj 394 233 tgl 19 0 empty empty empty 0 -10 0 12 #fcfcfc #000000 #000000 0 1;
#X obj 415 233 tgl 19 0 empty empty empty 0 -10 0 12 #fcfcfc #000000 #000000 0 1;
#X obj 436 233 tgl 19 0 empty empty empty 0 -10 0 12 #fcfcfc #000000 #000000 0 1;
#X obj 457 233 tgl 19 0 empty empty empty 0 -10 0 12 #fcfcfc #000000 #000000 0 1;
#X obj 477 233 tgl 19 0 empty empty empty 0 -10 0 12 #fcfcfc #000000 #000000 0 1;
#X obj 499 233 tgl 19 0 empty empty empty 0 -10 0 12 #fcfcfc #000000 #000000 0 1;
#X obj 520 233 tgl 19 0 empty empty empty 0 -10 0 12 #fcfcfc #000000 #000000 0 1;
#X obj 541 233 tgl 19 0 empty empty empty 0 -10 0 12 #fcfcfc #000000 #000000 0 1;
#X obj 562 233 tgl 19 0 empty empty empty 0 -10 0 12 #fcfcfc #000000 #000000 0 1;
#X obj 582 233 tgl 19 0 empty empty empty 0 -10 0 12 #fcfcfc #000000 #000000 0 1;
#X obj 604 233 tgl 19 0 empty empty empty 0 -10 0 12 #fcfcfc #000000 #000000 0 1;
#X obj 624 233 tgl 19 0 empty empty empty 0 -10 0 12 #fcfcfc #000000 #000000 0 1;
#X obj 646 233 tgl 19 0 empty empty empty 0 -10 0 12 #fcfcfc #000000 #000000 0 1;
#X obj 667 233 tgl 19 0 empty empty empty 0 -10 0 12 #fcfcfc #000000 #000000 0 1;
#X obj 688 233 tgl 19 0 empty empty empty 0 -10 0 12 #fcfcfc #000000 #000000 0 1;
#X obj 709 233 tgl 19 0 empty empty empty 0 -10 0 12 #fcfcfc #000000 #000000 0 1;
#X obj 729 233 tgl 19 0 empty empty empty 0 -10 0 12 #fcfcfc #000000 #000000 0 1;
#X obj 86 284 nbx 5 17 -1e+37 1e+37 0 0 empty empty Offset 0 -10 0 12 #fcfcfc #000000 #000000 0 256;
#X obj 157 243 nbx 5 17 -1e+37 1e+37 0 1 empty empty Gain 0 -10 0 12 #fcfcfc #000000 #000000 101 256;
#X obj 245 108 sel 0 1 2 3 4 5 6 7 8 9 10 11 12 13 14 15 16 17 18 19 20 21 22 23, f 72;
#X obj 103 130 % 23;
#X floatatom 34 111 5 0 0 0 - - - 0;
#X obj 223 317 pack f f f f f f f f f f f f f f f f f f f f f f f f f f, f 65;
#X obj 157 265 t b f;
#X obj 270 447 oscformat leds setRaw r;
#X obj 269 498 oscformat leds setRaw g;
#X obj 269 545 oscformat leds setRaw b;
#X obj 269 423 spigot;
#X obj 269 474 spigot;
#X obj 269 521 spigot;
#X obj 416 426 tgl 19 0 empty empty empty 0 -10 0 12 #fcfcfc #000000 #000000 0 1;
#X obj 413 477 tgl 19 0 empty empty empty 0 -10 0 12 #fcfcfc #000000 #000000 0 1;
#X obj 416 525 tgl 19 0 empty empty empty 0 -10 0 12 #fcfcfc #000000 #000000 0 1;
#X obj 270 367 t f b;
#X msg 383 426 0;
#X obj 268 572 spigot;
#X obj 414 574 tgl 19 0 empty empty empty 0 -10 0 12 #fcfcfc #000000 #000000 0 1;
#X obj 268 596 oscformat leds setRaw w;
#X obj 270 342 hradio 19 1 0 3 empty empty empty 0 -10 0 12 #fcfcfc #000000 #000000 0;
#X obj 271 394 sel 0 1 2 3;
#X obj 133 632 outlet;
#X connect 0 0 1 0;
#X connect 1 0 37 0;
#X connect 2 0 4 0;
#X connect 3 0 13 0;
#X connect 4 0 0 0;
#X connect 5 0 37 1;
#X connect 6 0 4 1;
#X connect 7 0 39 2;
#X connect 8 0 39 3;
#X connect 9 0 39 4;
#X connect 10 0 39 5;
#X connect 11 0 39 6;
#X connect 12 0 39 7;
#X connect 13 0 15 0;
#X connect 14 0 12 0;
#X connect 14 0 11 0;
#X connect 14 0 10 0;
#X connect 14 0 9 0;
#X connect 14 0 8 0;
#X connect 14 0 7 0;
#X connect 14 0 16 0;
#X connect 14 0 17 0;
#X connect 14 0 18 0;
#X connect 14 0 19 0;
#X connect 14 0 20 0;
#X connect 14 0 21 0;
#X connect 14 0 22 0;
#X connect 14 0 23 0;
#X connect 14 0 24 0;
#X connect 14 0 25 0;
#X connect 14 0 26 0;
#X connect 14 0 27 0;
#X connect 14 0 28 0;
#X connect 14 0 29 0;
#X connect 14 0 30 0;
#X connect 14 0 31 0;
#X connect 14 0 32 0;
#X connect 14 0 33 0;
#X connect 15 0 39 0;
#X connect 15 1 36 0;
#X connect 15 2 14 0;
#X connect 16 0 39 8;
#X connect 17 0 39 9;
#X connect 18 0 39 10;
#X connect 19 0 39 11;
#X connect 20 0 39 12;
#X connect 21 0 39 13;
#X connect 22 0 39 14;
#X connect 23 0 39 15;
#X connect 24 0 39 16;
#X connect 25 0 39 17;
#X connect 26 0 39 18;
#X connect 27 0 39 19;
#X connect 28 0 39 20;
#X connect 29 0 39 21;
#X connect 30 0 39 22;
#X connect 31 0 39 23;
#X connect 32 0 39 24;
#X connect 33 0 39 25;
#X connect 34 0 39 0;
#X connect 35 0 40 0;
#X connect 36 0 7 0;
#X connect 36 1 8 0;
#X connect 36 2 9 0;
#X connect 36 3 10 0;
#X connect 36 4 11 0;
#X connect 36 5 12 0;
#X connect 36 6 16 0;
#X connect 36 7 17 0;
#X connect 36 8 18 0;
#X connect 36 9 19 0;
#X connect 36 10 20 0;
#X connect 36 11 21 0;
#X connect 36 12 22 0;
#X connect 36 13 23 0;
#X connect 36 14 24 0;
#X connect 36 15 25 0;
#X connect 36 16 26 0;
#X connect 36 17 27 0;
#X connect 36 18 28 0;
#X connect 36 19 29 0;
#X connect 36 20 30 0;
#X connect 36 21 31 0;
#X connect 36 22 32 0;
#X connect 36 23 33 0;
#X connect 37 0 0 1;
#X connect 37 0 3 0;
#X connect 38 0 37 0;
#X connect 39 0 44 0;
#X connect 39 0 45 0;
#X connect 39 0 46 0;
#X connect 39 0 52 0;
#X connect 40 0 39 0;
#X connect 40 1 39 1;
#X connect 41 0 57 0;
#X connect 42 0 57 0;
#X connect 43 0 57 0;
#X connect 44 0 41 0;
#X connect 45 0 42 0;
#X connect 46 0 43 0;
#X connect 47 0 44 1;
#X connect 48 0 45 1;
#X connect 49 0 46 1;
#X connect 50 0 56 0;
#X connect 50 1 51 0;
#X connect 51 0 47 0;
#X connect 51 0 48 0;
#X connect 51 0 49 0;
#X connect 51 0 53 0;
#X connect 52 0 54 0;
#X connect 53 0 52 1;
#X connect 54 0 57 0;
#X connect 55 0 50 0;
#X connect 56 0 47 0;
#X connect 56 1 48 0;
#X connect 56 2 49 0;
#X connect 56 3 53 0;
#X restore 66 86 pd router;
#X connect 0 0 3 0;
#X connect 1 0 0 0;
#X connect 2 0 1 0;
#X connect 4 0 0 0;
#X connect 5 0 0 0;
#X connect 6 0 8 0;
#X connect 6 1 10 0;
#X connect 6 2 9 0;
#X connect 6 3 11 0;
#X connect 7 0 6 0;
#X connect 9 0 19 2;
#X connect 10 0 19 1;
#X connect 11 0 19 3;
#X connect 12 0 14 0;
#X connect 15 0 16 0;
#X connect 16 0 23 0;
#X connect 17 0 21 0;
#X connect 18 0 21 1;
#X connect 19 0 22 0;
#X connect 20 0 19 0;
#X connect 21 0 12 0;
#X connect 26 0 0 0;
