#N canvas 101 270 1694 896 12;
#X obj 281 743 netsend -u -b;
#X msg 305 440 connect bela.local 7562;
#X obj 298 412 loadbang;
#X obj 259 781 tgl 15 0 empty empty empty 17 7 0 10 #fcfcfc #000000 #000000 0 1;
#X text 943 117 send single-color:;
#X text 941 143 [offset gain led0 led1 ...(;
#X obj 683 318 print;
#X msg 321 462 disconnect;
#X obj 276 48 f;
#X obj 276 72 + 1;
#X obj 313 -10 tgl 19 0 empty empty empty 0 -10 0 12 #fcfcfc #000000 #000000 0 1;
#X floatatom 276 120 5 0 0 0 - - - 0;
#X obj 276 24 metro 1000;
#X obj 482 494 oscformat leds setRaw r;
#X obj 481 545 oscformat leds setRaw g;
#X obj 481 592 oscformat leds setRaw b;
#X obj 481 470 spigot;
#X obj 481 521 spigot;
#X obj 481 568 spigot;
#X obj 628 473 tgl 19 0 empty empty empty 0 -10 0 12 #fcfcfc #000000 #000000 0 1;
#X obj 625 524 tgl 19 0 empty empty empty 0 -10 0 12 #fcfcfc #000000 #000000 0 1;
#X obj 628 572 tgl 19 0 empty empty empty 0 -10 0 12 #fcfcfc #000000 #000000 0 1;
#X obj 482 414 t f b;
#X msg 595 473 0;
#X obj 480 619 spigot;
#X obj 626 621 tgl 19 0 empty empty empty 0 -10 0 12 #fcfcfc #000000 #000000 0 1;
#X obj 480 643 oscformat leds setRaw w;
#X obj 482 389 hradio 19 1 0 3 empty empty empty 0 -10 0 12 #fcfcfc #000000 #000000 0;
#X obj 483 441 sel 0 1 2 3;
#X floatatom 326 88 5 0 0 0 - - - 0;
#X floatatom 345 -7 5 0 0 0 - - - 0;
#X obj 418 198 tgl 19 0 empty empty empty 0 -10 0 12 #fcfcfc #000000 #000000 0 1;
#X obj 439 198 tgl 19 0 empty empty empty 0 -10 0 12 #fcfcfc #000000 #000000 0 1;
#X obj 460 198 tgl 19 0 empty empty empty 0 -10 0 12 #fcfcfc #000000 #000000 0 1;
#X obj 481 198 tgl 19 0 empty empty empty 0 -10 0 12 #fcfcfc #000000 #000000 0 1;
#X obj 502 198 tgl 19 0 empty empty empty 0 -10 0 12 #fcfcfc #000000 #000000 0 1;
#X obj 522 198 tgl 19 0 empty empty empty 0 -10 0 12 #fcfcfc #000000 #000000 0 1;
#X floatatom 395 18 5 0 0 0 - - - 0;
#X msg 468 127 0;
#X obj 395 48 t b f b;
#X obj 546 199 tgl 19 0 empty empty empty 0 -10 0 12 #fcfcfc #000000 #000000 0 1;
#X obj 567 199 tgl 19 0 empty empty empty 0 -10 0 12 #fcfcfc #000000 #000000 0 1;
#X obj 588 199 tgl 19 0 empty empty empty 0 -10 0 12 #fcfcfc #000000 #000000 0 1;
#X obj 609 199 tgl 19 0 empty empty empty 0 -10 0 12 #fcfcfc #000000 #000000 0 1;
#X obj 630 199 tgl 19 0 empty empty empty 0 -10 0 12 #fcfcfc #000000 #000000 0 1;
#X obj 650 199 tgl 19 0 empty empty empty 0 -10 0 12 #fcfcfc #000000 #000000 0 1;
#X obj 672 199 tgl 19 0 empty empty empty 0 -10 0 12 #fcfcfc #000000 #000000 0 1;
#X obj 693 199 tgl 19 0 empty empty empty 0 -10 0 12 #fcfcfc #000000 #000000 0 1;
#X obj 714 199 tgl 19 0 empty empty empty 0 -10 0 12 #fcfcfc #000000 #000000 0 1;
#X obj 735 199 tgl 19 0 empty empty empty 0 -10 0 12 #fcfcfc #000000 #000000 0 1;
#X obj 755 199 tgl 19 0 empty empty empty 0 -10 0 12 #fcfcfc #000000 #000000 0 1;
#X obj 777 199 tgl 19 0 empty empty empty 0 -10 0 12 #fcfcfc #000000 #000000 0 1;
#X obj 797 199 tgl 19 0 empty empty empty 0 -10 0 12 #fcfcfc #000000 #000000 0 1;
#X obj 819 199 tgl 19 0 empty empty empty 0 -10 0 12 #fcfcfc #000000 #000000 0 1;
#X obj 840 199 tgl 19 0 empty empty empty 0 -10 0 12 #fcfcfc #000000 #000000 0 1;
#X obj 861 199 tgl 19 0 empty empty empty 0 -10 0 12 #fcfcfc #000000 #000000 0 1;
#X obj 882 199 tgl 19 0 empty empty empty 0 -10 0 12 #fcfcfc #000000 #000000 0 1;
#X obj 902 199 tgl 19 0 empty empty empty 0 -10 0 12 #fcfcfc #000000 #000000 0 1;
#X obj 259 250 nbx 5 17 -1e+37 1e+37 0 0 empty empty Offset 0 -10 0 12 #fcfcfc #000000 #000000 0 256;
#X obj 330 209 nbx 5 17 -1e+37 1e+37 0 1 empty empty Gain 0 -10 0 12 #fcfcfc #000000 #000000 101 256;
#X obj 418 74 sel 0 1 2 3 4 5 6 7 8 9 10 11 12 13 14 15 16 17 18 19 20 21 22 23, f 72;
#X obj 276 96 % 23;
#X floatatom 207 77 5 0 0 0 - - - 0;
#X obj 396 283 pack f f f f f f f f f f f f f f f f f f f f f f f f f f, f 65;
#X obj 330 231 t b f;
#X obj 408 692 r oscFormatRGB;
#X obj 1256 115 LedColors;
#X listbox 1261 93 13 0 0 0 - - - 0;
#X listbox 1256 136 15 0 0 0 - - - 0;
#X floatatom 1292 158 3 0 0 0 - - - 0;
#X floatatom 1256 158 3 0 0 0 - - - 0;
#X floatatom 1328 158 3 0 0 0 - - - 0;
#X obj 1099 431 oscformat leds setRaw rgb;
#X obj 566 322 else/lfo 0.2;
#X obj 565 369 i;
#X obj 566 347 * 0.5;
#X obj 1321 418 text define -k Regions;
#A set 0 0 1 2 \; 1 0 1 2 \; 2 0 1 2 \; 3 3 4 5 \; 4 3 4 5 \; 5 3 4 5 \; 6 6 7 8 \; 7 6 7 8 \; 8 6 7 8 \; 9 9 10 11 \; 10 9 10 11 \; 11 9 10 11 \; 12 12 13 14 \; 13 12 13 14 \; 14 12 13 14 \; 15 15 16 17 \; 16 15 16 17 \; 17 15 16 17 \; 18 18 19 20 \; 19 18 19 20 \; 20 18 19 20 \; 21 21 22 23 \; 22 21 22 23 \; 23 21 22 23 \;;
#X obj 1099 455 s oscFormatRGB;
#X floatatom 1306 371 5 0 0 0 - - - 0;
#X obj 1307 396 text get Regions;
#X obj 1098 385 nbx 5 17 -1e+37 1e+37 0 1 empty LedsOffset LedsOffset 0 -10 0 12 #fcfcfc #000000 #000000 0 256;
#X obj 1166 385 nbx 5 17 -1e+37 1e+37 0 1 empty LedsBrightness LedsBrightness 0 -10 0 12 #fcfcfc #000000 #000000 4 256;
#X obj 1220 179 pack f f f f, f 16;
#X floatatom 1220 92 5 0 23 0 - - - 0;
#X obj 1099 408 LedAddress;
#X msg 1219 201 \; AllLeds 1 0 1 \; Led\$1 \$2 \$3 \$4 \; UpdateLeds 1 \;;
#X msg 1307 441 \; AllLeds 1 0 1 \; Led\$2 0 1 1 \; Led\$3 0 1 1 \; Led\$4 0 1 1 \; UpdateLeds 1 \;;
#X connect 0 0 3 0;
#X connect 1 0 0 0;
#X connect 2 0 1 0;
#X connect 7 0 0 0;
#X connect 8 0 9 0;
#X connect 9 0 61 0;
#X connect 10 0 12 0;
#X connect 11 0 37 0;
#X connect 12 0 8 0;
#X connect 13 0 0 0;
#X connect 14 0 0 0;
#X connect 15 0 0 0;
#X connect 16 0 13 0;
#X connect 17 0 14 0;
#X connect 18 0 15 0;
#X connect 19 0 16 1;
#X connect 20 0 17 1;
#X connect 21 0 18 1;
#X connect 22 0 28 0;
#X connect 22 1 23 0;
#X connect 23 0 19 0;
#X connect 23 0 20 0;
#X connect 23 0 21 0;
#X connect 23 0 25 0;
#X connect 24 0 26 0;
#X connect 25 0 24 1;
#X connect 27 0 22 0;
#X connect 28 0 19 0;
#X connect 28 1 20 0;
#X connect 28 2 21 0;
#X connect 28 3 25 0;
#X connect 29 0 61 1;
#X connect 30 0 12 1;
#X connect 31 0 63 2;
#X connect 32 0 63 3;
#X connect 33 0 63 4;
#X connect 34 0 63 5;
#X connect 35 0 63 6;
#X connect 36 0 63 7;
#X connect 37 0 39 0;
#X connect 38 0 36 0;
#X connect 38 0 35 0;
#X connect 38 0 34 0;
#X connect 38 0 33 0;
#X connect 38 0 32 0;
#X connect 38 0 31 0;
#X connect 38 0 40 0;
#X connect 38 0 41 0;
#X connect 38 0 42 0;
#X connect 38 0 43 0;
#X connect 38 0 44 0;
#X connect 38 0 45 0;
#X connect 38 0 46 0;
#X connect 38 0 47 0;
#X connect 38 0 48 0;
#X connect 38 0 49 0;
#X connect 38 0 50 0;
#X connect 38 0 51 0;
#X connect 38 0 52 0;
#X connect 38 0 53 0;
#X connect 38 0 54 0;
#X connect 38 0 55 0;
#X connect 38 0 56 0;
#X connect 38 0 57 0;
#X connect 39 0 63 0;
#X connect 39 1 60 0;
#X connect 39 2 38 0;
#X connect 40 0 63 8;
#X connect 41 0 63 9;
#X connect 42 0 63 10;
#X connect 43 0 63 11;
#X connect 44 0 63 12;
#X connect 45 0 63 13;
#X connect 46 0 63 14;
#X connect 47 0 63 15;
#X connect 48 0 63 16;
#X connect 49 0 63 17;
#X connect 50 0 63 18;
#X connect 51 0 63 19;
#X connect 52 0 63 20;
#X connect 53 0 63 21;
#X connect 54 0 63 22;
#X connect 55 0 63 23;
#X connect 56 0 63 24;
#X connect 57 0 63 25;
#X connect 58 0 63 0;
#X connect 59 0 64 0;
#X connect 60 0 31 0;
#X connect 60 1 32 0;
#X connect 60 2 33 0;
#X connect 60 3 34 0;
#X connect 60 4 35 0;
#X connect 60 5 36 0;
#X connect 60 6 40 0;
#X connect 60 7 41 0;
#X connect 60 8 42 0;
#X connect 60 9 43 0;
#X connect 60 10 44 0;
#X connect 60 11 45 0;
#X connect 60 12 46 0;
#X connect 60 13 47 0;
#X connect 60 14 48 0;
#X connect 60 15 49 0;
#X connect 60 16 50 0;
#X connect 60 17 51 0;
#X connect 60 18 52 0;
#X connect 60 19 53 0;
#X connect 60 20 54 0;
#X connect 60 21 55 0;
#X connect 60 22 56 0;
#X connect 60 23 57 0;
#X connect 61 0 8 1;
#X connect 61 0 11 0;
#X connect 62 0 61 0;
#X connect 63 0 16 0;
#X connect 63 0 17 0;
#X connect 63 0 18 0;
#X connect 64 0 63 0;
#X connect 64 1 63 1;
#X connect 65 0 0 0;
#X connect 66 0 68 0;
#X connect 66 1 70 0;
#X connect 66 2 69 0;
#X connect 66 3 71 0;
#X connect 67 0 66 0;
#X connect 69 0 82 2;
#X connect 70 0 82 1;
#X connect 71 0 82 3;
#X connect 72 0 77 0;
#X connect 73 0 75 0;
#X connect 75 0 74 0;
#X connect 78 0 79 0;
#X connect 79 0 86 0;
#X connect 80 0 84 0;
#X connect 81 0 84 1;
#X connect 82 0 85 0;
#X connect 83 0 82 0;
#X connect 84 0 72 0;
