#N canvas 1332 31 1000 800 12;
#X text 50 40 Click messages to send chords to hungarian object;
#X text 50 60 Prime form: 0=C\\\, 1=C#\\\, 2=D\\\, 3=D#\\\, 4=E\\\, 5=F\\\, 6=F#\\\, 7=G\\\, 8=G#\\\, 9=A\\\, 10=A#\\\, 11=B;
#X obj 53 133 print chord_out;
#X obj 103 163 print cost;
#X obj 194 138 print info;
#X msg 51 196 target 0 4 7;
#X text 150 200 C major;
#X msg 50 220 target 2 6 9;
#X text 150 220 D major;
#X msg 50 240 target 4 8 11;
#X text 150 240 E major;
#X msg 50 260 target 5 9 0;
#X text 150 260 F major;
#X msg 50 280 target 7 11 2;
#X text 150 280 G major;
#X msg 50 300 target 9 1 4;
#X text 150 300 A major;
#X msg 50 320 target 11 3 6;
#X text 150 320 B major;
#X msg 300 200 target 0 3 7;
#X text 400 200 C minor;
#X msg 300 220 target 2 5 9;
#X text 400 220 D minor;
#X msg 300 240 target 4 7 11;
#X text 400 240 E minor;
#X msg 300 260 target 5 8 0;
#X text 400 260 F minor;
#X msg 300 280 target 7 10 2;
#X text 400 280 G minor;
#X msg 300 300 target 9 0 4;
#X text 400 300 A minor;
#X msg 300 320 target 11 2 6;
#X text 400 320 B minor;
#X msg 550 200 target 0 4 7 10;
#X text 680 200 C7;
#X msg 550 220 target 2 6 9 0;
#X text 680 220 D7;
#X msg 550 240 target 4 8 11 2;
#X text 680 240 E7;
#X msg 550 260 target 5 9 0 3;
#X text 680 260 F7;
#X msg 550 280 target 7 11 2 5;
#X text 680 280 G7;
#X msg 550 300 target 9 1 4 7;
#X text 680 300 A7;
#X msg 550 320 target 11 3 6 9;
#X text 680 320 B7;
#X msg 50 380 target 0 4 7 11;
#X text 180 380 Cmaj7;
#X msg 50 400 target 2 6 9 1;
#X text 180 400 Dmaj7;
#X msg 50 420 target 4 8 11 3;
#X text 180 420 Emaj7;
#X msg 50 440 target 5 9 0 4;
#X text 180 440 Fmaj7;
#X msg 50 460 target 7 11 2 6;
#X text 180 460 Gmaj7;
#X msg 300 380 target 0 3 7 10;
#X text 430 380 Cm7;
#X msg 300 400 target 2 5 9 0;
#X text 430 400 Dm7;
#X msg 300 420 target 4 7 11 2;
#X text 430 420 Em7;
#X msg 300 440 target 5 8 0 3;
#X text 430 440 Fm7;
#X msg 300 460 target 7 10 2 5;
#X text 430 460 Gm7;
#X msg 300 480 target 9 0 4 7;
#X text 430 480 Am7;
#X msg 550 380 target 0 3 6 9;
#X text 680 380 Cdim7;
#X msg 550 400 target 0 3 6 10;
#X text 680 400 Cm7b5 (half-dim);
#X msg 550 420 target 2 5 8 11;
#X text 680 420 Ddim7;
#X msg 550 440 target 2 5 8 0;
#X text 680 440 Dm7b5;
#X text 50 540 I-vi-IV-V (C major);
#X msg 50 560 target 0 4 7;
#X text 150 560 I (C);
#X msg 50 580 target 9 0 4;
#X text 150 580 vi (Am);
#X msg 50 600 target 5 9 0;
#X text 150 600 IV (F);
#X msg 50 620 target 7 11 2;
#X text 150 620 V (G);
#X text 300 540 ii-V-I (Jazz);
#X msg 300 560 target 2 5 9;
#X text 400 560 ii (Dm);
#X msg 300 580 target 7 11 2 5;
#X text 400 580 V7 (G7);
#X msg 300 600 target 0 4 7 11;
#X text 400 600 Imaj7 (Cmaj7);
#X text 550 540 Modal interchange;
#X msg 550 560 target 0 4 7;
#X text 650 560 I (C);
#X msg 550 580 target 5 8 0;
#X text 650 580 iv (Fm);
#X msg 550 600 target 5 9 0;
#X text 650 600 IV (F);
#X msg 550 620 target 7 11 2;
#X text 650 620 V (G);
#X msg 50 680 current 48 52 55 60;
#X text 200 680 Reset to C major (C3-E3-G3-C4);
#X msg 50 700 feedback 1;
#X text 150 700 Enable feedback;
#X msg 50 720 feedback 0;
#X text 150 720 Disable feedback;
#X msg 338 647 bang;
#X text 401 651 Recalculate current;
#X msg 300 700 target 0 4 7\\\, target 5 9 0\\\, target 7 11 2\\\, target 0 4 7;
#X text 300 720 I-IV-V-I progression;
#X msg 421 742 target 0 4 7\\\, target 0 3 7\\\, target 5 9 0\\\, target 7 11 2\\\, target 9 0 4\\\, target 0 4 7;
#X text 300 760 I-i-IV-V-vi-I;
