#N canvas 119 31 1760 865 12;
#X listbox 209 85 22 0 0 0 - - - 0;
#X obj 230 174 mton;
#X listbox 230 198 4 0 0 0 - - - 0;
#X obj 265 173 mton;
#X listbox 265 197 4 0 0 0 - - - 0;
#X obj 300 173 mton;
#X listbox 300 197 4 0 0 0 - - - 0;
#X obj 335 173 mton;
#X listbox 335 197 4 0 0 0 - - - 0;
#X text 745 47 C Major (C3 E3 G3 C4);
#X text 745 103 D Major (D3 F#3 A3 D4);
#X text 746 155 E Major (E3 G#3 B3 E4);
#X text 747 207 F Major (F3 A3 C4 F4);
#X text 747 256 G Major (G3 B3 D4 G4);
#X text 747 301 A Major (A3 C#4 E4 A4);
#X text 748 349 B Major (B3 D#4 F#4 B4);
#X obj 623 498 s current_chord;
#X obj 825 398 hradio 19 1 0 2 empty empty empty 0 -10 0 12 #fcfcfc #000000 #000000 0;
#X obj 825 422 == 0;
#X obj 654 450 spigot;
#X obj 861 423 == 1;
#X obj 711 451 spigot;
#X obj 739 498 s target_chord;
#X obj 645 71 s chord;
#X obj 645 125 s chord;
#X obj 647 178 s chord;
#X obj 647 230 s chord;
#X obj 647 279 s chord;
#X obj 647 325 s chord;
#X obj 648 372 s chord;
#X obj 684 412 r chord;
#X listbox 419 128 16 0 0 0 - - - 0;
#X obj 395 216 mton;
#X listbox 395 240 4 0 0 0 - - - 0;
#X obj 430 215 mton;
#X listbox 430 239 4 0 0 0 - - - 0;
#X obj 465 215 mton;
#X listbox 465 239 4 0 0 0 - - - 0;
#X obj 500 215 mton;
#X listbox 500 239 4 0 0 0 - - - 0;
#X obj 169 147 bng 19 250 50 0 empty empty empty 0 -10 0 12 #fcfcfc #000000 #000000;
#X obj 392 106 bng 19 250 50 0 empty empty empty 0 -10 0 12 #fcfcfc #000000 #000000;
#X obj 282 373 unpack f f f f;
#X obj 282 401 mton;
#X listbox 272 424 6 0 0 0 - - - 0;
#X obj 317 400 mton;
#X listbox 318 423 4 0 0 0 - - - 0;
#X obj 352 400 mton;
#X listbox 353 423 5 0 0 0 - - - 0;
#X obj 387 400 mton;
#X listbox 388 423 5 0 0 0 - - - 0;
#X listbox 279 349 20 0 0 0 - - - 0;
#X obj 258 63 print current_chord;
#X obj 434 98 print target_chord;
#X obj 361 309 print Hungarian solution;
#X obj 338 272 print Hungarian cost;
#X msg 645 47 48 52 55 60;
#X msg 645 103 50 54 57 62;
#X msg 646 155 52 56 59 64;
#X msg 650 205 53 57 60 65;
#X msg 647 256 55 59 62 67;
#X msg 647 301 57 61 64 69;
#X msg 648 349 59 63 66 71;
#X msg 938 48 48 51 55 60;
#X text 1038 48 C Minor (C3 Eb3 G3 C4);
#X msg 938 101 50 53 57 62;
#X text 1038 101 D Minor (D3 F3 A3 D4);
#X msg 937 152 52 55 59 64;
#X text 1037 152 E Minor (E3 G3 B3 E4);
#X msg 939 207 53 56 60 65;
#X text 1039 207 F Minor (F3 Ab3 C4 F4);
#X msg 939 260 55 58 62 67;
#X text 1041 262 G Minor (G3 Bb3 D4 G4);
#X msg 944 322 57 60 64 69;
#X text 1041 322 A Minor (A3 C4 E4 A4);
#X msg 944 376 59 62 66 71;
#X text 1045 374 B Minor (B3 D4 F#4 B4);
#X obj 938 73 s chord;
#X obj 939 126 s chord;
#X obj 938 176 s chord;
#X obj 940 229 s chord;
#X obj 940 284 s chord;
#X obj 944 343 s chord;
#X obj 944 398 s chord;
#X obj 245 549 pack;
#X obj 233 476 makenote 100 250;
#X obj 295 663 pack f f f;
#X obj 478 473 makenote 100 250;
#X obj 378 546 pack;
#X obj 499 547 pack;
#X obj 351 476 makenote 100 250;
#X obj 115 475 makenote 100 250;
#X obj 145 553 pack;
#X obj 286 739 dac~;
#X obj 295 629 poly 4 1;
#X obj 296 694 clone -s 1 polyplaits 4;
#X obj 132 515 noteout 0;
#X obj 250 514 noteout 1;
#X obj 376 512 noteout 2;
#X obj 496 508 noteout 3;
#X obj 26 105 array set current_chord;
#N canvas 0 22 450 278 (subpatch) 0;
#X array current_chord 4 float 3;
#A 0 60 64 67 72;
#A color 0;
#A width 2;
#X coords 0 70 4 40 200 140 1 0 0;
#X restore 632 623 graph;
#N canvas 0 22 450 278 (subpatch) 0;
#X array target_chord 4 float 3;
#A 0 4 7 4 7;
#A color 0;
#A width 2;
#X coords 0 70 4 40 200 140 1 0 0;
#X restore 836 623 graph;
#N canvas 0 22 450 278 (subpatch) 0;
#X array hungarian_solution 4 float 3;
#A 0 40 48 52 55;
#A color 0;
#A width 2;
#X coords 0 70 4 40 200 140 1 0 0;
#X restore 1039 623 graph;
#X obj 446 60 array set target_chord;
#X obj 442 370 array set hungarian_solution;
#X obj 215 292 hungarian 4;
#X obj 230 38 list prepend current;
#X obj 237 15 r current_chord;
#X obj 231 126 unpack s f f f f;
#X obj 233 262 list trim;
#X obj 419 37 list prepend target;
#X obj 427 13 r target_chord;
#X text 1311 24 C major;
#X text 1315 72 D major;
#X text 1315 119 E major;
#X text 1320 160 F major;
#X text 1321 200 G major;
#X text 1318 238 A major;
#X text 1321 288 B major;
#X msg 1217 279 \; chord 11 3 6;
#X msg 1220 234 \; chord 9 1 4;
#X msg 1219 192 \; chord 7 11 2;
#X msg 1219 152 \; chord 5 9 0;
#X msg 1218 110 \; chord 4 8 11;
#X msg 1218 65 \; chord 2 6 9;
#X msg 1218 19 \; chord 0 4 7;
#X obj 395 182 unpack s f f f f;
#X text 1496 17 C minor;
#X text 1494 78 D minor;
#X text 1494 132 E minor;
#X text 1497 196 F minor;
#X text 1498 241 G minor;
#X text 1499 284 A minor;
#X text 1500 333 B minor;
#X msg 1396 17 \; chord 0 3 7;
#X msg 1394 78 \; chord 2 5 9;
#X msg 1394 132 \; chord 4 7 11;
#X msg 1397 196 \; chord 5 8 0;
#X msg 1398 241 \; chord 7 10 2;
#X msg 1399 284 \; chord 9 0 4;
#X msg 1400 333 \; chord 11 2 6;
#X connect 0 0 110 0;
#X connect 1 0 2 0;
#X connect 3 0 4 0;
#X connect 5 0 6 0;
#X connect 7 0 8 0;
#X connect 17 0 18 0;
#X connect 17 0 20 0;
#X connect 18 0 19 1;
#X connect 19 0 16 0;
#X connect 20 0 21 1;
#X connect 21 0 22 0;
#X connect 30 0 19 0;
#X connect 30 0 21 0;
#X connect 31 0 127 0;
#X connect 32 0 33 0;
#X connect 34 0 35 0;
#X connect 36 0 37 0;
#X connect 38 0 39 0;
#X connect 40 0 0 0;
#X connect 41 0 31 0;
#X connect 42 0 43 0;
#X connect 42 0 91 0;
#X connect 42 1 45 0;
#X connect 42 1 85 0;
#X connect 42 2 47 0;
#X connect 42 2 90 0;
#X connect 42 3 49 0;
#X connect 42 3 87 0;
#X connect 43 0 44 0;
#X connect 45 0 46 0;
#X connect 47 0 48 0;
#X connect 49 0 50 0;
#X connect 51 0 42 0;
#X connect 56 0 23 0;
#X connect 57 0 24 0;
#X connect 58 0 25 0;
#X connect 59 0 26 0;
#X connect 60 0 27 0;
#X connect 61 0 28 0;
#X connect 62 0 29 0;
#X connect 63 0 77 0;
#X connect 65 0 78 0;
#X connect 67 0 79 0;
#X connect 69 0 80 0;
#X connect 71 0 81 0;
#X connect 73 0 82 0;
#X connect 75 0 83 0;
#X connect 84 0 94 0;
#X connect 85 0 84 0;
#X connect 85 0 97 0;
#X connect 85 1 84 1;
#X connect 85 1 97 1;
#X connect 86 0 95 0;
#X connect 87 0 89 0;
#X connect 87 0 99 0;
#X connect 87 1 89 1;
#X connect 87 1 99 1;
#X connect 88 0 94 0;
#X connect 89 0 94 0;
#X connect 90 0 88 0;
#X connect 90 0 98 0;
#X connect 90 1 88 1;
#X connect 90 1 98 1;
#X connect 91 0 92 0;
#X connect 91 0 96 0;
#X connect 91 1 92 1;
#X connect 91 1 96 1;
#X connect 92 0 94 0;
#X connect 94 0 86 0;
#X connect 94 1 86 1;
#X connect 94 2 86 2;
#X connect 95 0 93 0;
#X connect 95 0 93 1;
#X connect 106 0 51 0;
#X connect 106 0 54 0;
#X connect 106 0 105 0;
#X connect 106 1 55 0;
#X connect 107 0 0 0;
#X connect 107 0 52 0;
#X connect 107 0 100 0;
#X connect 107 0 109 0;
#X connect 108 0 107 0;
#X connect 109 1 1 0;
#X connect 109 2 3 0;
#X connect 109 3 5 0;
#X connect 109 4 7 0;
#X connect 110 0 106 0;
#X connect 111 0 31 0;
#X connect 111 0 53 0;
#X connect 111 0 104 0;
#X connect 111 0 110 0;
#X connect 112 0 111 0;
#X connect 127 1 32 0;
#X connect 127 2 34 0;
#X connect 127 3 36 0;
#X connect 127 4 38 0;
