#N canvas 368 116 1417 876 12;
#X listbox 30 110 22 0 0 0 - - - 0;
#X obj 12 180 mton;
#X listbox 11 204 4 0 0 0 - - - 0;
#X obj 49 181 mton;
#X listbox 49 205 4 0 0 0 - - - 0;
#X obj 84 181 mton;
#X listbox 84 205 4 0 0 0 - - - 0;
#X obj 124 158 mton;
#X listbox 124 182 4 0 0 0 - - - 0;
#X obj 375 30 bng 19 250 50 0 empty empty empty 0 -10 0 12 #fcfcfc #000000 #000000;
#X obj 291 360 unpack f f f f, f 48;
#X obj 297 384 mton;
#X listbox 297 407 4 0 0 0 - - - 0;
#X obj 410 382 mton;
#X listbox 410 404 4 0 0 0 - - - 0;
#X obj 521 387 mton;
#X listbox 521 410 5 0 0 0 - - - 0;
#X obj 635 386 mton;
#X listbox 635 408 5 0 0 0 - - - 0;
#X listbox 291 338 20 0 0 0 - - - 0;
#X obj 32 87 print current_chord;
#X obj 231 619 pack f f f;
#X obj 226 694 dac~;
#X obj 32 63 array set current_chord;
#N canvas 0 22 450 278 (subpatch) 0;
#X array current_chord 4 float 3;
#A 0 0 48 52 55;
#A color 0;
#A width 2;
#X coords 0 70 4 40 200 140 1 0 0;
#X restore 651 56 graph;
#N canvas 0 22 450 278 (subpatch) 0;
#X array target_chord 4 float 3;
#A 0 0 4 7 10;
#A color 0;
#A width 2;
#X coords 0 12 4 0 200 140 1 0 0;
#X restore 855 56 graph;
#N canvas 0 22 450 278 (subpatch) 0;
#X array hungarian_solution 4 float 3;
#A 0 55 62 59 65;
#A color 0;
#A width 2;
#X coords 0 70 4 40 200 140 1 0 0;
#X restore 1058 56 graph;
#X obj 289 73 array set target_chord;
#X obj 306 293 array set hungarian_solution;
#X obj 15 39 list prepend current;
#X obj 12 12 r current_chord;
#X obj 15 134 unpack s f f f f;
#X obj 212 74 list trim;
#X obj 213 50 r target_chord;
#X obj 992 6 osc;
#X obj 851 562 pack f f f f, f 54;
#X obj 957 301 r fader2;
#X obj 1213 301 r fader4;
#X obj 1098 301 r fader3;
#X obj 844 301 r fader1;
#X obj 957 328 fader 4.5 3 4.5 4 4;
#X obj 1098 328 fader 2 6 8 8 7;
#X obj 1213 328 fader 2 10 8 11 12;
#X obj 847 622 list prepend chord;
#X obj 842 693 s target_chord;
#X listbox 1058 220 5 0 0 0 - - - 0;
#X listbox 1110 220 5 0 0 0 - - - 0;
#X listbox 1163 220 5 0 0 0 - - - 0;
#X listbox 1215 220 5 0 0 0 - - - 0;
#X obj 1058 198 readChord hungarian_solution;
#X listbox 855 221 5 0 0 0 - - - 0;
#X listbox 907 221 5 0 0 0 - - - 0;
#X listbox 960 221 5 0 0 0 - - - 0;
#X listbox 1012 221 5 0 0 0 - - - 0;
#X obj 855 199 readChord target_chord;
#X listbox 650 222 5 0 0 0 - - - 0;
#X listbox 702 221 5 0 0 0 - - - 0;
#X listbox 755 221 5 0 0 0 - - - 0;
#X listbox 807 221 5 0 0 0 - - - 0;
#X obj 650 199 readChord current_chord;
#N canvas 307 344 1572 708 chordsTable 0;
#X text 114 47 C Major (C3 E3 G3 C4);
#X text 114 103 D Major (D3 F#3 A3 D4);
#X text 115 155 E Major (E3 G#3 B3 E4);
#X text 116 207 F Major (F3 A3 C4 F4);
#X text 116 256 G Major (G3 B3 D4 G4);
#X text 116 301 A Major (A3 C#4 E4 A4);
#X text 117 349 B Major (B3 D#4 F#4 B4);
#X obj 14 71 s chord;
#X obj 14 125 s chord;
#X obj 16 178 s chord;
#X obj 16 230 s chord;
#X obj 16 279 s chord;
#X obj 16 325 s chord;
#X obj 17 372 s chord;
#X msg 14 47 48 52 55 60;
#X msg 14 103 50 54 57 62;
#X msg 15 155 52 56 59 64;
#X msg 19 205 53 57 60 65;
#X msg 16 256 55 59 62 67;
#X msg 16 301 57 61 64 69;
#X msg 17 349 59 63 66 71;
#X msg 307 48 48 51 55 60;
#X text 407 48 C Minor (C3 Eb3 G3 C4);
#X msg 307 101 50 53 57 62;
#X text 407 101 D Minor (D3 F3 A3 D4);
#X msg 306 152 52 55 59 64;
#X text 406 152 E Minor (E3 G3 B3 E4);
#X msg 308 207 53 56 60 65;
#X text 408 207 F Minor (F3 Ab3 C4 F4);
#X msg 308 260 55 58 62 67;
#X text 410 262 G Minor (G3 Bb3 D4 G4);
#X msg 313 322 57 60 64 69;
#X text 410 322 A Minor (A3 C4 E4 A4);
#X msg 313 376 59 62 66 71;
#X text 414 374 B Minor (B3 D4 F#4 B4);
#X obj 307 73 s chord;
#X obj 308 126 s chord;
#X obj 307 176 s chord;
#X obj 309 229 s chord;
#X obj 309 284 s chord;
#X obj 313 343 s chord;
#X obj 313 398 s chord;
#X text 680 24 C major;
#X text 684 72 D major;
#X text 684 119 E major;
#X text 689 160 F major;
#X text 690 200 G major;
#X text 687 238 A major;
#X text 690 288 B major;
#X text 863 78 D minor;
#X text 863 132 E minor;
#X text 866 196 F minor;
#X text 867 241 G minor;
#X text 868 284 A minor;
#X text 869 333 B minor;
#X msg 765 17 \; chord 0 3 7;
#X msg 763 78 \; chord 2 5 9;
#X msg 763 132 \; chord 4 7 11;
#X msg 766 196 \; chord 5 8 0;
#X msg 767 241 \; chord 7 10 2;
#X msg 768 284 \; chord 9 0 4;
#X msg 769 333 \; chord 11 2 6;
#X obj 25 21 loadbang;
#X obj 28 552 s current_chord;
#X obj 230 452 hradio 19 1 0 2 empty empty empty 0 -10 0 12 #fcfcfc #000000 #000000 0;
#X obj 230 476 == 0;
#X obj 59 504 spigot;
#X obj 266 477 == 1;
#X obj 116 505 spigot;
#X obj 86 678 s target_chord;
#X obj 89 466 r chord;
#X text 860 23 C minor;
#X obj 147 531 list prepend chord;
#X text 1087 11 Cmaj7;
#X text 1086 61 Dmaj7;
#X text 1087 111 Emaj7;
#X text 1086 161 Fmaj7;
#X text 1088 218 Gmaj7;
#X text 1338 6 Cm7;
#X text 1339 57 Dm7;
#X text 1339 113 Em7;
#X text 1341 162 Fm7;
#X text 1339 206 Gm7;
#X text 1340 251 Am7;
#X msg 958 6 \; chord 0 4 7 11;
#X msg 961 63 \; chord 2 6 9 1;
#X msg 960 115 \; chord 4 8 11 3;
#X msg 961 163 \; chord 5 9 0 4;
#X msg 961 214 \; chord 7 11 2 6;
#X msg 1201 3 \; chord 0 3 7 10;
#X msg 1202 59 \; chord 2 5 9 0;
#X msg 1206 109 \; chord 4 7 11 2;
#X msg 1204 157 \; chord 5 8 0 3;
#X msg 1209 208 \; chord 7 10 2 5;
#X msg 1209 256 \; chord 9 0 4 7;
#X text 1096 379 D minor;
#X text 1096 433 E minor;
#X text 1099 497 F minor;
#X msg 984 491 \; chord 5 8 0;
#X text 1093 324 C minor;
#X msg 983 312 \; chord 0 4 7 12;
#X msg 981 373 \; chord 0 3 7 12;
#X msg 981 427 \; chord 0 7 11;
#X msg 1377 7 \; chord 0 4 7 10;
#X msg 1378 63 \; chord 2 6 9 0;
#X msg 1382 113 \; chord 4 8 11 2;
#X msg 1380 161 \; chord 5 9 0 3;
#X msg 1385 212 \; chord 7 11 2 5;
#X msg 1385 260 \; chord 9 1 4 7;
#X text 1514 10 C7;
#X text 1516 63 D7;
#X text 1515 117 E7;
#X text 1517 166 F7;
#X text 1515 210 G7;
#X text 1516 255 A7;
#X msg 587 19 \; chord 0 4 7 12;
#X msg 587 65 \; chord 2 6 9 2;
#X msg 587 110 \; chord 4 8 11 4;
#X msg 588 152 \; chord 5 9 0 5;
#X msg 588 192 \; chord 7 11 2 7;
#X msg 589 234 \; chord 9 1 4 9;
#X msg 586 279 \; chord 11 3 6 11;
#X msg 188 566 \; v1 100 \; v2 100 \; v3 100 \; v4 100 \;;
#X connect 14 0 7 0;
#X connect 15 0 8 0;
#X connect 16 0 9 0;
#X connect 17 0 10 0;
#X connect 18 0 11 0;
#X connect 19 0 12 0;
#X connect 20 0 13 0;
#X connect 21 0 35 0;
#X connect 23 0 36 0;
#X connect 25 0 37 0;
#X connect 27 0 38 0;
#X connect 29 0 39 0;
#X connect 31 0 40 0;
#X connect 33 0 41 0;
#X connect 62 0 14 0;
#X connect 64 0 65 0;
#X connect 64 0 67 0;
#X connect 65 0 66 1;
#X connect 66 0 63 0;
#X connect 67 0 68 1;
#X connect 68 0 72 0;
#X connect 70 0 66 0;
#X connect 70 0 68 0;
#X connect 72 0 69 0;
#X connect 72 0 122 0;
#X restore 342 4 pd chordsTable;
#X floatatom 214 122 5 0 0 0 - - - 0;
#X obj 844 373 unpack f f;
#X obj 1098 375 unpack f f;
#X listbox 957 351 7 0 0 0 - - - 0;
#X listbox 1108 350 5 0 0 0 - - - 0;
#X listbox 854 351 5 0 0 0 - - - 0;
#X obj 218 98 r roots;
#X obj 910 398 s v1;
#X obj 1159 429 s v3;
#X listbox 868 588 20 0 0 0 - - - 0;
#X obj 232 665 *~ 0.25;
#X obj 845 461 == 100;
#X obj 845 485 sel 1;
#X obj 845 507 f;
#X obj 1105 452 sel 1;
#X obj 1105 476 f;
#X obj 1105 498 t b f;
#X obj 1105 427 == 100;
#X obj 844 328 fader 2 2 8 5 0;
#X obj 299 316 s readChord;
#X obj 957 377 unpack f f;
#X obj 940 446 == 100;
#X obj 940 470 sel 1;
#X obj 940 494 f;
#X obj 941 518 t b f;
#X obj 1026 404 s v2;
#X floatatom 275 116 5 0 1 0 - - - 0;
#X msg 276 144 debug \$1;
#X msg 212 144 root \$1;
#X obj 230 596 poly 5 1;
#X obj 1212 379 unpack f f;
#X listbox 1222 354 5 0 0 0 - - - 0;
#X obj 1218 456 sel 1;
#X obj 1218 480 f;
#X obj 1218 502 t b f;
#X obj 1218 431 == 100;
#X obj 1272 433 s v4;
#X obj 230 573 r poly;
#X obj 690 642 s vel;
#X floatatom 691 616 5 0 0 0 - - - 0;
#X obj 886 433 r vel;
#X obj 980 422 r vel;
#X obj 1111 402 r vel;
#X obj 1227 404 r vel;
#X obj 291 429 note v1;
#X obj 291 455 s poly;
#X obj 400 449 s poly;
#X obj 516 453 s poly;
#X obj 623 453 s poly;
#X obj 688 576 loadbang;
#X msg 736 615 100;
#N canvas 359 266 618 588 Timbre 0;
#X obj 122 106 s tone;
#X obj 245 112 s decay;
#X obj 101 256 s vib-freq;
#X obj 213 253 s vib-depth;
#X obj 100 351 s mod;
#X obj 216 350 s adsr;
#X obj 112 22 else/knob 50 0 1 0 0 empty empty #0e4345 #7c7c7c black 1 0 0 0 1 320 0 0 0;
#X obj 242 43 else/knob 50 0 2000 0 0 empty empty #dfdfdf #7c7c7c black 1 0 0 0 1 320 0 0 0;
#X obj 103 188 else/knob 50 0 127 0 0 empty empty #dfdfdf #7c7c7c black 1 0 0 0 1 320 0 0 0;
#X obj 212 191 else/knob 50 0 127 0 0 empty empty #dfdfdf #7c7c7c black 1 0 0 0 1 320 0 0 0;
#X obj 111 285 else/knob 50 0 10 0 0 empty empty #dfdfdf #7c7c7c black 1 0 0 0 1 320 0 0 0;
#X obj 220 288 else/knob 50 0 127 0 0 empty empty #dfdfdf #7c7c7c black 1 0 0 0 1 320 0 0 0;
#X connect 6 0 0 0;
#X connect 7 0 1 0;
#X connect 8 0 2 0;
#X connect 9 0 3 0;
#X connect 10 0 4 0;
#X connect 11 0 5 0;
#X restore 320 518 pd Timbre;
#X obj 229 642 clone -s 1 rhodney 5;
#X obj 79 463 note p1;
#X obj 79 487 s poly;
#X obj 23 348 + 12;
#X listbox 102 258 20 0 0 0 - - - 0;
#X msg 367 128 feedback \$1;
#X obj 371 106 nbx 5 17 -1e+37 1e+37 0 0 empty empty empty 0 -10 0 12 #fcfcfc #000000 #000000 0 256;
#X obj 136 292 mton;
#X listbox 136 316 4 0 0 0 - - - 0;
#X obj 402 425 note v2;
#X obj 515 430 note v3;
#X obj 625 430 note v4;
#X obj 398 161 loadbang;
#X obj 204 237 print input;
#X msg 465 754 root \$1 \, chord 0 4 6 7;
#X floatatom 471 708 5 0 0 0 - - - 0;
#X msg 385 183 current 48 52 55 58;
#X obj 201 195 orbifold 4;
#X connect 0 0 32 0;
#X connect 1 0 2 0;
#X connect 3 0 4 0;
#X connect 5 0 6 0;
#X connect 7 0 8 0;
#X connect 10 0 11 0;
#X connect 10 0 105 0;
#X connect 10 1 13 0;
#X connect 10 1 122 0;
#X connect 10 2 15 0;
#X connect 10 2 123 0;
#X connect 10 3 17 0;
#X connect 10 3 124 0;
#X connect 11 0 12 0;
#X connect 13 0 14 0;
#X connect 15 0 16 0;
#X connect 17 0 18 0;
#X connect 19 0 10 0;
#X connect 21 0 113 0;
#X connect 29 0 0 0;
#X connect 29 0 20 0;
#X connect 29 0 23 0;
#X connect 29 0 31 0;
#X connect 30 0 29 0;
#X connect 31 1 1 0;
#X connect 31 2 3 0;
#X connect 31 3 5 0;
#X connect 31 4 7 0;
#X connect 32 0 130 0;
#X connect 33 0 27 0;
#X connect 33 0 32 0;
#X connect 35 0 70 0;
#X connect 35 0 43 0;
#X connect 36 0 40 0;
#X connect 37 0 42 0;
#X connect 38 0 41 0;
#X connect 39 0 79 0;
#X connect 40 0 64 0;
#X connect 41 0 63 0;
#X connect 41 0 65 0;
#X connect 42 0 92 0;
#X connect 42 0 91 0;
#X connect 43 0 44 0;
#X connect 49 0 45 0;
#X connect 49 1 46 0;
#X connect 49 2 47 0;
#X connect 49 3 48 0;
#X connect 54 0 50 0;
#X connect 54 1 51 0;
#X connect 54 2 52 0;
#X connect 54 3 53 0;
#X connect 59 0 55 0;
#X connect 59 1 56 0;
#X connect 59 2 57 0;
#X connect 59 3 58 0;
#X connect 61 0 89 0;
#X connect 62 0 74 1;
#X connect 62 1 72 0;
#X connect 62 1 68 0;
#X connect 63 0 76 1;
#X connect 63 1 78 0;
#X connect 63 1 69 0;
#X connect 64 0 81 0;
#X connect 67 0 61 0;
#X connect 71 0 22 0;
#X connect 71 0 22 1;
#X connect 72 0 73 0;
#X connect 73 0 74 0;
#X connect 74 0 35 0;
#X connect 75 0 76 0;
#X connect 76 0 77 0;
#X connect 77 0 35 0;
#X connect 77 1 35 2;
#X connect 78 0 75 0;
#X connect 79 0 62 0;
#X connect 79 0 66 0;
#X connect 81 0 84 1;
#X connect 81 1 82 0;
#X connect 81 1 86 0;
#X connect 82 0 83 0;
#X connect 83 0 84 0;
#X connect 84 0 85 0;
#X connect 85 0 35 0;
#X connect 85 1 35 1;
#X connect 87 0 88 0;
#X connect 88 0 130 0;
#X connect 89 0 130 0;
#X connect 90 0 21 0;
#X connect 90 1 21 1;
#X connect 90 2 21 2;
#X connect 91 0 94 1;
#X connect 91 1 96 0;
#X connect 91 1 97 0;
#X connect 93 0 94 0;
#X connect 94 0 95 0;
#X connect 95 0 35 0;
#X connect 95 1 35 3;
#X connect 96 0 93 0;
#X connect 98 0 90 0;
#X connect 100 0 99 0;
#X connect 101 0 72 1;
#X connect 102 0 82 1;
#X connect 103 0 78 1;
#X connect 104 0 96 1;
#X connect 105 0 106 0;
#X connect 110 0 111 0;
#X connect 111 0 99 0;
#X connect 113 0 71 0;
#X connect 114 0 115 0;
#X connect 116 0 114 0;
#X connect 117 0 120 0;
#X connect 117 0 114 0;
#X connect 118 0 130 0;
#X connect 119 0 118 0;
#X connect 120 0 121 0;
#X connect 122 0 107 0;
#X connect 123 0 108 0;
#X connect 124 0 109 0;
#X connect 125 0 129 0;
#X connect 128 0 127 0;
#X connect 129 0 130 0;
#X connect 130 1 117 0;
#X connect 130 2 28 0;
#X connect 130 2 80 0;
#X connect 130 2 19 0;
