#N canvas 583 56 950 849 12;
#X obj 457 180 * 10;
#X obj 455 205 i;
#X floatatom 454 511 5 0 0 0 - - - 0;
#X obj 454 546 +, f 5;
#X obj 393 -18 inlet;
#X obj 458 735 outlet;
#X obj 467 279 expr if($f1 <= $f2 \, $f3 \, if($f1 >= $f4 \, $f5 \, $f6));
#X obj 518 239 f \$1;
#X obj 570 239 \$2;
#X obj 621 239 \$3;
#X obj 674 239 \$4;
#X obj 725 239 \$5;
#X obj 518 187 loadbang;
#X obj 639 695 print;
#X obj 639 640 spigot;
#X obj 639 666 mton;
#X obj 677 613 tgl 19 1 empty debugFader debugFader 0 -10 0 12 #fcfcfc #000000 #000000 0 1;
#X obj 503 466 r root;
#X obj 521 490 r key;
#X obj 503 514 +;
#X obj 392 5 t f f;
#X obj 462 78 tgl 19 0 empty empty empty 0 -10 0 12 #fcfcfc #000000 #000000 0 1;
#X obj 427 148 spigot;
#X obj 461 102 == 0;
#X obj 463 126 tgl 19 0 empty empty empty 0 -10 0 12 #fcfcfc #000000 #000000 0 1;
#X obj 461 32 expr if ($f1>0.01 \, 1 \, 0);
#X obj 463 56 change;
#X obj 549 57 * 100;
#X obj 549 86 s \$0-vel;
#X obj 469 656 t b f;
#X obj 454 694 pack;
#X obj 472 628 r \$0-vel;
#X floatatom 411 183 5 0 0 0 - - - 0;
#X connect 0 0 1 0;
#X connect 1 0 6 0;
#X connect 2 0 3 0;
#X connect 3 0 14 0;
#X connect 3 0 30 0;
#X connect 4 0 20 0;
#X connect 6 0 2 0;
#X connect 7 0 6 1;
#X connect 8 0 6 2;
#X connect 9 0 6 3;
#X connect 10 0 6 4;
#X connect 11 0 6 5;
#X connect 12 0 7 0;
#X connect 12 0 8 0;
#X connect 12 0 9 0;
#X connect 12 0 10 0;
#X connect 12 0 11 0;
#X connect 14 0 15 0;
#X connect 15 0 13 0;
#X connect 16 0 14 1;
#X connect 17 0 19 0;
#X connect 18 0 19 1;
#X connect 19 0 3 1;
#X connect 20 0 25 0;
#X connect 20 1 22 0;
#X connect 21 0 23 0;
#X connect 22 0 0 0;
#X connect 22 0 32 0;
#X connect 23 0 24 0;
#X connect 24 0 22 1;
#X connect 25 0 26 0;
#X connect 26 0 21 0;
#X connect 26 0 27 0;
#X connect 27 0 28 0;
#X connect 29 0 30 0;
#X connect 29 1 30 1;
#X connect 30 0 5 0;
#X connect 31 0 29 0;
