#N canvas 0 22 600 400 12;
#X obj 50 50 inlet;
#X obj 50 100 t l l;
#X obj 50 150 mtx;
#X obj 150 150 mtx_size;
#X obj 150 200 unpack f f;
#X obj 50 250 hungarian-row-reduce;
#X obj 50 300 hungarian-col-reduce;
#X obj 50 350 outlet;
#X text 200 50 Matrix reduction step;

#X connect 0 0 1 0;
#X connect 1 0 2 0;
#X connect 1 1 3 0;
#X connect 2 0 5 0;
#X connect 3 0 4 0;
#X connect 4 1 5 1;
#X connect 5 0 6 0;
#X connect 6 0 7 0;
