#N canvas 469 287 614 574 12;
#X obj 252 134 t b f;
#X listbox 222 208 9 0 0 0 - - - 0;
#X obj 252 184 unpack;
#X obj 264 260 f;
#X obj 252 161 pack;
#X obj 292 210 sel 0;
#X obj 292 234 bang;
#X msg 264 284 \$1 0;
#X obj 150 57 inlet;
#X obj 252 111 r \$1;
#X obj 246 338 outlet;
#X obj 220 43 r octave;
#X obj 220 67 t b f;
#X obj 204 119 +;
#X connect 0 0 4 0;
#X connect 0 1 4 1;
#X connect 1 0 10 0;
#X connect 2 0 3 1;
#X connect 2 1 5 0;
#X connect 3 0 7 0;
#X connect 4 0 1 0;
#X connect 4 0 2 0;
#X connect 5 0 6 0;
#X connect 6 0 3 0;
#X connect 7 0 10 0;
#X connect 8 0 13 0;
#X connect 9 0 0 0;
#X connect 11 0 12 0;
#X connect 12 0 13 0;
#X connect 12 1 13 1;
#X connect 13 0 1 0;
