#N canvas 819 221 847 674 12;
#X obj 15 38 loadbang;
#X obj 398 106 oscparse;
#X obj 398 135 route list;
#X obj 700 258 unpack s f;
#X obj 767 285 pipe 1;
#X obj 709 282 send;
#X obj 535 190 print oscreceive;
#X obj 404 72 s toPresets;
#X msg 26 85 disconnect;
#X obj 15 228 netsend -u -b;
#X obj 42 112 r forTouchOSC;
#X obj 42 155 list split 1;
#X msg 51 181 set \$1;
#X obj 42 203 oscformat;
#X msg 42 134 \$2 \$1;
#X obj 15 254 print connection;
#X obj 533 129 spigot;
#X obj 572 108 tgl 15 1 empty debugOSC debugOSC 17 7 0 10 #fcfcfc #000000 #000000 0 1;
#X obj 362 342 s fader1;
#X obj 427 342 s fader2;
#X obj 490 343 s fader3;
#X obj 552 344 s fader4;
#X msg 15 62 connect localhost 7561;
#X obj 670 344 s key;
#X obj 397 216 route fader1 fader2 fader3 fader4 roots key;
#X obj 614 344 s roots;
#X obj 398 35 netreceive -u -b -f 7564;
#X connect 0 0 22 0;
#X connect 1 0 2 0;
#X connect 1 0 16 0;
#X connect 2 0 24 0;
#X connect 3 0 5 1;
#X connect 3 1 4 0;
#X connect 4 0 5 0;
#X connect 8 0 9 0;
#X connect 9 0 15 0;
#X connect 10 0 14 0;
#X connect 11 0 13 0;
#X connect 11 1 12 0;
#X connect 12 0 13 0;
#X connect 13 0 9 0;
#X connect 14 0 11 0;
#X connect 16 0 6 0;
#X connect 17 0 16 1;
#X connect 22 0 9 0;
#X connect 24 0 18 0;
#X connect 24 1 19 0;
#X connect 24 2 20 0;
#X connect 24 3 21 0;
#X connect 24 4 25 0;
#X connect 24 5 23 0;
#X connect 24 6 3 0;
#X connect 26 0 1 0;
#X connect 26 0 7 0;
