#N canvas 810 184 411 436 12;
#X obj 78 32 bng 19 250 50 0 empty empty empty 0 -10 0 12 #fcfcfc #000000 #000000;
#X obj 78 81 cyclone/uzi 4 0;
#X obj 78 156 list store;
#X listbox 88 186 20 0 0 0 - - - 0;
#X obj 78 333 print;
#X msg 78 133 append \$1;
#X obj 78 56 t b b, f 10;
#X obj 78 109 tabread \$1;
#X obj 88 209 unpack f f f f, f 29;
#X obj 88 273 outlet;
#X obj 154 272 outlet;
#X obj 221 271 outlet;
#X obj 288 271 outlet;
#X obj 88 234 mton;
#X obj 154 234 mton;
#X obj 220 234 mton;
#X obj 289 234 mton, f 5;
#X obj 78 10 r readChord;
#X obj 78 310 spigot;
#X obj 126 310 tgl 19 0 empty empty empty 0 -10 0 12 #fcfcfc #000000 #000000 0 1;
#X connect 0 0 6 0;
#X connect 1 1 2 0;
#X connect 1 2 7 0;
#X connect 2 0 3 0;
#X connect 2 0 18 0;
#X connect 3 0 8 0;
#X connect 5 0 2 0;
#X connect 6 0 1 0;
#X connect 6 1 2 1;
#X connect 7 0 5 0;
#X connect 8 0 13 0;
#X connect 8 1 14 0;
#X connect 8 2 15 0;
#X connect 8 3 16 0;
#X connect 13 0 9 0;
#X connect 14 0 10 0;
#X connect 15 0 11 0;
#X connect 16 0 12 0;
#X connect 17 0 0 0;
#X connect 18 0 4 0;
#X connect 19 0 18 1;
