#N canvas 522 77 1051 854 12;
#X text 20 20 Voice Leading External - Test Patch;
#X text 20 40 Two modes: Absolute PCs (target) or Root+Intervals (chord);
#X text 20 80 === MODE 1: Absolute Pitch Classes ===;
#X msg 20 100 current 60 64 67 72;
#X text 160 100 <- C major: C4 E4 G4 C5;
#X msg 20 125 target 0 3 7 10;
#X text 160 125 <- C7 chord as PCs (triggers);
#X obj 20 150 voice_leading;
#X floatatom 20 175 5 0 0 0 bass - - 0;
#X obj 80 175 unpack f f f f;
#X floatatom 80 200 5 0 0 0 v1 - - 0;
#X floatatom 120 200 5 0 0 0 v2 - - 0;
#X floatatom 160 200 5 0 0 0 v3 - - 0;
#X floatatom 200 200 5 0 0 0 v4 - - 0;
#X floatatom 260 175 5 0 0 0 cost - - 0;
#X text 20 230 Result: smooth voice leading to C7;
#X text 20 270 === MODE 2: Root + Intervals (like orbifold) ===;
#X msg 20 290 current 60 64 67 72;
#X text 160 290 <- C major: C4 E4 G4 C5;
#X msg 20 315 root 3;
#X text 100 315 <- Eb (pitch class 3);
#X msg 20 340 chord 0 4 7;
#X text 140 340 <- major triad structure (triggers);
#X obj 20 365 voice_leading;
#X floatatom 20 390 5 0 0 0 bass - - 0;
#X obj 80 390 unpack f f f f;
#X floatatom 80 415 5 0 0 0 v1 - - 0;
#X floatatom 120 415 5 0 0 0 v2 - - 0;
#X floatatom 160 415 5 0 0 0 v3 - - 0;
#X floatatom 200 415 5 0 0 0 v4 - - 0;
#X floatatom 260 390 5 0 0 0 cost - - 0;
#X text 20 445 Result: Eb major (PCs: 3 7 10 = Eb G Bb);
#X text 20 485 === Demonstration Sequence ===;
#X text 20 505 Step 1: Set up initial C major chord;
#X msg 363 494 current 60 64 67 72;
#X text 20 525 Step 2: Voice lead through different roots with major triads;
#X msg 363 534 root 0 \, chord 0 4 7;
#X text 520 545 <- C major;
#X msg 363 559 root 5 \, chord 0 4 7;
#X text 520 570 <- F major;
#X msg 363 584 root 7 \, chord 0 4 7;
#X text 520 595 <- G major;
#X msg 363 609 root 0 \, chord 0 4 7;
#X text 520 620 <- back to C;
#X obj 360 645 voice_leading;
#X obj 360 670 unpack f f f f;
#X floatatom 360 695 5 0 0 0 - - - 0;
#X floatatom 400 695 5 0 0 0 - - - 0;
#X floatatom 440 695 5 0 0 0 - - - 0;
#X floatatom 480 695 5 0 0 0 - - - 0;
#X text 643 453 === Common Chord Structures ===;
#X text 643 473 Major triad: 0 4 7;
#X text 643 493 Minor triad: 0 3 7;
#X text 643 513 Dominant 7th: 0 4 7 10;
#X text 643 533 Major 7th: 0 4 7 11;
#X text 643 553 Minor 7th: 0 3 7 10;
#X text 622 663 Diminished: 0 3 6;
#X text 622 683 Augmented: 0 4 8;
#X text 783 453 === Roots (Pitch Classes) ===;
#X text 783 473 C = 0 \, F = 5 \, A# = 10;
#X text 783 493 C# = 1 \, F# = 6 \, B = 11;
#X text 783 513 D = 2 \, G = 7;
#X text 783 533 D# = 3 \, G# = 8;
#X text 783 553 E = 4 \, A = 9;
#X msg 20 530 debug 1;
#X text 100 530 <- enable debug output;
#X msg 20 550 feedback 1;
#X text 120 550 <- output becomes next input;
#X connect 3 0 7 0;
#X connect 5 0 7 0;
#X connect 7 0 8 0;
#X connect 7 1 9 0;
#X connect 9 0 10 0;
#X connect 9 1 11 0;
#X connect 9 2 12 0;
#X connect 9 3 13 0;
#X connect 17 0 23 0;
#X connect 19 0 23 0;
#X connect 21 0 23 0;
#X connect 23 0 24 0;
#X connect 23 1 25 0;
#X connect 25 0 26 0;
#X connect 25 1 27 0;
#X connect 25 2 28 0;
#X connect 25 3 29 0;
#X connect 34 0 44 0;
#X connect 36 0 44 0;
#X connect 38 0 44 0;
#X connect 40 0 44 0;
#X connect 42 0 44 0;
#X connect 44 1 45 0;
#X connect 45 0 46 0;
#X connect 45 1 47 0;
#X connect 45 2 48 0;
#X connect 45 3 49 0;
#X connect 66 0 7 0;
#X connect 66 0 23 0;
