#N canvas 351 157 1464 895 12;
#X obj 79 19 notein;
#X msg 276 131 decay \$1;
#X msg 351 130 timbre \$1;
#X obj 343 203 s params;
#X msg 425 130 morph \$1;
#X obj 276 37 / 127;
#X obj 351 106 / 127;
#X obj 425 109 / 127;
#X obj 276 15 ctlin 41;
#X obj 351 85 ctlin 42;
#X obj 425 86 ctlin 43;
#X obj 308 61 polytouchin;
#X obj 276 109 + 0.5;
#X obj 308 84 / 127;
#X obj 84 84 pack f f f;
#X obj 123 254 dac~;
#X obj 133 217 *~ 0.2;
#X obj 412 362 loadbang;
#X msg 412 386 verbose 0;
#X obj 412 410 s bela_setMidi;
#X obj 509 123 / 127;
#X obj 519 150 * 23;
#X msg 509 175 model \$1;
#X obj 84 50 poly 2 1;
#X obj 131 181 clone -s 1 polyplaits 2;
#X obj 509 100 ctlin 44;
#X connect 0 0 23 0;
#X connect 0 1 23 1;
#X connect 1 0 3 0;
#X connect 2 0 3 0;
#X connect 4 0 3 0;
#X connect 5 0 12 0;
#X connect 6 0 2 0;
#X connect 7 0 4 0;
#X connect 8 0 5 0;
#X connect 9 0 6 0;
#X connect 10 0 7 0;
#X connect 11 0 13 0;
#X connect 12 0 1 0;
#X connect 13 0 12 1;
#X connect 14 0 24 0;
#X connect 16 0 15 0;
#X connect 16 0 15 1;
#X connect 17 0 18 0;
#X connect 18 0 19 0;
#X connect 20 0 21 0;
#X connect 21 0 22 0;
#X connect 22 0 3 0;
#X connect 23 0 14 0;
#X connect 23 1 14 1;
#X connect 23 2 14 2;
#X connect 24 0 16 0;
#X connect 25 0 20 0;
