#N canvas 112 363 595 491 12;
#X obj 5 54 r root;
#N canvas 1043 366 717 467 MidiRouting 0;
#X obj 14 94 s S-0;
#X obj 58 93 s S-1;
#X obj 99 93 s S-2;
#X obj 139 94 s S-3;
#X obj 26 34 stripnote;
#X msg 452 305 maj;
#X msg 493 307 dim;
#X msg 525 307 aug;
#X msg 626 309 mm7;
#X msg 557 307 MM7;
#X msg 589 308 Mm7;
#X obj 454 364 s chord;
#X obj 17 61 sel 50 51 54 52 53, f 28;
#X obj 182 92 s S-4;
#X obj 65 254 s root;
#X obj 12 178 moses 59;
#X obj 12 145 stripnote;
#X obj 26 10 notein 0;
#X obj 12 121 notein 0;
#X msg 233 121 decay \$1;
#X msg 308 120 timbre \$1;
#X obj 300 193 s params;
#X msg 382 120 morph \$1;
#X obj 233 27 / 127;
#X obj 308 96 / 127;
#X obj 382 99 / 127;
#X obj 233 5 ctlin 41;
#X obj 308 72 ctlin 42;
#X obj 382 76 ctlin 43;
#X obj 265 51 polytouchin;
#X obj 233 99 + 0.5;
#X obj 265 74 / 127;
#X obj 65 229 nbx 5 17 -1e+37 1e+37 0 1 empty empty empty 0 -10 0 12 #fcfcfc #000000 #000000 66 256;
#X obj 86 203 loadbang;
#X connect 4 0 12 0;
#X connect 5 0 11 0;
#X connect 6 0 11 0;
#X connect 7 0 11 0;
#X connect 8 0 11 0;
#X connect 9 0 11 0;
#X connect 10 0 11 0;
#X connect 12 0 0 0;
#X connect 12 1 1 0;
#X connect 12 2 2 0;
#X connect 12 3 3 0;
#X connect 12 4 13 0;
#X connect 15 1 32 0;
#X connect 16 0 15 0;
#X connect 17 0 4 0;
#X connect 17 1 4 1;
#X connect 18 0 16 0;
#X connect 18 1 16 1;
#X connect 19 0 21 0;
#X connect 20 0 21 0;
#X connect 22 0 21 0;
#X connect 23 0 30 0;
#X connect 24 0 20 0;
#X connect 25 0 22 0;
#X connect 26 0 23 0;
#X connect 27 0 24 0;
#X connect 28 0 25 0;
#X connect 29 0 31 0;
#X connect 30 0 19 0;
#X connect 31 0 30 1;
#X connect 32 0 14 0;
#X connect 33 0 32 0;
#X restore 5 33 pd MidiRouting;
#X obj 6 375 dac~;
#N canvas 60 31 1380 811 Trill 0;
#X obj 243 278 s bela_setTrill;
#X text 72 10 Initialise Trill sensor;
#X obj 28 529 s bela_setTrill;
#X text 13 76 [prescaler <sensor_id> <value>(;
#X text 21 98 value betwen 1 and 6;
#X text 17 55 Change sensitivity here;
#X obj 34 503 print;
#X obj 741 6 r bela_trill;
#X obj 751 202 t f f, f 8;
#X obj 751 337 pack, f 8;
#X obj 851 197 t f f, f 8;
#X obj 851 346 pack, f 8;
#X obj 938 197 t f f, f 8;
#X obj 937 376 pack, f 8;
#X obj 1025 197 t f f, f 8;
#X obj 1025 379 pack, f 8;
#X obj 1109 199 t f f, f 8;
#X obj 1109 382 pack, f 8;
#X obj 751 364 s Pad0;
#X obj 850 370 s Pad1;
#X obj 937 400 s Pad2;
#X obj 1025 402 s Pad3;
#X obj 1108 405 s Pad4;
#X obj 741 174 unpack f f f f f f, f 65;
#X obj 1193 200 t f f, f 8;
#X obj 1201 383 pack, f 8;
#X obj 1201 406 s Pad5;
#X obj 20 138 r bela_trillCreated;
#X obj 20 165 print bela_trillCreated;
#X obj 336 187 s bela_setTrill @hv_param;
#X msg 336 162 new ring 1 RING;
#X obj 741 32 route pads ring, f 25;
#X msg 28 471 prescaler pads \$1;
#X obj 827 55 s ring;
#X obj 743 496 r ring;
#X obj 28 416 r prescaler;
#X floatatom 28 445 5 0 0 0 - - - 0;
#X obj 769 225 r padThreshold0;
#X obj 751 251 >;
#X obj 852 269 >;
#X obj 936 293 >;
#X obj 1025 294 >;
#X obj 1109 292 >;
#X obj 1199 291 >;
#X obj 870 247 r padThreshold1;
#X obj 954 269 r padThreshold2;
#X obj 1043 243 r padThreshold3;
#X obj 1127 268 r padThreshold4;
#X floatatom 753 146 5 0 0 0 - - - 0;
#X obj 241 27 r initialiseTrill;
#X obj 833 427 change;
#X obj 926 430 change;
#X obj 1016 430 change;
#X obj 1101 432 change;
#X obj 1192 430 change;
#X obj 751 300 moses 1;
#X obj 852 316 moses 1;
#X obj 936 347 moses 1;
#X obj 1025 342 moses 1;
#X obj 1109 342 moses 1;
#X obj 1201 339 moses 1;
#X obj 863 787 s root;
#X obj 739 463 print pad0;
#X obj 831 465 print pad1;
#X obj 923 469 print pad2;
#X obj 1014 466 print pad3;
#X obj 1099 467 print pad4;
#X obj 1189 468 print pad5;
#X obj 751 276 change;
#X obj 852 292 change;
#X obj 936 317 change;
#X obj 1025 317 change;
#X obj 1109 317 change;
#X obj 1217 243 r padThreshold4;
#X obj 1202 315 change;
#X obj 908 552 change;
#X obj 744 602 spigot;
#X obj 784 569 tgl 19 1 empty debugRing DebugRing 0 -10 0 12 #fcfcfc #000000 #000000 0 1;
#X obj 1318 594 s mod;
#X obj 1048 589 s vib-depth;
#X obj 1048 565 * 16;
#X obj 751 99 spigot;
#X obj 801 99 tgl 19 1 empty debugCraft DebugCraft 0 -10 0 12 #fcfcfc #000000 #000000 0 1;
#X obj 751 122 print craft;
#X obj 743 651 print ring;
#X obj 907 598 i;
#X floatatom 909 720 5 0 0 0 - - - 0;
#X floatatom 907 620 5 0 0 0 - - - 0;
#X obj 961 715 text define -k fifths;
#A set 0 0 \; 1 7 \; 2 2 \; 3 9 \; 4 4 \; 5 11 \; 6 6 \; 7 1 \; 8 8 \; 9 3 \; 10 10 \; 11 5 \; 12 0 \;;
#X obj 906 666 unpack f f;
#X floatatom 961 691 5 0 0 0 - - - 0;
#X obj 977 803 print root;
#X obj 956 750 mton;
#X obj 872 554 vsl 19 162 0 1 0 0 empty empty empty 0 -9 0 12 #fcfcfc #000000 #000000 0 1;
#X obj 909 696 + 48;
#X obj 1318 570 * 4;
#X obj 1020 677 text define -k diatonic_fifths;
#A set 0 \; 1 \; 2 \; 3 0 \; 4 0 \; 5 0 \; 6 7 \; 7 7 \; 8 7 \; 9 2 \; 10 2 \; 11 2 \; 12 9 \; 13 9 \; 14 9 \; 15 4 \; 16 4 \; 17 4 \; 18 11 \; 19 11 \; 20 11 \; 21 5 \; 22 5 \; 23 5 \;;
#X obj 907 643 text get diatonic_fifths;
#X obj 952 617 s ringPosition;
#X obj 907 574 * 23;
#X obj 986 778 spigot;
#X obj 1027 754 tgl 19 1 empty debugRoot empty 0 -10 0 12 #fcfcfc #000000 #000000 0 1;
#X obj 770 524 unpack f f f f f f f, f 80;
#X msg 243 235 new pads 1 CRAFT \, prescaler pads 2 \, threshold pads 0.05 \, scanSettings pads 0 12;
#X obj 176 533 s bela_setTrill;
#X obj 182 507 print;
#X floatatom 176 449 5 0 0 0 - - - 0;
#X obj 176 420 r threshold;
#X msg 176 475 threshold pads \$1;
#X obj 241 53 t b b b, f 28;
#X obj 434 116 s bela_setTrill @hv_param;
#X msg 434 91 new hex 1 HEX;
#X obj 406 408 route hex;
#X obj 406 384 r bela_trill;
#X obj 406 432 unpack f f f;
#X obj 446 457 * 10;
#X obj 446 481 i;
#X obj 424 505 moses 1;
#X obj 446 622 s key;
#X obj 693 415 print Pad0;
#X obj 487 555 mton;
#X obj 487 579 print key:;
#X connect 7 0 31 0;
#X connect 8 0 38 0;
#X connect 8 1 9 1;
#X connect 9 0 18 0;
#X connect 10 0 39 0;
#X connect 10 1 11 1;
#X connect 11 0 19 0;
#X connect 12 0 40 0;
#X connect 12 0 51 0;
#X connect 12 1 13 1;
#X connect 13 0 20 0;
#X connect 14 0 41 0;
#X connect 14 0 52 0;
#X connect 14 1 15 1;
#X connect 15 0 21 0;
#X connect 16 0 42 0;
#X connect 16 1 17 1;
#X connect 17 0 22 0;
#X connect 23 0 8 0;
#X connect 23 1 10 0;
#X connect 23 1 50 0;
#X connect 23 2 12 0;
#X connect 23 3 14 0;
#X connect 23 4 16 0;
#X connect 23 4 53 0;
#X connect 23 5 24 0;
#X connect 24 0 43 0;
#X connect 24 0 54 0;
#X connect 24 1 25 1;
#X connect 25 0 26 0;
#X connect 27 0 28 0;
#X connect 30 0 29 0;
#X connect 31 0 23 0;
#X connect 31 0 81 0;
#X connect 31 1 33 0;
#X connect 32 0 2 0;
#X connect 32 0 6 0;
#X connect 34 0 76 0;
#X connect 34 0 102 0;
#X connect 35 0 36 0;
#X connect 36 0 32 0;
#X connect 37 0 38 1;
#X connect 38 0 68 0;
#X connect 39 0 69 0;
#X connect 40 0 70 0;
#X connect 41 0 71 0;
#X connect 42 0 72 0;
#X connect 43 0 74 0;
#X connect 44 0 39 1;
#X connect 45 0 40 1;
#X connect 46 0 41 1;
#X connect 47 0 42 1;
#X connect 48 0 23 0;
#X connect 49 0 109 0;
#X connect 55 1 9 0;
#X connect 56 1 11 0;
#X connect 57 1 13 0;
#X connect 58 1 15 0;
#X connect 59 1 17 0;
#X connect 60 1 25 0;
#X connect 68 0 55 0;
#X connect 69 0 56 0;
#X connect 70 0 57 0;
#X connect 71 0 58 0;
#X connect 72 0 59 0;
#X connect 73 0 43 1;
#X connect 74 0 60 0;
#X connect 75 0 99 0;
#X connect 76 0 84 0;
#X connect 77 0 76 1;
#X connect 80 0 79 0;
#X connect 81 0 83 0;
#X connect 82 0 81 1;
#X connect 85 0 87 0;
#X connect 86 0 61 0;
#X connect 86 0 92 0;
#X connect 87 0 97 0;
#X connect 87 0 98 0;
#X connect 89 1 90 0;
#X connect 90 0 94 0;
#X connect 92 0 100 0;
#X connect 93 0 99 0;
#X connect 94 0 86 0;
#X connect 95 0 78 0;
#X connect 97 0 89 0;
#X connect 99 0 85 0;
#X connect 100 0 91 0;
#X connect 101 0 100 1;
#X connect 102 1 75 0;
#X connect 102 6 95 0;
#X connect 103 0 0 0;
#X connect 106 0 108 0;
#X connect 107 0 106 0;
#X connect 108 0 104 0;
#X connect 108 0 105 0;
#X connect 109 0 103 0;
#X connect 109 1 30 0;
#X connect 109 2 111 0;
#X connect 111 0 110 0;
#X connect 112 0 114 0;
#X connect 113 0 112 0;
#X connect 114 1 115 0;
#X connect 115 0 116 0;
#X connect 116 0 117 0;
#X connect 117 1 118 0;
#X connect 117 1 120 0;
#X connect 120 0 121 0;
#X restore 111 33 pd Trill;
#N canvas 949 380 333 362 Network 0;
#X obj 140 86 s presets;
#X obj 140 61 list;
#X obj 24 38 route reload save;
#X obj 24 61 bng 19 250 50 0 empty empty empty 0 -10 0 12 #fcfcfc #000000 #000000;
#X obj 85 61 bng 19 250 50 0 empty empty empty 0 -10 0 12 #fcfcfc #000000 #000000;
#X obj 24 86 s reload;
#X obj 85 86 s save;
#X obj 24 13 netreceive 7561 -f;
#X obj 171 27 print Connection;
#X connect 1 0 0 0;
#X connect 2 0 3 0;
#X connect 2 1 4 0;
#X connect 2 2 1 0;
#X connect 3 0 5 0;
#X connect 4 0 6 0;
#X connect 7 0 2 0;
#X connect 7 1 8 0;
#X restore 85 9 pd Network;
#X obj 6 197 *~ 0.5;
#X obj 23 75 r key;
#X obj 5 99 +;
#N canvas 283 56 1477 866 makenotes 0;
#X obj 304 676 outlet, f 7;
#X obj 304 601 pack f f f;
#X obj 126 491 makenote 100 250;
#X obj 126 518 pack;
#X obj 126 370 inlet;
#X obj 126 422 - 12;
#X obj 126 394 t f f;
#X floatatom 77 401 5 0 0 0 - - - 0;
#X obj 401 372 r fader2;
#X obj 719 372 r fader4;
#X obj 558 372 r fader3;
#X obj 110 197 s root;
#X obj 110 113 i;
#X obj 244 372 r fader1;
#X obj 401 401 fader 4.5 3 4.5 4 4;
#X obj 110 139 mton;
#X obj 233 213 print;
#X floatatom 190 56 4 0 0 0 - - - 16;
#X obj 110 84 + 48;
#X obj 369 648 print;
#X listbox 244 439 10 0 0 0 - - - 0;
#X listbox 401 425 11 0 0 0 - - - 0;
#X listbox 558 425 7 0 0 0 - - - 0;
#X listbox 719 439 6 0 0 0 - - - 0;
#X obj 558 401 fader 2 6 7 8 7;
#X obj 719 401 fader 2 10 7 11 12, f 15;
#X obj 110 39 r roots;
#X obj 244 401 fader 2 2 8 5 0, f 14;
#X obj 303 567 poly 10 1;
#X connect 1 0 0 0;
#X connect 2 0 3 0;
#X connect 2 1 3 1;
#X connect 3 0 28 0;
#X connect 4 0 6 0;
#X connect 4 0 7 0;
#X connect 5 0 2 0;
#X connect 6 0 5 0;
#X connect 8 0 14 0;
#X connect 9 0 25 0;
#X connect 10 0 24 0;
#X connect 12 0 11 0;
#X connect 12 0 15 0;
#X connect 13 0 27 0;
#X connect 14 0 21 0;
#X connect 14 0 28 0;
#X connect 18 0 12 0;
#X connect 24 0 22 0;
#X connect 24 0 28 0;
#X connect 25 0 23 0;
#X connect 25 0 28 0;
#X connect 26 0 17 0;
#X connect 26 0 18 0;
#X connect 27 0 20 0;
#X connect 27 0 28 0;
#X connect 28 0 1 0;
#X connect 28 1 1 1;
#X connect 28 2 1 2;
#X restore 6 145 pd makenotes;
#X f 16;
#N canvas 15 292 1102 522 Presets 0;
#X obj 901 171 text define state;
#X floatatom 176 7 5 0 0 0 - - - 0;
#X obj 176 75 pack s f;
#X obj 194 321 text search state;
#X floatatom 286 6 5 0 0 0 - - - 0;
#X msg 286 27 timbre \$1;
#X obj 176 99 s presets;
#X obj 156 175 r presets;
#X obj 194 277 unpack s f;
#X listbox 194 299 9 0 0 0 - - - 0;
#X floatatom 261 299 5 0 0 0 - - - 0;
#X floatatom 194 418 5 0 0 0 - - - 0;
#X obj 194 441 + 1;
#X msg 804 77 clear;
#X msg 902 78 write ./state.txt;
#X msg 743 142 read ./state.txt;
#X text 650 417 Define text file called "states" to store presets. TO DO: change this file dynamically to store different presets., f 28;
#X text 273 68 Route parameters to store as [s f] list to [send], f 17;
#X text 13 368 Receive parameter and write it to the top of the text file, f 14;
#X text 320 267 Search for existing parameter entry and return its line number in the text file, f 18;
#X obj 194 345 moses 0;
#X obj 194 369 bng 19 250 50 0 empty empty empty 0 -10 0 12 #fcfcfc #000000 #000000;
#X obj 194 393 text size state;
#X text 321 362 If text file is empty \, add parameter to line 1 \; else add a new line and store the parameter, f 27;
#X text 557 113 load presets;
#X text 985 55 save presets;
#X obj 720 222 bng 19 250 50 0 empty empty empty 0 -10 0 12 #fcfcfc #000000 #000000;
#X obj 720 258 text sequence state;
#X msg 752 222 line 0;
#X msg 720 293 \; \$1 \$2;
#X text 805 209 output all stored values as [s f] starting from line 0, f 21;
#X obj 720 -6 loadbang;
#X obj 703 337 print Presets loaded;
#X msg 176 29 prescaler \$1;
#X obj 158 470 text set state 2;
#X obj 230 239 print presetReceived;
#X obj 230 216 list trim;
#X obj 744 69 r reload;
#X obj 720 173 t b b;
#X obj 720 68 bng 19 250 50 0 empty empty empty 0 -10 0 12 #fcfcfc #000000 #000000;
#X obj 903 56 r save;
#X obj 720 17 t b b;
#X obj 752 42 s initialiseTrill;
#X obj 720 98 t b b b;
#X connect 1 0 33 0;
#X connect 2 0 6 0;
#X connect 3 0 20 0;
#X connect 4 0 5 0;
#X connect 5 0 2 0;
#X connect 7 0 36 0;
#X connect 7 0 8 0;
#X connect 7 0 34 0;
#X connect 8 0 9 0;
#X connect 8 1 10 0;
#X connect 9 0 3 0;
#X connect 11 0 12 0;
#X connect 12 0 34 1;
#X connect 13 0 0 0;
#X connect 14 0 0 0;
#X connect 15 0 0 0;
#X connect 20 0 21 0;
#X connect 20 1 34 1;
#X connect 21 0 22 0;
#X connect 22 0 11 0;
#X connect 26 0 27 0;
#X connect 27 0 29 0;
#X connect 27 0 32 0;
#X connect 28 0 27 0;
#X connect 31 0 41 0;
#X connect 33 0 2 0;
#X connect 36 0 35 0;
#X connect 37 0 43 0;
#X connect 38 0 26 0;
#X connect 38 1 28 0;
#X connect 39 0 43 0;
#X connect 40 0 14 0;
#X connect 41 0 39 0;
#X connect 41 1 42 0;
#X connect 43 0 38 0;
#X connect 43 1 15 0;
#X connect 43 2 0 0;
#X restore 6 8 pd Presets;
#N canvas 246 495 1048 484 GUI 0;
#X obj 41 75 r root;
#X obj 41 121 list prepend root;
#X obj 41 177 s belaGui;
#X listbox 53 151 20 0 0 0 - - - 0;
#X obj 41 98 mton;
#X obj 323 131 s bela_setGui;
#X msg 323 68 new control key;
#X obj 323 20 loadbang;
#X obj 312 177 r bela_guiControl;
#X text 47 21 Sends;
#X text 571 207 Returns;
#X obj 320 305 s key;
#X obj 360 277 s tone;
#X obj 410 299 s decay;
#X obj 465 316 s vib-freq;
#X obj 503 286 s vib-depth;
#X obj 312 253 route key tone decay vib-freq vib-depth mod adsr;
#X obj 560 337 s adsr;
#X obj 594 299 s mod, f 6;
#X obj 238 404 print gui key;
#X obj 360 400 print gui tone;
#X obj 479 400 print gui decay;
#X msg 345 89 new control tone;
#X msg 369 109 new control decay;
#X msg 562 76 new array buffer;
#X obj 323 44 t b b b b;
#X obj 239 356 change;
#X obj 361 372 change;
#X obj 469 362 change;
#X connect 0 0 4 0;
#X connect 1 0 2 0;
#X connect 1 0 3 0;
#X connect 4 0 1 0;
#X connect 6 0 5 0;
#X connect 7 0 25 0;
#X connect 8 0 16 0;
#X connect 16 0 11 0;
#X connect 16 0 26 0;
#X connect 16 1 12 0;
#X connect 16 1 27 0;
#X connect 16 2 13 0;
#X connect 16 2 28 0;
#X connect 16 3 14 0;
#X connect 16 4 15 0;
#X connect 16 5 17 0;
#X connect 16 6 18 0;
#X connect 22 0 5 0;
#X connect 23 0 5 0;
#X connect 24 0 5 0;
#X connect 25 1 22 0;
#X connect 25 2 23 0;
#X connect 25 3 24 0;
#X restore 161 9 pd GUI;
#N canvas 662 331 1039 448 Neopixel 0;
#X obj 78 304 spigot;
#X obj 117 281 tgl 19 1 empty debugNeoPixel empty 0 -10 0 12 #fcfcfc #000000 #000000 0 1;
#X obj 78 327 print NeoPixel;
#X obj 98 248 netsend -u -b;
#X obj 99 201 loadbang;
#X msg 98 223 connect localhost 7562;
#X obj 296 73 r ringPosition;
#X obj 76 176 oscformat leds setRaw rgb;
#X obj 76 153 LedAddress;
#X obj 74 131 nbx 5 17 -1e+37 1e+37 0 1 empty LedsOffset LedsOffset 0 -10 0 12 #fcfcfc #000000 #000000 -1 256;
#X obj 143 130 nbx 5 17 -1e+37 1e+37 0 1 empty LedsBrightness LedsBrightness 0 -10 0 12 #fcfcfc #000000 #000000 6 256;
#X floatatom 294 132 5 0 0 0 - - - 0;
#X obj 294 104 moses 2;
#X floatatom 261 66 5 0 0 0 - - - 0;
#X msg 380 128 read Regions.txt;
#X obj 380 106 loadbang;
#X obj 309 184 text define -k \$0-Regions;
#A set 0 0 1 2 \; 1 0 1 2 \; 2 0 1 2 \; 3 3 4 5 \; 4 3 4 5 \; 5 3 4 5 \; 6 6 7 8 \; 7 6 7 8 \; 8 6 7 8 \; 9 9 10 11 \; 10 9 10 11 \; 11 9 10 11 \; 12 12 13 14 \; 13 12 13 14 \; 14 12 13 14 \; 15 15 16 17 \; 16 15 16 17 \; 17 15 16 17 \; 18 18 19 20 \; 19 18 19 20 \; 20 18 19 20 \; 21 21 22 23 \; 22 21 22 23 \; 23 21 22 23 \;;
#X obj 295 163 text get \$0-Regions;
#X msg 181 200 disconnect;
#X floatatom 562 141 5 0 0 0 - - - 0;
#X obj 562 166 t f f;
#X obj 594 223 sel 0 1;
#X msg 549 254 1 0 1;
#X obj 518 279 f;
#X obj 547 278 t b a;
#X obj 608 280 f;
#X obj 636 279 t b a;
#X obj 519 307 list append;
#X obj 606 307 list append;
#X msg 635 255 10 3 10;
#X obj 556 67 r background;
#X obj 556 91 bng 19 250 50 0 empty empty empty 0 -10 0 12 #fcfcfc #000000 #000000;
#X msg 527 350 \; Led\$1 \$2 \$3 \$4 \;;
#X obj 594 191 expr if (($f1 % 3) == 2 \, 1 \, 0);
#X obj 556 114 cyclone/uzi 23;
#X msg 295 208 \; background 1 0 1 \; Led0 1 1 1 \; Led1 1 1 1 \; Led2 1 1 1 \; Led\$2 0 1 1 \; Led\$3 0 1 1 \; Led\$4 0 1 1 \; UpdateLeds 1 \;;
#X connect 0 0 2 0;
#X connect 1 0 0 1;
#X connect 4 0 5 0;
#X connect 5 0 3 0;
#X connect 6 0 12 0;
#X connect 7 0 3 0;
#X connect 8 0 7 0;
#X connect 8 0 0 0;
#X connect 9 0 8 0;
#X connect 10 0 8 1;
#X connect 11 0 17 0;
#X connect 12 1 11 0;
#X connect 13 0 12 0;
#X connect 14 0 16 0;
#X connect 15 0 14 0;
#X connect 17 0 35 0;
#X connect 18 0 3 0;
#X connect 19 0 20 0;
#X connect 20 0 23 1;
#X connect 20 0 25 1;
#X connect 20 1 33 0;
#X connect 21 0 22 0;
#X connect 21 1 29 0;
#X connect 22 0 24 0;
#X connect 23 0 27 0;
#X connect 24 0 23 0;
#X connect 24 1 27 1;
#X connect 25 0 28 0;
#X connect 26 0 25 0;
#X connect 26 1 28 1;
#X connect 27 0 32 0;
#X connect 28 0 32 0;
#X connect 29 0 26 0;
#X connect 30 0 31 0;
#X connect 31 0 34 0;
#X connect 33 0 21 0;
#X connect 34 2 19 0;
#X restore 175 33 pd Neopixel;
#X obj 33 238 rev3~ 100 90 3000 20;
#X obj 30 320 *~;
#X obj 67 322 *~;
#X obj 46 283 r reverbAmount;
#X obj 209 9 osc;
#X obj 216 103 s root;
#X floatatom 215 75 5 60 80 0 - - - 0;
#X floatatom 273 78 5 0 0 0 - - - 0;
#X obj 272 102 s key;
#X obj 251 253 sequencer;
#X floatatom 20 123 5 0 0 0 - - - 0;
#X obj 6 170 clone -s 1 rhodney 10;
#X connect 0 0 7 0;
#X connect 5 0 2 0;
#X connect 5 0 12 0;
#X connect 6 0 7 1;
#X connect 7 0 22 0;
#X connect 8 0 23 0;
#X connect 12 0 13 0;
#X connect 12 1 14 0;
#X connect 13 0 2 0;
#X connect 14 0 2 1;
#X connect 15 0 13 1;
#X connect 15 0 14 1;
#X connect 18 0 17 0;
#X connect 19 0 20 0;
#X connect 22 0 8 0;
#X connect 23 0 5 0;
