#N canvas 352 79 642 534 12;
#X obj 5 54 r root;
#N canvas 682 366 717 467 MidiRouting 0;
#X obj 14 94 s S-0;
#X obj 58 93 s S-1;
#X obj 99 93 s S-2;
#X obj 139 94 s S-3;
#X obj 26 34 stripnote;
#X msg 452 305 maj;
#X msg 493 307 dim;
#X msg 525 307 aug;
#X msg 626 309 mm7;
#X msg 557 307 MM7;
#X msg 589 308 Mm7;
#X obj 454 364 s chord;
#X obj 17 61 sel 50 51 54 52 53, f 28;
#X obj 182 92 s S-4;
#X obj 65 254 s root;
#X obj 12 178 moses 59;
#X obj 12 145 stripnote;
#X obj 26 10 notein 0;
#X obj 12 121 notein 0;
#X msg 233 121 decay \$1;
#X msg 308 120 timbre \$1;
#X obj 300 193 s params;
#X msg 382 120 morph \$1;
#X obj 233 27 / 127;
#X obj 308 96 / 127;
#X obj 382 99 / 127;
#X obj 233 5 ctlin 41;
#X obj 308 72 ctlin 42;
#X obj 382 76 ctlin 43;
#X obj 265 51 polytouchin;
#X obj 233 99 + 0.5;
#X obj 265 74 / 127;
#X obj 65 229 nbx 5 17 -1e+37 1e+37 0 1 empty empty empty 0 -10 0 12 #fcfcfc #000000 #000000 66 256;
#X obj 86 203 loadbang;
#X connect 4 0 12 0;
#X connect 5 0 11 0;
#X connect 6 0 11 0;
#X connect 7 0 11 0;
#X connect 8 0 11 0;
#X connect 9 0 11 0;
#X connect 10 0 11 0;
#X connect 12 0 0 0;
#X connect 12 1 1 0;
#X connect 12 2 2 0;
#X connect 12 3 3 0;
#X connect 12 4 13 0;
#X connect 15 1 32 0;
#X connect 16 0 15 0;
#X connect 17 0 4 0;
#X connect 17 1 4 1;
#X connect 18 0 16 0;
#X connect 18 1 16 1;
#X connect 19 0 21 0;
#X connect 20 0 21 0;
#X connect 22 0 21 0;
#X connect 23 0 30 0;
#X connect 24 0 20 0;
#X connect 25 0 22 0;
#X connect 26 0 23 0;
#X connect 27 0 24 0;
#X connect 28 0 25 0;
#X connect 29 0 31 0;
#X connect 30 0 19 0;
#X connect 31 0 30 1;
#X connect 32 0 14 0;
#X connect 33 0 32 0;
#X restore 5 33 pd MidiRouting;
#N canvas 115 31 1284 841 Trill 0;
#X obj 235 235 s bela_setTrill;
#X obj 22 332 s bela_setTrill;
#X obj 28 306 print;
#X obj 18 22 r bela_trillCreated;
#X obj 18 49 print bela_trillCreated;
#X msg 22 274 prescaler pads \$1;
#X obj 22 219 r prescaler;
#X floatatom 22 248 5 0 0 0 - - - 0;
#X obj 236 18 r initialiseTrill;
#X msg 236 165 new pads 1 CRAFT \, prescaler pads 2 \, threshold pads 0.05 \, scanSettings pads 0 12, f 23;
#X obj 23 191 s bela_setTrill;
#X obj 29 165 print;
#X floatatom 23 107 5 0 0 0 - - - 0;
#X obj 23 78 r threshold;
#X msg 23 133 threshold pads \$1;
#X obj 274 140 s bela_setTrill @hv_param;
#X msg 275 70 new bar1 1 BAR 32 \, new bar2 1 BAR 33 \, new bar3 1 BAR 34 \, new bar4 1 BAR 35, f 19;
#X obj 236 44 t b b, f 6;
#X obj 589 8 r bela_trill;
#X obj 599 204 t f f, f 8;
#X obj 614 333 pack, f 8;
#X obj 699 199 t f f, f 8;
#X obj 720 347 pack, f 8;
#X obj 786 199 t f f, f 8;
#X obj 794 376 pack, f 8;
#X obj 873 199 t f f, f 8;
#X obj 879 379 pack, f 8;
#X obj 957 201 t f f, f 8;
#X obj 964 379 pack, f 8;
#X obj 614 355 s Pad0;
#X obj 719 371 s Pad1;
#X obj 794 400 s Pad2;
#X obj 879 402 s Pad3;
#X obj 964 402 s Pad4;
#X obj 1075 204 t f f, f 8;
#X obj 1084 380 pack, f 8;
#X obj 1084 401 s Pad5;
#X obj 617 227 r padThreshold0;
#X obj 599 253 >;
#X obj 700 271 >;
#X obj 784 295 >;
#X obj 873 296 >;
#X obj 957 294 >;
#X obj 1076 293 >;
#X obj 718 249 r padThreshold1;
#X obj 802 271 r padThreshold2;
#X obj 891 245 r padThreshold3;
#X obj 974 270 r padThreshold4;
#X floatatom 601 148 5 0 0 0 - - - 0;
#X obj 599 302 moses 1;
#X obj 708 318 moses 1;
#X obj 793 347 moses 1;
#X obj 879 342 moses 1;
#X obj 957 344 moses 1;
#X obj 1078 341 moses 1;
#X obj 599 278 change;
#X obj 700 294 change;
#X obj 784 319 change;
#X obj 873 319 change;
#X obj 957 319 change;
#X obj 1079 317 change;
#X obj 624 92 spigot;
#X obj 673 71 tgl 19 1 empty debugCraft DebugCraft 0 -10 0 12 #fcfcfc #000000 #000000 0 1;
#X obj 589 34 route pads, f 11;
#X obj 1204 200 t f f, f 8;
#X obj 1212 331 pack, f 8;
#X obj 1204 246 >;
#X obj 1205 296 moses 1;
#X obj 1205 271 change;
#X obj 1090 224 r padThreshold5;
#X obj 1211 354 s Pad6;
#X obj 1222 222 r padThreshold6;
#N canvas 208 239 1466 629 debugCraft 0;
#X obj 188 59 inlet;
#X obj 216 180 change;
#X obj 317 180 change;
#X obj 418 180 change;
#X obj 519 180 change;
#X obj 621 180 change;
#X obj 116 209 print pad0;
#X obj 216 209 print pad1;
#X obj 314 209 print pad2;
#X obj 404 209 print pad3;
#X obj 490 209 print pad4;
#X obj 581 209 print pad5;
#X obj 116 180 change;
#X obj 693 180 change;
#X obj 799 180 change;
#X obj 115 156 unpack f f f f f f f f, f 102;
#X obj 693 209 print pad6;
#X obj 799 209 print pad7;
#X obj 206 99 print craft;
#X connect 0 0 15 0;
#X connect 0 0 18 0;
#X connect 1 0 7 0;
#X connect 2 0 8 0;
#X connect 3 0 9 0;
#X connect 4 0 10 0;
#X connect 5 0 11 0;
#X connect 12 0 6 0;
#X connect 13 0 16 0;
#X connect 14 0 17 0;
#X connect 15 0 12 0;
#X connect 15 1 1 0;
#X connect 15 2 2 0;
#X connect 15 3 3 0;
#X connect 15 4 4 0;
#X connect 15 5 5 0;
#X connect 15 6 13 0;
#X connect 15 7 14 0;
#X restore 623 115 pd debugCraft;
#X obj 295 493 print root;
#X obj 232 276 r bela_trill;
#X obj 232 299 route bar1 bar2 bar3 bar4;
#X obj 272 444 r root;
#X obj 294 469 spigot;
#X obj 332 446 tgl 19 0 empty debugRoot debugRoot 0 -10 0 12 #fcfcfc #000000 #000000 0 1;
#X obj 232 330 s bar1;
#X obj 281 331 s bar2;
#X obj 331 332 s bar3;
#X obj 380 333 s bar4;
#X obj 570 177 unpack f f f f f f f, f 91;
#X msg 605 379 \; roots 0;
#X msg 694 394 \; roots 7;
#X msg 785 427 \; roots 2;
#X msg 874 430 \; roots 9;
#X text 847 498 0 = I (0) \; 1 = V (7) \; 2 = ii (2) \; 3 = vi (9) \; 4 = iii (4) \; 5 = vii (11) \; 6 = IV (5) \;;
#X msg 958 426 \; roots 4;
#X msg 1081 427 \; roots 11;
#X msg 1208 382 \; roots 5;
#X obj 45 479 change;
#X obj 44 358 adc~ 3;
#X obj 47 387 iemlib/unsig~ 100;
#X obj 40 571 s vib-depth;
#X obj 46 455 * 16;
#X obj 46 506 clip 0 16;
#X obj 44 427 moses 0.3;
#X connect 3 0 4 0;
#X connect 5 0 1 0;
#X connect 5 0 2 0;
#X connect 6 0 7 0;
#X connect 7 0 5 0;
#X connect 8 0 17 0;
#X connect 9 0 0 0;
#X connect 12 0 14 0;
#X connect 13 0 12 0;
#X connect 14 0 10 0;
#X connect 14 0 11 0;
#X connect 16 0 15 0;
#X connect 17 0 9 0;
#X connect 17 1 16 0;
#X connect 18 0 63 0;
#X connect 19 0 38 0;
#X connect 19 1 20 1;
#X connect 20 0 29 0;
#X connect 21 0 39 0;
#X connect 21 1 22 1;
#X connect 22 0 30 0;
#X connect 23 0 40 0;
#X connect 23 1 24 1;
#X connect 24 0 31 0;
#X connect 25 0 41 0;
#X connect 25 1 26 1;
#X connect 26 0 32 0;
#X connect 27 0 42 0;
#X connect 27 1 28 1;
#X connect 28 0 33 0;
#X connect 34 0 43 0;
#X connect 34 1 35 1;
#X connect 35 0 36 0;
#X connect 37 0 38 1;
#X connect 38 0 55 0;
#X connect 39 0 56 0;
#X connect 40 0 57 0;
#X connect 41 0 58 0;
#X connect 42 0 59 0;
#X connect 43 0 60 0;
#X connect 44 0 39 1;
#X connect 45 0 40 1;
#X connect 46 0 41 1;
#X connect 47 0 42 1;
#X connect 48 0 83 0;
#X connect 49 1 20 0;
#X connect 49 1 84 0;
#X connect 50 1 22 0;
#X connect 50 1 85 0;
#X connect 51 1 24 0;
#X connect 51 1 86 0;
#X connect 52 1 26 0;
#X connect 52 1 87 0;
#X connect 53 1 28 0;
#X connect 53 1 89 0;
#X connect 54 1 35 0;
#X connect 54 1 90 0;
#X connect 55 0 49 0;
#X connect 56 0 50 0;
#X connect 57 0 51 0;
#X connect 58 0 52 0;
#X connect 59 0 53 0;
#X connect 60 0 54 0;
#X connect 61 0 72 0;
#X connect 62 0 61 1;
#X connect 63 0 61 0;
#X connect 63 0 83 0;
#X connect 64 0 66 0;
#X connect 64 1 65 1;
#X connect 65 0 70 0;
#X connect 66 0 68 0;
#X connect 67 1 65 0;
#X connect 67 1 91 0;
#X connect 68 0 67 0;
#X connect 69 0 43 1;
#X connect 71 0 66 1;
#X connect 74 0 75 0;
#X connect 75 0 79 0;
#X connect 75 1 80 0;
#X connect 75 2 81 0;
#X connect 75 3 82 0;
#X connect 76 0 77 0;
#X connect 77 0 73 0;
#X connect 78 0 77 1;
#X connect 83 0 19 0;
#X connect 83 1 21 0;
#X connect 83 2 23 0;
#X connect 83 3 25 0;
#X connect 83 4 27 0;
#X connect 83 5 34 0;
#X connect 83 6 64 0;
#X connect 92 0 97 0;
#X connect 96 0 92 0;
#X connect 97 0 95 0;
#X connect 98 1 96 0;
#X restore 111 33 pd Trill;
#X obj 23 75 r key;
#X obj 5 99 +;
#N canvas 355 81 1081 841 makenotes 1;
#X obj 1054 288 outlet, f 7;
#X obj 1055 264 pack f f f;
#X obj 24 493 makenote 100 250;
#X obj 63 533 pack;
#X obj 3 330 s root;
#X obj 15 175 i, f 4;
#X obj 61 200 mton;
#X obj 62 246 print;
#X obj 30 39 r roots;
#X obj 425 182 r bar4;
#X obj 549 184 r bar3;
#X obj 692 181 r bar2;
#X obj 839 183 r bar1;
#X text 402 126 order of bars is reversed to match current orientation;
#X text 558 161 4.5 two values;
#X text 439 158 2-8 three values;
#X obj 62 223 spigot;
#X obj 101 200 tgl 19 0 empty debugRoot debugRoot 0 -10 0 12 #fcfcfc #000000 #000000 0 1;
#X obj 494 287 s poly, f 7;
#X obj 1055 197 r poly;
#X obj 54 574 s poly;
#X obj 189 326 loadbang;
#X msg 189 349 current 48 52 55 58;
#X obj 177 201 r orbifold;
#X obj 169 571 spigot;
#X obj 191 537 tgl 19 0 empty debugOrbifold debugOrbifold 0 -10 0 12 #fcfcfc #000000 #000000 0 1;
#X msg 67 352 root \$1;
#X obj 426 368 spigot;
#X obj 440 343 tgl 19 0 empty debugPoly debugPoly 0 -10 0 12 #fcfcfc #000000 #000000 0 1;
#X obj 629 288 s poly, f 7;
#X obj 773 274 s poly, f 7;
#X obj 917 272 s poly, f 7;
#X obj 418 391 print polyIn4;
#X obj 549 365 spigot;
#X obj 556 339 tgl 19 0 empty debugPoly debugPoly 0 -10 0 12 #fcfcfc #000000 #000000 0 1;
#X obj 524 391 print polyIn3;
#X obj 692 367 spigot;
#X obj 696 340 tgl 19 0 empty debugPoly debugPoly 0 -10 0 12 #fcfcfc #000000 #000000 0 1;
#X obj 840 360 spigot;
#X obj 874 329 tgl 19 0 empty debugPoly debugPoly 0 -10 0 12 #fcfcfc #000000 #000000 0 1;
#X obj 672 390 print polyIn2;
#X obj 816 385 print polyIn1;
#X text 767 55 Bar: [minLimit \, minValue \, topLimit \, topValue \, centerValue], f 15;
#X obj 1010 58 r printorbifold;
#X obj 1010 82 unpack f f f f;
#X obj 1002 110 mton;
#X obj 1003 170 print chord;
#X obj 1040 111 mton;
#X obj 1078 110 mton;
#X obj 1116 111 mton;
#X obj 1003 144 pack s s s s;
#X floatatom 16 4 5 0 0 0 - - - 0;
#X msg 175 299 debug \$1;
#X obj 175 226 route debug roots;
#X obj 425 215 bar 4 2 2 8 5 0;
#X obj 549 216 bar 3 4.5 3 4.5 4 4;
#X obj 692 216 bar 2 2 6 8 8 7;
#X obj 839 218 bar 1 2 10 8 11 12;
#X obj 15 138 +;
#X obj 234 254 s roots;
#X obj 55 111 t b f;
#X obj 432 258 routeChords;
#X obj 566 262 routeChords;
#X obj 710 250 routeChords;
#X obj 847 247 routeChords;
#X obj 1034 336 tgl 19 0 voiceLeading empty voiceLeading 0 -10 0 12 #fcfcfc #000000 #000000 0 1;
#X obj 945 724 pack f f f f, f 21;
#X obj 975 500 r voice2;
#X obj 972 546 t b f;
#X obj 1059 697 t b f;
#X obj 1016 569 r voice3;
#X obj 1059 640 r voice4;
#X obj 1016 612 t b f;
#X obj 945 789 list prepend chord;
#X obj 1055 241 poly 5 1;
#X msg 237 47 \; bar4 0 0 0 \; bar3 0 5 0 \; bar2 0 5 0 \; bar1 0 5 0 \;;
#X obj 237 17 delay 300;
#X obj 200 -18 bng 19 250 50 0 empty empty empty 0 -10 0 12 #fcfcfc #000000 #000000;
#X obj 944 813 list trim;
#X obj 944 837 s toVoiceLeading;
#X obj 220 379 r toVoiceLeading;
#X listbox 963 752 20 0 0 0 - - - 0;
#X floatatom 185 270 5 0 0 0 - - - 0;
#X listbox 354 428 20 0 0 0 - - - 0;
#X obj 169 599 print orbifold3;
#X obj 122 638 r roots;
#X obj 162 669 +;
#X obj 181 638 r key;
#X obj 162 693 + 36;
#X obj 162 717 mton;
#X listbox 162 741 5 0 0 0 - - - 0;
#X obj 133 408 orbifold;
#X listbox 354 474 20 0 0 0 - - - 0;
#X msg 442 36 \; bar4 0 0 0 \; bar3 0 5 0 \; bar2 0 5 0 \; bar1 0 5 0 \;;
#X obj 442 6 delay 300;
#X obj 405 -29 bng 19 250 50 0 empty empty empty 0 -10 0 12 #fcfcfc #000000 #000000;
#X msg 336 36 \; bar4 1 0 80 \; bar3 1 3 80 \; bar2 1 5 80 \; bar1 1 1 80 \;;
#X msg 131 47 \; bar4 1 0 80 \; bar3 1 5 80 \; bar2 1 5 80 \; bar1 1 5 80 \;;
#X obj 354 450 cyclone/zl sort;
#X obj 354 498 unpack f f f f;
#X obj 230 785 s poly;
#X obj 949 455 unpack;
#X obj 975 522 unpack;
#X obj 1016 591 unpack;
#X obj 1061 668 unpack;
#X obj 949 431 r voice4;
#X obj 432 287 s voice4;
#X obj 566 287 s voice3;
#X obj 710 275 s voice2;
#X obj 847 273 s voice1;
#X obj 988 479 s voiceTrig4;
#X obj 1014 546 s voiceTrig3;
#X obj 1060 615 s voiceTrig2;
#X obj 1100 691 s voiceTrig1;
#X obj 290 560 r voiceTrig4;
#X obj 281 719 pack;
#X obj 290 650 spigot;
#X obj 387 787 s poly;
#X obj 404 711 pack;
#X obj 419 659 spigot;
#X obj 557 782 s poly;
#X obj 564 654 spigot;
#X obj 677 782 s poly;
#X obj 676 653 spigot;
#X obj 395 577 r voiceTrig3;
#X obj 564 579 r voiceTrig2;
#X obj 676 578 r voiceTrig1;
#X msg 285 786 0;
#X obj 315 626 tgl 19 0 empty empty empty 0 -10 0 12 #fcfcfc #000000 #000000 0 1;
#X obj 442 629 tgl 19 0 empty empty empty 0 -10 0 12 #fcfcfc #000000 #000000 0 1;
#X obj 603 602 r openTrigs;
#X obj 712 600 r openTrigs;
#X obj 603 626 tgl 19 0 empty empty empty 0 -10 0 12 #fcfcfc #000000 #000000 0 1;
#X obj 712 624 tgl 19 0 empty empty empty 0 -10 0 12 #fcfcfc #000000 #000000 0 1;
#X msg 316 595 1;
#X obj 288 761 delay 1;
#X msg 417 760 0;
#X obj 420 735 delay 1;
#X msg 578 751 0;
#X obj 576 729 delay 1;
#X msg 690 753 0;
#X obj 693 728 delay 1;
#X obj 289 681 t b f;
#X obj 419 683 t b f;
#X obj 564 678 t b f;
#X obj 569 703 pack;
#X obj 676 677 t b f;
#X obj 676 701 pack;
#X obj 324 528 t b f;
#X obj 386 528 t b f;
#X msg 444 606 1;
#X obj 644 12 delay 300;
#X obj 607 -23 bng 19 250 50 0 empty empty empty 0 -10 0 12 #fcfcfc #000000 #000000;
#X msg 538 42 \; bar3 1 3 80 \;;
#X msg 644 42 \; bar3 0 5 0 \;;
#X obj 15 79 + 50;
#X obj 56 83 change;
#X obj 57 59 key;
#X connect 1 0 0 0;
#X connect 2 0 3 0;
#X connect 2 1 3 1;
#X connect 3 0 20 0;
#X connect 5 0 26 0;
#X connect 5 0 4 0;
#X connect 5 0 6 0;
#X connect 5 0 2 0;
#X connect 6 0 16 0;
#X connect 8 0 155 0;
#X connect 9 0 54 0;
#X connect 10 0 55 0;
#X connect 11 0 56 0;
#X connect 12 0 57 0;
#X connect 16 0 7 0;
#X connect 17 0 16 1;
#X connect 19 0 74 0;
#X connect 21 0 22 0;
#X connect 22 0 91 0;
#X connect 23 0 53 0;
#X connect 24 0 84 0;
#X connect 25 0 24 1;
#X connect 26 0 91 0;
#X connect 27 0 32 0;
#X connect 28 0 27 1;
#X connect 33 0 35 0;
#X connect 34 0 33 1;
#X connect 36 0 40 0;
#X connect 37 0 36 1;
#X connect 38 0 41 0;
#X connect 39 0 38 1;
#X connect 43 0 44 0;
#X connect 44 0 45 0;
#X connect 44 1 47 0;
#X connect 44 2 48 0;
#X connect 44 3 49 0;
#X connect 45 0 50 0;
#X connect 47 0 50 1;
#X connect 48 0 50 2;
#X connect 49 0 50 3;
#X connect 50 0 46 0;
#X connect 51 0 155 0;
#X connect 52 0 91 0;
#X connect 53 0 52 0;
#X connect 53 1 59 0;
#X connect 54 0 27 0;
#X connect 54 0 61 0;
#X connect 55 0 33 0;
#X connect 55 0 62 0;
#X connect 56 0 36 0;
#X connect 56 0 63 0;
#X connect 57 0 38 0;
#X connect 57 0 64 0;
#X connect 58 0 5 0;
#X connect 60 0 58 0;
#X connect 60 1 58 1;
#X connect 61 0 106 0;
#X connect 61 1 18 0;
#X connect 62 0 107 0;
#X connect 62 1 29 0;
#X connect 63 0 108 0;
#X connect 63 1 30 0;
#X connect 64 0 109 0;
#X connect 64 1 31 0;
#X connect 66 0 73 0;
#X connect 66 0 81 0;
#X connect 67 0 102 0;
#X connect 68 0 66 0;
#X connect 68 1 66 1;
#X connect 69 0 66 0;
#X connect 69 1 66 3;
#X connect 70 0 103 0;
#X connect 71 0 104 0;
#X connect 72 0 66 0;
#X connect 72 1 66 2;
#X connect 73 0 78 0;
#X connect 74 0 1 0;
#X connect 74 1 1 1;
#X connect 74 2 1 2;
#X connect 76 0 75 0;
#X connect 77 0 76 0;
#X connect 77 0 97 0;
#X connect 78 0 79 0;
#X connect 80 0 91 0;
#X connect 82 0 52 0;
#X connect 83 0 98 0;
#X connect 85 0 86 0;
#X connect 86 0 88 0;
#X connect 87 0 86 1;
#X connect 88 0 89 0;
#X connect 89 0 90 0;
#X connect 91 0 2 0;
#X connect 91 2 24 0;
#X connect 91 2 83 0;
#X connect 92 0 99 0;
#X connect 94 0 93 0;
#X connect 95 0 94 0;
#X connect 95 0 96 0;
#X connect 98 0 92 0;
#X connect 99 0 148 0;
#X connect 99 1 149 0;
#X connect 99 2 145 0;
#X connect 99 3 147 0;
#X connect 101 0 66 0;
#X connect 101 1 110 0;
#X connect 102 0 68 0;
#X connect 102 1 111 0;
#X connect 103 0 72 0;
#X connect 103 1 112 0;
#X connect 104 0 69 0;
#X connect 104 1 113 0;
#X connect 105 0 101 0;
#X connect 114 0 116 0;
#X connect 115 0 100 0;
#X connect 115 0 135 0;
#X connect 116 0 142 0;
#X connect 118 0 117 0;
#X connect 118 0 137 0;
#X connect 119 0 143 0;
#X connect 121 0 144 0;
#X connect 123 0 146 0;
#X connect 124 0 119 0;
#X connect 125 0 121 0;
#X connect 126 0 123 0;
#X connect 127 0 128 0;
#X connect 128 0 116 1;
#X connect 129 0 119 1;
#X connect 130 0 132 0;
#X connect 131 0 133 0;
#X connect 132 0 121 1;
#X connect 133 0 123 1;
#X connect 134 0 128 0;
#X connect 135 0 127 0;
#X connect 136 0 129 0;
#X connect 137 0 136 0;
#X connect 138 0 132 0;
#X connect 139 0 138 0;
#X connect 140 0 133 0;
#X connect 141 0 140 0;
#X connect 142 0 115 0;
#X connect 142 1 115 1;
#X connect 143 0 118 0;
#X connect 143 1 118 1;
#X connect 144 0 145 0;
#X connect 144 1 145 1;
#X connect 145 0 139 0;
#X connect 145 0 120 0;
#X connect 146 0 147 0;
#X connect 146 1 147 1;
#X connect 147 0 141 0;
#X connect 147 0 122 0;
#X connect 148 0 134 0;
#X connect 148 1 115 0;
#X connect 149 0 150 0;
#X connect 149 1 118 0;
#X connect 150 0 129 0;
#X connect 151 0 154 0;
#X connect 152 0 151 0;
#X connect 152 0 153 0;
#X connect 155 0 58 0;
#X connect 156 0 60 0;
#X connect 157 0 156 0;
#X restore 7 207 pd makenotes;
#X f 16;
#N canvas 169 113 1048 692 GUI 0;
#X obj 41 75 r root;
#X obj 41 121 list prepend root;
#X obj 41 177 s belaGui;
#X listbox 53 151 20 0 0 0 - - - 0;
#X obj 41 98 mton;
#X obj 318 288 s bela_setGui;
#X msg 318 97 new control key;
#X obj 323 20 loadbang;
#X obj 385 336 r bela_guiControl;
#X text 47 21 Sends;
#X text 644 366 Returns;
#X obj 385 424 s key;
#X obj 435 424 s tone;
#X obj 485 426 s decay;
#X obj 532 454 s vib-freq;
#X obj 583 427 s vib-depth;
#X obj 632 451 s adsr;
#X obj 682 446 s mod, f 6;
#X obj 333 500 print gui key;
#X obj 433 499 print gui tone;
#X obj 483 476 print gui decay;
#X msg 340 118 new control tone;
#X msg 441 255 new array buffer;
#X obj 353 452 change;
#X obj 433 452 change;
#X obj 483 453 change;
#X obj 625 501 print gui adsr;
#X obj 734 493 print gui mod;
#X msg 371 143 new control decay;
#X msg 356 165 new control mod;
#X msg 383 186 new control adsr;
#X msg 395 209 new control vibFreq;
#X msg 408 232 new control vibDepth;
#X obj 626 476 change;
#X obj 732 470 change;
#X obj 385 394 route key tone decay vibFreq vibDepth adsr mod, f 50;
#X obj 323 44 t b b b b b b b b;
#X connect 0 0 4 0;
#X connect 1 0 2 0;
#X connect 1 0 3 0;
#X connect 4 0 1 0;
#X connect 6 0 5 0;
#X connect 7 0 36 0;
#X connect 8 0 35 0;
#X connect 21 0 5 0;
#X connect 22 0 5 0;
#X connect 23 0 18 0;
#X connect 24 0 19 0;
#X connect 25 0 20 0;
#X connect 29 0 5 0;
#X connect 30 0 5 0;
#X connect 31 0 5 0;
#X connect 32 0 5 0;
#X connect 33 0 26 0;
#X connect 34 0 27 0;
#X connect 35 0 11 0;
#X connect 35 0 23 0;
#X connect 35 1 12 0;
#X connect 35 1 24 0;
#X connect 35 2 13 0;
#X connect 35 2 25 0;
#X connect 35 3 14 0;
#X connect 35 4 15 0;
#X connect 35 5 16 0;
#X connect 35 5 33 0;
#X connect 35 6 17 0;
#X connect 35 7 34 0;
#X connect 36 0 6 0;
#X connect 36 1 21 0;
#X connect 36 2 29 0;
#X connect 36 3 28 0;
#X connect 36 4 30 0;
#X connect 36 5 31 0;
#X connect 36 6 32 0;
#X connect 36 7 22 0;
#X restore 62 8 pd GUI;
#N canvas 157 297 1039 575 Neopixel 0;
#X obj 328 32 LedColors;
#X listbox 333 10 13 0 0 0 - - - 0;
#X listbox 328 53 15 0 0 0 - - - 0;
#X floatatom 364 75 3 0 0 0 - - - 0;
#X floatatom 328 75 3 0 0 0 - - - 0;
#X floatatom 400 75 3 0 0 0 - - - 0;
#X obj 22 27 nbx 5 17 -1e+37 1e+37 0 1 empty LedsOffset LedsOffset 0 -10 0 12 #fcfcfc #000000 #000000 0 256;
#X obj 90 27 nbx 5 17 -1e+37 1e+37 0 1 empty LedsBrightness LedsBrightness 0 -10 0 12 #fcfcfc #000000 #000000 5 256;
#X obj 292 96 pack f f f f, f 16;
#X floatatom 292 9 5 0 23 0 - - - 0;
#X obj 23 50 LedAddress;
#X floatatom 514 89 5 0 0 0 - - - 0;
#X msg 515 138 1 0 1;
#X obj 515 184 f;
#X obj 515 161 t b a;
#X obj 515 207 list append;
#X obj 466 11 r background;
#X obj 466 35 bng 19 250 50 0 empty empty empty 0 -10 0 12 #fcfcfc #000000 #000000;
#X msg 291 118 \; background 1 \; Led\$1 \$2 \$3 \$4 \; UpdateLeds 1 \;;
#X msg 515 231 \; Led\$1 \$2 \$3 \$4 \;;
#X obj 514 114 t b f;
#X msg 505 400 \; background 1 \; Led\$1 0 0 1 \; UpdateLeds 1 \;;
#X msg 440 332 0;
#X msg 494 331 1;
#X msg 551 331 2;
#X msg 608 336 3;
#X msg 662 336 4;
#X msg 716 335 5;
#X msg 776 337 6;
#X msg 830 336 7;
#X obj 439 308 r Pad0;
#X obj 494 308 r Pad1;
#X obj 550 308 r Pad2;
#X obj 608 309 r Pad3;
#X obj 663 309 r Pad4;
#X obj 719 309 r Pad5;
#X obj 777 310 r Pad6;
#X obj 833 310 r Pad7;
#X obj 78 304 spigot;
#X obj 117 281 tgl 19 1 empty debugNeoPixel empty 0 -10 0 12 #fcfcfc #000000 #000000 0 1;
#X obj 78 327 print NeoPixel;
#X obj 98 248 netsend -u -b;
#X obj 99 201 loadbang;
#X msg 98 223 connect localhost 7562;
#X obj 76 176 oscformat leds setRaw rgb;
#X msg 181 200 disconnect;
#X msg 678 123 \; AllLeds 0 0 0 \; UpdateLeds 1 \;;
#X obj 682 97 r LedsOff;
#X obj 471 61 cyclone/uzi 7 0;
#X obj 161 286 print OSCConnected;
#X connect 0 0 2 0;
#X connect 0 1 4 0;
#X connect 0 2 3 0;
#X connect 0 3 5 0;
#X connect 1 0 0 0;
#X connect 3 0 8 2;
#X connect 4 0 8 1;
#X connect 5 0 8 3;
#X connect 6 0 10 0;
#X connect 7 0 10 1;
#X connect 8 0 18 0;
#X connect 9 0 8 0;
#X connect 10 0 44 0;
#X connect 10 0 38 0;
#X connect 11 0 20 0;
#X connect 12 0 14 0;
#X connect 13 0 15 0;
#X connect 14 0 13 0;
#X connect 14 1 15 1;
#X connect 15 0 19 0;
#X connect 16 0 17 0;
#X connect 17 0 48 0;
#X connect 20 0 12 0;
#X connect 20 1 13 1;
#X connect 22 0 21 0;
#X connect 23 0 21 0;
#X connect 24 0 21 0;
#X connect 25 0 21 0;
#X connect 26 0 21 0;
#X connect 27 0 21 0;
#X connect 28 0 21 0;
#X connect 29 0 21 0;
#X connect 30 0 22 0;
#X connect 31 0 23 0;
#X connect 32 0 24 0;
#X connect 33 0 25 0;
#X connect 34 0 26 0;
#X connect 35 0 27 0;
#X connect 36 0 28 0;
#X connect 37 0 29 0;
#X connect 38 0 40 0;
#X connect 39 0 38 1;
#X connect 41 0 49 0;
#X connect 42 0 43 0;
#X connect 43 0 41 0;
#X connect 44 0 41 0;
#X connect 45 0 41 0;
#X connect 47 0 46 0;
#X connect 48 2 11 0;
#X restore 175 33 pd Neopixel;
#X obj 51 345 *~;
#X obj 67 309 r reverbAmount;
#X obj 216 103 s root;
#X floatatom 215 75 5 60 80 0 - - - 0;
#X floatatom 273 78 5 0 0 0 - - - 0;
#X obj 272 102 s key;
#X floatatom 6 121 5 0 0 0 - - - 0;
#X obj 6 8 presets;
#X obj 7 238 clone -s 1 rhodney 5;
#X text 160 141 Euphorium v.3.5 bool voiceLeading selects direct or voiceLeading algorithm;
#X obj 66 389 r volume;
#X obj 6 275 *~ 0.5;
#X obj 20 421 *~;
#X obj 16 494 dac~;
#X obj 59 424 print volume;
#X connect 0 0 4 0;
#X connect 3 0 4 1;
#X connect 4 0 14 0;
#X connect 5 0 16 0;
#X connect 8 0 20 0;
#X connect 9 0 8 1;
#X connect 11 0 10 0;
#X connect 12 0 13 0;
#X connect 16 0 19 0;
#X connect 18 0 20 1;
#X connect 18 0 22 0;
#X connect 19 0 8 0;
#X connect 19 0 20 0;
#X connect 20 0 21 0;
#X connect 20 0 21 1;
