#N canvas 657 31 742 841 12;
#X obj 40 281 * 10;
#X obj 41 305 i;
#X obj 22 95 inlet;
#X obj 42 465 expr if($f1 <= $f2 \, $f3 \, if($f1 >= $f4 \, $f5 \, $f6));
#X obj 177 400 loadbang;
#X obj 150 676 spigot, f 7;
#X obj 196 639 tgl 19 1 empty debugBar debugBar 0 -10 0 12 #fcfcfc #000000 #000000 1 1;
#X obj 41 256 spigot;
#X obj 22 116 unpack f f f, f 24;
#X obj 169 270 spigot;
#X obj 22 140 == 0;
#X text 424 439 $f2=minLimit \, $f3=minValue \, $f4=topLimit \, $f5=topValue \, $f6=centerValue, f 22;
#X obj 36 711 outlet;
#X obj 44 610 pack;
#X obj 150 699 print bar-\$0;
#X obj 169 301 * 100;
#X obj 170 336 + 20;
#X obj 170 372 clip 0 127;
#X obj 22 166 t f f f;
#X obj 115 438 \$2;
#X obj 181 435 \$3;
#X obj 246 435 \$4;
#X obj 314 438 \$5;
#X obj 391 434 \$6;
#X obj 38 570 +;
#X obj 55 533 r root;
#X connect 0 0 1 0;
#X connect 1 0 3 0;
#X connect 2 0 8 0;
#X connect 3 0 24 0;
#X connect 4 0 19 0;
#X connect 4 0 20 0;
#X connect 4 0 21 0;
#X connect 4 0 22 0;
#X connect 4 0 23 0;
#X connect 5 0 14 0;
#X connect 6 0 5 1;
#X connect 7 0 0 0;
#X connect 8 0 10 0;
#X connect 8 1 7 0;
#X connect 8 2 9 0;
#X connect 9 0 15 0;
#X connect 10 0 18 0;
#X connect 13 0 12 0;
#X connect 13 0 5 0;
#X connect 15 0 16 0;
#X connect 16 0 17 0;
#X connect 17 0 13 1;
#X connect 18 0 7 1;
#X connect 18 1 9 1;
#X connect 19 0 3 1;
#X connect 20 0 3 2;
#X connect 21 0 3 3;
#X connect 22 0 3 4;
#X connect 23 0 3 5;
#X connect 24 0 13 0;
#X connect 25 0 24 1;
