#N canvas 256 81 856 658 12;
#X obj 456 185 * 10;
#X obj 456 212 i;
#X floatatom 454 485 5 0 0 0 - - - 0;
#X obj 454 520 +, f 5;
#X obj 449 129 inlet;
#X obj 454 290 spigot;
#X msg 564 260 0;
#X msg 567 294 1;
#X obj 495 172 loadbang;
#X msg 495 198 1;
#X obj 454 616 outlet;
#X obj 455 409 expr if($f1 <= $f2 \, $f3 \, if($f1 >= $f4 \, $f5 \, $f6));
#X obj 506 369 f \$1;
#X obj 558 369 \$2;
#X obj 609 369 \$3;
#X obj 662 369 \$4;
#X obj 713 369 \$5;
#X obj 506 317 loadbang;
#X obj 514 604 print;
#X obj 514 549 spigot;
#X obj 514 575 mton;
#X obj 513 282 del 150;
#X obj 411 160 moses 0;
#X obj 552 522 tgl 19 1 empty debugFader empty 0 -10 0 12 #fcfcfc #000000 #000000 0 1;
#X obj 503 440 r root;
#X obj 521 464 r key;
#X obj 503 488 +;
#X connect 0 0 1 0;
#X connect 1 0 5 0;
#X connect 2 0 3 0;
#X connect 3 0 10 0;
#X connect 3 0 19 0;
#X connect 4 0 22 0;
#X connect 5 0 6 0;
#X connect 5 0 11 0;
#X connect 5 0 21 0;
#X connect 6 0 5 1;
#X connect 7 0 5 1;
#X connect 8 0 9 0;
#X connect 9 0 5 1;
#X connect 11 0 2 0;
#X connect 12 0 11 1;
#X connect 13 0 11 2;
#X connect 14 0 11 3;
#X connect 15 0 11 4;
#X connect 16 0 11 5;
#X connect 17 0 12 0;
#X connect 17 0 13 0;
#X connect 17 0 14 0;
#X connect 17 0 15 0;
#X connect 17 0 16 0;
#X connect 19 0 20 0;
#X connect 20 0 18 0;
#X connect 21 0 7 0;
#X connect 22 1 0 0;
#X connect 23 0 19 1;
#X connect 24 0 26 0;
#X connect 25 0 26 1;
#X connect 26 0 3 1;
