#N canvas 318 123 814 822 12;
#X obj 270 252 r Led\$1;
#X obj 242 230 r AllLeds;
#X obj 307 306 outlet;
#X obj 355 306 outlet;
#X obj 259 306 outlet;
#X obj 267 283 unpack f f f;
#X connect 0 0 5 0;
#X connect 1 0 5 0;
#X connect 5 0 4 0;
#X connect 5 1 2 0;
#X connect 5 2 3 0;
