#N canvas 63 31 1000 700 12;
#X obj 100 30 inlet;
#X obj 413 39 inlet;
#X obj 413 69 f 24;
#X obj 413 94 max 1;
#X floatatom 413 119 5 1 128 0 - - - 0;
#X obj 413 144 s NumLEDs;
#X msg 212 97 0;
#X obj 100 120 r NumLEDs;
#X obj 100 145 cyclone/uzi;
#X floatatom 100 175 5 0 0 0 - - - 0;
#X obj 100 200 - 1;
#X obj 100 225 t f f;
#X obj 100 280 route list bang;
#X obj 100 310 unpack f f f;
#X floatatom 100 340 5 0 255 0 R - - 0;
#X floatatom 150 340 5 0 255 0 G - - 0;
#X floatatom 200 340 5 0 255 0 B - - 0;
#X obj 329 301 t b b b;
#X msg 297 341 0;
#X msg 333 339 0;
#X msg 410 342 0;
#X obj 101 372 f;
#X obj 148 375 f;
#X obj 197 375 f;
#X floatatom 100 410 5 0 255 0 R - - 0;
#X floatatom 150 410 5 0 255 0 G - - 0;
#X floatatom 200 410 5 0 255 0 B - - 0;
#X obj 99 471 pack f f f;
#X obj 137 501 list append;
#X obj 262 478 list;
#X obj 100 529 list trim;
#X listbox 100 550 80 0 0 0 - - - 0;
#X obj 100 590 outlet;
#X obj 100 565 spigot 0;
#X obj 192 567 r DebugLED;
#X obj 100 615 print LED_OUT;
#X obj 513 39 loadbang;
#X msg 513 64 24;
#X text 40 30 Trigger;
#X text 190 30 NumLEDs;
#X text 473 119 LED count;
#X text 393 99 reset list;
#X text 133 195 LED index (1-based);
#X text 150 222 query LED clone;
#X text 342 275 list=has data \, bang=no data;
#X text 457 353 default: black (0 0 0);
#X text 220 440 [R G B];
#X text 335 469 accumulator;
#X text 160 590 [R0 G0 B0 R1 G1 B1 ...];
#X text 553 64 default: 24 LEDs;
#X text 265 244 [clone Led 24];
#X obj 100 250 clone LedClone 24;
#X obj 100 60 t b b;
#X text 249 99 reset counter;
#X connect 0 0 52 0;
#X connect 1 0 2 0;
#X connect 2 0 3 0;
#X connect 3 0 4 0;
#X connect 4 0 5 0;
#X connect 6 0 28 1;
#X connect 7 0 8 1;
#X connect 8 2 9 0;
#X connect 9 0 10 0;
#X connect 10 0 11 0;
#X connect 11 0 51 0;
#X connect 12 0 13 0;
#X connect 12 1 17 0;
#X connect 13 0 14 0;
#X connect 13 1 15 0;
#X connect 13 2 16 0;
#X connect 14 0 21 0;
#X connect 15 0 22 0;
#X connect 16 0 23 0;
#X connect 17 0 18 0;
#X connect 17 1 19 0;
#X connect 17 2 20 0;
#X connect 18 0 21 0;
#X connect 19 0 22 0;
#X connect 20 0 23 0;
#X connect 21 0 24 0;
#X connect 22 0 25 0;
#X connect 23 0 26 0;
#X connect 24 0 27 0;
#X connect 25 0 27 1;
#X connect 26 0 27 2;
#X connect 27 0 28 0;
#X connect 28 0 28 1;
#X connect 28 0 30 0;
#X connect 29 0 28 1;
#X connect 30 0 31 0;
#X connect 31 0 33 0;
#X connect 33 0 32 0;
#X connect 33 0 35 0;
#X connect 34 0 33 1;
#X connect 36 0 37 0;
#X connect 37 0 2 0;
#X connect 51 0 12 0;
#X connect 52 0 8 0;
#X connect 52 1 6 0;
