#N canvas 63 25 1239 811 12;
#X obj 191 20 Led 0;
#X obj 191 75 pack f f f f f f f f f;
#X listbox 191 142 49 0 0 0 - - - 0;
#X listbox 190 518 144 0 0 0 - - - 0;
#X obj 88 522 pack f f;
#X floatatom 49 460 5 0 0 0 - - - 0;
#X obj 99 495 t b f;
#X obj 191 119 cyclone/zl join;
#X obj 261 97 t b a;
#X obj 235 42 t b f;
#X obj 281 43 t b f;
#X obj 235 19 Led 1;
#X obj 281 19 Led 2;
#X obj 354 75 pack f f f f f f f f f;
#X obj 399 45 t b f;
#X obj 441 45 t b f;
#X obj 354 22 Led 3;
#X obj 399 22 Led 4;
#X obj 441 22 Led 5;
#X obj 88 574 outlet;
#X obj 49 388 inlet;
#X obj 99 466 inlet;
#X obj 88 413 r UpdateLeds;
#X obj 88 438 bng 19 250 50 0 empty empty empty 0 -10 0 12 #fcfcfc #000000 #000000;
#X obj 543 75 pack f f f f f f f f f;
#X listbox 543 142 49 0 0 0 - - - 0;
#X obj 543 119 cyclone/zl join;
#X obj 613 97 t b a;
#X obj 587 45 t b f;
#X obj 633 45 t b f;
#X obj 706 75 pack f f f f f f f f f;
#X obj 749 45 t b f;
#X obj 793 45 t b f;
#X obj 245 268 pack f f f f f f f f f;
#X listbox 245 335 49 0 0 0 - - - 0;
#X obj 245 312 cyclone/zl join;
#X obj 315 290 t b a;
#X obj 289 238 t b f;
#X obj 335 238 t b f;
#X obj 408 268 pack f f f f f f f f f;
#X obj 453 238 t b f;
#X obj 495 238 t b f;
#X obj 597 268 pack f f f f f f f f f;
#X listbox 597 335 49 0 0 0 - - - 0;
#X obj 597 312 cyclone/zl join;
#X obj 667 290 t b a;
#X obj 641 238 t b f;
#X obj 687 238 t b f;
#X obj 760 268 pack f f f f f f f f f;
#X obj 805 238 t b f;
#X obj 847 238 t b f;
#X obj 543 22 Led 6;
#X obj 587 22 Led 7;
#X obj 633 22 Led 8;
#X obj 706 22 Led 9;
#X obj 749 22 Led 10;
#X obj 798 22 Led 11;
#X obj 245 215 Led 12;
#X obj 296 215 Led 13;
#X obj 356 215 Led 14;
#X obj 408 215 Led 15;
#X obj 463 215 Led 16;
#X obj 520 215 Led 17;
#X obj 597 215 Led 18;
#X obj 647 215 Led 19;
#X obj 693 215 Led 20;
#X obj 760 215 Led 21;
#X obj 810 215 Led 22;
#X obj 854 215 Led 23;
#X obj 191 189 cyclone/zl join;
#X obj 260 168 t b a;
#X obj 245 394 cyclone/zl join;
#X obj 315 369 t b a;
#X obj 190 444 cyclone/zl join;
#X obj 260 419 t b a;
#X obj 88 549 cyclone/zl join;
#X connect 0 0 1 0;
#X connect 0 1 1 1;
#X connect 0 2 1 2;
#X connect 1 0 7 0;
#X connect 2 0 69 0;
#X connect 3 0 75 1;
#X connect 4 0 75 0;
#X connect 5 0 4 0;
#X connect 6 0 4 0;
#X connect 6 1 4 1;
#X connect 7 0 2 0;
#X connect 8 0 7 0;
#X connect 8 1 7 1;
#X connect 9 0 1 0;
#X connect 9 1 1 3;
#X connect 10 0 1 0;
#X connect 10 1 1 6;
#X connect 11 0 9 0;
#X connect 11 1 1 4;
#X connect 11 2 1 5;
#X connect 12 0 10 0;
#X connect 12 1 1 7;
#X connect 12 2 1 8;
#X connect 13 0 8 0;
#X connect 14 0 13 0;
#X connect 14 1 13 3;
#X connect 15 0 13 0;
#X connect 15 1 13 6;
#X connect 16 0 13 0;
#X connect 16 1 13 1;
#X connect 16 2 13 2;
#X connect 17 0 14 0;
#X connect 17 1 13 4;
#X connect 17 2 13 5;
#X connect 18 0 15 0;
#X connect 18 1 13 7;
#X connect 18 2 13 8;
#X connect 20 0 5 0;
#X connect 21 0 6 0;
#X connect 22 0 23 0;
#X connect 23 0 4 0;
#X connect 24 0 26 0;
#X connect 25 0 70 0;
#X connect 26 0 25 0;
#X connect 27 0 26 0;
#X connect 27 1 26 1;
#X connect 28 0 24 0;
#X connect 28 1 24 3;
#X connect 29 0 24 0;
#X connect 29 1 24 6;
#X connect 30 0 27 0;
#X connect 31 0 30 0;
#X connect 31 1 30 3;
#X connect 32 0 30 0;
#X connect 32 1 30 6;
#X connect 33 0 35 0;
#X connect 34 0 71 0;
#X connect 35 0 34 0;
#X connect 36 0 35 0;
#X connect 36 1 35 1;
#X connect 37 0 33 0;
#X connect 37 1 33 3;
#X connect 38 0 33 0;
#X connect 38 1 33 6;
#X connect 39 0 36 0;
#X connect 40 0 39 0;
#X connect 40 1 39 3;
#X connect 41 0 39 0;
#X connect 41 1 39 6;
#X connect 42 0 44 0;
#X connect 43 0 72 0;
#X connect 44 0 43 0;
#X connect 45 0 44 0;
#X connect 45 1 44 1;
#X connect 46 0 42 0;
#X connect 46 1 42 3;
#X connect 47 0 42 0;
#X connect 47 1 42 6;
#X connect 48 0 45 0;
#X connect 49 0 48 0;
#X connect 49 1 48 3;
#X connect 50 0 48 0;
#X connect 50 1 48 6;
#X connect 51 0 24 0;
#X connect 51 1 24 1;
#X connect 51 2 24 2;
#X connect 52 0 28 0;
#X connect 52 1 24 4;
#X connect 52 2 24 5;
#X connect 53 0 29 0;
#X connect 53 1 24 7;
#X connect 53 2 24 8;
#X connect 54 0 30 0;
#X connect 54 1 30 1;
#X connect 54 2 30 2;
#X connect 55 0 31 0;
#X connect 55 1 30 4;
#X connect 55 2 30 5;
#X connect 56 0 32 0;
#X connect 56 1 30 7;
#X connect 56 2 30 8;
#X connect 57 0 33 0;
#X connect 57 1 33 1;
#X connect 57 2 33 2;
#X connect 58 0 37 0;
#X connect 58 1 33 4;
#X connect 58 2 33 5;
#X connect 59 0 38 0;
#X connect 59 1 33 7;
#X connect 59 2 33 8;
#X connect 60 0 39 0;
#X connect 60 1 39 1;
#X connect 60 2 39 2;
#X connect 61 0 40 0;
#X connect 61 1 39 4;
#X connect 61 2 39 5;
#X connect 62 0 41 0;
#X connect 62 1 39 7;
#X connect 62 2 39 8;
#X connect 63 0 42 0;
#X connect 63 1 42 1;
#X connect 63 2 42 2;
#X connect 64 0 46 0;
#X connect 64 1 42 4;
#X connect 64 2 42 5;
#X connect 65 0 47 0;
#X connect 65 1 42 7;
#X connect 65 2 42 8;
#X connect 66 0 48 0;
#X connect 66 1 48 1;
#X connect 66 2 48 2;
#X connect 67 0 49 0;
#X connect 67 1 48 4;
#X connect 67 2 48 5;
#X connect 68 0 50 0;
#X connect 68 1 48 7;
#X connect 68 2 48 8;
#X connect 69 0 73 0;
#X connect 70 0 69 0;
#X connect 70 1 69 1;
#X connect 71 0 74 0;
#X connect 72 0 71 0;
#X connect 72 1 71 1;
#X connect 73 0 3 0;
#X connect 74 0 73 0;
#X connect 74 1 73 1;
#X connect 75 0 19 0;
