#N canvas 318 123 600 400 12;
#X obj 100 30 inlet;
#X obj 100 320 outlet;
#X obj 100 60 route set query;
#X obj 100 120 f 0;
#X obj 150 120 f 0;
#X obj 200 120 f 0;
#X obj 270 30 r AllLeds;
#X text 30 200 Store RGB values;
#X text 30 220 Output when queried;
#X obj 100 250 pack f f f;
#X obj 100 280 list prepend list;
#X obj 100 180 t b b b;
#X obj 100 90 unpack f f f;
#X obj 100 150 pack f f f;
#X obj 270 60 unpack f f f;
#X text 30 10 Clone inlet;
#X text 350 30 Broadcast receiver;
#X text 350 60 [R G B] → all instances;
#X text 30 360 Usage:;
#X text 30 375 [N set R G B] → set LED N;
#X text 30 390 [N query] → get LED N color;
#X connect 0 0 2 0;
#X connect 2 0 12 0;
#X connect 2 1 11 0;
#X connect 3 0 13 0;
#X connect 4 0 13 1;
#X connect 5 0 13 2;
#X connect 6 0 14 0;
#X connect 9 0 10 0;
#X connect 10 0 1 0;
#X connect 11 0 9 0;
#X connect 11 1 3 0;
#X connect 11 2 4 0;
#X connect 11 2 5 0;
#X connect 12 0 3 1;
#X connect 12 1 4 1;
#X connect 12 2 5 1;
#X connect 13 0 11 0;
#X connect 14 0 3 1;
#X connect 14 1 4 1;
#X connect 14 2 5 1;