#N canvas 562 25 814 811 12;
#X obj 270 252 r Led\$1;
#X obj 242 230 r AllLeds;
#X obj 379 247 inlet;
#X obj 269 381 pack f f f;
#X obj 269 442 outlet;
#X obj 380 467 expr if (($f2 % 3) == 0 \, $f1*2 \, $f1);
#X floatatom 379 438 5 0 0 0 - - - 0;
#X obj 380 491 print;
#X floatatom 623 438 5 0 0 0 - - - 0;
#X obj 267 283 unpack f f f f;
#X connect 0 0 9 0;
#X connect 1 0 9 0;
#X connect 2 0 9 0;
#X connect 3 0 4 0;
#X connect 5 0 7 0;
#X connect 6 0 5 0;
#X connect 8 0 5 1;
#X connect 9 1 3 0;
#X connect 9 2 3 1;
#X connect 9 3 3 2;
