#N canvas 430 221 1319 831 12;
#X obj 523 185 text define state;
#X obj 142 465 text set state 0;
#X obj 178 321 text search state;
#X obj 178 277 unpack s f;
#X listbox 178 299 8 0 0 0 - - - 0;
#X floatatom 245 299 5 0 0 0 - - - 0;
#X floatatom 178 418 5 0 0 0 - - - 0;
#X obj 178 441 + 1;
#X msg 523 148 clear;
#X text 39 272 Receive parameter and write it to the top of the text file, f 14;
#X text 304 267 Search for existing parameter entry and return its line number in the text file, f 18;
#X obj 178 345 moses 0;
#X obj 178 369 bng 19 250 50 0 empty empty empty 0 -10 0 12 #fcfcfc #000000 #000000;
#X obj 179 393 text size state;
#X text 305 362 If text file is empty \, add parameter to line 1 \; else add a new line and store the parameter, f 27;
#X text 824 149 load presets;
#X text 478 124 save presets;
#X obj 661 259 print;
#X obj 757 185 bng 19 250 50 0 empty empty empty 0 -10 0 12 #fcfcfc #000000 #000000;
#X obj 704 230 text sequence state;
#X msg 704 184 line 0;
#X msg 704 259 \; \$1 \$2;
#X obj 1157 231 s presets;
#X obj 1063 325 loadbang;
#X msg 1078 386 disconnect;
#X obj 1064 527 netsend -u -b;
#X obj 1064 553 print connection;
#X msg 1064 353 connect 192.168.7.2 7561;
#X obj 1077 500 r toLocal;
#X obj 940 268 print received;
#X obj 1050 204 route save load;
#X obj 1051 231 s save;
#X obj 1107 285 s load;
#X obj 573 100 r save;
#X obj 573 124 bng 19 250 50 0 empty empty empty 0 -10 0 12 #fcfcfc #000000 #000000;
#X obj 769 124 bng 19 250 50 0 empty empty empty 0 -10 0 12 #fcfcfc #000000 #000000;
#X obj 769 100 r load;
#X obj 211 246 print preset;
#X obj 1121 263 print saved;
#X obj 1050 173 list trim list;
#X obj 144 183 list;
#X obj 141 129 r presets;
#X msg 200 195 \; \$1 \$2;
#X msg 573 150 write state.txt;
#X msg 704 149 read state.txt;
#X obj 699 47 t b b;
#X obj 701 17 loadbang;
#X obj 725 73 s initialiseTrill;
#X obj 1051 58 r NetsendPort;
#X msg 1051 82 listen \$1;
#X obj 1052 142 netreceive -u 7561;
#X connect 2 0 11 0;
#X connect 3 0 4 0;
#X connect 3 1 5 0;
#X connect 4 0 2 0;
#X connect 6 0 7 0;
#X connect 7 0 1 1;
#X connect 8 0 0 0;
#X connect 11 0 12 0;
#X connect 11 1 1 1;
#X connect 12 0 13 0;
#X connect 13 0 6 0;
#X connect 18 0 19 0;
#X connect 19 0 17 0;
#X connect 19 0 21 0;
#X connect 20 0 19 0;
#X connect 24 0 25 0;
#X connect 25 0 26 0;
#X connect 27 0 25 0;
#X connect 28 0 25 0;
#X connect 30 0 31 0;
#X connect 30 1 32 0;
#X connect 30 1 38 0;
#X connect 30 2 22 0;
#X connect 33 0 34 0;
#X connect 34 0 43 0;
#X connect 35 0 44 0;
#X connect 36 0 35 0;
#X connect 39 0 30 0;
#X connect 40 0 3 0;
#X connect 40 0 1 0;
#X connect 40 0 37 0;
#X connect 40 0 42 0;
#X connect 41 0 40 0;
#X connect 43 0 0 0;
#X connect 44 0 0 0;
#X connect 44 0 20 0;
#X connect 44 0 18 0;
#X connect 45 0 44 0;
#X connect 45 1 47 0;
#X connect 46 0 45 0;
#X connect 48 0 49 0;
#X connect 50 0 39 0;
#X connect 50 0 29 0;
