#N canvas 841 175 771 607 12;
#X obj 79 386 dac~;
#X obj 79 208 *~ 0.5;
#X obj 106 249 rev3~ 100 90 3000 20;
#X obj 103 331 *~;
#X obj 140 333 *~;
#X obj 119 294 r reverbAmount;
#X obj 79 118 pack f f f;
#X obj 301 151 knob 50 0 1 0 0 empty empty #dfdfdf #7c7c7c black 1 0 0 0 1 320 0 0 0;
#X obj 368 150 knob 50 0 2000 0 0 empty empty #dfdfdf #7c7c7c black 1 0 0 0 1 320 0 0 0;
#X obj 432 150 knob 50 0 4000 0 0 empty empty #dfdfdf #7c7c7c black 1 0 0 0 1 320 0 0 0;
#X obj 498 151 knob 50 0 127 0 0 empty empty #dfdfdf #7c7c7c black 1 0 0 0 1 320 0 0 0;
#X obj 301 206 s tone;
#X obj 368 210 s decay;
#X obj 431 211 s vib-freq;
#X obj 509 216 s vib-depth;
#X obj 596 215 s mod;
#X obj 648 215 s adsr;
#X obj 592 153 knob 50 0 10 0 0 empty empty #dfdfdf #7c7c7c black 1 0 0 0 1 320 0 0 0;
#X obj 658 154 knob 50 0 1000 0 0 empty empty #dfdfdf #7c7c7c black 1 0 0 0 1 320 0 0 0;
#X obj 254 323 osc~ 399;
#X obj 79 17 notein;
#X floatatom 396 452 8 0 0 0 - - - 24;
#X obj 375 394 ctlin;
#X obj 589 93 / 127;
#X obj 664 93 * 10, f 7;
#X obj 278 79 ctlin 23;
#X obj 351 77 ctlin 83;
#X obj 432 63 ctlin 10;
#X obj 509 63 ctlin 12;
#X obj 589 63 ctlin 13;
#X obj 678 63 ctlin 91;
#X obj 589 119 * 10;
#X obj 432 89 mtof;
#X obj 351 103 * 19;
#X obj 79 166 clone -s 1 rhodney 16;
#X obj 79 70 poly 16;
#X obj 179 40 notein;
#X obj 179 66 stripnote;
#X obj 321 118 / 256;
#X connect 1 0 0 0;
#X connect 1 0 2 0;
#X connect 2 0 3 0;
#X connect 2 1 4 0;
#X connect 3 0 0 0;
#X connect 4 0 0 1;
#X connect 5 0 3 1;
#X connect 5 0 4 1;
#X connect 6 0 34 0;
#X connect 7 0 11 0;
#X connect 8 0 12 0;
#X connect 9 0 13 0;
#X connect 10 0 14 0;
#X connect 17 0 15 0;
#X connect 18 0 16 0;
#X connect 20 0 35 0;
#X connect 20 1 35 1;
#X connect 22 1 21 0;
#X connect 23 0 31 0;
#X connect 24 0 18 0;
#X connect 25 0 38 0;
#X connect 26 0 33 0;
#X connect 27 0 32 0;
#X connect 28 0 10 0;
#X connect 29 0 23 0;
#X connect 30 0 24 0;
#X connect 31 0 17 0;
#X connect 32 0 9 0;
#X connect 33 0 8 0;
#X connect 34 0 1 0;
#X connect 35 0 6 0;
#X connect 35 1 6 1;
#X connect 35 2 6 2;
#X connect 36 0 37 0;
#X connect 36 1 37 1;
#X connect 37 1 38 0;
#X connect 38 0 7 0;
