#N canvas 400 240 464 347 12;
#X obj 128 29 inlet;
#X obj 81 225 outlet;
#X obj 191 211 outlet;
#X obj 213 20 tgl 19 0 empty voiceLeading voiceLeading 0 -10 0 12 #fcfcfc #000000 #000000 0 1;
#X obj 89 162 spigot;
#X obj 190 154 spigot;
#X obj 242 86 == 0;
#X obj 130 132 tgl 19 0 empty empty empty 0 -10 0 12 #fcfcfc #000000 #000000 0 1;
#X obj 228 122 tgl 19 0 empty empty empty 0 -10 0 12 #fcfcfc #000000 #000000 0 1;
#X obj 128 96 == 1;
#X connect 0 0 4 0;
#X connect 0 0 5 0;
#X connect 3 0 6 0;
#X connect 3 0 9 0;
#X connect 4 0 1 0;
#X connect 5 0 2 0;
#X connect 6 0 8 0;
#X connect 7 0 4 1;
#X connect 8 0 5 1;
#X connect 9 0 7 0;
