#N canvas 289 179 900 714 12;
#X obj 50 50 loadbang;
#X msg 50 75 read chords.txt;
#X obj 50 100 text define chords;
#X obj 200 150 metro 250;
#X obj 200 100 tgl 19 1 empty playSeq Play 17 7 0 10 #fcfcfc #000000 #000000 0 1;
#X obj 200 200 counter 0 63;
#X floatatom 200 250 5 0 0 0 pulseCount - - 0;
#X obj 200 300 / 8;
#X obj 200 325 i;
#X floatatom 200 350 5 0 0 0 chordStep - - 0;
#X obj 200 400 text get chords;
#X obj 200 450 unpack f f;
#X floatatom 200 500 5 0 0 0 step - - 0;
#X floatatom 279 500 5 0 0 0 chord - - 0;
#X obj 163 678 s root;
#X obj 350 150 bng 19 250 50 0 empty empty reset 17 7 0 10 #fcfcfc #000000 #000000;
#X msg 287 170 0;
#X obj 500 100 hsl 128 15 125 1000 0 0 empty empty tempo 20 7 1 10 #fcfcfc #000000 #000000 0 1;
#X obj 200 175 i;
#X obj 76 608 print chord;
#X text 50 25 Chord Sequencer - Blinking Beat;
#X text 500 75 Tempo (ms per pulse);
#X text 200 525 Step;
#X text 310 548 Chord;
#X text 350 125 Reset;
#X obj 256 648 pack s f;
#X obj 442 568 pack s f;
#X msg 462 507 symbol key;
#X msg 472 472 0;
#X obj 254 676 s forTouchOSC;
#X obj 432 610 s forTouchOSC;
#X text 515 469 Send root to TouchOSC;
#X text 532 403 Send key=0 to TouchOSC;
#X obj 350 300 % 8;
#X floatatom 350 350 5 0 0 0 pulse - - 0;
#X obj 350 400 % 2;
#X floatatom 350 450 5 0 0 0 onOff - - 0;
#X obj 348 500 sel 0 1;
#X msg 364 565 0;
#X obj 412 561 f;
#X obj 350 600 pack s f;
#X obj 404 681 s forTouchOSC;
#X text 465 356 Pulse in chord (0-7);
#X text 350 475 On/Off toggle;
#X text 200 275 Pulse counter (0-63);
#X text 200 375 Chord number (0-7);
#X text 554 506 Send chord or 0;
#X obj 565 331 / 8;
#X obj 565 356 i;
#X floatatom 565 381 5 0 0 0 beat - - 0;
#X text 565 306 Beat number (0-7);
#X text 577 424 Beat in sequence;
#X msg 243 594 symbol root\$1;
#X connect 0 0 1 0;
#X connect 1 0 2 0;
#X connect 3 0 5 0;
#X connect 4 0 3 0;
#X connect 5 0 6 0;
#X connect 6 0 7 0;
#X connect 6 0 33 0;
#X connect 6 0 47 0;
#X connect 7 0 8 0;
#X connect 8 0 9 0;
#X connect 9 0 10 0;
#X connect 10 0 11 0;
#X connect 11 0 12 0;
#X connect 11 1 13 0;
#X connect 13 0 14 0;
#X connect 13 0 19 0;
#X connect 13 0 52 0;
#X connect 13 0 28 0;
#X connect 13 0 39 0;
#X connect 15 0 16 0;
#X connect 16 0 5 0;
#X connect 17 0 18 0;
#X connect 18 0 3 1;
#X connect 25 0 29 0;
#X connect 26 0 30 0;
#X connect 27 0 26 0;
#X connect 28 0 27 0;
#X connect 28 0 26 1;
#X connect 33 0 34 0;
#X connect 34 0 35 0;
#X connect 35 0 36 0;
#X connect 36 0 37 0;
#X connect 36 0 25 1;
#X connect 37 0 38 0;
#X connect 37 1 39 0;
#X connect 38 0 40 1;
#X connect 39 0 40 1;
#X connect 47 0 48 0;
#X connect 48 0 49 0;
#X connect 52 0 25 0;
