#N canvas 39 37 973 309 12;
#X declare -path /cyclone;
#X listbox 12 10 36 0 0 2 - artist - 24;
#X obj 244 97 bng 40 250 50 0 reset empty Stop 0 -10 0 12 #ff0400 #c7c6ff #000000;
#X obj 290 97 bng 40 250 50 0 play empty Play 0 -10 0 12 #00ff04 #000000 #000000;
#X listbox 473 108 4 0 0 0 Next\ Chord nextChord - 16;
#X listbox 473 81 4 0 0 0 Current\ Chord currentChord - 16;
#X floatatom 10 117 5 0 0 2 BPM BPM metroBPM 24;
#X obj 198 97 bng 40 250 50 0 loadSong empty Load 0 -10 0 12 #c7c6ff #c7c6ff #000000;
#X obj 152 97 bng 40 250 50 0 openPanel empty Open 0 -10 0 12 #c6feff #c7c6ff #000000;
#X obj 879 70 bng 40 250 50 0 led_6 L11 vii 13 20 0 12 #fcfcfc #404040 #404040;
#X obj 873 179 bng 40 250 50 0 led_1 L7 V 17 20 0 12 #fcfcfc #404040 #404040;
#X obj 846 126 bng 40 250 50 0 led_2 L2 ii 13 20 0 12 #fcfcfc #404040 #404040;
#X obj 817 71 bng 40 250 50 0 led_3 L9 vi 13 20 0 12 #fcfcfc #404040 #404040;
#X obj 860 12 bng 40 250 50 0 led_5 L3 iii 13 20 0 12 #fcfcfc #404040 #404040;
#X obj 904 235 bng 40 250 50 0 led_0 L0 I 17 20 0 12 #fcfcfc #404040 #404040;
#X obj 796 14 bng 40 250 50 0 led_4 L5 IV 13 20 0 12 #fcfcfc #f8d8fc #404040;
#N canvas 137 268 967 645 metronome 1;
#X obj 406 57 sel 0 1 2 3;
#X obj 406 34 r barLeds;
#X obj 436 530 dac~;
#X obj 400 414 *~;
#X msg 467 267 0;
#X obj 472 416 *~;
#X obj 433 292 tgl 19 0 empty empty empty 0 -10 0 12 #fcfcfc #000000 #000000 0 1;
#X msg 674 290 0;
#X obj 619 372 tgl 19 0 empty empty empty 0 -10 0 12 #fcfcfc #000000 #000000 0 1;
#X obj 672 266 delay 100;
#X obj 475 327 osc~ 800;
#X obj 467 243 delay 100;
#X obj 360 336 osc~ 1000;
#X obj 442 439 +~;
#X obj 458 494 *~;
#X obj 499 466 vsl 19 162 0 1 0 0 empty empty empty 0 -9 0 12 #fcfcfc #000000 #000000 0 1;
#X floatatom 354 210 5 0 0 0 - - - 0;
#X obj 354 233 * 2;
#X floatatom 546 214 5 0 0 0 - - - 0;
#X obj 353 188 r metroPitch;
#X obj 541 185 r metroTickLength;
#X obj 503 435 r metroVol;
#X obj 438 376 *~;
#X obj 360 92 s be1;
#X obj 414 86 s be2;
#X obj 470 93 s be3;
#X obj 533 84 s be4;
#X obj 110 115 bng 19 250 50 0 empty be1 empty 0 -10 0 12 #fcfcfc #000000 #000000;
#X obj 135 115 bng 19 250 50 0 empty be2 empty 0 -10 0 12 #fcfcfc #000000 #000000;
#X obj 159 115 bng 19 250 50 0 empty be3 empty 0 -10 0 12 #fcfcfc #000000 #000000;
#X obj 184 115 bng 19 250 50 0 empty be4 empty 0 -10 0 12 #fcfcfc #000000 #000000;
#X obj 110 173 nbx 5 17 0 4000 0 1 metroPitch empty Metronome\ Pitch 0 -10 0 12 #fcfcfc #000000 #000000 2009 256;
#X obj 226 174 nbx 5 17 0 100 0 1 metroTickLength empty Metronome\ Tick 0 -10 0 12 #fcfcfc #000000 #000000 50 256;
#X obj 224 121 nbx 5 17 0 1 0 1 metroVol empty Metronome\ Volume 0 -10 0 12 #fcfcfc #000000 #000000 1 256;
#X msg 665 97 \; metroPitch 2000 \; metroTickLength 50 \; metroVol 0.05 \;;
#X obj 665 75 loadbang;
#X connect 0 0 6 0;
#X connect 0 0 11 0;
#X connect 0 0 23 0;
#X connect 0 1 8 0;
#X connect 0 1 9 0;
#X connect 0 1 24 0;
#X connect 0 2 8 0;
#X connect 0 2 9 0;
#X connect 0 2 25 0;
#X connect 0 3 8 0;
#X connect 0 3 9 0;
#X connect 0 3 26 0;
#X connect 1 0 0 0;
#X connect 3 0 13 0;
#X connect 4 0 6 0;
#X connect 5 0 13 1;
#X connect 6 0 3 1;
#X connect 7 0 8 0;
#X connect 8 0 5 1;
#X connect 9 0 7 0;
#X connect 10 0 22 1;
#X connect 10 0 5 0;
#X connect 11 0 4 0;
#X connect 12 0 22 0;
#X connect 12 0 3 0;
#X connect 13 0 14 0;
#X connect 14 0 2 0;
#X connect 15 0 14 1;
#X connect 16 0 17 0;
#X connect 16 0 10 0;
#X connect 17 0 12 0;
#X connect 18 0 11 1;
#X connect 18 0 9 1;
#X connect 19 0 16 0;
#X connect 20 0 18 0;
#X connect 21 0 15 0;
#X connect 22 0 3 0;
#X connect 22 0 5 0;
#X connect 35 0 34 0;
#X coords 0 -1 1 1 250 120 2 100 100;
#X restore 528 10 pd metronome;
#X listbox 11 179 7 0 0 2 Key songKey - 24;
#X listbox 11 44 36 0 0 2 - song - 24;
#X listbox 360 145 36 0 0 2 - songLine - 16;
#N canvas 5 75 1399 678 guts 1;
#X obj 24 333 text search song;
#X obj 188 332 text search song;
#X obj 188 356 text get song;
#X obj 23 478 text search song;
#X obj 24 381 s artist;
#X obj 188 380 s song;
#X obj 23 525 s BPM;
#X obj 22 280 bng 19 250 50 0 empty loadSong loadSong 0 -10 0 12 #fcfcfc #000000 #000000;
#X obj 189 281 bng 19 250 50 0 empty loadSong loadSong 0 -10 0 12 #fcfcfc #000000 #000000;
#X obj 24 430 bng 19 250 50 0 empty loadSong loadSong 0 -10 0 12 #fcfcfc #000000 #000000;
#X msg 23 454 symbol BPM:;
#X obj 24 357 text get song;
#X obj 23 502 text get song 1;
#X floatatom 527 306 10 0 0 0 - - - 0;
#X obj 520 281 expr 60000 / $f1;
#X obj 366 335 metro;
#X obj 27 626 text search song;
#X obj 28 578 bng 19 250 50 0 empty loadSong loadSong 0 -10 0 12 #fcfcfc #000000 #000000;
#X obj 27 650 text get song 1;
#X msg 27 602 symbol barCount:;
#X obj 27 673 s barCount;
#X obj 527 331 r barCount;
#X floatatom 527 355 5 0 0 0 - - - 0;
#X floatatom 355 456 10 0 0 0 - - - 0;
#X obj 367 357 bng 19 250 50 0 empty empty empty 0 -10 0 12 #fcfcfc #000000 #000000;
#X obj 365 313 tgl 19 0 empty empty empty 0 -10 0 12 #fcfcfc #000000 #000000 0 1;
#X obj 431 396 * 4;
#X obj 360 502 mod 4;
#X floatatom 360 526 5 0 0 0 - - - 0;
#X obj 471 632 text search song;
#X msg 472 582 symbol b\$1;
#X obj 471 656 text get song 1;
#X listbox 471 608 4 0 0 0 - - - 0;
#X obj 441 415 == 0;
#X obj 441 439 sel 1;
#X obj 443 461 bng 19 250 50 0 empty empty empty 0 -10 0 12 #fcfcfc #000000 #000000;
#X obj 389 366 r reset;
#X obj 494 402 r reset;
#X msg 363 289 0;
#X obj 363 266 r reset;
#X obj 419 266 r play;
#X obj 471 680 s currentChord;
#X obj 603 634 text search song;
#X msg 609 585 symbol b\$1;
#X obj 603 658 text get song 1;
#X listbox 606 610 4 0 0 0 - - - 0;
#X obj 589 556 + 1;
#X obj 605 682 s nextChord;
#X obj 333 552 s barLeds;
#X obj 519 257 r metroBPM;
#X obj 183 475 text search song;
#X obj 184 424 bng 19 250 50 0 empty loadSong loadSong 0 -10 0 12 #fcfcfc #000000 #000000;
#X obj 181 570 s songKey;
#X obj 182 501 text get song 1;
#X listbox 190 535 20 0 0 0 - - - 0;
#X obj 389 390 t b f;
#X obj 339 391 s beat;
#X obj 333 659 text search song;
#X listbox 333 635 15 0 0 0 - - - 0;
#X msg 334 609 symbol l\$1;
#X obj 333 683 text get song;
#X obj 332 706 s songLine;
#X obj 14 213 text define song;
#X obj 14 156 openpanel;
#X msg 14 178 read -c \$1;
#X obj 7 2 declare -path /cyclone;
#X obj 14 133 r openPanel;
#X obj 172 151 text define -k keys;
#A set C 0 \; Cm 0 \; Cmaj7 0 \; C7 0 \; Csus 0 \; C# 1 \; C#m 1 \; Db 1 \; Dbm 1 \; D 2 \; Dm 2 \; Dmaj7 2 \; D7 2 \; Dsus 2 \; E 4 \; Em 4 \; Emaj7 4 \; E7 4 \; F 5 \; Fm 5 \; F# 6 \; F#m 6 \; Gb 6 \; G 7 \; Gm 7 \; Gmaj7 7 \; G7 7 \; A 9 \; Am 9 \; Am7 9 \; Amaj7 9 \; A7 9 \; Bb 10 \; Bbm 10 \; B 11 \; Bm 11;
#X msg 195 102 read -c chords.txt;
#X obj 195 126 text define -k chord_dict;
#A set C 0 \; Cm 0 \; Cmaj7 0 \; C7 0 \; Csus 0 \; C# 1 \; C#m 1 \; Db 1 \; Dbm 1 \; D 2 \; Dm 2 \; Dmaj7 2 \; D7 2 \; Dsus 2 \; E 4 \; Em 4 \; Emaj7 4 \; E7 4 \; F 5 \; Fm 5 \; F# 6 \; F#m 6 \; Gb 6 \; G 7 \; Gm 7 \; Gmaj7 7 \; G7 7 \; A 9 \; Am 9 \; Am7 9 \; Amaj7 9 \; A7 9 \; Bb 10 \; Bbm 10 \; B 11 \; Bm 11;
#X obj 195 80 loadbang;
#X obj 738 13 r nextChord;
#X obj 738 37 text search chord_dict;
#X obj 738 61 text get chord_dict;
#X obj 738 85 unpack s f;
#X listbox 738 109 4 0 0 0 - - - 0;
#X floatatom 804 109 5 0 0 0 - - - 0;
#X obj 903 38 text search chord_dict;
#X obj 903 62 text get chord_dict;
#X obj 903 86 unpack s f;
#X listbox 903 110 4 0 0 0 - - - 0;
#X floatatom 966 111 5 0 0 0 - - - 0;
#X obj 903 14 r songKey;
#X obj 873 165 -;
#X obj 873 189 + 12;
#X obj 873 213 % 12;
#X obj 1025 112 r beat;
#X obj 889 265 f;
#X floatatom 884 293 5 0 0 0 - - - 0;
#X obj 825 466 bng 40 250 50 0 empty empty empty 0 -10 0 12 #fcfcfc #dce4fc #fcfcfc;
#X msg 822 443 color 0 8 0;
#X obj 1116 45 text search chord_dict;
#X obj 1116 69 text get chord_dict;
#X obj 1116 93 unpack s f;
#X listbox 1116 117 4 0 0 0 - - - 0;
#X floatatom 1182 117 5 0 0 0 - - - 0;
#X obj 1281 46 text search chord_dict;
#X obj 1281 70 text get chord_dict;
#X obj 1281 94 unpack s f;
#X listbox 1281 118 4 0 0 0 - - - 0;
#X floatatom 1344 119 5 0 0 0 - - - 0;
#X obj 1281 22 r songKey;
#X obj 1260 165 -;
#X obj 1260 189 + 12;
#X obj 1260 213 % 12;
#X obj 1116 21 r currentChord;
#X msg 1076 367 \; L0 color 0 2 2 \; L2 color 0 2 2 \; L3 color 0 2 2 \; L5 color 0 2 2 \; L7 color 0 2 2 \; L9 color 0 2 2 \; L11 color 0 2 2 \;;
#X msg 1176 317 \; L\$1 color 6 2 2 \;;
#X obj 1075 336 sel 0;
#X msg 884 319 \; L\$1 bang \; L\$1 color 0 9 2;
#X obj 1172 260 f;
#X obj 1028 136 t b f f;
#X obj 1051 208 sel 0;
#X obj 1182 201 bng 19 250 50 0 empty empty empty 0 -10 0 12 #fcfcfc #000000 #000000;
#X obj 985 275 bng 19 250 50 0 empty empty empty 0 -10 0 12 #fcfcfc #000000 #000000;
#X obj 1039 348 bng 19 250 50 0 empty empty empty 0 -10 0 12 #fcfcfc #000000 #000000;
#X msg 417 289 1;
#X obj 527 378 t f f;
#X obj 489 551 t f f f;
#X floatatom 510 531 5 0 0 0 - - - 0;
#X msg 517 456 0;
#X obj 498 427 t b b;
#X obj 494 488 counter;
#X obj 1051 184 mod 3;
#X obj 1074 313 mod 3;
#X msg 23 306 symbol Artist:;
#X msg 187 305 symbol Song:;
#X msg 182 448 symbol Key:;
#X obj 340 430 counter 0 23;
#X connect 0 0 11 0;
#X connect 1 0 2 0;
#X connect 2 0 5 0;
#X connect 3 0 12 0;
#X connect 7 0 125 0;
#X connect 8 0 126 0;
#X connect 9 0 10 0;
#X connect 10 0 3 0;
#X connect 11 0 4 0;
#X connect 12 0 6 0;
#X connect 13 0 15 1;
#X connect 14 0 13 0;
#X connect 15 0 24 0;
#X connect 16 0 18 0;
#X connect 17 0 19 0;
#X connect 18 0 20 0;
#X connect 19 0 16 0;
#X connect 21 0 22 0;
#X connect 22 0 117 0;
#X connect 23 0 27 0;
#X connect 24 0 56 0;
#X connect 24 0 128 0;
#X connect 25 0 15 0;
#X connect 26 0 128 4;
#X connect 27 0 28 0;
#X connect 28 0 33 0;
#X connect 28 0 48 0;
#X connect 29 0 31 0;
#X connect 30 0 32 0;
#X connect 31 0 41 0;
#X connect 32 0 29 0;
#X connect 33 0 34 0;
#X connect 34 0 35 0;
#X connect 35 0 122 0;
#X connect 36 0 55 0;
#X connect 37 0 121 0;
#X connect 38 0 25 0;
#X connect 39 0 38 0;
#X connect 40 0 116 0;
#X connect 42 0 44 0;
#X connect 43 0 45 0;
#X connect 44 0 47 0;
#X connect 45 0 42 0;
#X connect 46 0 43 0;
#X connect 49 0 14 0;
#X connect 50 0 53 0;
#X connect 51 0 127 0;
#X connect 53 0 52 0;
#X connect 53 0 54 0;
#X connect 55 0 128 0;
#X connect 55 1 128 2;
#X connect 57 0 60 0;
#X connect 58 0 57 0;
#X connect 59 0 58 0;
#X connect 60 0 61 0;
#X connect 63 0 64 0;
#X connect 64 0 62 0;
#X connect 66 0 63 0;
#X connect 68 0 69 0;
#X connect 68 0 67 0;
#X connect 70 0 68 0;
#X connect 71 0 72 0;
#X connect 72 0 73 0;
#X connect 73 0 74 0;
#X connect 74 0 75 0;
#X connect 74 1 76 0;
#X connect 76 0 83 0;
#X connect 77 0 78 0;
#X connect 78 0 79 0;
#X connect 79 0 80 0;
#X connect 79 1 81 0;
#X connect 81 0 83 1;
#X connect 82 0 77 0;
#X connect 83 0 84 0;
#X connect 84 0 85 0;
#X connect 85 0 87 1;
#X connect 86 0 111 0;
#X connect 87 0 88 0;
#X connect 88 0 109 0;
#X connect 88 0 114 0;
#X connect 90 0 89 0;
#X connect 91 0 92 0;
#X connect 92 0 93 0;
#X connect 93 0 94 0;
#X connect 93 1 95 0;
#X connect 95 0 102 0;
#X connect 95 0 113 0;
#X connect 96 0 97 0;
#X connect 97 0 98 0;
#X connect 98 0 99 0;
#X connect 98 1 100 0;
#X connect 100 0 102 1;
#X connect 101 0 96 0;
#X connect 102 0 103 0;
#X connect 103 0 104 0;
#X connect 104 0 110 1;
#X connect 105 0 91 0;
#X connect 108 0 106 0;
#X connect 108 0 115 0;
#X connect 111 0 87 0;
#X connect 111 1 123 0;
#X connect 111 2 124 0;
#X connect 112 0 110 0;
#X connect 116 0 25 0;
#X connect 117 0 26 0;
#X connect 117 1 122 4;
#X connect 118 0 59 0;
#X connect 118 1 30 0;
#X connect 118 2 46 0;
#X connect 120 0 122 2;
#X connect 121 1 120 0;
#X connect 122 0 118 0;
#X connect 122 0 119 0;
#X connect 123 0 112 0;
#X connect 124 0 108 0;
#X connect 125 0 0 0;
#X connect 126 0 1 0;
#X connect 127 0 50 0;
#X connect 128 0 23 0;
#X restore 251 242 pd guts;
