#N canvas 935 254 870 711 12;
#X declare -path else;
#X declare -lib else;
#X obj 5 58 r root;
#X floatatom 124 237 3 0 0 0 - - - 0;
#X floatatom 252 231 3 0 0 0 - - - 0;
#X floatatom 371 237 3 0 0 0 - - - 0;
#X listbox 186 567 13 0 0 0 - - - 0;
#X obj 123 446 pack;
#X obj 123 412 makenote 100 250;
#X obj 183 538 pack f f f;
#X obj 368 409 makenote 100 250;
#X obj 241 436 pack;
#X obj 373 433 pack;
#X obj 493 409 makenote 100 250;
#X obj 494 431 pack;
#X floatatom 494 231 3 0 0 0 - - - 0;
#X obj 123 264 f, f 2;
#X obj 241 254 f, f 2;
#X obj 371 260 f, f 2;
#X obj 494 253 f, f 2;
#X obj 100 195 bng 19 250 50 0 empty S-0 S-0 0 -10 0 12 #fcfcfc #000000 #000000;
#X obj 228 188 bng 19 250 50 0 empty S-1 S-1 0 -10 0 12 #fcfcfc #000000 #000000;
#X obj 349 194 bng 19 250 50 0 empty S-2 S-2 0 -10 0 12 #fcfcfc #000000 #000000;
#X obj 469 189 bng 19 250 50 0 empty S-3 S-3 0 -10 0 12 #fcfcfc #000000 #000000;
#X floatatom 619 228 3 0 0 0 - - - 0;
#X obj 619 251 f, f 2;
#X obj 124 133 t f f f f f, f 71;
#X obj 618 410 makenote 100 250;
#X obj 619 432 pack;
#X obj 241 412 makenote 100 250;
#X obj 124 215 + 0;
#X obj 252 208 + 3;
#X obj 371 213 + 4;
#X obj 494 208 + 7;
#X obj 619 206 + 12;
#X obj 594 189 bng 19 250 50 0 empty S-4 S-4 0 -10 0 12 #fcfcfc #000000 #000000;
#N canvas 723 48 717 467 MidiRouting 1;
#X obj 14 94 s S-0;
#X obj 58 93 s S-1;
#X obj 99 93 s S-2;
#X obj 139 94 s S-3;
#X obj 26 34 stripnote;
#X msg 452 305 maj;
#X msg 493 307 dim;
#X msg 525 307 aug;
#X msg 626 309 mm7;
#X msg 557 307 MM7;
#X msg 589 308 Mm7;
#X obj 454 364 s chord;
#X obj 17 61 sel 50 51 54 52 53, f 28;
#X obj 182 92 s S-4;
#X obj 36 223 s root;
#X obj 12 178 moses 59;
#X obj 12 145 stripnote;
#X floatatom 64 203 5 0 0 0 - - - 0;
#X obj 26 10 notein 0;
#X obj 12 121 notein 0;
#X msg 233 121 decay \$1;
#X msg 308 120 timbre \$1;
#X obj 300 193 s params;
#X msg 382 120 morph \$1;
#X obj 233 27 / 127;
#X obj 308 96 / 127;
#X obj 382 99 / 127;
#X obj 233 5 ctlin 41;
#X obj 308 72 ctlin 42;
#X obj 382 76 ctlin 43;
#X obj 265 51 polytouchin;
#X obj 233 99 + 0.5;
#X obj 265 74 / 127;
#X connect 4 0 12 0;
#X connect 5 0 11 0;
#X connect 6 0 11 0;
#X connect 7 0 11 0;
#X connect 8 0 11 0;
#X connect 9 0 11 0;
#X connect 10 0 11 0;
#X connect 12 0 0 0;
#X connect 12 1 1 0;
#X connect 12 2 2 0;
#X connect 12 3 3 0;
#X connect 12 4 13 0;
#X connect 15 1 17 0;
#X connect 15 1 14 0;
#X connect 16 0 15 0;
#X connect 17 0 14 0;
#X connect 18 0 4 0;
#X connect 18 1 4 1;
#X connect 19 0 16 0;
#X connect 19 1 16 1;
#X connect 20 0 22 0;
#X connect 21 0 22 0;
#X connect 23 0 22 0;
#X connect 24 0 31 0;
#X connect 25 0 21 0;
#X connect 26 0 23 0;
#X connect 27 0 24 0;
#X connect 28 0 25 0;
#X connect 29 0 26 0;
#X connect 30 0 32 0;
#X connect 31 0 20 0;
#X connect 32 0 31 1;
#X restore 5 33 pd MidiRouting;
#X obj 3 411 makenote 100 250;
#X obj 3 438 pack;
#X obj 5 110 - 12;
#X obj 146 263 mton;
#X listbox 147 284 3 0 0 0 - - - 0;
#X obj 263 255 mton;
#X listbox 263 276 3 0 0 0 - - - 0;
#X obj 392 261 mton;
#X listbox 392 282 3 0 0 0 - - - 0;
#X obj 514 254 mton;
#X listbox 514 275 3 0 0 0 - - - 0;
#X obj 641 252 mton;
#X listbox 641 273 3 0 0 0 - - - 0;
#X obj 183 481 poly 4 1;
#X obj 177 668 dac~;
#X obj 6 9 declare -path else;
#X obj 187 631 *~ 0.2;
#X obj 5 82 t f f;
#X obj 185 595 clone -s 1 polyplaits 4;
#X obj 139 10 declare -lib else;
#X connect 0 0 52 0;
#X connect 1 0 14 1;
#X connect 1 0 38 0;
#X connect 2 0 15 1;
#X connect 2 0 40 0;
#X connect 3 0 16 1;
#X connect 3 0 42 0;
#X connect 4 0 53 0;
#X connect 5 0 48 0;
#X connect 6 0 5 0;
#X connect 6 1 5 1;
#X connect 7 0 4 0;
#X connect 8 0 10 0;
#X connect 8 1 10 1;
#X connect 9 0 48 0;
#X connect 10 0 48 0;
#X connect 11 0 12 0;
#X connect 11 1 12 1;
#X connect 12 0 48 0;
#X connect 13 0 17 1;
#X connect 13 0 44 0;
#X connect 14 0 6 0;
#X connect 15 0 27 0;
#X connect 16 0 8 0;
#X connect 17 0 11 0;
#X connect 18 0 14 0;
#X connect 18 0 28 0;
#X connect 19 0 29 0;
#X connect 19 0 15 0;
#X connect 20 0 30 0;
#X connect 20 0 16 0;
#X connect 21 0 31 0;
#X connect 21 0 17 0;
#X connect 22 0 23 1;
#X connect 22 0 46 0;
#X connect 23 0 25 0;
#X connect 24 0 28 0;
#X connect 24 1 29 0;
#X connect 24 2 30 0;
#X connect 24 3 31 0;
#X connect 24 4 32 0;
#X connect 25 0 26 0;
#X connect 25 1 26 1;
#X connect 26 0 48 0;
#X connect 27 0 9 0;
#X connect 27 1 9 1;
#X connect 28 0 1 0;
#X connect 29 0 2 0;
#X connect 30 0 3 0;
#X connect 31 0 13 0;
#X connect 32 0 22 0;
#X connect 33 0 32 0;
#X connect 33 0 23 0;
#X connect 35 0 36 0;
#X connect 35 1 36 1;
#X connect 36 0 48 0;
#X connect 37 0 35 0;
#X connect 38 0 39 0;
#X connect 40 0 41 0;
#X connect 42 0 43 0;
#X connect 44 0 45 0;
#X connect 46 0 47 0;
#X connect 48 0 7 0;
#X connect 48 1 7 1;
#X connect 48 2 7 2;
#X connect 51 0 49 0;
#X connect 51 0 49 1;
#X connect 52 0 37 0;
#X connect 52 1 24 0;
#X connect 53 0 51 0;
